<svg width="165" height="63" fill="none" xmlns="http://www.w3.org/2000/svg"><path fill-rule="evenodd" clip-rule="evenodd" d="M78.978 53.16c-.307-.752-.397-.423-.547-.654.432-.177.329-.018.816-.334 1.605-1.009 1.14-2.281 1.709-2.397-.055-.27-.171-.281.179-.659.549-.576.763-2.243-.066-3.308-.24-.312-.11-.54.063-1.079.247-1.038-.403-1.941-1.983-6.62-.3-.87-2.314-2.913-2.561-3.105-2.247-1.654-4.441-1.808-4.894-1.682-.932.324-1.85-.822-4.003-.466-.994.173-5.04 1.245-6.008 2.578-.79 1.084-1.687.808-2.552 1.571-.591 1.705-1.29.411-1.21 3.07.054 1.91-.761 1.424-.817 2.383-.015 1.06.444 1.223 1.06 2.726.246.601-.46.246-.303 1.587 1.013 2.335 1.733 1.63 1.493 2.139-.763 1.833 3.07 8.455 7.459 7.945.993.646 1.212.908 5.305 1.455 2.207.324 6.646-3.074 6.86-5.15zm-2.132-.005c.425-.057 3.286-1.697-.59 1.295-.289.118-.734.125-1.125-.008.59-1.295 1.317-.48 1.729-1.117-.233-.022-1.29.41-.72-.115.24-.098.494-.027.706-.055zm-5.233 2.553c-.542.046-1.885-.632-1.974-.713.103-.16 1.193.038 1.94.083.466.043.322.102.192.331-.192.079-.165.01-.158.299zm-9.294-10.646c.672.134-.39-.133-.006-.7 1.391.25 1 .527.582.874-.87-.346.212-.029-.33.427-.28-.002-.274-.531-.246-.601zm-1.4.69c-.205-.091-.424-.353-.198-.621.117.01.09.08.199.621zm1.572-1.638c-.096.039-.164.008-.041-.1-.075-.321.069-.38.206-.319 1.09.197 1.296.288 1.145.467-.302.358-.165.419-1.214-.088-.158-.11-.089-.08-.096.04zm-1.85-.413c.92-1.313.872-1.703.899-1.773.822.366.11.131-.488 1.546-.22.559-.22.968-.303 1.178-.117.398-.157-.521-.109-.95zm-.282.408c-.267-.241-.13-.59.048-.43-.007.12.007.29-.048.43zm.24-.918c.042-.31.241-.508.413-.637.006.29-.049.43-.412.637zm.88-1.003c-.07-.03-.07-.03-.021-.05l.02.05zm1.693-.928c.007.7-1.07.263-.863-.056.377-.037.562.004.863.056zm-.664-.254c.102-.16-.09-.08 1.165-.302-.192.488-.658.445-1.166.302zm1.062.267c.96.016.569.293-.158.298-.082-.2.014-.24.158-.298zm1.698 2.23c-.11-.13-.034-.22.124-.52 1.967 1.243 1.096.898-.124.52zm2.77-.901c.22.261.179.161.172.281-.26.048-.254-.072-.171-.281zm1.679 2.18c.465.863-2.337-.915-.493-.793.15.231.321.512.493.793zm-.11-.54c.11.13.09.08.082.2-.116-.01-.11-.13-.082-.2zm2.322 2.794c.28.411.24.31-1.008.412-.385.567 1.495-.32 1.377.49-2.18.015-1.57.408-2.87-1.809-.042-.1-.569-.703-.247-.601.809.195 1.748.571 2.371 1.135.288.292-1.145-.058-1.48.08.431.233 1.494.09 1.857.292zm-.022 1.179c-.068-.03.24-.099.61-.016.103.25-.328.018.124.3.418.473-.617.136-.405.517 1.494.5 1.46.28-1.182 3.41-.076.09-.179.249-.275.288-.246-.191-.397-.422-.554-.943.09-.33.768-.315.405-.927-.096.04-.055.14-.082.21l-.083.209c-.562-.004-.425.057-.596-.224.906-1.893 1.118-.692 1.66-.328-1.088-2.656-.91-2.495-.56-2.463 2.536.307.939-.033.939-.033zm1.989.063c.164-.009.541-.046.39.133-.123.109-.295.237-.39-.133zm-.193.488c-.192.079-.212.029-.157-.11.068.03.089.08.157.11zm.748.045c-.048.02-.213.029-.158-.11.089.08.301.051.157.11zm1.669 3.94c.068.44-.802.094-1.865.236.199.212 2.16-.065 1.281.529-.425.057-1.714.058-2.132-.005.035-.19-.123.11.927-1.432.857-.235.7.064 1.789.671zm.467-.777c.233.021.11.13.082.2-.35-.032-.46-.163-.082-.2zm-3.818-1.245c.556-.696.48-.606.762-.605 1.048.917-.734.535-.817.744-.048.02.09.08.185.042 1.125.007 1.035-.073.549.243.41.183.494-.436 1.178.278-.062.26-.233.388-.404.517-1.717 3.336-1.963 2.325-3.073 1.258-.493-.383-.13-.18 1.62-2.477zm3.449-.477c-.13-.18-.26-.361-.096-.37.57-.116.816.485.096.37zm-1.38 1.56c-.027.07-.075.09-.212.029.124-.11.124-.11.213-.029zm-1.585 1.878c2.462-.013 2.38-.214 1.501.79-2.537.103-1.885-.223-1.5-.79zm2.971-2.738c.35.032.309-.068.802.725-.213.029-.768-.505-.802-.725zm.425.762c-.583.356-1.18-.277-1.344-.678.398-.397.83.245 1.344.678zm-.712-1.054c.062-.26.432-.177.438.113-.164.009-.329.018-.438-.113zM77 50.108c-.781-.675-.672-.544.385-.977 1.137.587.883.925-.385.977zm-1.18-.278c.44.523.09.49-.123.519-.493-.383-.665-.664.124-.519zm-.548.576c-.282.408-.768-.095-1-.526.513.023.726-.006 1 .526zm.337-.957c-.734.125-.378.447-1.152-.348 1.063-.142 1.097.078 1.152.348zm.24-.099c-.028.07-.048.02 0 0zm-1.372.211c-.377.447-.678-.424-.699-.474.302.052.213-.029.364.202.068.03.253.072.335.272zm-8.419.113c-.767-.505 1.399-.28 1.42-.23.02.05.095.37.04.51-.027.07.267.242-.247.218-1.419-.18-1.213-.088-1.316-.339.062-.259.165-.008.425-.057-.089-.08-.226-.141-.322-.102zm-2.31.244c.157-.298.857-1.053 1.152-1.29.09.08.014.17.007.289.143.76.513.843-.632 1.605-.295-.172-.336-.273-.528-.604zm.307.752c-.274.288-.206.319-.665-.254.008-.12.035-.19.179-.249.206.091.288.292.486.503zm-.808-.605c-.226-.142-.068-.44.13-.229-.007.12-.034.19-.13.229zm5.555-2.451c-2.317.364-1.13-.297-.075-.32.09.08.13.18.075.32zm.398-.397c.165-.009.254.072.171.28-.185-.04-.226-.14-.17-.28zm-.227.678c.22.261.343.562-.055.55-1.049-.098-1.968-.014-1.954-.254.055-.14 1.94-.327 2.01-.296zm1.706 1.7c-.055.14-.364.618-.466.367-.13-.18-.78-1.904-.883-2.155.343-.257.076-.499 1.35 1.788zm-4.195-.797c.473-.077.967-.104 1.289-.002.013.17-.11.28-.165.419-2.591-.168-1.234-.138-1.124-.417zm-.837.284c-.061-.15-.027-.34.22-.149.013.17-.083.21-.22.149zm2.282 1.054c-.315-.221-.458-.982.46-.656-.076.5-.59.886-.46.657zm-.206.319c.103.25-.103.569-.302.767-.987.054-1.24-.428-1.083-.726-.493-.384 1.015-.123 1.385-.041zm.137.47c.206.092.685.715-.185.37-.014-.17.11-.28.185-.37zm.22-.148c-.185-.45.473-.077.768-.315-.281-.411-.926.204-.178-.98 1.015-.123.501-.147-.047-.39-.172.129-.617.136-.734.125-.13-.59.474-.487 1.365-.5.11.13-.014-.17.746 1.683-.118.81-.474.077-.906.254-.343.258-.034.6.096.78-.035.19-.193.489-.419.347.46-.656-.11.28-.691-1.004zm-1.053-3.665c-.192.489-.137.35-.384.567-.22.559-.364.208-.522.507-.055.14.425.352-.35.377-.589-.754-.445-.403.186-1.188.989-1.283 1.53-1.739 1.778-1.957 1.541 1.3-.33.837-.708 1.694zm.42-2.395c.185.45.837.125-3.878 5.04-.376-.372.124-.109-.156-1.34-.212-.79.48-.197.74-.245.063-1.079-1.399.69 1.374-2.669.33-.427.425.353.939.376-.678-.834-1.083-.317.344-1.896.377-.038.514.433.637.734zm-5.228 4.891c-.02-.05 0 0 0 0 .048-.02.048-.02 0 0zm-.308-.341c-.13-.181-.13-.181-.144-.351.15.23.15.23.144.35zm-.274-.532c-.048.02-.048.02 0 0 0 0-.02-.05 0 0zm2.347-2.483l-.048.02c-1.282-.528-1.124-.417-.918-.736.28.002.233.022.171-.129.385-.976.933-.323 1.516-.27.185-.368-1.35-.148-.459-.982.274.122-.013-.17 1.185.978-.014.24-.864 1.173-1.016 1.352-.493-.383-.424-.353-.431-.233zm1.133-2.57c1.741.281 1.145.467.575.993.267.651-.85-.296-.616-.274.04-.31-.384-.253-.651-.494.041-.31.233.021.692-.225zm3.044.04c-.253-.481-.082-.61.18-.658.376-.038 1.417.999-.18.658zm-4.38-.02c-.234-.021-.672-.134-1.063-.266.09-.33.81-.215 1.062.267zm-2.615 2.651c-.007.53.212.791-.343-.152 0 0-.02-.05.007-.12.137.061.199.211.336.272zm1.371-.21c.234-.389.85.295 1.755.451-.185.369-.48.607-.707.875-.85-.705-.699-.474-1.048-1.326zm.856 1.405c-.082.209-.35-.033-.356-.323.205.092.294.172.356.323zm-1.47 2.298c.234.022.282.002.898.686-.597 1.415-.87.474-1.876-1.982-.363-1.021.986 1.176.979 1.296zm1.145.877c.33-.017.507.144.541.364-.425.467-1.66 1.148-.541-.364zm1.138.178c.664.664.288.292.123-.11.103-.158.673-.684.838-.693.088.08.006-.12.533.893-.089.33-.13.229.178.57-.124.52-.11.28-.165.83-.322-.103-.247-.192-.316.187-.123.11-.096.04-1.349-1.378-.13-.181-.007-.29.158-.3zm2.028.983c.275-.288.186-.368.337-.547.864.055.884.105.266 1.06-.233-.02-.397-.012-.63-.033-.151-.231-.096-.37.027-.48zm1.262-.341c.864.056 1.584.17 1.055.796-.254.338-.11.28-1.364.091-.302-.052.124-.519.31-.887zm-.885 1.123c-.076.09-.158.299-.398-.013.124-.109.288-.118.398.013zm1.432.35c-.377.447-.309.887-1.337.02-.026-.75 1.687-.398 1.337-.02zm-1.618.838c.657.374.568.294.534.483-.555-.123-.76-.624-.534-.483zm1.44-.18c.157-.299.995-1.402 1.118-1.512.295.172.268.242.124-.109.206-.728.35.033.623.564.212.381.541.773.157.52-.452-.282.083.201.144.352-.103.159-.267-.242-.082.209-.11.279-.261.458-.46.657-.39-.133-1.556-.65-1.624-.681zm1.569.82c-.158.299-.48.197-.823.044-.103-.25.213-.438.823-.044zm-1.18.132c.987.356.85.296.795.435-.767-.095-1.117-.537-.795-.435zm1.557-.17c.29-1.347.953-.273 1.624.271.405.303-2.488.084-1.624-.27zm.205.911c-.117-.01-.864-.055-.686-.304.44.113.665.254.686.304zm1.454-.83c.418.063.816.076.658.375-.281-.002-.48-.213-.658-.374zm1.213.089c.24-.098.096-.04 1.776.092.04.51-1.385.04-1.776-.092zm3.731-1.704c.076-.09.144-.059.213-.028-.055.14-.123.109-.212.028zm2.079-1.085c-.282.817-1.632.668-1.447.3.185.041.37.082.377-.038-.123-.71.213-.438.186-.778-.014-.17-.364.208-.46.247-.534-.483-.267-.651-.191-.741-1.378-.08.029-1.299 1.535 1.01zm.954-1.093c-.035.19-.488.726-.707.874-.39-.132-1.686-1.24-1.281-1.347 1.193-.372.775-.435 1.988.473zm.138-.759c.308-.068.033.63-.145.469-1.226-1.487.863 1.285-1.815-1.421.11-.28.452-.127.713-.585-.246-.192-.082-.2-.013-.17 1.411.709 1.658.9 1.26 1.707zm-.34-3.84c-.26.049-.281-.002-.26.049-.069-.03.26.361.308.341-.02-.05-.11-.13-.034-.22.28.002.17.281.034.22-.26.049.671.135.698.885-.22.148-.658-.375-.836-.126.918.326 1.117.537.657 1.604-.549-.244-1.062-.677-1.638-.851-.124.109.054.27-.069.38a2.42 2.42 0 01-.597.185c-.027.48-.335-.272-.747-.045.15.64.164.401-.487.726-.645-.204.26-.458-1.748-.571.02.05-.02-.05-.185-.041.165-.419.83-.165 1.886-.597 2.647-1.202 2.106-1.155 2.01-1.116-.981.343-2.49 1.312-3.58 1.115-1.275-.238-1.337.021-1.638-.44.055-.14.075-.09 1.151-.063.844.006 1.111-.162-1.44-.23-.246-.19-.355-.322-.095-.37 2.359.146 2.105.074 2.07.264.021.05.433-.177.131-.229-3.66-.724-1.4.69-4.373-1.369.055-.14-.226-.141 3.38.723.322.102.301.052.5-.147.57-.116.206-.728.529-1.035.445-.008.857.175 1.275.238.103-.16-.158-.111-1.193-.448-.061-.15.035-.6.234-.798.233.022.768.095.946.256-.227.269-.59.066-.604.306.576.174 1.14-.642 1.845.123.164.4.273.531.033.63-1.056.432-4.643 1.667-2.86 1.23 2.736-.712 4.136-1.812 3.648-.676.185.041.179-.248.206-.318.35.032 1.007 1.226.014-.24.227-.678.74.165.83.655zM77.09 48.96c-.117-.01-.137-.06-.082-.2l.082.2zm.388-4.664c.863.875.43 1.462.212.79-.178-.57-.946-.666-.212-.79zm.315-.188c.261-.048.151-.18.692.594.24 1.131-.65-.494-.692-.594zm1.455-.83c.671.544-.022 1.589.018 2.099-.137-.06-1.02-1.396-1.02-1.396-.13-.18.391-.277.659-.445.226-.269.15-.18.343-.258zm-2.545 1.042c-1.535-.19-1.453-.4-.89-.805.329-.018 1.096.077 1.494.5-.124.109.068.03-.604.305zm.94-.443c-.569-.294-.706-.764-.39-.542.719.524.41.592.39.542zm1.427-1.17c-.076.09-.268.168-.082-.2.068.03.089.08.082.2zm-1.46.13c.91.446.671.135.801.316-.22.558.316.222-.364.617-1.103-.777-.842-.825-.438-.933zm-.96.394l.081.2c-.795-.025-.616-.274-.082-.2zm.439-.707c.205.091.034.22-.179.249-1.624-.68-2.754-1.798.179-.249zm-1.105.452c-.17-.28.076-.499.31-.068-.056.14-.152.18-.31.068zm-3.162-5.668c.048-.02.926-.203 1.138-.232.658.374.693.185.151-.179.33-.427.727-.005.823-.044-.24-.311-.267-.242.192-.488 1.208-.612 1.07.966 2.993 3.338.103.66.835 2.174.56 2.052-2.39-1.185-.856-.585-.869-1.165-.411-.182-.164.009-.836.284-1.028-.456-2.433-1.285-2.934-.32-.055.14-.254.339-.44.298-.02-.05.447-.827.22-.559-.706.875-1.598 1.299-1.9 1.657.905-.254 1.015-.943 1.468-.66-.206.318-.79.674-1.078.792-1.392.57-.576.646 1.304-.65.116.01.438.112.465.452.398.013.885.106 1.343 1.088-.144.47-.87.065-1.159.592.755-.484 1.11.248.116.42-.137.35.09.081.137.062.206.091.192-.079.027.75-.15.178.096-.04-2.496.203.227.14 2.119-.166 2.455.106.082.2.163.81-.035 1.01-1.207-.619-1.09-.608-2.036-.864-3.557-.883-1.337.43-2.577-1.227.09-.329 1.94.083 3.017-.3.933-.323-1.576-.29-.726-.404 1.207-.202 1.131-.112 1.495-.32.13-.638-2.537.513.631-.785.048-.02.103-.159.007-.12-.919.084-.15.18-.96.394-1.118.282-2.25.394-2.25.394-.212.029-.198.199-.034.19 4.046-.253-1.186.252-1.213.322.102.25 1.638.03 2.001.233.309-.068-.144.059-.212.028-2.345.025-1.612.31-3.276-1.29-.267-.243-.322-.513-.164-.812.22-.148 2.042.744 2.598.867.062-.259-.74-.574-2.124-1.763.433-.996.576-.645 2.488.327.069.03.672.134-1.877-1.162.048-.43.014-.65-.473-.743-.068-.03-.144.06-.583.356-.514-.023-.418-.063-.569.116.184.86-.316.598-.591 1.705-.351 1.607.588 1.983-1.523.8-.075-.321.947-.564.043-1.54-.09-.08-.178-.16-.322-.102-.2.199 0 .41-.015.65-.617.545-.466.367-.61.835.04.51.396 1.242.08 1.02-1.13-.707-1.335-.798-.746-.864-.178-.161-.795-.026-.801-.316.171-.128 2.722-.47.747-.774-.185-.041-.137-.06.104-.569.802-.504-.569-.294-.549-.243 0 0 .391.132.206.09-.343.258-.521.097-.569.117.137-.349.521-.096.274-.288-.013-.17.776-.844 1.578-.939-.664-.664-1.928 1.726-2.544.633.124-.11.508-.267.645-.206.61-.425.507-.266.364-.617-.289.118-.186-.041-.062-.15.171.28.213-.029.172-.13-.042-.1-.419-.062-.295-.171.178-.249 3.093-1.208 2.345-.844-1.083.503-.816.335-.987.463.061.15.137.061.541-.046.789-.264-.185.369-.171.538 3.43-2.575 2.668-1.56 3.347-1.956.52.314.63.035-1.098 1.152-1.756 1.188-1.283 1.11-1.256 1.041 2.436-1.583 2.93-2.019 2.346-1.253.123.3.178.16.418.063.446-.008 3.585.813 3.688 1.474.06.56.362.611.232.84.37.083.124-.928.125-1.338 3.648-1.085 2.723-1.7 3.702-.814.713.644.206.5.13.59-.453.537-3.505 1.436-3.47 1.656.301.052.651-.326.843.005.048-.02.014-.24.398-.397 3.36-1.376 2.997-1.169 1.661-2.377-.041-.1.172-.538-.22-.261-.116-.011-.904-.566-.726-.405-.274-.122.795.435.5.673-.171.129-2.853 1.52-2.942 1.03-.068-.44-.287-.702-.355-1.142.15-.179.439.113.672.134-.103-.25-.357-.322-.843-.415-1.049-.917-1.035-.747.123-.519 1.18.278 1.29-.001 1.392.25-.26.457-.61.425-.789.673zm-.43 5.794l.096-.04c-.007.12-.076.09-.096.04zm-3.228-1.72c.082.2 2.008 1.342-.596.185-.137-.06-.322-.102-.48-.213.268-.988.686-.105 1.076.027zm-1.431-1.58c.027-.07-.02-.05 0 0zm-5.863.88c.007-.12.055-.139.083-.209.26-.048.685.305-.083.21zm.008-.53c-.021-.05-.021-.05 0 0zm.336-.547c.041-.309.391-.277.693-.225-.22.149-.44.297-.693.226zm-.192.08c-.041-.101-.069-.031.055-.14.014.17-.007.12-.055.14zM67.18 36.4c-.706.055-2.27 1.164-2.482.783.15-.18 3.539-1.625 4.026-1.532.11.13.569.293.26.361-.953.274-.151.18-.062.26-.515.386-.87.064-1.742.128zm-.26.458c.027-.07.075-.09.144-.059-.028.07-.076.09-.144.059zm-3.045.779a.153.153 0 01.192-.079c-.076.09-.124.11-.192.079zm-1.248.511c-.048.02-.048.02 0 0-.048.02-.069-.03 0 0zm.198.621c.164.401-1.427.35-.322-.102.137.06.226.142.322.102zm-1.166.712a2.581 2.581 0 01-.288-.292c.274-.288 1.22-.032.288.292zm7.914-3.125c-.295.238-.24.099-.253-.072.075-.089.096-.039.404-.107.014.17-.103.16-.15.18zm-.665.156c.144-.06.24-.099.281.002-.123.109-.123.109-.281-.002zm1.515-.27c-.048.02-.096.04 0 0zm-.645 1.025c.041.1.013.58-.172.538-.905-.155-.74-.164-.83-.245.262-.458.59-.476 1.002-.293zm.46-.247c.843.006 1.165.108 1.33.509.622 1.383.814 1.305-1.592.359.268-.578.206-.319.262-.868zm3.874-.533c.226.141-.035.19-.343.257.123-.109.22-.148.343-.257zm1.22-.442c-.96.803-.535.336-3.4-.363-1.042-.216.638-.495 1.933.203-.143-.35-.657-.374-1.836-.652-1.159-.227 1.68-.688 3.303.812zm-4.531-.25c.432.233.425-.057.912.036 3.105.6 1.967.833 1.528.72-2.234-.665-2.77-.329-3.585-.814.267-.168.802-.094 1.145.058zm-1.248.101c-.192.079-.24.099-.418-.062.171-.13.308-.068.418.062zm.659-.445c-1.008.003-.892.014-.912-.036.33-.428 1.357.03.912.036zm-6.041.719c-1.145.352 4.41-2.919 5.787-1.2-.15.178-.541.046-.905.253-.007.12-.007.53-.117.4-.24-.312-.576-.174-1.124-.008-1.05.313.672-.685-3.641.555zm-.488.726c.048-.02.844-.404 1.249-.511-.192-.331 1.94-.737 2.119-.575-.556.695-6.502 2.604-3.367 1.086zm-1.735.828c-.068-.03-.02-.05 0 0-.02-.05.048-.02 0 0zm.63.034c-.274.288-.589.066-.3-.052.095-.04.191-.079.3.052zm1.476-1.19c-.172.13.171-.128-1.646.91-1.248.1 1.043-1.013 1.646-.91zm-3.6 1.476c.651-.326 1.255-.632 1.227-.152-2.189 1.774-1.283.291-1.228.152zm-.955 1.502c-.02-.05.007-.12-.034-.22.164-.009.315.222.034.22zm1.001-.293c-.15-.23-.24-.311-.068-.44.92-.494.727-.415 1.097-.332 1.104-.453.94-.034.123.3-1.247-.308-.027.48-1.152.472zm6.228-2.316c-.048.02-2.661 1.031-2.661 1.031-1.338.43 2.208-1.314 2.66-1.031zm-7.298 2.989c.179-.25.508-.267.555.123-.672.276-.521.506-.555-.123zm1.371-.211c-.13-.18-.308-.342.31-.478.794.435.04.92-.31.478zm-.864 1.173c-.453-.282-.274-.531-.061-.56.72.115.417.473.06.56zm1.371-.62c.44.113.583.054.35.442a.944.944 0 01-.35-.442zm-.446.826c.486.503.555.534.472.743-.055.14-.693 1.045-.789.674-.239-1.13-1.006-1.635.317-1.417zM60.353 43c-.158.299-.24.508-.384.157-.89-2.035.057-2.598.384-.157zm-1.206-.618c-.033-1.04.418.473.39.542-.068-.03-.027.07-.39-.542zm.15 1.46c-.301-1.281-.068-1.67.164-.418.328 1.62.13 1.82-.164.418zm.535-.336c.636 1.553.752 1.564.224 2.19-.13-.59-.498-2.721-.224-2.19zm.505 2.192c.082-.21.034-.19.233.022-.117-.011-.164.008-.233-.022zm-.13.23c.047-.02.096-.04.136.06 1.081 3.185-.13.229-.137-.06zm5.202 8.869c-2.11-1.594-1.405-.83-1.754-1.271-.254.338.506 1.372.102 1.07-.877-.636-1.857-1.522-2.807-4.526.693-.226.719 1.343-1.033-2.386-.185-.451-.287-1.111.035-1.419.2.211.192.331.623 1.383.137.471-.316 1.008.157.931.09.08-.014-.17.623 1.383.533 1.303 2.759 4.136 3.692 3.813.137-.349-.09-.08-.137-.061-.425.057-2.385-1.715-1.994-1.992.782-.555.782-.555.96-.394 1.5 1.61 1.966 2.063 1.808 2.361.062.15.446-.007.288.292-.357.907-.364 1.027-.563.816zm.769-.725c.068.03-.041-.1.72.525-.042.31-.31.477-.4.807-1.124-.008-.684-.715-.32-1.332zm2.535 1.946c-2.447-.636-2.07-.673-1.686-1.24.302.052.823.365 1.72.64.069.031.041.101.076.321.034.22.143.35-.11.28zm2.53.427c-2.18-.395-1.859-.292-1.996-.353.055-.14.055-.14-.178-.161-.637-.734 1.125.007 2.317.045-.068.38-.027.48-.144.469zm.589-.066c-.165.009-.514-.023-.192-.331.357-.088.973.186 1.09-.213-.178-.16-.39-.132-.575-.173l.061.15c-.144.059-.658.035-.198-.211-.083-.2.02-.36.185-.369.302.052.699.475 1.343.27.398-.398-.123.108-.555-.125.035-.19.233.022.295-.237-1.357-.03-1.33-.51.748.045-.378.447-.879 1.003-1.167 1.121.116.42-1.241.391-1.035.073zm1.625-.139c.007-.12-.144.059.974-1.043.364-.207.535.074.59-.475 1.124.007.94-.034 1.001.116-.7.755-1.9 1.247-2.565 1.402zm-2.46-16.546c-.103-.25-.055-.68-.788-.965-1.076-.437-2.907-.8-3.64.145 2.323.336-.069-.85 4.023.927.287.292.15.23.575.174.035-.19.103-.16-.17-.281zm-.665-.255c-2.262-1.004-.302-.461-.076-.32.295.172.35.442.076.32zm-6.42 2.805c-.02-.05-.02-.05 0 0zm0 0a.544.544 0 01.26-.048c-.144.06-.144.06-.26.048zm10.303 1.339c-.048.02-.048.02 0 0zm-.144.059l.144-.059c-.075.09-.075.09-.144.059zm-9.278-4.86c.047-.02 0 0 0 0zm-.104.16c.028-.07.076-.09.076-.09s-.048.02-.076.09zm-1.755.777c-.062.26-.035.19 0 0zm-.186.369s.048-.02 0 0zm11.275 3.574c.048-.02.048-.02 0 0-.02-.05-.02-.05 0 0zm-9.334-4.72c.028-.07 0 0 0 0zm7.262 6.095c.02.05.02.05 0 0-.048.02-.048.02 0 0zm5.414-4.44c-.048.019-.048.019 0 0zm-4.557-3.05s.02.05 0 0zm-2.785 9.216s.048-.02 0 0c0 0-.068-.03 0 0zm-.08 6.645c.02.05-.206-.091-.138-.06.02.05.069.03.137.06zm-.686-1.124c.048-.02.048-.02 0 0zm5.066.734c-.068-.03-.068-.03 0 0zm5.262-3.033c-.028.07-.028.07 0 0zm-13.294.53c.068.03.068.03 0 0zm3.52 3.941c.02.05.02.05 0 0zm-3.198-4.658c-.048.02-.116-.01-.116-.01.048-.02.116.01.116.01zm.323.102c-.049.02-.117-.01-.117-.01.048-.02.048-.02.117.01zm0 0s.02.05.301.052c.02.05-.164.009-.301-.052zm-.302-.052l.137.06c-.02-.05 0 0-.137-.06zm-.254-.072s.274.122 0 0zm.077-.909c.047-.02.116.011.164-.008-.075.089-.123.109-.164.008zm.184.042c-.047.02-.047.02 0 0 .048-.02.048-.02 0 0zm93.648-30.419c-.227-.554-.293-.311-.403-.481.318-.13.242-.014.6-.247 1.182-.742.84-1.679 1.259-1.764-.041-.199-.126-.207.131-.485.404-.424.562-1.651-.048-2.435-.177-.23-.081-.398.046-.794.182-.764-.296-1.43-1.459-4.873-.222-.642-1.704-2.145-1.886-2.286-1.654-1.218-3.269-1.332-3.602-1.238-.687.238-1.362-.606-2.947-.344-.732.127-3.711.917-4.423 1.898-.581.798-1.242.595-1.879 1.157-.435 1.255-.949.302-.89 2.26.039 1.405-.561 1.048-.602 1.754-.011.78.327.9.78 2.006.182.443-.338.182-.223 1.168.746 1.72 1.276 1.201 1.099 1.575-.561 1.35 2.261 6.224 5.491 5.849.732.476.893.668 3.906 1.071 1.624.24 4.892-2.262 5.05-3.791zm-1.57-.004c.313-.042 2.419-1.249-.435.954-.212.086-.54.092-.827-.006.435-.953.969-.354 1.272-.823-.171-.015-.949.303-.53-.084.177-.073.364-.02.52-.04zm-3.852 1.88c-.399.034-1.388-.466-1.453-.525.075-.117.878.028 1.428.061.343.032.237.075.141.244-.141.058-.121.006-.116.22zm-6.842-7.837c.494.098-.288-.098-.005-.515 1.025.183.737.387.429.643-.641-.255.156-.021-.243.314-.207-.001-.201-.391-.181-.442zm-1.03.508c-.151-.068-.313-.26-.146-.458.086.008.065.06.146.458zm1.157-1.207c-.071.03-.121.007-.031-.073-.055-.236.051-.28.152-.235.802.146.954.213.843.344-.223.264-.122.309-.894-.064-.116-.082-.065-.06-.07.029zm-1.363-.303c.677-.966.642-1.254.663-1.305.605.269.08.096-.36 1.138-.162.41-.162.712-.223.867-.086.293-.115-.384-.08-.7zm-.207.3c-.197-.178-.095-.434.036-.316-.005.088.005.214-.036.316zm.177-.675c.031-.228.177-.374.304-.47.004.214-.036.317-.304.47zm.647-.739c-.05-.023-.05-.022-.015-.037l.015.037zm1.247-.683c.005.515-.787.193-.636-.041.278-.028.414.003.636.04zm-.489-.187c.076-.118-.066-.06.858-.223-.142.36-.485.328-.858.223zm.782.196c.706.012.419.216-.116.22-.061-.148.01-.176.116-.22zm1.25 1.642c-.081-.096-.025-.162.091-.382 1.448.915.807.66-.091.382zm2.04-.663c.161.192.131.118.126.207-.192.035-.187-.053-.126-.207zm1.235 1.604c.342.636-1.721-.673-.363-.583.111.17.237.377.363.583zm-.081-.397c.081.096.066.059.061.147-.086-.008-.081-.096-.061-.147zm1.709 2.056c.207.303.177.23-.742.304-.283.418 1.101-.235 1.014.36-1.605.012-1.156.302-2.113-1.33-.03-.074-.419-.518-.181-.443.595.143 1.286.42 1.745.835.212.215-.843-.042-1.09.06.318.17 1.1.066 1.367.215zm-.015.869c-.051-.023.176-.073.449-.012.075.184-.243.013.09.221.308.348-.454.1-.298.38 1.1.368 1.075.207-.87 2.51-.056.067-.131.184-.202.213-.182-.141-.292-.311-.408-.694.066-.243.565-.232.298-.683-.071.03-.04.103-.061.154l-.06.154c-.414-.002-.313.043-.439-.164.667-1.394.823-.51 1.221-.242-.8-1.955-.669-1.837-.412-1.813 1.867.226.692-.024.692-.024zm1.463.046c.121-.006.399-.034.288.098-.091.08-.217.175-.288-.098zm-.141.36c-.142.057-.157.02-.116-.082.05.022.065.06.116.082zm.55.033c-.036.014-.157.02-.116-.082.065.06.222.038.116.082zm1.229 2.9c.05.323-.591.069-1.373.174.146.155 1.589-.048.943.389-.313.042-1.262.043-1.57-.003.026-.14-.09.08.683-1.055.631-.172.514.047 1.317.494zm.343-.572c.172.016.081.096.061.147-.258-.023-.338-.12-.061-.147zm-2.81-.917c.409-.512.354-.446.56-.445.772.675-.54.394-.601.548-.035.014.066.06.137.03.827.006.762-.053.403.18.303.134.364-.322.868.204-.045.191-.172.286-.298.38-1.264 2.457-1.445 1.712-2.262.927-.363-.282-.096-.133 1.193-1.824zm2.539-.35c-.096-.134-.192-.267-.071-.273.419-.086.601.357.071.273zm-1.016 1.148c-.02.051-.055.066-.156.02.091-.08.091-.08.156-.02zm-1.167 1.382c1.812-.01 1.752-.157 1.105.582-1.867.075-1.388-.164-1.105-.582zm2.187-2.015c.258.023.228-.05.59.533-.156.021-.565-.371-.59-.533zm.313.56c-.429.263-.868-.204-.989-.499.293-.292.611.181.989.5zm-.524-.775c.045-.191.318-.13.323.083-.122.006-.243.013-.323-.083zm.782-.407c-.575-.497-.494-.4.284-.719.837.432.65.681-.284.72zm-.868-.204c.323.384.066.36-.091.382-.363-.282-.489-.49.091-.382zm-.404.424c-.207.3-.565-.07-.736-.388.378.017.535-.004.736.388zm.248-.705c-.54.092-.278.33-.848-.256.783-.105.808.057.848.256zm.177-.072c-.02.051-.035.014 0 0zm-1.01.155c-.278.329-.499-.313-.514-.35.222.039.156-.02.267.15.051.022.187.052.247.2zm-6.197.083c-.565-.372 1.029-.206 1.044-.17.016.037.071.273.03.376-.02.051.197.178-.181.16-1.045-.132-.894-.064-.969-.249.045-.19.121-.006.313-.042-.066-.06-.167-.104-.237-.075zm-1.701.18c.116-.22.631-.776.848-.95.066.058.01.124.005.213.106.56.378.62-.465 1.18-.217-.126-.247-.2-.388-.443zm.226.553c-.202.212-.151.235-.489-.187.005-.088.025-.14.131-.183.152.067.212.215.358.37zm-.595-.445c-.166-.104-.05-.324.096-.169-.005.088-.025.14-.096.169zm4.09-1.805c-1.706.268-.833-.219-.056-.236.066.06.096.134.056.236zm.293-.292c.121-.007.186.053.126.207-.137-.03-.167-.104-.126-.207zm-.167.5c.161.192.252.413-.041.404-.772-.072-1.449-.01-1.438-.187.04-.102 1.428-.24 1.479-.218zm1.255 1.251c-.04.103-.268.454-.343.27-.096-.133-.574-1.402-.65-1.586.253-.19.056-.368.993 1.316zm-3.088-.587c.348-.057.712-.076.949-.001.01.125-.081.205-.122.308-1.907-.123-.908-.102-.827-.307zm-.616.209c-.045-.11-.02-.25.162-.11.01.126-.061.155-.162.11zm1.68.776c-.232-.163-.337-.723.339-.483-.056.367-.435.652-.339.483zm-.152.235c.076.184-.076.419-.222.565-.727.039-.913-.315-.797-.535-.363-.282.747-.091 1.019-.03zm.101.346c.151.067.504.526-.136.271-.01-.125.081-.205.136-.27zm.162-.11c-.136-.331.348-.056.565-.23-.207-.304-.681.15-.13-.723.747-.09.368-.107-.035-.287-.127.095-.455.1-.541.092-.095-.434.349-.358 1.005-.368.081.096-.01-.125.549 1.24-.086.595-.348.056-.666.186-.253.19-.026.442.07.575-.025.14-.142.36-.308.255.338-.483-.081.205-.509-.74zm-.775-2.697c-.142.36-.101.257-.283.418-.162.41-.268.152-.384.372-.041.103.313.26-.258.278-.433-.555-.327-.297.137-.875.728-.944 1.127-1.28 1.309-1.44 1.135.957-.243.616-.521 1.247zm.309-1.764c.136.332.616.093-2.855 3.711-.277-.274.091-.08-.115-.986-.156-.583.354-.145.545-.18.047-.795-1.03.507 1.012-1.966.242-.314.312.26.691.277-.499-.614-.797-.233.253-1.396.278-.027.379.32.469.54zm-3.849 3.602c-.015-.037 0 0 0 0 .036-.015.036-.015 0 0zm-.227-.252c-.095-.133-.095-.133-.105-.258.111.17.111.17.105.258zm-.201-.392c-.035.015-.035.015 0 0 0 0-.015-.036 0 0zm1.728-1.827l-.036.014c-.943-.389-.827-.307-.676-.541.207.001.172.016.127-.095.283-.72.686-.238 1.115-.198.137-.272-.994-.11-.337-.724.201.09-.01-.125.872.72-.01.176-.636.864-.748.995-.363-.282-.312-.26-.317-.171zm.834-1.893c1.282.208.843.345.423.732.197.48-.625-.218-.454-.202.031-.228-.282-.186-.479-.364.031-.228.172.016.51-.166zm2.241.03c-.187-.354-.06-.449.131-.484.278-.028 1.045.735-.131.484zm-3.225-.014a4.178 4.178 0 01-.782-.197c.066-.242.595-.157.782.197zm-1.925 1.951c-.005.39.156.583-.252-.112 0 0-.015-.037.005-.088.101.045.146.155.247.2zm1.01-.155c.172-.286.625.218 1.291.333-.136.27-.353.446-.52.643-.625-.519-.514-.349-.771-.976zm.63 1.034c-.061.154-.258-.023-.263-.237.152.067.217.127.263.237zm-1.082 1.693c.172.016.207.001.661.504-.44 1.042-.641.35-1.382-1.458-.267-.752.726.865.721.954zm.842.645c.243-.013.374.106.399.268-.313.344-1.222.845-.399-.268zm.838.131c.489.489.212.215.091-.08.076-.117.495-.505.616-.511.066.06.005-.088.393.657-.066.243-.096.169.131.42-.091.383-.081.206-.122.61-.237-.075-.181-.14-.232.139-.091.08-.071.028-.993-1.015-.096-.133-.005-.213.116-.22zm1.493.724c.202-.212.137-.272.248-.403.636.04.651.078.196.78-.171-.015-.293-.008-.464-.024-.111-.17-.071-.273.02-.353zm.929-.252c.636.042 1.166.126.777.587-.187.249-.081.205-1.004.067-.222-.038.091-.382.227-.654zm-.652.828c-.055.065-.116.22-.292-.01.091-.08.212-.087.292.01zm1.055.257c-.278.329-.228.653-.984.015-.02-.552 1.242-.293.984-.015zm-1.192.617c.485.275.419.216.394.356-.409-.091-.56-.46-.394-.356zm1.06-.133c.117-.22.733-1.032.824-1.112.217.126.197.177.091-.08.152-.537.257.023.459.414.156.281.398.57.116.384-.333-.209.06.147.105.258-.075.117-.196-.178-.06.154a1.336 1.336 0 01-.339.483c-.288-.097-1.145-.478-1.196-.5zm1.156.604c-.117.22-.354.145-.606.033-.076-.185.157-.323.606-.033zm-.869.097c.727.263.626.218.586.32-.566-.07-.823-.395-.586-.32zm1.146-.124c.213-.992.702-.202 1.196.199.298.223-1.832.061-1.196-.2zm.151.67c-.086-.008-.636-.041-.504-.224.322.083.489.187.504.224zm1.071-.61c.307.046.6.055.484.275-.207-.002-.353-.157-.484-.276zm.893.064c.176-.072.07-.029 1.307.068.03.375-1.02.03-1.307-.068zm2.746-1.254c.056-.066.106-.044.157-.021-.041.103-.091.08-.157.02zm1.53-.799c-.207.602-1.201.492-1.065.22.137.031.273.061.278-.027-.091-.523.157-.322.137-.573-.01-.125-.268.153-.339.182-.393-.356-.196-.48-.14-.545-1.015-.059.021-.957 1.129.743zm.703-.805c-.026.14-.359.535-.521.644-.287-.097-1.241-.913-.943-.992.879-.273.571-.32 1.464.348zm.101-.558c.227-.05.025.464-.106.345-.903-1.095.635.946-1.337-1.046.081-.206.333-.094.525-.43-.181-.142-.06-.148-.01-.126 1.04.522 1.221.663.928 1.257zm-.25-2.827c-.192.036-.207-.001-.192.036-.05-.023.192.266.227.251-.015-.037-.08-.096-.025-.162.207.002.126.207.025.162-.192.036.495.1.514.651-.161.11-.484-.275-.615-.092.676.24.822.395.483 1.18-.403-.18-.782-.498-1.205-.626-.091.08.04.199-.051.28a1.783 1.783 0 01-.439.136c-.021.353-.247-.2-.55-.033.11.472.12.295-.359.535-.474-.15.192-.338-1.287-.421.015.037-.015-.037-.136-.03.121-.309.611-.121 1.388-.44 1.949-.884 1.55-.85 1.48-.821-.722.252-1.833.966-2.636.82-.938-.175-.984.016-1.205-.324.04-.102.055-.066.847-.046.621.005.818-.12-1.059-.168-.182-.142-.262-.238-.071-.273 1.736.107 1.55.054 1.524.194.015.037.318-.13.096-.169-2.694-.533-1.03.509-3.219-1.007.041-.103-.166-.104 2.488.532.237.075.222.038.369-.108.419-.086.151-.536.389-.763.328-.005.631.13.938.176.076-.117-.116-.082-.877-.33-.046-.11.025-.441.172-.587.171.016.565.07.696.188-.167.198-.434.049-.444.226.423.127.838-.473 1.357.09.121.295.202.39.025.463-.778.319-3.418 1.228-2.105.906 2.014-.524 3.044-1.334 2.685-.497.136.03.131-.183.152-.235.257.024.741.903.01-.176.167-.5.545.121.61.482zm-1.586 2.072c-.086-.008-.101-.045-.061-.148l.061.148zm.285-3.434c.636.644.317 1.076.156.582-.131-.42-.696-.49-.156-.582zm.233-.139c.191-.035.111-.131.509.438.176.832-.479-.364-.509-.438zm1.07-.61c.494.4-.016 1.17.014 1.545-.101-.045-.751-1.028-.751-1.028-.096-.133.288-.204.485-.328.166-.197.111-.131.252-.19zm-1.873.767c-1.13-.14-1.07-.294-.656-.593.243-.013.808.057 1.1.368-.091.08.051.022-.444.225zm.692-.326c-.419-.217-.52-.563-.288-.4.53.386.303.437.288.4zm1.05-.862c-.055.066-.197.124-.06-.147.05.022.065.06.06.147zm-1.075.096c.671.329.495.1.59.232-.161.411.232.164-.268.455-.812-.572-.62-.608-.322-.687zm-.707.29l.061.147c-.586-.018-.454-.201-.061-.147zm.324-.52c.151.067.025.162-.132.183-1.195-.501-2.027-1.324.132-.183zm-.813.333c-.126-.207.056-.368.227-.05-.04.102-.111.131-.227.05zm-2.328-4.173c.035-.014.681-.15.838-.17.484.275.509.135.111-.132.242-.315.535-.004.606-.033-.177-.23-.197-.178.141-.36.889-.45.787.712 2.204 2.458.075.486.614 1.6.412 1.51-1.761-.872-.63-.43-.64-.857-.303-.135-.121.007-.616.21-.757-.337-1.791-.947-2.16-.236-.04.103-.187.249-.323.218-.015-.036.329-.608.162-.41-.521.643-1.177.955-1.399 1.219.666-.187.747-.694 1.08-.486-.151.234-.581.497-.793.583-1.025.42-.424.476.96-.479.085.008.323.083.343.334.292.009.651.078.988.8-.106.346-.641.048-.853.436.555-.356.817.182.085.31-.101.257.066.06.101.045.151.067.142-.058.02.552-.111.131.071-.03-1.837.15.166.103 1.559-.123 1.806.078.061.147.121.596-.026.742-.887-.454-.802-.446-1.498-.635-2.619-.65-.984.317-1.897-.903.066-.242 1.428.061 2.221-.22.687-.239-1.161-.214-.535-.298.889-.149.833-.083 1.101-.236.096-.47-1.868.378.465-.578.035-.014.075-.117.005-.088-.677.062-.111.132-.707.29-.823.207-1.656.29-1.656.29-.156.021-.146.146-.025.14 2.978-.186-.873.185-.894.236.076.185 1.207.023 1.474.172.227-.05-.106.044-.157.021-1.726.018-1.186.228-2.411-.95-.197-.178-.237-.377-.121-.597.162-.11 1.504.547 1.912.638.046-.19-.544-.423-1.563-1.298.319-.733.424-.475 1.832.24.05.023.494.1-1.382-.855.035-.316.01-.478-.348-.547-.05-.022-.106.044-.429.262-.379-.017-.308-.046-.419.086.136.633-.233.44-.435 1.255-.259 1.183.432 1.46-1.121.588-.056-.236.697-.414.031-1.132-.066-.06-.131-.12-.237-.076-.147.147 0 .302-.011.478-.454.402-.343.27-.449.615.03.376.292.915.06.751-.833-.52-.984-.588-.55-.636-.131-.119-.585-.019-.59-.232.126-.095 2.004-.347.55-.57-.136-.03-.101-.045.076-.42.591-.37-.418-.215-.403-.178 0 0 .287.097.151.067-.252.19-.383.07-.419.085.101-.257.384-.07.202-.212-.01-.125.571-.621 1.162-.69-.489-.49-1.42 1.27-1.873.465.091-.08.373-.196.474-.152.45-.313.374-.196.268-.454-.212.087-.136-.03-.045-.11.126.206.156-.022.126-.095-.03-.074-.308-.047-.217-.127.132-.183 2.277-.89 1.727-.62-.798.369-.601.245-.727.34.045.11.101.045.399-.034.58-.195-.137.271-.127.396 2.525-1.896 1.964-1.149 2.464-1.44.384.23.465.025-.808.848-1.293.874-.945.818-.924.766 1.792-1.165 2.156-1.486 1.727-.922.09.221.131.118.307.046.328-.005 2.639.599 2.715 1.085.045.412.267.45.171.62.272.06.091-.684.091-.986 2.686-.799 2.005-1.252 2.726-.6.525.475.151.37.096.435-.334.395-2.58 1.057-2.555 1.219.222.038.48-.24.621.004.035-.014.01-.177.293-.292 2.474-1.014 2.206-.861 1.223-1.75-.031-.074.126-.397-.162-.193-.085-.008-.665-.416-.534-.298-.202-.09.585.32.368.496-.127.095-2.101 1.119-2.166.758-.05-.324-.212-.517-.262-.84.111-.133.323.082.495.098-.076-.184-.263-.237-.621-.306-.771-.674-.761-.55.091-.382.868.205.949 0 1.025.184-.192.337-.45.313-.581.496zm-.317 4.265l.071-.029c-.005.088-.056.066-.071.03zm-2.376-1.267c.061.148 1.478.989-.439.137-.101-.045-.237-.075-.353-.157.197-.727.505-.077.792.02zm-1.054-1.162c.021-.051-.015-.037 0 0zm-4.315.648c.005-.088.04-.103.06-.154.192-.036.505.224-.06.154zm.005-.39c-.015-.037-.015-.037 0 0zm.248-.403c.03-.228.288-.204.51-.166-.162.11-.324.219-.51.166zm-.142.058c-.03-.074-.05-.022.041-.103.01.125-.005.089-.041.103zm3.798-2.417c-.52.04-1.672.857-1.828.576.111-.131 2.606-1.196 2.964-1.127.081.096.419.216.191.266-.701.201-.111.131-.045.19-.379.285-.641.048-1.282.095zm-.192.337c.02-.051.055-.066.106-.043-.021.051-.056.066-.106.043zm-2.242.574a.113.113 0 01.142-.058c-.056.066-.091.08-.142.058zm-.919.376c-.035.015-.035.015 0 0-.035.015-.05-.022 0 0zm.146.457c.121.295-1.05.258-.237-.075.101.045.167.104.237.075zm-.858.524a1.979 1.979 0 01-.212-.215c.202-.212.899-.023.212.215zm5.826-2.3c-.217.175-.177.072-.186-.053.055-.066.07-.029.297-.079.01.125-.075.117-.111.132zm-.489.114c.106-.043.176-.072.206.002-.09.08-.09.08-.206-.002zm1.115-.198c-.035.014-.071.029 0 0zm-.475.754c.03.074.01.427-.127.397-.666-.115-.544-.122-.61-.18.192-.338.434-.351.737-.217zm.338-.181c.621.004.858.08.979.374.458 1.019.6.96-1.171.264.197-.425.152-.234.192-.638zm2.852-.393c.167.104-.025.14-.252.19.091-.08.161-.11.252-.19zm.899-.325c-.707.591-.394.247-2.503-.267-.767-.16.469-.365 1.423.15-.106-.259-.484-.276-1.352-.48-.853-.168 1.237-.507 2.432.597zm-3.336-.184c.318.171.313-.042.671.026 2.286.442 1.448.613 1.125.53-1.645-.49-2.039-.242-2.639-.599.197-.124.591-.07.843.043zm-.919.074c-.141.058-.176.073-.307-.046.126-.095.227-.05.307.046zm.485-.327c-.742.002-.656.01-.671-.027.242-.315.999.021.671.027zm-4.447.529c-.843.259 3.247-2.149 4.261-.884-.111.132-.399.034-.667.187-.005.088-.005.39-.086.294-.176-.23-.424-.128-.827-.006-.773.23.495-.504-2.681.409zm-.359.534c.036-.014.622-.297.919-.376-.141-.244 1.429-.542 1.56-.424-.409.513-4.786 1.918-2.479.8zm-1.277.61c-.05-.023-.015-.037 0 0-.015-.037.035-.015 0 0zm.464.025c-.202.212-.434.049-.222-.038.071-.03.142-.058.222.038zm1.086-.876c-.126.095.126-.094-1.212.67-.918.074.768-.746 1.212-.67zm-2.65 1.086c.479-.24.924-.465.903-.112-1.611 1.306-.944.215-.903.112zm-.703 1.106c-.015-.037.005-.088-.025-.162.121-.006.232.164.025.162zm.737-.216c-.111-.17-.176-.229-.05-.324.677-.363.535-.305.808-.244.813-.333.691-.025.09.221-.918-.227-.02.353-.848.347zm4.584-1.705c-.035.015-1.959.76-1.959.76-.984.317 1.626-.968 1.959-.76zm-5.372 2.2c.132-.183.374-.196.409.091-.495.203-.384.373-.409-.09zm1.01-.155c-.096-.133-.227-.251.227-.351.586.32.03.677-.227.351zm-.637.864c-.333-.208-.201-.391-.045-.412.53.084.308.348.045.412zm1.01-.456c.323.083.429.04.257.325a.692.692 0 01-.257-.325zm-.329.608c.358.37.409.393.348.547-.04.102-.51.769-.581.496-.176-.832-.74-1.204.233-1.043zm-.374 1.403c-.117.22-.177.374-.283.115-.655-1.497.042-1.912.283-.115zm-.888-.455c-.025-.765.307.348.287.4-.05-.023-.02.05-.287-.4zm.11 1.075c-.221-.944-.049-1.23.121-.309.242 1.194.095 1.34-.121.309zm.394-.248c.468 1.144.554 1.152.165 1.613-.096-.435-.367-2.004-.165-1.613zm.372 1.614c.061-.154.025-.14.172.016-.086-.008-.122.006-.172-.016zm-.096.168c.035-.014.071-.028.101.045.795 2.345-.096.169-.101-.045zm3.83 6.53c-1.554-1.173-1.034-.61-1.291-.936-.187.25.372 1.01.075.788-.646-.468-1.367-1.12-2.067-3.332.51-.166.529.99-.76-1.756-.136-.332-.211-.818.026-1.045.146.156.141.244.458 1.019.101.346-.233.741.116.685.065.059-.01-.125.458 1.018.393.96 2.031 3.045 2.718 2.807.101-.257-.066-.06-.101-.045-.313.042-1.755-1.263-1.467-1.467.575-.408.575-.408.707-.29 1.104 1.185 1.447 1.519 1.33 1.739.046.11.328-.006.212.214-.263.668-.268.756-.414.6zm.566-.533c.05.022-.031-.074.529.386-.03.228-.227.351-.293.594-.828-.006-.504-.526-.236-.98zm1.866 1.432c-1.802-.468-1.524-.496-1.241-.913.222.038.605.269 1.266.472.051.022.031.074.056.236.025.162.105.258-.081.205zm1.862.314c-1.605-.29-1.368-.215-1.469-.26.041-.102.041-.102-.131-.118-.469-.54.828.005 1.706.033-.051.28-.02.353-.106.345zm.434-.048c-.121.006-.379-.018-.141-.244.262-.064.716.137.802-.157-.131-.118-.287-.097-.423-.127l.045.11c-.106.044-.485.026-.146-.155-.061-.148.015-.265.136-.271.222.038.515.349.989.198.293-.293-.091.08-.409-.092.026-.14.172.016.218-.175-1-.021-.979-.374.55.034-.278.329-.647.738-.859.825.085.31-.914.288-.762.054zm1.196-.103c.005-.088-.106.044.717-.767.268-.153.394.054.435-.35.827.005.691-.025.737.085-.516.556-1.399.918-1.889 1.032zm-1.811-12.18c-.076-.185-.04-.5-.58-.71-.792-.322-2.139-.589-2.68.107 1.711.247-.05-.626 2.962.682.212.214.111.17.424.128.025-.14.076-.118-.126-.207zm-.49-.187c-1.664-.74-.221-.34-.055-.236.217.126.257.325.055.236zm-4.725 2.064c-.015-.036-.015-.036 0 0zm0 0a.398.398 0 01.191-.035c-.106.043-.106.043-.191.035zm7.584.986c-.035.014-.035.014 0 0zm-.106.043l.106-.043c-.055.066-.055.066-.106.043zm-6.83-3.577c.035-.015 0 0 0 0zm-.076.117c.02-.051.056-.066.056-.066s-.036.015-.056.066zm-1.292.573c-.046.19-.026.14 0 0zm-.137.27s.035-.014 0 0zm8.3 2.632c.035-.015.035-.015 0 0-.015-.037-.015-.037 0 0zm-6.871-3.475c.02-.051 0 0 0 0zm5.346 4.487c.015.037.015.037 0 0-.035.015-.035.015 0 0zm3.985-3.269c-.035.015-.035.015 0 0zm-3.354-2.244s.015.037 0 0zm-2.05 6.784s.035-.015 0 0c0 0-.051-.023 0 0zm-.06 4.892c.015.037-.152-.067-.101-.045.015.037.05.022.101.045zm-.504-.828c.035-.014.035-.014 0 0zm3.729.54c-.05-.022-.05-.022 0 0zm3.873-2.232c-.02.051-.02.051 0 0zm-9.786.39c.05.023.05.023 0 0zm2.591 2.902c.015.036.015.036 0 0zm-2.354-3.43c-.035.014-.085-.008-.085-.008.035-.014.085.008.085.008zm.237.075c-.035.015-.085-.008-.085-.008.035-.014.035-.014.085.008zm0 0s.016.037.222.038c.016.037-.121.007-.222-.038zm-.222-.038l.101.045c-.015-.037 0 0-.101-.045zm-.186-.053s.202.09 0 0zm.056-.669c.035-.014.086.008.121-.007-.056.066-.091.08-.121.007zm.136.03c-.035.015-.035.015 0 0 .035-.014.035-.014 0 0zM17.96 30.39c-.218-.532-.286-.297-.394-.46.318-.13.24-.015.6-.246 1.186-.734.858-1.635 1.276-1.723-.038-.192-.123-.198.137-.47.408-.416.58-1.605-.015-2.355-.173-.22-.075-.384.056-.769.192-.741-.275-1.378-1.385-4.693-.212-.617-1.666-2.05-1.845-2.185-1.628-1.155-3.233-1.243-3.565-1.149-.686.24-1.347-.566-2.927-.292-.73.133-3.702.936-4.424 1.895-.588.78-1.243.592-1.883 1.144-.45 1.22-.948.305-.916 2.198.02 1.358-.572 1.02-.623 1.704-.02.754.314.866.75 1.93.174.426-.34.18-.238 1.133.718 1.652 1.253 1.143 1.072 1.508-.577 1.313 2.164 5.988 5.381 5.582.721.45.88.634 3.87.983 1.648.195 4.896-2.254 5.073-3.735zm-1.56.018c.311-.045 2.421-1.24-.446.928-.212.087-.538.096-.823.006.445-.928.969-.356 1.277-.813-.17-.013-.948.305-.526-.075.176-.072.361-.024.517-.046zm-3.872 1.834c-.397.039-1.373-.431-1.438-.488.077-.114.873.015 1.42.04.34.026.235.07.137.234-.127.093-.07.029-.119.214zm-6.663-7.501c.49.089-.284-.09.003-.498 1.016.164.727.365.417.616-.634-.238.156-.023-.245.308-.192.036-.181-.34-.175-.426zm-1.03.505c-.15-.063-.308-.247-.14-.44.1.042.064.056.14.44zm1.18-1.146c-.035.014-.12.008-.029-.071-.052-.228.054-.271.154-.229.796.13.946.192.833.321-.224.258-.124.3-.887-.05-.114-.078-.1-.042-.07.029zm-1.4-.296c.686-.944.64-1.257.676-1.271.598.251.079.091-.337 1.09-.167.4-.171.692-.234.841-.125.3-.13-.319-.105-.66zm-.196.328c-.193-.17-.089-.419.04-.306-.007.085-.013.17-.04.306zm.185-.656c.034-.22.181-.364.308-.457.002.206-.054.27-.308.457zm.654-.723c-.05-.02-.05-.02-.015-.035l.014.035zm1.284-.692c-.002.498-.785.198-.631-.03.276-.031.397-.04.631.03zm-.534-.195c.077-.114-.064-.056.857-.227-.096.371-.472.36-.857.227zm.775.18c.703.002.414.203-.118.214-.044-.107.062-.15.118-.215zm1.236 1.606c-.079-.092-.023-.157.096-.371 1.448.815.829.613-.096.37zm2.073-.684c.158.184.128.113.122.199-.226.051-.235-.07-.122-.199zm1.156 1.515c.333.61-1.701-.629-.352-.56.157.184.28.382.352.56zm-.074-.384c.079.092.064.056.058.142-.05-.021-.03-.071-.058-.142zm1.722 1.987c.201.29.172.22-.743.304-.287.407 1.098-.242 1.004.334-1.596.033-1.153.307-2.084-1.258-.029-.071-.409-.495-.174-.426.59.131 1.274.39 1.725.785.207.204-.838-.03-1.085.071.313.162 1.043.029 1.357.19zm-.063.854c-.05-.02.176-.072.447-.017.072.177-.241.016.087.213.301.332-.453.102-.302.372 1.09.34 1.066.184-.9 2.439-.055.064-.132.179-.203.208-.179-.134-.287-.297-.396-.666.068-.236.565-.232.305-.664-.07.029-.041.1-.062.15l-.062.15c-.412.003-.312.044-.435-.154.683-1.356.826-.504 1.218-.25-.77-1.88-.64-1.767-.385-1.748 1.854.194.723-.047.688-.033zm1.44-.01c.12-.008.397-.038.285.09-.077.115-.169.194-.285-.09zm-.096.37c-.141.058-.156.023-.114-.077.015.036.05.021.114.078zm.547.025c-.035.015-.156.023-.114-.077.064.056.205-.002.114.077zm1.183 2.788c.046.312-.588.075-1.368.187.144.149 1.582-.068.933.363-.312.045-1.255.06-1.56.019.026-.136-.092.079.692-1.03.595-.16.511.04 1.303.46zm.35-.558c.17.014.078.092.057.142-.255-.02-.348-.147-.058-.142zm-2.783-.848c.414-.5.358-.437.563-.438.759.642-.542.388-.605.538-.035.014.065.056.135.027.823-.005.76-.062.4.168.299.126.365-.315.86.186-.048.186-.175.279-.302.372-1.29 2.393-1.46 1.675-2.262.927-.372-.303-.143-.148 1.211-1.78zm2.48-.394c-.094-.128-.187-.255-.067-.263.454-.103.642.358.067.263zm-1.026 1.124c-.02.05-.056.064-.155.022.091-.079.091-.079.155-.022zm-1.164 1.388c1.802-.034 1.744-.176 1.09.547-1.858.099-1.377-.14-1.09-.547zM16 28.832c.256.02.227-.052.58.508-.156.022-.572-.387-.58-.508zm.268.553c-.43.259-.86-.187-.976-.47.28-.322.625.116.976.47zm-.51-.744c.047-.185.317-.13.32.076-.121.008-.242.016-.32-.076zm.818-.418c-.565-.473-.486-.38.292-.7.791.422.637.65-.292.7zm-.895-.172c.315.368.06.348-.096.37-.372-.302-.445-.48.096-.37zm-.408.416c-.21.293-.561-.06-.727-.365.376.011.517-.046.727.365zm.256-.685c-.538.096-.28.322-.84-.236.766-.148.788.009.84.236zm.162-.108c.036-.014.05.021 0 0-.02.05-.02.05 0 0zm-1.006.164c-.28.322-.492-.296-.507-.331.22.034.156-.023.264.14.1.042.2.084.243.19zm-6.115.185c-.556-.352 1.027-.214 1.042-.178.014.035.066.263.025.363-.021.05.193.169-.183.157-1.038-.113-.888-.05-.96-.228.047-.185.12-.008.311-.045-.114-.077-.164-.098-.235-.07zm-1.729.211c.119-.214.639-.758.857-.93.064.056.008.12.002.206.097.54.367.595-.479 1.148a1.121 1.121 0 01-.38-.424zm.253.518c-.203.207-.154.228-.484-.175.006-.085.027-.135.133-.179.15.063.208.205.351.354zm-.62-.409c-.165-.098-.046-.312.097-.164.029.071-.027.136-.098.164zm4.09-1.8c-1.7.283-.824-.2-.051-.227.064.057.093.128.052.227zm.331-.3c.12-.009.185.048.123.198-.135-.028-.165-.099-.123-.199zm-.223.463c.158.184.245.397-.046.392-.766-.059-1.44.01-1.427-.16.091-.08 1.474-.232 1.474-.232zm1.247 1.23c-.042.1-.273.442-.345.265-.094-.127-.552-1.348-.625-1.525.254-.187.096-.37.97 1.26zm-3.078-.562c.347-.06.709-.084.944-.014.008.12-.084.2-.125.3-1.881-.058-.852-.066-.819-.286zm-.565.231c-.044-.106-.017-.242.162-.108-.042.1-.113.13-.162.108zm1.66.728c-.229-.154-.326-.694.343-.471-.06.356-.49.615-.343.471zm-.19.244c.073.177-.08.406-.228.549-.724.048-.904-.293-.786-.507-.372-.303.744-.097 1.014-.042zm.131.319c.15.063.495.502-.14.264-.007-.12.049-.185.14-.264zm.148-.143c-.13-.32.347-.06.565-.232-.201-.29-.68.154-.12-.696.744-.098.368-.11-.03-.278-.128.094-.454.103-.54.097-.088-.42.352-.351 1.005-.37.079.092-.008-.121.53 1.191-.095.577-.348.06-.666.19-.254.186-.031.427.062.554-.027.136-.146.35-.31.251.308-.457-.118.215-.496-.707zm-.72-2.564c-.145.35-.104.25-.287.408-.166.4-.268.151-.387.365-.041.1.308.247-.26.273-.423-.531-.322-.283.148-.848.737-.923 1.138-1.253 1.321-1.41 1.116.91-.3.578-.535 1.212zm.282-1.73c.13.319.61.08-2.89 3.627-.271-.261.092-.08-.1-.953-.148-.56.353-.145.544-.181.057-.77-1.031.505 1.032-1.914.246-.308.308.247.684.258-.488-.587-.79-.215.27-1.353.327-.01.387.338.46.516zm-3.862 3.57c.02-.05-.014-.036 0 0 .035-.015.035-.015 0 0zm-.187-.255c-.093-.128-.093-.128-.101-.248.093.127.093.127.101.248zm-.23-.361c.02-.05.02-.05 0 0zm1.728-1.827l-.035.015c-.933-.363-.82-.286-.665-.515.206-.001.17.013.127-.093.291-.7.686-.24 1.112-.207.14-.264-.987-.093-.326-.695.2.084-.008-.12.858.684-.013.17-.645.844-.757.973-.343-.233-.258-.226-.314-.162zm.905-1.82c1.272.183.833.321.411.701.19.462-.619-.201-.449-.188.034-.221-.278-.176-.471-.346.033-.22.135.028.51-.167zm2.228-.001c-.18-.34-.053-.434.138-.47.226-.052.993.71-.138.47zm-3.257.008a4.19 4.19 0 01-.775-.18c.083-.2.595-.16.775.18zm-1.925 1.949c-.011.377.147.56-.25-.105 0 0-.014-.036.007-.086.12-.008.164.099.243.19zm1.026-.214c.175-.278.62.202 1.28.304-.139.264-.357.437-.526.63-.65-.48-.507-.33-.754-.934zm.627 1.027c-.062.15-.255-.02-.257-.226.114.078.214.12.257.226zm-1.098 1.651c.17.013.206-.001.65.48-.451 1.013-.642.346-1.354-1.392-.255-.724.675.841.704.912zm.814.578c.242-.016.37.097.393.253-.337.387-1.262.849-.393-.253zm.832.115c.48.466.207.205.091-.079.077-.114.5-.494.62-.502.064.056.006-.085.382.63-.069.236-.098.165.124.405-.095.37-.083.2-.129.591-.235-.07-.178-.134-.233.137-.091.079-.07.03-1.01-.953-.078-.092.049-.186.155-.229zm1.454.73c.204-.208.14-.264.252-.393.632.03.646.066.184.752-.17-.012-.29-.005-.46-.018-.109-.162-.067-.262.024-.341zm.948-.306c.632.031 1.158.106.765.557-.19.243-.084.2-1 .078-.206.002.06-.356.235-.635zm-.645.844c-.056.065-.118.215-.29-.005.09-.079.211-.087.29.005zm1.046.235c-.281.322-.236.635-.98.028-.011-.533 1.19-.321.98-.028zm-1.23.627c.479.26.414.204.387.34-.37-.098-.55-.438-.386-.34zm1.092-.157c.119-.214.743-1.008.834-1.087.214.12.194.17.092-.079.158-.52.255.02.45.395.152.27.389.546.11.37-.328-.197.059.142.102.248-.077.114-.193-.17-.062.15-.084.2-.196.328-.344.472-.32-.076-1.182-.469-1.182-.469zm1.106.583c-.12.214-.354.145-.603.04-.073-.178.195-.329.603-.04zm-.83.091c.72.244.62.202.578.302-.561-.06-.813-.371-.578-.302zm1.106-.121c.225-.962.7-.204 1.187.176.278.176-1.823.084-1.187-.176zm.162.596c-.085-.006-.632-.031-.499-.21.32.076.499.21.499.21zm1.072-.605c.306.04.597.046.478.26-.205.001-.334-.112-.478-.26zm.867.1c.177-.072.07-.028 1.3.048.024.363-.98.029-1.3-.047zm2.784-1.264c.056-.064.106-.043.156-.022-.042.1-.092.079-.156.022zm1.482-.814c-.214.585-1.201.492-1.062.228.135.027.27.055.277-.03-.083-.505.16-.315.143-.556-.008-.121-.268.15-.339.18-.386-.339-.188-.461-.132-.526-.958-.021.034-.925 1.113.704zm.71-.788c-.028.136-.364.522-.527.63-.284-.09-1.221-.866-.924-.947.877-.276.586-.281 1.45.317zm.158-.52c.226-.051.018.448-.11.335-.883-1.047.618.906-1.316-.994.084-.2.333-.095.529-.423-.18-.134-.059-.142-.009-.121 1.027.49 1.156.604.906 1.203zm-.225-2.766c-.191.037-.206.002-.191.037-.05-.02.172.22.222.24-.015-.035-.079-.091-.023-.156.206-.001.123.198.023.157-.191.036.49.088.502.622-.162.108-.477-.26-.61-.081.669.223.812.371.464 1.135-.399-.168-.77-.471-1.19-.59-.092.08.037.192-.054.271a1.855 1.855 0 01-.439.139c-.025.341-.243-.19-.547-.025.104.454.117.284-.364.522-.47-.14.196-.329-1.274-.39.015.036-.014-.035-.135-.027.125-.3.61-.125 1.387-.444 1.95-.881 1.553-.843 1.482-.814-.72.254-1.835.959-2.631.83-.931-.158-.98.028-1.195-.298.041-.1.056-.065.844-.056.617-.004.814-.127-1.052-.149-.179-.134-.258-.226-.066-.263 1.725.08 1.54.032 1.513.168.014.035.318-.13.097-.165-2.672-.48-1.03.505-3.187-.93.041-.1-.164-.1 2.467.48.234.07.22.034.367-.11.418-.088.159-.52.398-.742.326-.01.625.117.93.157.042-.1-.113-.077-.868-.307-.043-.106.032-.427.18-.57.17.013.56.06.69.173-.17.193-.433.053-.446.223.42.118.84-.468 1.35.07.116.283.194.375.018.447-.778.319-3.416 1.234-2.106.904 2.01-.533 3.045-1.33 2.677-.516.135.027.133-.18.154-.23.256.02.725.864.012-.17.173-.485.54.11.6.458zm-1.591 2.06c-.085-.006-.1-.042-.058-.142l.058.142zm.33-3.324c.623.614.3 1.036.147.56-.124-.404-.735-.485-.147-.56zm.198-.123c.19-.037.112-.129.5.416.164.803-.436-.36-.5-.416zm1.108-.62c.486.381-.032 1.132-.007 1.495-.1-.042-.733-.984-.733-.984-.094-.127.289-.201.486-.323.133-.18.063-.15.254-.187zm-1.873.768c-1.123-.12-1.06-.27-.644-.565.24-.015.802.044 1.089.341-.092.08.014.036-.445.224zm.657-.31c-.414-.204-.51-.538-.28-.383.556.352.33.404.28.383zm1.041-.883c-.056.065-.197.123-.058-.142.1.042.08.092.058.142zm-1.055.143c.662.308.49.089.584.216-.167.4.228.155-.273.443-.8-.542-.609-.579-.311-.66zm-.722.254c.015.035.03.07.058.142-.532.01-.434-.154-.058-.142zm.343-.472c.15.063.023.156-.133.179-1.161-.519-1.998-1.253.133-.18zm-.777.318c-.123-.198.06-.356.226-.051-.076.114-.162.108-.226.051zm-2.259-4.003c.035-.015.644-.14.836-.177.478.26.505.125.112-.129.245-.307.532-.01.603-.04-.173-.219-.193-.169.145-.35.89-.446.773.678 2.158 2.348.069.469.59 1.54.39 1.455-1.739-.82-.62-.408-.625-.82-.299-.127-.12.007-.615.21-.748-.315-1.768-.891-2.145-.198-.042.1-.19.243-.324.215-.015-.035.335-.592.166-.4-.526.63-1.183.941-1.408 1.199.666-.19.753-.681 1.082-.485-.154.23-.585.488-.797.575-1.025.42-.428.466.96-.476.086.006.32.076.337.318.291.005.646.066.972.761-.11.335-.638.054-.854.433.557-.352.81.165.08.298-.103.25.065.057.1.042.15.063.142-.058.013.534-.113.128.07-.03-1.83.169.165.098 1.553-.139 1.796.051.058.142.112.576-.036.72-.876-.429-.791-.422-1.481-.595-2.596-.594-.983.32-1.874-.848.069-.235 1.42.04 2.211-.243.686-.24-1.151-.191-.527-.28.885-.156.829-.092 1.097-.243.102-.456-1.862.39.47-.566.036-.014.077-.114.007-.085-.674.069-.113.129-.707.29-.822.212-1.65.303-1.65.303-.157.022-.149.143-.028.135 2.964-.22-.87.191-.892.241.073.178 1.2.006 1.463.146.227-.05-.106.044-.156.023-1.716.04-1.182.236-2.385-.887-.193-.17-.23-.361-.112-.575.162-.108 1.488.509 1.893.591.048-.185-.536-.402-1.537-1.234.327-.714.428-.465 1.818.208.05.02.49.089-1.363-.809.04-.306.017-.462-.338-.524-.05-.02-.106.044-.43.26-.377-.012-.306-.041-.418.088.126.61-.237.428-.45 1.22-.273 1.146.41 1.405-1.123.583-.051-.227.7-.41.047-1.096-.065-.056-.129-.113-.235-.07-.148.144-.004.293-.017.463-.457.395-.345.266-.455.601.024.363.278.88.05.726-.822-.493-.971-.556-.539-.609-.129-.113-.582-.01-.584-.216.127-.093 1.998-.363.555-.559-.135-.027-.1-.042.082-.406.592-.367-.414-.203-.4-.168 0 0 .286.09.15.063-.253.187-.382.074-.417.089.104-.25.382-.074.203-.208-.008-.121.577-.609 1.165-.684-.48-.466-1.429 1.248-1.869.475.091-.079.374-.194.474-.152.451-.31.374-.195.272-.443-.212.087-.135-.028-.043-.107.122.198.156-.022.127-.093-.03-.071-.306-.04-.214-.12.133-.178 2.276-.89 1.725-.623-.798.368-.6.246-.727.339.043.106.1.042.397-.038.58-.197-.14.264-.132.385 2.537-1.868 1.97-1.138 2.47-1.426.378.218.462.018-.815.83-1.297.864-.95.804-.93.754 1.8-1.15 2.165-1.466 1.73-.915.088.212.13.113.306.04.326-.01 2.616.544 2.685 1.013.039.398.26.432.161.596.27.055.1-.662.105-.954 2.682-.808 2.01-1.237 2.719-.616.515.451.145.354.089.419-.337.386-2.58 1.057-2.557 1.213.22.034.48-.238.617-.005.035-.014.013-.17.295-.286 2.474-1.013 2.206-.862 1.24-1.709-.029-.071.131-.385-.158-.184-.085-.006-.656-.394-.527-.28-.2-.085.577.301.359.473-.127.094-2.104 1.11-2.164.762-.046-.312-.204-.496-.25-.809.113-.129.32.076.491.09-.072-.178-.257-.227-.613-.288-.758-.642-.75-.521.096-.37.86.185.944-.014 1.016.163-.23.343-.5.288-.584.488zm-.408 4.143l.07-.029c-.005.085-.02.05-.07.029zm-2.325-1.243c.058.142 1.457.936-.438.138-.1-.042-.235-.07-.35-.147.186-.655.483-.031.788.01zm-5.318-.39c.006-.085.041-.1.062-.15.192-.036.45.19-.062.15zm-.004-.412s-.035.014 0 0zm.23-.343c.034-.22.29-.201.51-.167a.856.856 0 01-.51.167zm-.14.058c-.03-.071-.05-.021.041-.1-.006.085.03.07-.042.1zm3.794-2.424c-.518.046-1.674.85-1.825.582.112-.13 2.607-1.192 2.962-1.13.08.091.414.203.187.254-.7.204-.112.129-.048.185-.38.28-.588.076-1.276.109zm-.146.35c.021-.05.056-.065.106-.044-.056.064-.056.064-.106.043zm-2.272.599a.116.116 0 01.142-.058c-.021.05-.057.064-.142.058zm-.919.376c-.05-.021-.014-.035 0 0zm.175.426c.116.283-1.048.263-.235-.07.1.042.129.113.235.07zm-.861.518a1.869 1.869 0 01-.208-.205c.204-.208.894-.035.208.205zm5.825-2.303c-.218.172-.177.072-.185-.049.056-.064.07-.029.297-.08.009.12-.077.114-.112.129zm-.538.096c.106-.043.176-.072.205-.001-.077.114-.077.114-.205.001zm1.112-.207s.05.021 0 0c-.021.05-.021.05 0 0zm-.433.757c.029.071.004.413-.131.385-.661-.102-.54-.11-.605-.166.16-.314.387-.366.736-.219zm.304-.166c.617-.004.852.066.968.35.442.978.583.92-1.168.27.201-.413.139-.264.2-.62zm2.84-.418c.165.099-.026.136-.253.187.092-.079.183-.158.254-.187zm.899-.326c-.711.58-.395.244-2.486-.225-.76-.144.472-.359 1.414.125-.102-.248-.478-.26-1.339-.445-.845-.151 1.258-.557 2.411.545zm-3.315-.134c.314.162.312-.044.667.017 2.268.397 1.432.573 1.112.497-1.63-.45-2.024-.206-2.617-.543.233-.137.574-.111.838.03zm-.929.05c-.141.058-.177.072-.306-.04.127-.094.227-.052.306.04zm.501-.288c-.738.012-.653.018-.667-.017.28-.322.993.007.667.017zm-4.43.571c-.841.262 3.259-2.121 4.25-.912-.113.13-.398.039-.666.19-.006.085-.01.377-.09.285-.172-.22-.42-.118-.822.006-.736.219.499-.494-2.671.431zm-.363.522c.035-.014.621-.296.918-.376-.137-.234 1.429-.544 1.557-.43-.428.464-4.75 1.903-2.475.806zm-1.294.571c.036-.014.05.021 0 0zm.462.018c-.204.208-.432.053-.22-.034a.21.21 0 01.22.034zm1.127-.876c-.127.094.127-.093-1.214.663-.915.085.752-.68 1.214-.663zm-2.672 1.136c.48-.238.926-.462.9-.12-1.62 1.285-.906.205-.9.12zm-.728 1.044c-.014-.036.007-.086-.022-.156.17.012.228.154.022.156zm.736-.219c-.108-.163-.172-.22-.045-.312.678-.36.536-.303.806-.248.813-.333.688-.033.087.213-.91-.207.01.327-.848.347zm4.597-1.675l-1.959.76c-.997.285 1.666-.972 1.959-.76zm-5.372 2.2c.133-.179.374-.195.405.083-.46.188-.352.35-.405-.083zm1.041-.178c-.093-.127-.222-.24.231-.343.563.266-.015.669-.23.343zm-.68.858c-.328-.197-.195-.375-.04-.398.562.06.287.297.04.398zm1.046-.47c.32.077.426.033.251.312a.65.65 0 01-.251-.311zm-.37.608c.35.353.4.374.338.524-.042.1-.518.75-.585.488-.163-.803-.735-1.19.246-1.012zm-.357 1.347c-.118.214-.18.364-.283.116-.63-1.44.068-1.85.283-.116zm-.912-.413c-.014-.74.301.332.28.382-.05-.021.015.035-.28-.382zm.116.988c-.208-.91-.033-1.188.125-.3.223 1.15.09 1.33-.125.3zm.374-.195c.45 1.1.536 1.106.142 1.557-.053-.434-.302-1.947-.142-1.557zm.348 1.556c.063-.15.027-.136.17.013-.085-.007-.12.008-.17-.014zm-.112.128c.035-.014.07-.029.1.042.774 2.293-.048.186-.1-.042zm3.735 6.299c-1.529-1.114-1.02-.577-1.271-.888-.19.243.357.972.064.76-.636-.443-1.344-1.064-2.01-3.194.509-.167.477.965-.733-1.688-.13-.319-.199-.788.04-1.01.143.148.137.234.442.979.096.333-.241.72.106.66.064.057-.008-.12.442.98.378.921 1.979 2.916 2.665 2.677.104-.25-.064-.057-.1-.042-.312.044-1.728-1.198-1.44-1.399.579-.402.579-.402.708-.29 1.082 1.131 1.418 1.45 1.3 1.663.043.107.326-.009.207.205-.235.635-.256.685-.42.587zm.57-.524c.05.021-.03-.07.521.366-.033.221-.23.343-.3.579-.787-.009-.494-.502-.221-.945zm1.857 1.31c-1.785-.428-1.508-.459-1.221-.866.22.034.598.252 1.253.44.05.02.029.07.052.227.037.191.101.248-.084.2zm1.827.329c-1.592-.26-1.357-.19-1.457-.232.042-.1.042-.1-.129-.113-.459-.516.823-.005 1.696.01-.033.22-.04.306-.11.335zm.468-.067c-.12.008-.341-.026-.137-.234.261-.066.71.123.8-.162-.129-.113-.285-.09-.455-.104l.043.107c-.106.043-.482.032-.143-.149-.058-.142.019-.256.14-.264.22.034.506.33.98.178.296-.286-.091.08-.405-.082.027-.136.17.013.218-.173-.993-.007-.968-.349.547.025-.28.322-.653.723-.865.81.08.298-.913.29-.723.048zm1.155-.1c.007-.086-.106.043.724-.753.268-.151.39.047.437-.344.823-.006.688-.034.731.073-.499.494-1.382.856-1.892 1.023zM12.25 20.882c-.072-.177-.033-.483-.567-.679-.783-.3-2.12-.54-2.666.14 1.698.215-.041-.605 2.936.62.208.204.108.162.42.117.062-.15.077-.114-.123-.198zm-.448-.189c-1.646-.693-.216-.325-.052-.227.214.12.251.311.052.227zm-4.778 2.04c.035-.015.035-.015 0 0zm.035-.015a.414.414 0 01.192-.037c-.092.08-.092.08-.192.037zm7.495.865c.035-.014 0 0 0 0 .014.036.014.036 0 0zm-.092.08l.106-.044-.106.043zM7.753 20.28c-.035.015-.035.015 0 0zm-.091.08c.02-.05.056-.065.056-.065s-.021.05-.056.064zm-1.279.606c-.048.185-.042.1 0 0zm-.14.264c-.014-.035-.014-.035 0 0zm8.205 2.397c.014.035.014.035 0 0-.036.014-.036.014 0 0zM7.662 20.36c-.021.05-.021.05 0 0zm5.234 4.317s.036-.014 0 0c0 0-.014-.035 0 0zm4.008-3.215c-.015-.035-.015-.035 0 0zm-3.306-2.125c.035-.014.05.021 0 0zm-2.095 6.574s-.05-.021 0 0zm-.175 4.71c.014.036-.15-.063-.1-.041l.1.042zm-.44-.772c-.015-.035-.015-.035 0 0zm7.548-1.724s.035-.015 0 0c.014.035.014.035 0 0zm-9.703.494c.015.036.015.036 0 0zm2.503 2.786c.05.02.035-.015 0 0zm-2.26-3.3c-.035.015-.085-.006-.085-.006s.036-.015.086.006zm.186.049c-.036.014-.086-.007-.086-.007.036-.014.086.007.086.007zm.05.02s.014.036.22.035c0 0-.12.008-.22-.034zm-.235-.069l.1.042c-.036.015 0 0-.1-.042zm-.22-.034c.035-.014.199.084 0 0zm.079-.612s.035-.014 0 0zm0 0c.035-.014.085.006.12-.008-.035.014-.07.029-.12.008zm.135.027c-.015-.035-.015-.035 0 0 .035-.014.035-.014 0 0z" fill="#fff"/></svg>