<svg width="38" height="34" fill="none" xmlns="http://www.w3.org/2000/svg"><path d="M10.985 26.102c-1.66-.085-1.63-2.42 0-2.5 4.614.015 16.784.004 21.544.007a2.768 2.768 0 002.71-2.155l2.703-11.706a2.239 2.239 0 00-.429-1.903 2.23 2.23 0 00-1.754-.853c-1.916 0-18.173-.074-26.5-.107L7.94 1.988A2.696 2.696 0 005.343 0H1.114a1.114 1.114 0 000 2.228h4.228c.209 0 .393.14.447.34l5.07 18.809a3.453 3.453 0 00-2.352 1.033 3.452 3.452 0 00-1 2.502 3.495 3.495 0 003.478 3.418h1.624a3.875 3.875 0 00-.377 1.67 3.903 3.903 0 003.899 3.9 3.903 3.903 0 003.898-3.9c0-.597-.135-1.163-.377-1.67h7.034a3.875 3.875 0 00-.377 1.67 3.903 3.903 0 003.899 3.899A3.903 3.903 0 0034.106 30a3.88 3.88 0 00-.405-1.729 1.114 1.114 0 00-.355-2.169H10.985zm6.817 3.899a1.672 1.672 0 01-3.342 0c0-.921.748-1.67 1.67-1.671h.002c.92 0 1.67.75 1.67 1.67zm12.406 1.67c-.921 0-1.671-.75-1.671-1.67 0-.913.735-1.656 1.644-1.671h.054A1.673 1.673 0 0131.879 30c0 .922-.75 1.671-1.671 1.671zm5.559-22.443c.006.008.005.012.004.019l-1.14 4.932h-3.856l.657-4.977 4.318.018c.006 0 .01 0 .017.008zM24.283 21.381v-4.974h3.95l-.656 4.974h-3.294zm-5.523 0l-.662-4.974h3.957v4.974H18.76zm-5.128 0h-.004a.604.604 0 01-.58-.444l-1.222-4.53h4.024l.662 4.974h-2.88zm4.17-7.202l-.67-5.034 4.923.02v5.014h-4.254zm6.481 0V9.173l4.903.02-.658 4.986h-4.245zm-9.4-5.043l.671 5.043h-4.328L9.86 9.115l5.022.02zM32.529 21.38h-2.705l.657-4.974h3.636l-1.05 4.546a.55.55 0 01-.538.428z" fill="#000"/></svg>