<svg width="95" height="95" fill="none" xmlns="http://www.w3.org/2000/svg"><path d="M91.964 50.596l2.087-2.371.782-.923-.782-.922-2.087-2.372 1.826-2.767.652-1.054-.913-.79-2.478-2.108 1.305-2.9.521-1.185-1.043-.659-2.739-1.713.913-3.162.391-1.186-1.173-.527-3-1.186.392-3.162.13-1.186-1.304-.263-3.13-.791v-4.48l-1.173-.132-3.26-.263-.522-3.162-.261-1.186-1.174.131-3.26.264-1.043-3.03-.391-1.186-1.174.263-3.13.659-1.434-2.899-.522-1.054-1.174.395-3.13 1.054-1.825-2.635-.783-1.054-1.043.659-2.738 1.581L52.06.922 51.147 0l-.913.79-2.608 1.977L45.018.791 44.105 0l-.913.922-2.217 2.372-2.869-1.581-1.043-.659-.652 1.054-1.826 2.635-3-1.185-1.173-.396-.521 1.186-1.435 2.899-3.13-.659-1.173-.263-.392 1.185-1.043 3.03h-3.26l-1.174-.13-.13 1.185-.522 3.162-3.26.264-1.174.132v4.479l-3.13.791-1.173.264.13 1.185.392 3.163-3 1.186-1.173.527.39 1.185.914 3.163-2.739 1.713-1.043.658.521 1.318 1.304 2.899-2.477 2.108-.913.79.652 1.055 1.826 2.767-2.087 2.371-.913.923.783.922 2.217 2.372-1.826 2.767-.652 1.054.913.79 2.477 2.108-1.304 2.9-.521 1.185 1.043.659 2.739 1.713-.783 3.03-.391 1.186 1.174.527 2.999 1.186-.391 3.162-.13 1.186 1.173.264 3.13.79v4.48l1.173.132 3.26.263.522 3.163.261 1.186 1.174-.132 3.26-.264 1.043 3.03.391 1.187 1.174-.264 3.13-.659 1.434 2.9.522 1.053 1.174-.395 2.999-1.186 1.826 2.635.652 1.054 1.043-.658 2.739-1.582 2.216 2.372.913.923.913-.791 2.478-1.977 2.608 1.977 1.043.79.913-.922 2.217-2.371 2.869 1.58 1.043.66.652-1.055 1.826-2.635 3 1.186 1.173.395.522-1.054 1.434-2.899 3.13.66 1.174.263.39-1.186 1.044-3.03 3.26.131 1.174.132.26-1.186.522-3.162 3.26-.264 1.174-.132v-4.479l3.13-.791 1.174-.263.13-1.318-.391-3.162 3-1.186 1.173-.527-.391-1.186-.913-3.163 2.738-1.712 1.043-.66-.521-1.185-1.304-2.899 2.478-2.108.912-.79-.652-1.055-1.956-2.767zM47.756 86.831c-15.779 0-29.472-9.487-35.6-23.19h1.303c5.869 13.176 18.91 22.268 34.036 22.268 15.128 0 28.299-9.224 34.037-22.268h1.695c-5.999 13.703-19.561 23.19-35.47 23.19zM29.63 63.64h5.216L26.76 73.786l9.259-10.145h3.26l-7.303 13.835 8.346-13.835h2.347l-4.694 16.47 5.738-16.47h1.825l-1.304 17.788 2.478-17.788h1.695l2.217 17.92-1.173-17.92h1.825l5.608 16.602L52.45 63.64h2.217l8.346 14.098-7.042-14.098h3.13l9.259 10.41-8.216-10.41h5.086l7.563 5.666-6.65-5.665h9.91l.261.132-.13-.132h4.042C74.49 76.026 61.972 84.59 47.627 84.59c-14.475 0-26.864-8.565-32.602-20.95h13.822l-6.52 5.402 7.303-5.402zm55.162-3.558H10.85c-1.304-3.953-2.086-8.3-2.086-12.78 0-21.741 17.474-39.397 38.991-39.397s39.122 17.656 39.122 39.396c0 4.48-.782 8.828-2.086 12.781z" fill="url(#paint0_linear)"/><path d="M47.626 9.355c-15.649 0-29.211 9.882-34.688 23.717l-.522 1.054h70.42l-.522-1.185C76.837 19.236 63.274 9.355 47.626 9.355zM80.88 33.072h-7.433l2.868-1.58-3.26 1.58H64.58l8.346-7.115-9.52 7.115h-4.303l9.259-11.727-10.563 11.727H55.19l7.825-15.416-8.998 15.416H52.19l4.825-18.051-6.129 18.051h-1.434l1.173-19.237-2.477 19.237h-1.435l-2.608-19.237 1.434 19.237h-1.434l-6.26-17.92 5.086 17.92h-1.825l-9.129-15.284 7.955 15.284h-2.608L26.76 21.61l9.259 11.463h-4.434l-9.26-6.72 8.216 6.72h-8.998l-2.608-1.186 2.217 1.186h-6.781c5.477-13.176 18.257-22.4 33.254-22.4 14.997 0 27.777 9.224 33.254 22.4z" fill="url(#paint1_linear)"/><path d="M18.545 39.265c-.913 0-1.826.395-2.478 1.054a3.619 3.619 0 00-1.043 2.503v8.038c0 .922.391 1.845 1.043 2.503a3.54 3.54 0 002.478 1.054c.913 0 1.826-.395 2.478-1.054a3.619 3.619 0 001.043-2.503v-2.108h-2.347v2.108c0 .395-.13.659-.392.922-.26.264-.521.396-.912.396-.392 0-.652-.132-.913-.396-.261-.263-.391-.527-.391-.922v-8.17c0-.395.13-.658.39-.922.262-.263.522-.395.914-.395.39 0 .652.132.913.395.26.264.39.527.39.923v1.713h2.348V42.69c0-.923-.391-1.845-1.043-2.504-.652-.527-1.435-.922-2.478-.922z" fill="url(#paint2_linear)"/><path d="M23.892 54.286h6.26v-2.24h-4.043V47.96h2.999v-2.24h-3v-4.084h4.043v-2.24h-6.26v14.889z" fill="url(#paint3_linear)"/><path d="M38.628 45.063v-2.109c0-1.054-.261-1.844-.783-2.503-.521-.659-1.434-1.054-2.738-1.054h-3.521v14.757h2.217V48.62h1.564l1.305 5.534h2.347l-1.695-6.456c.913-.66 1.304-1.581 1.304-2.636zm-2.087.131c0 .395-.13.659-.391.923-.26.263-.522.395-.913.395h-1.304v-4.744h1.304c.783 0 1.304.396 1.304 1.318v2.108z" fill="url(#paint4_linear)"/><path d="M40.323 41.637h2.347v12.649h2.087v-12.65h2.347v-2.24h-6.78v2.24z" fill="url(#paint5_linear)"/><path d="M51.147 39.397H48.93v14.757h2.217V39.397z" fill="url(#paint6_linear)"/><path d="M53.103 54.286h2.217V47.96h3v-2.24h-3v-4.084h4.042v-2.24h-6.259v14.889z" fill="url(#paint7_linear)"/><path d="M63.144 39.397h-2.217v14.757h2.217V39.397z" fill="url(#paint8_linear)"/><path d="M65.1 54.286h6.26v-2.24h-4.043V47.96h3v-2.24h-3v-4.084h4.043v-2.24H65.1v14.889z" fill="url(#paint9_linear)"/><path d="M76.446 39.397h-3.521v14.757h3.52c.914 0 1.827-.395 2.479-1.054a3.618 3.618 0 001.043-2.504v-7.773c0-.923-.391-1.845-1.043-2.504-.783-.527-1.565-.922-2.478-.922zm1.304 11.331c0 .395-.13.659-.391.922-.261.264-.522.396-.913.396h-1.304V41.768h1.304c.391 0 .652.132.913.396.26.263.39.527.39.922v7.642z" fill="url(#paint10_linear)"/><defs><linearGradient id="paint0_linear" x1="47.756" y1="0" x2="47.756" y2="94.737" gradientUnits="userSpaceOnUse"><stop stop-color="#C5AC7B"/><stop offset=".342" stop-color="#EFCE8E"/><stop offset="1" stop-color="#DFB05B"/></linearGradient><linearGradient id="paint1_linear" x1="47.626" y1="9.355" x2="47.626" y2="34.126" gradientUnits="userSpaceOnUse"><stop stop-color="#C5AC7B"/><stop offset=".342" stop-color="#EFCE8E"/><stop offset="1" stop-color="#DFB05B"/></linearGradient><linearGradient id="paint2_linear" x1="18.545" y1="39.265" x2="18.545" y2="54.417" gradientUnits="userSpaceOnUse"><stop stop-color="#C5AC7B"/><stop offset=".342" stop-color="#EFCE8E"/><stop offset="1" stop-color="#DFB05B"/></linearGradient><linearGradient id="paint3_linear" x1="27.021" y1="39.397" x2="27.021" y2="54.286" gradientUnits="userSpaceOnUse"><stop stop-color="#C5AC7B"/><stop offset=".342" stop-color="#EFCE8E"/><stop offset="1" stop-color="#DFB05B"/></linearGradient><linearGradient id="paint4_linear" x1="35.302" y1="39.397" x2="35.302" y2="54.154" gradientUnits="userSpaceOnUse"><stop stop-color="#C5AC7B"/><stop offset=".342" stop-color="#EFCE8E"/><stop offset="1" stop-color="#DFB05B"/></linearGradient><linearGradient id="paint5_linear" x1="43.714" y1="39.397" x2="43.714" y2="54.286" gradientUnits="userSpaceOnUse"><stop stop-color="#C5AC7B"/><stop offset=".342" stop-color="#EFCE8E"/><stop offset="1" stop-color="#DFB05B"/></linearGradient><linearGradient id="paint6_linear" x1="50.038" y1="39.397" x2="50.038" y2="54.154" gradientUnits="userSpaceOnUse"><stop stop-color="#C5AC7B"/><stop offset=".342" stop-color="#EFCE8E"/><stop offset="1" stop-color="#DFB05B"/></linearGradient><linearGradient id="paint7_linear" x1="56.233" y1="39.397" x2="56.233" y2="54.286" gradientUnits="userSpaceOnUse"><stop stop-color="#C5AC7B"/><stop offset=".342" stop-color="#EFCE8E"/><stop offset="1" stop-color="#DFB05B"/></linearGradient><linearGradient id="paint8_linear" x1="62.036" y1="39.397" x2="62.036" y2="54.154" gradientUnits="userSpaceOnUse"><stop stop-color="#C5AC7B"/><stop offset=".342" stop-color="#EFCE8E"/><stop offset="1" stop-color="#DFB05B"/></linearGradient><linearGradient id="paint9_linear" x1="68.23" y1="39.397" x2="68.23" y2="54.286" gradientUnits="userSpaceOnUse"><stop stop-color="#C5AC7B"/><stop offset=".342" stop-color="#EFCE8E"/><stop offset="1" stop-color="#DFB05B"/></linearGradient><linearGradient id="paint10_linear" x1="76.446" y1="39.397" x2="76.446" y2="54.154" gradientUnits="userSpaceOnUse"><stop stop-color="#C5AC7B"/><stop offset=".342" stop-color="#EFCE8E"/><stop offset="1" stop-color="#DFB05B"/></linearGradient></defs></svg>