<svg width="105" height="81" fill="none" xmlns="http://www.w3.org/2000/svg"><path d="M90.815 49l-.686-1.503h12.238l-4.003-6.934 4.003-6.934H89.443l.686-1.502h13.153l.915-1.618H90.815v-.116l-2.86-2.31.916-3.699-3.203-1.849.343-3.698-3.431-1.271-.229-3.814-3.66-.809-.8-3.698-3.775-.115-1.372-3.467-3.66.462-1.83-3.236-3.546 1.04-2.402-2.889-3.431 1.502L55.13 0l-3.09 2.08L48.953 0l-2.745 2.542-3.431-1.502-2.288 2.89-3.889-.925-1.83 3.235-3.66-.346-1.258 3.582-3.774.116-.8 3.698-3.66.809-.23 3.814-3.43 1.386.457 3.698-3.203 1.85 1.03 3.582-2.402 1.965H0l.915 1.617H13.84l.686 1.503H1.83l4.003 6.934L1.83 47.38h12.581l-.686 1.503H1.03l-.915 1.618H14.64l1.716 1.386-.915 3.699 3.202 1.849-.343 3.698 3.432 1.27.228 3.815 3.66.808.801 3.698 3.774.232 1.373 3.467 3.66-.463 1.83 3.236 3.546-1.04 2.402 2.89 3.43-1.503 2.746 2.542 3.203-1.964 3.088 2.08 2.745-2.543 3.431 1.503 2.288-2.89 3.545.925 1.83-3.236 3.66.347 1.259-3.467 3.774-.231.8-3.698 3.66-.81.23-3.813 3.43-1.386-.457-3.699 3.203-1.849-1.03-3.582 1.144-.925h14.983l-.915-1.617H90.815v-.232zm-5.833-4.045c-.229 1.964-.8 3.929-1.373 5.662-4.918 15.255-20.13 25.078-36.371 22.65-12.81-1.848-22.876-10.978-26.765-22.65-1.6-4.853-2.058-10.054-1.372-15.485a31.638 31.638 0 011.03-4.738C24.704 14.676 40.26 4.276 56.844 6.703c13.268 1.964 23.447 11.556 27.108 23.69 1.372 4.623 1.83 9.477 1.029 14.562z" fill="url(#paint0_linear)"/><path d="M56.502 9.476C41.52 7.281 27.565 16.41 23.104 30.393c-.572 1.618-.915 3.352-1.144 5.085-.8 5.2-.114 10.401 1.487 15.024 3.775 10.285 12.81 18.259 24.248 19.992 14.64 2.196 28.251-6.471 33.055-19.992.686-1.965 1.258-3.93 1.487-6.125a31.785 31.785 0 00-1.144-13.984c-3.431-10.747-12.696-19.068-24.59-20.917zm-.343 7.165h6.52v.694h-6.52v-.694zm-4.804-.809l.8-2.427.801 2.427h2.517l-2.06 1.503.802 2.427-2.06-1.503-2.058 1.503.8-2.427-2.058-1.503h2.516zM34.656 30.51h6.863v2.427h-4.46v4.391h3.316v2.427h-3.317v6.934h-2.402v-16.18zm5.719 30.047l-2.059-1.503-2.059 1.503.801-2.427L35 56.627h2.517l.8-2.427.8 2.426h2.517l-2.059 1.503.801 2.427zm1.144-43.915h6.52v.694h-6.52v-.694zm5.719 23.922h-1.602v6.125h-2.402v-16.18h3.775c1.372 0 2.287.347 2.974 1.156.572.693.8 1.617.8 2.773v2.311c0 1.156-.457 2.08-1.258 2.89l1.83 7.049h-2.63l-1.487-6.125zM54.1 60.556l-2.059-1.503-2.058 1.503.8-2.427-2.059-1.502h2.517l.8-2.427.801 2.426h2.516L53.3 58.13l.8 2.427zm6.176-27.62h-4.46v4.391h3.317v2.427h-3.317v4.392h4.46v2.426h-6.862V30.51h6.862v2.427zm1.716-2.427h6.863v2.427h-4.46v4.391h3.316v2.427h-3.317v4.392h4.46v2.426h-6.862V30.51zm5.948 30.047l-2.059-1.503-2.059 1.503.8-2.427-2.058-1.502h2.516l.801-2.427.8 2.426h2.517l-2.059 1.503.8 2.427z" fill="url(#paint1_linear)"/><path d="M47.123 32.936h-1.487v5.2h1.487c.343 0 .686-.115 1.03-.462.228-.231.457-.578.457-1.04v-2.427c-.114-.809-.572-1.271-1.487-1.271z" fill="url(#paint2_linear)"/><defs><linearGradient id="paint0_linear" x1="52.099" y1="0" x2="52.099" y2="80.202" gradientUnits="userSpaceOnUse"><stop stop-color="#C5AC7B"/><stop offset=".342" stop-color="#EFCE8E"/><stop offset="1" stop-color="#DFB05B"/></linearGradient><linearGradient id="paint1_linear" x1="52.089" y1="9.151" x2="52.089" y2="70.834" gradientUnits="userSpaceOnUse"><stop stop-color="#C5AC7B"/><stop offset=".342" stop-color="#EFCE8E"/><stop offset="1" stop-color="#DFB05B"/></linearGradient><linearGradient id="paint2_linear" x1="47.123" y1="32.936" x2="47.123" y2="38.136" gradientUnits="userSpaceOnUse"><stop stop-color="#C5AC7B"/><stop offset=".342" stop-color="#EFCE8E"/><stop offset="1" stop-color="#DFB05B"/></linearGradient></defs></svg>