<svg width="93" height="94" fill="none" xmlns="http://www.w3.org/2000/svg"><path d="M89.265 53.022l2.87-3.294-2.348-3.557 2.347-3.69-2.869-3.162 1.695-3.953-3.39-2.635 1.043-4.216-3.782-2.108.391-4.349-4.042-1.58-.26-4.349-4.174-.922-.782-4.085-4.304-.263-1.565-3.953-4.303.527-2.217-3.69-4.173 1.186-2.739-3.294-3.912 1.845-3.26-2.899-3.521 2.372L42.319.581l-2.87 2.767-3.912-1.713-2.608 3.426-4.173-1.054-2.086 3.821-4.304-.395-1.565 4.085-4.303.263-.913 4.216-4.173.923-.26 4.348-4.043 1.581.521 4.348-3.651 2.24 1.173 4.216-3.26 2.767 1.826 3.953-2.869 3.294 2.347 3.558-2.347 3.69 2.869 3.161-1.695 3.953 3.39 2.635-1.043 4.217 3.782 2.108-.391 4.348 4.042 1.581.261 4.348 4.173.923.913 4.216 4.303.264 1.565 4.084 4.304-.527 2.217 3.69 4.173-1.186 2.738 3.294 3.912-1.845 3.26 2.899 3.522-2.372 3.651 2.372 3.13-2.899 3.912 1.713 2.608-3.426 4.173 1.054 2.087-3.82 4.303.394 1.565-4.084 4.303-.264.913-4.216 4.173-.922.261-4.349 4.043-1.58-.522-4.349 3.651-2.24-1.173-4.216 3.26-2.767-2.217-4.085zM84.31 52.1c-3 21.082-22.43 35.707-43.296 32.677-20.865-3.03-35.34-22.663-32.34-43.745C11.672 19.95 31.103 5.325 51.968 8.355c20.865 3.03 35.34 22.663 32.34 43.745z" fill="url(#paint0_linear)"/><path d="M30.712 55.79h-2.608V38.264h7.433V40.9h-4.825v4.744h3.521v2.635h-3.52v7.51z" fill="url(#paint1_linear)"/><path d="M41.536 38.265c1.435 0 2.478.395 3.26 1.186.652.659.913 1.713.913 3.03v2.504c0 1.186-.522 2.24-1.434 3.162l1.956 7.642h-2.87l-1.564-6.588H39.97v6.588h-2.608V38.265h4.173zm1.565 4.216c0-1.054-.522-1.58-1.565-1.58h-1.565v5.665h1.565c.391 0 .782-.132 1.043-.395.261-.264.392-.659.392-1.054V42.48h.13z" fill="url(#paint2_linear)"/><path d="M48.448 55.79V38.264h7.433V40.9h-4.825v4.744h3.52v2.635h-3.52v4.743h4.825v2.636h-7.433v.131z" fill="url(#paint3_linear)"/><path d="M57.707 55.79V38.264h7.433V40.9h-4.825v4.744h3.52v2.635h-3.52v4.743h4.825v2.636h-7.433v.131z" fill="url(#paint4_linear)"/><path d="M46.752 12.044l-1.565 3.163-3.52.527 2.608 2.503-.652 3.558 3.13-1.713 3.13 1.713-.523-3.558 2.478-2.503-3.52-.527-1.566-3.163z" fill="url(#paint5_linear)"/><path d="M60.836 19.423c-.26-.131-.652-.131-1.043 0-.652.264-1.565 1.45-2.086 2.24h.26c.261 0 .522.132.783.132.782 0 1.304 0 1.565-.132.913-.263 1.043-1.186 1.043-1.45v-.13l-.13-.133c0-.131-.13-.395-.392-.527z" fill="url(#paint6_linear)"/><path d="M60.315 16.788c.26.132.652.132.782.132h.13l.131-.132c.652-.395.783-.922.652-1.581-.13-.395-.652-1.054-1.174-1.581-.26-.264-.652-.527-.782-.66-.13-.13-.26-.13-.391-.263 0 .264-.13.79-.13 1.318 0 .922 0 1.45.13 1.845.13.527.26.79.652.922z" fill="url(#paint7_linear)"/><path d="M55.881 17.315c.13.132.391.132.522.132.521 0 .782-.264 1.043-.527l.13-.132v-.132c0-.395.13-1.186-.782-1.58-.261-.133-.652-.133-1.043-.133-.652 0-1.435.132-1.957.132.392.79 1.435 1.977 2.087 2.24z" fill="url(#paint8_linear)"/><path d="M64.88 22.19l-.262-.263c-.13 0-.26-.132-.391-.132h-.522c-.652.132-1.825 1.186-2.477 1.845l.26.131c.261.132.653.132.913.264.261 0 .522.132.913.132h.652c.913-.132 1.174-1.055 1.174-1.186v-.264c0-.263-.13-.395-.26-.527z" fill="url(#paint9_linear)"/><path d="M64.618 19.291c.261.132.522.264.783.264h.13l.13-.132c.653-.263.913-.79.913-1.317v-.132a5.57 5.57 0 00-.912-1.713 4.938 4.938 0 00-.653-.79l-.26-.264c-.261.659-.652 2.371-.522 3.162-.13.527.13.79.391.922z" fill="url(#paint10_linear)"/><path d="M75.703 31.809l.391.132c.652 0 1.174-.264 1.304-.923.13-.395.13-1.186-.13-1.976-.13-.395-.13-.659-.261-1.054 0-.132-.13-.264-.13-.395-.783.79-1.696 1.844-1.826 2.503-.13.395-.13.79.13 1.054.13.395.391.527.522.659z" fill="url(#paint11_linear)"/><path d="M78.833 40.11c-.261.395-.261.659-.261 1.054 0 .263.13.527.26.659l.131.132h.13c.652.263 1.304.131 1.696-.396.26-.263.39-.922.521-1.844 0-.528.13-1.055.13-1.45-1.043.527-2.216 1.318-2.607 1.845z" fill="url(#paint12_linear)"/><path d="M77.268 35.762c.13.263.26.527.39.658l.131.132h.13c.653.132 1.174 0 1.435-.527 0 0 0-.132.13-.132.392-.659.261-2.635 0-3.425-.912.658-1.956 1.58-2.216 2.24-.13.395-.13.79 0 1.054z" fill="url(#paint13_linear)"/><path d="M68.53 25.484c-.26-.263-.521-.395-.912-.395-.652 0-1.956.922-2.739 1.45.26.131.652.263 1.043.394.652.264 1.174.396 1.565.396.913 0 1.304-.79 1.435-1.054v-.264s-.13-.263-.392-.527z" fill="url(#paint14_linear)"/><path d="M72.834 27.065h.26c.653-.131 1.044-.395 1.174-1.054v-.131c.13-.528-.13-1.318-.39-1.977-.262-.527-.392-1.054-.653-1.318-.652.923-1.434 2.24-1.434 2.767 0 .396 0 .791.26 1.055.392.395.653.527.783.658z" fill="url(#paint15_linear)"/><path d="M69.574 23.244h.26c.653-.131 1.044-.659 1.044-1.317 0-.396-.261-.923-.652-1.845-.261-.527-.652-.922-.783-1.318-.39.66-1.043 2.24-1.043 3.03 0 .396.13.791.391 1.055l.783.395z" fill="url(#paint16_linear)"/><path d="M79.354 50.782c-.652.528-.652 1.186-.521 1.713v.132l.13.132c.522.527 1.174.527 1.695.132.392-.264.783-1.054 1.044-1.581.26-.528.39-1.055.521-1.45-.913.132-2.347.527-2.869.922z" fill="url(#paint17_linear)"/><path d="M71.139 59.215v.264c0 .263-.13.527-.13.79 0 .66 0 1.186.13 1.582.26.922 1.173 1.054 1.434 1.054h.13l.13-.132c.131-.132.392-.264.523-.527.13-.264.26-.527 0-1.054-.261-.527-1.435-1.45-2.217-1.977z" fill="url(#paint18_linear)"/><path d="M77.79 56.58c-.131.263 0 .659 0 .79v.132l.13.132c.521.527 1.043.659 1.565.395h.13c.391-.263.913-.922 1.304-1.45.26-.526.522-.922.783-1.317-1.174 0-2.609.132-3.13.527-.391.132-.652.527-.783.79z" fill="url(#paint19_linear)"/><path d="M74.53 58.293h.39l.13-.132s.522-.395.392-1.054c0-.132-.13-.264-.13-.395-.392-.66-1.826-1.45-2.478-1.713v.263l.13.923c0 .658.13 1.185.392 1.58.13.396.782.528 1.173.528z" fill="url(#paint20_linear)"/><path d="M77.79 60.928c-.522 0-.783 0-1.044.132a1.34 1.34 0 00-.782.658c-.13.264-.13.66-.13.791v.132l.13.132c.39.658.912.79 1.565.658.39-.131.912-.527 1.564-1.185.261-.264.522-.528.652-.791.13-.132.13-.264.261-.395-.391 0-.782-.132-1.304-.132h-.913z" fill="url(#paint21_linear)"/><path d="M71.138 28.778c-.13 0-.26-.131-.521-.131h-.13c-.783 0-2.087.658-2.739 1.054.13 0 .13.131.26.131l.783.527c.522.396 1.044.527 1.435.66h.26c.783 0 1.174-.66 1.304-.791l.131-.132v-.132c-.13-.263-.26-.922-.783-1.186z" fill="url(#paint22_linear)"/><path d="M75.442 37.606c-.13-.132-.26-.263-.391-.263-.261-.132-.652-.132-1.044-.132h-.651c-.522 0-1.044.132-1.305.132.13.263.392.527.783.922l.13.132c.13.132.261.395.522.527.26.132.391.263.521.395.261.132.392.132.652.132.522 0 .913-.395 1.044-.395l.13-.132v-.659a.726.726 0 00-.391-.659z" fill="url(#paint23_linear)"/><path d="M75.964 53.813h.13l.13-.132c.13-.131.652-.79 0-1.58-.39-.528-1.956-1.055-2.738-1.319 0 .264.13.66.26 1.055.131.658.392 1.185.522 1.58.261.396.652.528 1.174.528.26-.132.391-.132.522-.132z" fill="url(#paint24_linear)"/><path d="M73.356 32.995h-.392c-.782 0-1.956.263-2.608.527.522.527 1.435 1.45 2.087 1.58h.39c.653 0 1.044-.526 1.174-.658l.13-.132v-.131c0-.132 0-.396-.13-.66 0-.131-.26-.395-.651-.526z" fill="url(#paint25_linear)"/><path d="M76.355 42.35c-.652-.395-2.348-.527-2.87-.527h-.26c.13.263.26.659.522.922a6.405 6.405 0 001.043 1.318c.26.131.522.263.782.263.392 0 .783-.132.913-.263l.13-.132v-.132c0-.132.131-.395.131-.659 0-.395-.13-.658-.391-.79z" fill="url(#paint26_linear)"/><path d="M76.746 48.674c.13-.263.391-.79.13-1.317-.13-.132-.13-.264-.26-.396-.522-.527-2.217-.79-2.87-.922.131.264.261.659.392 1.054.26.659.521 1.054.782 1.318.261.263.652.395 1.044.395.26 0 .521-.132.652-.132h.13z" fill="url(#paint27_linear)"/><path d="M58.228 78.98c-.391-.132-.652-.132-1.043 0-.26.131-.522.263-.652.395h-.13v.132c-.13.658 0 1.185.521 1.449l.13.132c.261.131.783.263 1.435.263s1.434-.132 1.956-.132c-.522-.658-1.565-1.976-2.217-2.24z" fill="url(#paint28_linear)"/><path d="M36.58 79.375c-.26-.264-.52-.396-.782-.527-.391-.132-.652-.132-1.043 0-.652.263-1.565 1.317-2.217 2.24.522.131 1.304.131 1.956.131.652 0 1.174-.131 1.435-.263 0 0 .13 0 .13-.132.522-.263.652-.79.522-1.45z" fill="url(#paint29_linear)"/><path d="M26.67 73.709c-.261-.264-.652-.264-1.044-.264-.652 0-1.956.923-2.738 1.45.391.132.782.395 1.304.659.522.263 1.434.526 1.826.395h.13c.522-.132.913-.527 1.043-1.186v-.132l-.13-.132c0-.263-.13-.527-.391-.79z" fill="url(#paint30_linear)"/><path d="M31.886 77.398a1.58 1.58 0 00-.652-.659c-.391-.131-.652-.263-1.043-.131-.652.131-1.696 1.054-2.478 1.844.13 0 .26.132.391.132.261.132.652.132 1.043.263.783.132 1.565.264 1.957.132.652-.263.912-.659.912-1.45l-.13-.13z" fill="url(#paint31_linear)"/><path d="M66.183 73.84c-.26.132-.391.396-.522.66l-.13.131v.132c.13.659.391 1.054 1.043 1.318h.392c.521 0 1.173-.264 1.695-.396.521-.132 1.043-.395 1.304-.659-.913-.658-2.087-1.449-2.739-1.449-.39-.132-.652 0-1.043.264z" fill="url(#paint32_linear)"/><path d="M23.41 71.337v-.263c0-.132-.13-.527-.392-.66-.26-.263-.521-.395-1.043-.395-.652 0-1.826.528-2.869 1.055.26.263.782.527 1.304.79.783.395 1.435.659 1.826.659.521 0 .913-.395 1.174-1.186z" fill="url(#paint33_linear)"/><path d="M74.268 65.54c-.39.131-.652.263-.912.658-.13.264-.261.527-.261.79v.133l.13.131c.26.66.652.923 1.304.923h.13a5.474 5.474 0 001.696-.923c.26-.263.521-.395.782-.658l.261-.264c-.652-.132-1.956-.527-2.739-.527-.13-.263-.26-.263-.39-.263z" fill="url(#paint34_linear)"/><path d="M64.749 74.236l-.392-.132.783-.527c.13-.132.26-.132.391-.263a2.25 2.25 0 01.522-.396l.26-.263c.13-.132.392-.264.653-.527l.652-.527.26-.264c.392-.132 1.044-.132 1.565-.132h.13-.13c-.26 0-.521 0-.782-.131l-.391-.132.521-.395.391-.396.522-.527.26-.263.392-.396.391-.527c.13-.131.261-.395.391-.527.13-.263.261-.395.261-.395.261-.132.783-.264 1.044-.264.13 0 .26 0 .39-.131h.131-1.303l.52-.79c.131-.133.131-.264.262-.396l.39-.527.653-1.054c.13-.132.26-.264.26-.527 0-.132.131-.132.131-.264l.26-.395a.991.991 0 01.653-.264c.26-.131.522-.131.652-.263h.13-.13c-.26 0-.522.132-.782.132h-.392l.522-1.186c.13-.132.13-.264.26-.396 0-.131.131-.263.131-.263l.391-.922c.13-.132.13-.264.13-.396l.653-1.449c.26-.264.913-.527 1.304-.79h.13-.13c-.13 0-.26.131-.26.131-.131 0-.262.132-.523.132l-.39.132.26-.923c0-.131.13-.263.13-.395.13-.263.13-.527.13-.527s0-.132.131-.395c0-.264.13-.527.13-.79.131-.528.261-1.187.261-1.187v-.131c.261-.264.783-.66 1.174-1.054h.13-.13l-.782.395-.392.132.13-.396s.131-.395.131-.79l.13-1.186c0-.264 0-.527.131-.79v-.264c0-.396 0-.66.13-1.054v-.396c.261-.395.653-.79 1.044-1.185l.13-.132.13.132c.653.395 1.174.263 1.566 0l.13-.132c.26-.264.521-.923.782-1.845.13-.527.261-1.054.261-1.45-.913.264-2.347.923-2.869 1.45-.26.264-.391.659-.391 1.054 0 .264.13.527.26.79l.131.133-.391.263c-.13.132-.26.264-.391.264l-.391.263v-4.348c.13-.395.521-.922.782-1.318l.13-.131-.13.131c-.13.132-.391.396-.522.66l-.26.263v-.396s0-.395-.13-.79l-.131-.79s0-.133-.13-.396c0-.264-.131-.659-.262-.922v-.132c-.13-.264-.13-.659-.26-.79-.13-.264-.13-.396-.13-.396.13-.264.26-.659.39-1.054 0-.132.13-.264.13-.395v-.132.132c0 .131-.13.131-.13.263-.13.132-.13.264-.26.395l-.261.264-.26-.659s-.131-.263-.262-.659l-.13-.395c0-.132 0-.132-.13-.132l-.392-1.054c-.13-.263-.13-.395-.26-.659v-.131c-.131-.264-.131-.396-.131-.396 0-.263.13-.79.26-1.185l.131-.396v.132c0 .132-.13.395-.391.79l-.13.396-.783-1.581c-.13-.132-.13-.264-.13-.264l-.652-1.317-.783-1.318c0-.395 0-1.054.13-1.581v-.132l-.13.527c0 .132-.13.264-.13.395l-.13.396-.392-.527s0-.132-.13-.132c-.13-.132-.13-.264-.261-.395l-.652-.791c-.13-.132-.26-.395-.522-.659-.13-.263-.39-.395-.521-.659l-.261-.263v-.132c-.13-.395-.13-1.054-.13-1.581v-.132.132c0 .264 0 .527-.13.79l-.131.396-.261-.264-.13-.131-.261-.264-.913-.922c-.13-.132-.261-.264-.391-.264l-.522-.395c-.13-.132-.391-.395-.522-.395-.26-.132-.39-.264-.39-.264-.131-.264-.262-.79-.262-1.186 0-.131 0-.263-.13-.395v-.132 1.318l-1.174-.922c-.13-.132-.13-.132-.26-.132l-1.174-.79c-.13-.133-.392-.264-.522-.264l-.13-.132c-.13-.132-.261-.132-.261-.132a1.012 1.012 0 01-.261-.659c-.13-.263-.13-.527-.26-.659v-.131.131c0 .264.13.527.13.791v.264l-.261-.132s-1.565-.527-1.826-.659c-.13-.132-.652-.264-1.173-.527 1.304.659 2.738 1.45 2.868 1.581.261.132.392.264.653.395.13 0 .26.132.26.132l.783.395-.392.132c-.26.132-.521.264-.782.264.391-.132.913-.264 1.434-.264h.13l.653.396c.13.131.13.131.26.131l.131.132.652.527.783.527 1.043.79-.391.132c-.261.132-.522.132-.783.132h1.435l.521.395.392.396.782.659.391.395.392.395.39.395.522.66h-1.173c.26 0 1.043.131 1.434.263l1.174 1.58.521.791c.13.132.13.264.261.396l.522.79h-1.174c.652.132 1.174.264 1.435.527l.652 1.054s.13.132.26.396l.131.263.391.79c.13.264.261.528.261.66 0 .131.13.263.13.263l.392.79-.392-.131c-.26 0-.521-.132-.782-.132.391.132.913.396 1.304.659v.132-.132l.782 2.24c0 .132.13.395.13.527l.392 1.45-.391-.132c-.261-.132-.522-.264-.783-.264.392.264.913.527 1.174.922 0 0 .13.264.13.527 0 .132 0 .264.13.396v.395l.131.395c0 .264.13.66.13 1.054l.131 1.054v.923l-.26-.132c-.262-.132-.392-.264-.653-.395h-.13c.13.132.782.659 1.043 1.054V49.2l-.26-.263c-.262-.132-.392-.396-.653-.527.261.395.652.79.913 1.185v.528c0 .263-.13.527-.13.527v.527c0 .263-.13.659-.13 1.054 0 .132 0 .263-.131.395 0 .264-.13.527-.13.659l-.261.922-.261-.263c-.13-.264-.391-.396-.522-.66.261.396.522.923.652 1.318l-.39 1.582c0 .131-.131.395-.131.395s-.13.395-.261.922c0 .132-.13.395-.13.527l-.261.79-.261-.263c-.13-.263-.261-.527-.391-.658.13.263.39.922.521 1.449l-.521 1.186c0 .131-.13.263-.13.395-.131.264-.262.659-.523.922-.13.264-.26.527-.39.66 0 .13-.131.263-.131.263a1.63 1.63 0 01-.26.395l-.262.395-.13-.395c-.13-.264-.26-.527-.26-.79.13.395.26 1.053.26 1.449l-.391.659c0 .131-.13.131-.13.263l-.392.659c-.13.132-.522.659-.652.922l-.783 1.054-.13-.395c-.13-.264-.13-.527-.13-.79v1.449l-.391.527-.392.395-.39.395-.392.396-.652.658-.522.528-.391.395-.26.263v-1.185c0 .395-.131 1.054-.262 1.449l-1.304 1.054-.26.264-.783.527c-.13.131-.26.131-.391.263l-.13.132-.522.395v-1.186c-.13.396-.261 1.054-.392 1.45l-1.173.659c-.13 0-.26.131-.391.131-.261.132-.652.264-.913.527-.261.132-.391.132-.522.264-.13.132-.26.132-.391.263l-.522.264-.39.132.13-.396c0-.263.13-.527.13-.79-.13.395-.391.922-.652 1.317l-.652.264c-.13 0-.261.132-.261.132h-.13l-1.174.395c-.13 0-.26.132-.391.132h-.261c-.522.131-.913.263-.913.263l-.391.132.13-.395c.13-.264.261-.527.261-.79-.26.394-.522.921-.913 1.185l-.652.132h-.13c-1.956.395-3.912.527-5.477.527h-.13c-1.174 0-3-.132-5.608-.527h-.261c-.13 0-.26 0-.391-.132l-.652-.132c-.261-.263-.652-.79-.783-1.186.13.264.13.527.261.79l.13.396-1.434-.395c-.13 0-.391-.132-.522-.132l-1.043-.395h-.13c-.13 0-.261-.132-.391-.132l-.652-.263a6.176 6.176 0 01-.653-1.318c0 .263.13.527.13.79l.131.396-.391-.132s-.13-.132-.391-.263c-.13 0-.261-.132-.391-.132-.261-.132-.392-.132-.653-.264l-.13-.132-.782-.395c-.261-.132-.392-.263-.392-.263l-1.043-.66c-.13-.394-.391-1.053-.391-1.448v1.185l-.782-.527c-.13-.131-.261-.131-.392-.263l-.782-.527-.26-.264-1.305-1.054c-.13-.395-.26-1.054-.26-1.45v1.187l-.262-.264s-.13-.132-.39-.263l-.522-.528-.783-.658c-.13-.132-.26-.264-.26-.396-.131-.131-.262-.263-.262-.395l-.39-.395-.392-.527v-1.45c0 .264-.13.528-.13.791l-.13.395-.783-1.054-.522-.79-.391-.66-.13-.13c-.13-.133-.13-.264-.261-.396l-.392-.527c0-.395.13-1.054.261-1.45-.13.264-.26.527-.26.79l-.13.396-.392-.79c0-.132-.13-.132-.13-.264-.131-.263-.261-.395-.392-.659l-.521-1.054c-.13-.132-.13-.263-.13-.395v-.132l-.523-1.186a8.74 8.74 0 01.522-1.449c-.13.264-.26.395-.391.659l-.26.395-.262-.79c0-.132-.13-.264-.13-.528-.13-.395-.26-.922-.26-.922s0-.132-.131-.395c0-.132-.13-.395-.13-.395l-.392-1.186c.13-.396.522-1.054.652-1.318l-.13.132c-.13.132-.261.263-.392.527l-.26.263-.13-.395s0-.263-.131-.527c0-.132-.13-.395-.13-.659 0-.131 0-.263-.131-.395v-.264c0-.263-.13-.658-.13-.79v-.527s0-.264-.13-.527v-.659c.13-.395.52-.79.912-1.186-.13.132-.391.264-.652.527l-.26.264v-4.216a3.99 3.99 0 011.043-1.054l-.131.132c-.13.132-.391.264-.522.395l-.26.264v-.923c0-.263.13-.658.13-1.054 0-.395.13-.658.13-.922v-.132c0-.263.13-.527.13-.527v-.263c0-.132 0-.264.131-.396 0-.263.13-.527.13-.527.261-.263.783-.658 1.174-.922-.26.132-.521.132-.782.264l-.391.131.13-.395s.13-.527.26-.922v-.132c0-.132.131-.395.131-.527l.391-1.054v-.264c0-.132.13-.263.13-.263l.262-.527a6.07 6.07 0 011.304-.66c-.261 0-.522.133-.783.133l-.39.132.39-.791c0-.132.13-.264.13-.395.131-.264.131-.396.262-.66.13-.263.26-.395.26-.658l.13-.395c.131-.264.262-.396.262-.396l.652-1.054c.39-.131.912-.263 1.434-.395h-1.303l.39-.527.13-.132c.131-.131.131-.263.261-.395l.522-.79.26-.264.262-.264.782-.922c.391-.132 1.174-.264 1.435-.264h-1.174l.522-.658c.13-.132.26-.264.39-.527l.262-.264.26-.263.13-.264c.131-.132.262-.264.392-.264l.391-.395.391-.395c.261-.132.392-.395.392-.395h1.434c-.26 0-.521-.132-.782-.132l-.391-.132 1.043-.79.782-.527.783-.527.26-.132.131.131-.13-.131.521-.264h.13c.392 0 1.044.132 1.435.264-.26-.132-.522-.132-.782-.264l-.392-.131.783-.396c.13 0 .13-.132.26-.132.262-.131.392-.263.653-.395.13-.132 1.565-.79 2.869-1.581-.522.264-1.044.395-1.174.527-.391.132-1.826.659-1.956.659l-.26.132v-.264c0-.263.13-.659.13-.79v-.132.131c0 .132-.13.396-.261.66v.131c-.13.264-.261.527-.261.659l-.522.263c-.13.132-.391.132-.521.264l-1.044.659s-.13 0-.13.131l-1.435 1.055v-1.318l-.13.395c-.13.395-.13.79-.26 1.186 0 0-.131.132-.392.264-.13.131-.391.395-.652.527l-.391.263c-.13.132-.392.264-.522.396l-.913.922-.391.395-.522.527-.13-.395c0-.395-.13-.659-.13-.79v-.133.132c0 .527 0 1.186-.13 1.581l-.262.264-.521.659c-.261.263-.392.395-.522.659l-.26.263-.131.132-.391.395c-.13.132-.13.264-.261.264l-.522.79-.13-.395c0-.132-.13-.264-.13-.527l-.131-.395v.131c.13.66.13 1.186.13 1.582l-.782 1.317-.652 1.186s0 .132-.13.264c0 .131-.13.131-.13.263l-.653 1.318-.13-.396-.392-.79v-.132l.13.395c.131.396.262.79.262 1.186 0 0 0 .132-.13.264a1.008 1.008 0 00-.261.658l-.522 1.186c0 .132 0 .132-.13.264l-.522 1.45-.261-.264c-.13-.132-.13-.264-.26-.396l-.262-.395v.132c0 .132.13.263.13.263.131.396.392.791.392 1.055l-.13.527c-.13.263-.13.527-.261.79v.264c-.13.263-.13.659-.13.79v.264l-.131 1.054c-.13.395-.13.79-.13.79v.396l-.261-.264c-.261-.263-.392-.395-.522-.659l-.13-.131.13.131c.391.527.652 1.054.783 1.318v4.349l-.392-.264c-.13-.132-.26-.264-.39-.264l-.262-.263-.13-.132.13.132c.261.263.783.79 1.043 1.185v.527l.13 1.186c0 .264 0 .527.131.79v.396s0 .395.13.79c0 .396.131.791.131.791l.13.396-.39-.132-.783-.395c.391.263.913.658 1.174 1.054v.131l.26 1.186c0 .264.13.527.13.79l.262 1.055c0 .132.13.263.13.395l.26.922-.39-.131c-.13 0-.261-.132-.522-.132-.13 0-.26-.132-.26-.132h-.131l.13.132c.391.264.913.527 1.174.79v.132l.521 1.318c.13.263.13.395.261.527 0 .132.13.264.13.264v.131l.131.264s0 .132.13.263c0 .132.13.264.13.396l.653 1.185h-.391c-.261 0-.652-.131-.783-.131h-.13.13c.261.132.391.132.652.263.261.132.522.264.652.264l.261.395s.13.132.13.264c.131.131.131.263.261.527l.652 1.054s0 .131.13.131l1.044 1.45h-1.304.13c.13 0 .261 0 .392.132.39.131.782.131 1.173.263 0 0 .13.132.261.395.13.132.26.396.522.527l.13.132c.13.132.261.264.261.396.13.131.26.263.26.395l.914.922.39.395.131.132.261.264-.391.131c-.261 0-.652.132-.783.132h-.13.13c.522 0 1.174 0 1.565.132l.261.264.652.526c.26.132.391.396.522.396l.521.395c.13.132.261.132.261.264.13.131.261.263.391.263l.13.132.523.395-.392.132c-.13 0-.26.132-.391.132l-.522.132h.13c.392 0 1.044-.132 1.566-.132l1.304.79c.521.264 1.043.66 1.173.66l1.826.921-.391.132-.783.395h-.13l.391-.131c.392-.132.913-.264 1.174-.264l.522.264c.13.131.39.131.652.263l1.043.395s.13 0 .13.132l1.696.527-.261.264c-.13.132-.261.263-.392.263l-.39.264h.13c.13 0 .26-.132.39-.132.392-.132.783-.263 1.044-.395l.522.132c.26.131.521.131.913.263h.13c.391.132.652.132.913.264.26 0 .391.131.391.131.913.264 2.478.396 3.651.396h1.565c1.304 0 3.913-.132 6.651-.66l.522-.13c.26-.133.652-.133.782-.264.261-.132.392-.132.392-.132.26.132.652.263 1.043.395.13 0 .26.132.391.132h.13-.13c-.13 0-.13-.132-.26-.132-.131-.132-.262-.132-.392-.263l-.391-.264 1.695-.527h.13l1.044-.395c.26-.132.39-.132.652-.264h.13c.13-.132.391-.132.391-.132.261 0 .783.132 1.044.264.13 0 .26.132.39.132h.131-.13l-.783-.395-.39-.132 1.564-.79c.13-.133.26-.133.26-.133l1.174-.658c.652-.396 1.174-.791 1.174-.791.391 0 .783 0 1.565.132l-.391-.132c-.13-.922-.261-.922-.391-1.054z" fill="url(#paint35_linear)"/><path d="M70.878 70.02c-.522 0-.783.263-1.044.395-.13.132-.26.395-.39.659v.263c.26.79.651 1.054 1.303 1.054.391 0 1.044-.263 1.826-.659.522-.263.913-.658 1.304-.79-.913-.395-2.217-.922-3-.922z" fill="url(#paint36_linear)"/><path d="M61.619 76.871a1.028 1.028 0 00-.522.527l-.13.132v.132c0 .79.26 1.185.913 1.45.39.13 1.173.13 1.956-.133.391-.132.782-.132 1.043-.263.13 0 .26-.132.391-.132-.652-.659-1.825-1.713-2.477-1.845-.522-.131-.783-.131-1.174.132z" fill="url(#paint37_linear)"/><path d="M17.932 58.03l.261.13h.261c.391 0 .913-.13 1.304-.79.13-.263.26-.922.391-1.449l.13-.922v-.264c-.782.395-2.216 1.186-2.477 1.713-.13.132-.13.264-.13.395-.261.79.26 1.186.26 1.186z" fill="url(#paint38_linear)"/><path d="M25.235 69.097c0 .396.13.66.391.923.261.132.392.263.652.395h.261c.261-.132 1.044-.395 1.044-1.318 0-.395-.13-.922-.392-1.58-.13-.396-.26-.791-.39-1.055-.653.659-1.566 1.977-1.566 2.635z" fill="url(#paint39_linear)"/><path d="M22.236 66.33c.13.132.391.264.521.264h.261c.261 0 1.043-.264 1.174-1.186v-.659c0-.263-.13-.527-.13-.79 0-.264-.13-.66-.261-.923 0-.132 0-.132-.13-.263-.653.658-1.696 1.844-1.826 2.503v.527c0 .132 0 .264.13.395.13 0 .26 0 .26.132z" fill="url(#paint40_linear)"/><path d="M20.15 62.773l.26.132c.261 0 1.043-.132 1.435-1.054.13-.396.13-1.054.13-1.582 0-.263 0-.527-.13-.79v-.264c-.652.527-1.956 1.45-2.217 2.108-.13.528-.13.791 0 1.055.13.131.391.263.521.395z" fill="url(#paint41_linear)"/><path d="M30.973 71.733c0-.264-.26-.791-.652-1.45-.13-.263-.391-.527-.522-.79 0-.132-.13-.132-.13-.264-.391.79-1.043 2.24-1.043 2.899 0 .132 0 .263.13.527.261.527.913.659 1.043.659h.13l.131-.132c.261 0 1.044-.527.913-1.45z" fill="url(#paint42_linear)"/><path d="M54.055 77.398h.652c.261 0 .392-.131.652-.263.13-.132.261-.264.261-.395.13-.396.13-.923.13-1.713 0-.527-.13-1.055-.13-1.318-.26.132-.521.395-.913.79l-.652.66a1.79 1.79 0 01-.391.526c-.391.791.13 1.45.391 1.713z" fill="url(#paint43_linear)"/><path d="M35.146 74.104c-.13-.395-.521-.79-.782-1.317v-.132c-.261-.264-.392-.527-.522-.659 0-.132-.13-.132-.13-.132-.261.923-.652 2.372-.522 3.03.13.528.391.66.652.791.26.132.522.132.652.132h.13l.13-.132c0-.131.653-.659.392-1.58z" fill="url(#paint44_linear)"/><path d="M39.189 75.554c-.13-.132-.261-.396-.391-.527l-.392-.396-.13-.131c-.26-.264-.652-.528-.913-.791 0 .263-.13.79-.13 1.318-.13.79 0 1.449.13 1.713.13.131.13.263.26.395a.99.99 0 00.653.263h.652l.13-.131c0-.132.522-.791.13-1.713z" fill="url(#paint45_linear)"/><path d="M58.228 75.685l.261.132c.13 0 .391 0 .652-.132.26-.131.522-.263.652-.79.13-.659-.26-2.108-.521-3.03 0 0 0 .131-.131.131l-.13.132c-.13.132-.392.395-.522.659-.391.395-.782.922-.782 1.317-.261.922.39 1.45.521 1.581z" fill="url(#paint46_linear)"/><path d="M33.19 19.423c-.391-.131-.652-.131-1.043 0-.261.132-.391.396-.522.527v.264c0 .263.13 1.054 1.043 1.45.13.131.522.131.913.131h.652c.261 0 .652 0 .783-.132h.26c-.39-.79-1.434-1.976-2.086-2.24z" fill="url(#paint47_linear)"/><path d="M25.366 25.089c-.392 0-.652.132-.913.395-.13.264-.261.527-.261.659v.264c.13.263.391 1.054 1.304 1.054.391 0 .913-.132 1.565-.396.391-.132.782-.263 1.043-.395-.782-.659-2.086-1.581-2.738-1.581z" fill="url(#paint48_linear)"/><path d="M35.407 16.788c.391.395.652.659 1.174.659.13 0 .39 0 .521-.132.652-.264 1.696-1.581 2.217-2.24-.391-.132-1.304-.132-1.956-.132-.521 0-.913 0-1.043.132-1.043.395-.913 1.186-.913 1.713z" fill="url(#paint49_linear)"/><path d="M19.758 67.12l.13-.13v-.133c0-.263-.13-.527-.26-.79-.261-.264-.522-.527-.913-.659h-.391c-.913 0-2.087.395-2.739.527l.26.263c.262.264.522.528.783.66.652.526 1.304.922 1.696.922h.26c.522.263.913-.132 1.174-.66z" fill="url(#paint50_linear)"/><path d="M16.107 43.008c0 .264 0 .528.13.66v.131l.13.132c.13.132.522.263.913.263.261 0 .522-.131.783-.263.26-.264.652-.659 1.043-1.318.26-.395.391-.659.522-.922h-.261c-1.304 0-2.347.132-2.739.395-.26.395-.39.659-.521.922z" fill="url(#paint51_linear)"/><path d="M25.235 29.569c-.652-.395-2.086-1.054-2.869-1.054-.13 0-.26 0-.521.131-.522.264-.652.923-.652 1.055v.131l.13.132c.13.264.522.922 1.565.79.391 0 .913-.263 1.434-.658l.783-.527c0 .132.13.132.13 0z" fill="url(#paint52_linear)"/><path d="M16.107 48.41l.26.132c.13 0 .392.132.783.132s.652-.132.913-.395c.26-.264.521-.659.782-1.318.261-.395.392-.79.392-1.054-.913.132-2.348.396-2.87.923-.13.131-.26.263-.26.395-.391.527-.13 1.054 0 1.186z" fill="url(#paint53_linear)"/><path d="M16.759 53.681h.13c.13 0 .261.132.522.132.521 0 .913-.132 1.173-.527.261-.264.392-.922.522-1.581.13-.396.13-.79.26-1.054-.782.263-2.346.79-2.738 1.317-.652.79 0 1.581.13 1.713z" fill="url(#paint54_linear)"/><path d="M17.28 38.792c.261.264.652.527 1.174.527.26 0 .391 0 .652-.132.13-.131.391-.263.522-.395l.521-.527.13-.132c.262-.263.522-.659.783-.922-.26 0-.782-.132-1.304-.132h-.652c-.522 0-.782 0-1.043.132-.13.132-.261.132-.391.263-.13.132-.261.396-.261.66v.526l-.13.132z" fill="url(#paint55_linear)"/><path d="M11.673 46.83c.13.131.13.131 0 0 .522.527 1.043.527 1.695.131l.13-.131.131-.132c.13-.132.26-.395.26-.79 0-.396-.13-.66-.39-1.055-.392-.527-1.696-1.054-2.87-1.45 0 .396.131.923.261 1.45.261 1.054.522 1.713.783 1.977z" fill="url(#paint56_linear)"/><path d="M13.629 36.025c.26.527.782.659 1.434.527h.13l.131-.132c.261-.263.392-.395.392-.658.13-.396.13-.66 0-1.054-.261-.66-1.435-1.713-2.217-2.24-.13.79-.392 2.635.13 3.557 0-.132 0-.132 0 0z" fill="url(#paint57_linear)"/><path d="M63.053 69.493l-.13.263c-.13.132-.26.395-.26.527-.392.527-.522 1.054-.653 1.45-.13.922.652 1.449.782 1.58l.131.132h.13c.13 0 .652 0 1.044-.658.13-.132.13-.264.13-.527.13-.791-.652-2.24-1.043-2.9l-.13.133z" fill="url(#paint58_linear)"/><path d="M16.89 31.809h.26l.13-.132c.13-.132.392-.263.522-.527.13-.395.26-.659.13-1.054-.13-.659-1.043-1.713-1.825-2.503 0 .131-.13.263-.13.395-.131.263-.131.659-.261 1.054-.13.79-.261 1.581-.13 1.976.13.527.651.79 1.303.79z" fill="url(#paint59_linear)"/><path d="M13.498 58.03c.522.263 1.044.131 1.565-.396l.13-.132v-.922c-.13-.395-.26-.659-.651-.79-.522-.396-1.956-.528-3.13-.528.13.395.391.79.782 1.318.392.527.913 1.186 1.304 1.45 0 0-.13 0 0 0z" fill="url(#paint60_linear)"/><path d="M17.15 62.773l.13-.264c0-.132 0-.527-.13-.79-.13-.396-.391-.528-.782-.791-.261-.132-.652-.132-1.174-.132h-.652c-.522 0-1.043.132-1.304.132.13.132.13.263.26.395.131.264.522.527.653.79.521.66 1.173 1.055 1.565 1.187.521.263 1.043.131 1.434-.527z" fill="url(#paint61_linear)"/><path d="M18.715 26.011c.13.66.521.923 1.304 1.054h.13l.13-.131c.131-.132.392-.264.653-.527.26-.264.26-.66.26-1.055 0-.658-.782-1.844-1.434-2.767-.13.396-.391.791-.652 1.318-.26.659-.522 1.45-.391 2.108z" fill="url(#paint62_linear)"/><path d="M12.194 52.759c.522.395 1.174.395 1.696-.132l.13-.132v-.131c.13-.527.261-1.186-.391-1.713-.522-.395-1.826-.79-3-.923.131.396.261.923.522 1.45.261.527.652 1.318 1.043 1.581z" fill="url(#paint63_linear)"/><path d="M12.194 41.56c.392.526.913.658 1.696.395h.13l.13-.132c.131-.132.261-.396.261-.66.13-.394 0-.658-.26-1.053-.392-.527-1.565-1.318-2.608-1.845 0 .395 0 .922.13 1.45.13.922.26 1.58.521 1.844z" fill="url(#paint64_linear)"/><path d="M31.625 16.92l.261.132c.13 0 .391 0 .782-.132.392-.132.522-.395.653-.79.13-.396.13-.923.13-1.845 0-.527-.13-1.054-.13-1.318-.131.132-.261.132-.392.264-.26.263-.521.527-.782.658-.652.527-1.043 1.186-1.174 1.582-.13.527.13 1.054.652 1.449z" fill="url(#paint65_linear)"/><path d="M23.149 23.244h.26c.131 0 .522-.131.653-.395.13-.132.39-.527.39-1.054 0-.659-.52-1.977-1.042-3.03-.261.263-.522.79-.783 1.317-.391.79-.652 1.45-.652 1.845.13.659.522 1.054 1.174 1.317z" fill="url(#paint66_linear)"/><path d="M22.627 33.522c-.652-.264-1.826-.527-2.608-.527h-.391c-.522.131-.652.395-.783.658-.13.264-.13.66-.13.66v.131l.13.132c.13.132.522.659 1.174.659h.391c.783-.264 1.826-1.318 2.217-1.713z" fill="url(#paint67_linear)"/><path d="M66.705 70.415c.13 0 .39-.132.652-.395.26-.264.391-.527.391-.923 0-.658-.913-1.976-1.434-2.767-.13.264-.261.66-.392 1.054-.26.66-.391 1.186-.391 1.582 0 .922.782 1.317 1.043 1.449h.13z" fill="url(#paint68_linear)"/><path d="M69.052 63.036c-.13.264-.13.659-.26.923v.131c0 .264-.131.527-.131.79v.66c.13.922 1.043 1.186 1.173 1.186h.261c.13 0 .261-.132.522-.264l.26-.264c0-.131.131-.263.131-.395v-.527c-.13-.659-1.174-1.844-1.826-2.503-.13.131-.13.263-.13.263z" fill="url(#paint69_linear)"/><path d="M31.495 23.64h.26c-.651-.66-1.695-1.713-2.477-1.845h-.522c-.13 0-.26 0-.39.132-.131 0-.131.131-.262.263-.13.132-.26.264-.26.527v.264c0 .263.26 1.054 1.173 1.186h.652c.26 0 .391-.132.652-.132h.13c.392-.132.653-.264 1.044-.395z" fill="url(#paint70_linear)"/><path d="M27.452 19.555h.26c.131 0 .392-.132.653-.264.26-.263.522-.527.652-.922.13-.79-.26-2.372-.522-3.162l-.26.263c-.261.264-.522.527-.652.79-.522.66-.913 1.318-.913 1.714v.131c-.13.66.13 1.186.782 1.45z" fill="url(#paint71_linear)"/><defs><linearGradient id="paint0_linear" x1="46.492" y1=".581" x2="46.492" y2="93.078" gradientUnits="userSpaceOnUse"><stop stop-color="#C5AC7B"/><stop offset=".342" stop-color="#EFCE8E"/><stop offset="1" stop-color="#DFB05B"/></linearGradient><linearGradient id="paint1_linear" x1="31.821" y1="38.265" x2="31.821" y2="55.789" gradientUnits="userSpaceOnUse"><stop stop-color="#C5AC7B"/><stop offset=".342" stop-color="#EFCE8E"/><stop offset="1" stop-color="#DFB05B"/></linearGradient><linearGradient id="paint2_linear" x1="41.797" y1="38.265" x2="41.797" y2="55.789" gradientUnits="userSpaceOnUse"><stop stop-color="#C5AC7B"/><stop offset=".342" stop-color="#EFCE8E"/><stop offset="1" stop-color="#DFB05B"/></linearGradient><linearGradient id="paint3_linear" x1="52.164" y1="38.265" x2="52.164" y2="55.789" gradientUnits="userSpaceOnUse"><stop stop-color="#C5AC7B"/><stop offset=".342" stop-color="#EFCE8E"/><stop offset="1" stop-color="#DFB05B"/></linearGradient><linearGradient id="paint4_linear" x1="61.423" y1="38.265" x2="61.423" y2="55.789" gradientUnits="userSpaceOnUse"><stop stop-color="#C5AC7B"/><stop offset=".342" stop-color="#EFCE8E"/><stop offset="1" stop-color="#DFB05B"/></linearGradient><linearGradient id="paint5_linear" x1="46.752" y1="12.044" x2="46.752" y2="21.795" gradientUnits="userSpaceOnUse"><stop stop-color="#C5AC7B"/><stop offset=".342" stop-color="#EFCE8E"/><stop offset="1" stop-color="#DFB05B"/></linearGradient><linearGradient id="paint6_linear" x1="59.532" y1="19.325" x2="59.532" y2="21.795" gradientUnits="userSpaceOnUse"><stop stop-color="#C5AC7B"/><stop offset=".342" stop-color="#EFCE8E"/><stop offset="1" stop-color="#DFB05B"/></linearGradient><linearGradient id="paint7_linear" x1="60.794" y1="12.703" x2="60.794" y2="16.92" gradientUnits="userSpaceOnUse"><stop stop-color="#C5AC7B"/><stop offset=".342" stop-color="#EFCE8E"/><stop offset="1" stop-color="#DFB05B"/></linearGradient><linearGradient id="paint8_linear" x1="55.689" y1="14.943" x2="55.689" y2="17.447" gradientUnits="userSpaceOnUse"><stop stop-color="#C5AC7B"/><stop offset=".342" stop-color="#EFCE8E"/><stop offset="1" stop-color="#DFB05B"/></linearGradient><linearGradient id="paint9_linear" x1="63.184" y1="21.795" x2="63.184" y2="24.167" gradientUnits="userSpaceOnUse"><stop stop-color="#C5AC7B"/><stop offset=".342" stop-color="#EFCE8E"/><stop offset="1" stop-color="#DFB05B"/></linearGradient><linearGradient id="paint10_linear" x1="65.383" y1="15.207" x2="65.383" y2="19.555" gradientUnits="userSpaceOnUse"><stop stop-color="#C5AC7B"/><stop offset=".342" stop-color="#EFCE8E"/><stop offset="1" stop-color="#DFB05B"/></linearGradient><linearGradient id="paint11_linear" x1="76.224" y1="27.593" x2="76.224" y2="31.941" gradientUnits="userSpaceOnUse"><stop stop-color="#C5AC7B"/><stop offset=".342" stop-color="#EFCE8E"/><stop offset="1" stop-color="#DFB05B"/></linearGradient><linearGradient id="paint12_linear" x1="80.006" y1="38.265" x2="80.006" y2="42.086" gradientUnits="userSpaceOnUse"><stop stop-color="#C5AC7B"/><stop offset=".342" stop-color="#EFCE8E"/><stop offset="1" stop-color="#DFB05B"/></linearGradient><linearGradient id="paint13_linear" x1="78.451" y1="32.468" x2="78.451" y2="36.6" gradientUnits="userSpaceOnUse"><stop stop-color="#C5AC7B"/><stop offset=".342" stop-color="#EFCE8E"/><stop offset="1" stop-color="#DFB05B"/></linearGradient><linearGradient id="paint14_linear" x1="66.9" y1="25.089" x2="66.9" y2="27.329" gradientUnits="userSpaceOnUse"><stop stop-color="#C5AC7B"/><stop offset=".342" stop-color="#EFCE8E"/><stop offset="1" stop-color="#DFB05B"/></linearGradient><linearGradient id="paint15_linear" x1="73.047" y1="22.585" x2="73.047" y2="27.065" gradientUnits="userSpaceOnUse"><stop stop-color="#C5AC7B"/><stop offset=".342" stop-color="#EFCE8E"/><stop offset="1" stop-color="#DFB05B"/></linearGradient><linearGradient id="paint16_linear" x1="69.639" y1="18.764" x2="69.639" y2="23.244" gradientUnits="userSpaceOnUse"><stop stop-color="#C5AC7B"/><stop offset=".342" stop-color="#EFCE8E"/><stop offset="1" stop-color="#DFB05B"/></linearGradient><linearGradient id="paint17_linear" x1="80.494" y1="49.86" x2="80.494" y2="53.172" gradientUnits="userSpaceOnUse"><stop stop-color="#C5AC7B"/><stop offset=".342" stop-color="#EFCE8E"/><stop offset="1" stop-color="#DFB05B"/></linearGradient><linearGradient id="paint18_linear" x1="72.257" y1="59.215" x2="72.257" y2="62.905" gradientUnits="userSpaceOnUse"><stop stop-color="#C5AC7B"/><stop offset=".342" stop-color="#EFCE8E"/><stop offset="1" stop-color="#DFB05B"/></linearGradient><linearGradient id="paint19_linear" x1="79.716" y1="55.262" x2="79.716" y2="58.161" gradientUnits="userSpaceOnUse"><stop stop-color="#C5AC7B"/><stop offset=".342" stop-color="#EFCE8E"/><stop offset="1" stop-color="#DFB05B"/></linearGradient><linearGradient id="paint20_linear" x1="74.148" y1="54.999" x2="74.148" y2="58.293" gradientUnits="userSpaceOnUse"><stop stop-color="#C5AC7B"/><stop offset=".342" stop-color="#EFCE8E"/><stop offset="1" stop-color="#DFB05B"/></linearGradient><linearGradient id="paint21_linear" x1="77.92" y1="60.928" x2="77.92" y2="63.477" gradientUnits="userSpaceOnUse"><stop stop-color="#C5AC7B"/><stop offset=".342" stop-color="#EFCE8E"/><stop offset="1" stop-color="#DFB05B"/></linearGradient><linearGradient id="paint22_linear" x1="69.835" y1="28.646" x2="69.835" y2="31.018" gradientUnits="userSpaceOnUse"><stop stop-color="#C5AC7B"/><stop offset=".342" stop-color="#EFCE8E"/><stop offset="1" stop-color="#DFB05B"/></linearGradient><linearGradient id="paint23_linear" x1="73.942" y1="37.211" x2="73.942" y2="39.451" gradientUnits="userSpaceOnUse"><stop stop-color="#C5AC7B"/><stop offset=".342" stop-color="#EFCE8E"/><stop offset="1" stop-color="#DFB05B"/></linearGradient><linearGradient id="paint24_linear" x1="75.016" y1="50.782" x2="75.016" y2="53.945" gradientUnits="userSpaceOnUse"><stop stop-color="#C5AC7B"/><stop offset=".342" stop-color="#EFCE8E"/><stop offset="1" stop-color="#DFB05B"/></linearGradient><linearGradient id="paint25_linear" x1="72.247" y1="32.995" x2="72.247" y2="35.103" gradientUnits="userSpaceOnUse"><stop stop-color="#C5AC7B"/><stop offset=".342" stop-color="#EFCE8E"/><stop offset="1" stop-color="#DFB05B"/></linearGradient><linearGradient id="paint26_linear" x1="74.986" y1="41.823" x2="74.986" y2="44.326" gradientUnits="userSpaceOnUse"><stop stop-color="#C5AC7B"/><stop offset=".342" stop-color="#EFCE8E"/><stop offset="1" stop-color="#DFB05B"/></linearGradient><linearGradient id="paint27_linear" x1="75.367" y1="46.039" x2="75.367" y2="48.806" gradientUnits="userSpaceOnUse"><stop stop-color="#C5AC7B"/><stop offset=".342" stop-color="#EFCE8E"/><stop offset="1" stop-color="#DFB05B"/></linearGradient><linearGradient id="paint28_linear" x1="58.4" y1="78.881" x2="58.4" y2="81.351" gradientUnits="userSpaceOnUse"><stop stop-color="#C5AC7B"/><stop offset=".342" stop-color="#EFCE8E"/><stop offset="1" stop-color="#DFB05B"/></linearGradient><linearGradient id="paint29_linear" x1="34.583" y1="78.749" x2="34.583" y2="81.219" gradientUnits="userSpaceOnUse"><stop stop-color="#C5AC7B"/><stop offset=".342" stop-color="#EFCE8E"/><stop offset="1" stop-color="#DFB05B"/></linearGradient><linearGradient id="paint30_linear" x1="25.04" y1="73.445" x2="25.04" y2="75.984" gradientUnits="userSpaceOnUse"><stop stop-color="#C5AC7B"/><stop offset=".342" stop-color="#EFCE8E"/><stop offset="1" stop-color="#DFB05B"/></linearGradient><linearGradient id="paint31_linear" x1="29.865" y1="76.553" x2="29.865" y2="79.034" gradientUnits="userSpaceOnUse"><stop stop-color="#C5AC7B"/><stop offset=".342" stop-color="#EFCE8E"/><stop offset="1" stop-color="#DFB05B"/></linearGradient><linearGradient id="paint32_linear" x1="67.748" y1="73.525" x2="67.748" y2="76.081" gradientUnits="userSpaceOnUse"><stop stop-color="#C5AC7B"/><stop offset=".342" stop-color="#EFCE8E"/><stop offset="1" stop-color="#DFB05B"/></linearGradient><linearGradient id="paint33_linear" x1="21.258" y1="70.019" x2="21.258" y2="72.523" gradientUnits="userSpaceOnUse"><stop stop-color="#C5AC7B"/><stop offset=".342" stop-color="#EFCE8E"/><stop offset="1" stop-color="#DFB05B"/></linearGradient><linearGradient id="paint34_linear" x1="75.246" y1="65.54" x2="75.246" y2="68.175" gradientUnits="userSpaceOnUse"><stop stop-color="#C5AC7B"/><stop offset=".342" stop-color="#EFCE8E"/><stop offset="1" stop-color="#DFB05B"/></linearGradient><linearGradient id="paint35_linear" x1="48.383" y1="17.315" x2="48.383" y2="80.429" gradientUnits="userSpaceOnUse"><stop stop-color="#C5AC7B"/><stop offset=".342" stop-color="#EFCE8E"/><stop offset="1" stop-color="#DFB05B"/></linearGradient><linearGradient id="paint36_linear" x1="71.66" y1="70.019" x2="71.66" y2="72.391" gradientUnits="userSpaceOnUse"><stop stop-color="#C5AC7B"/><stop offset=".342" stop-color="#EFCE8E"/><stop offset="1" stop-color="#DFB05B"/></linearGradient><linearGradient id="paint37_linear" x1="63.118" y1="76.653" x2="63.118" y2="79.198" gradientUnits="userSpaceOnUse"><stop stop-color="#C5AC7B"/><stop offset=".342" stop-color="#EFCE8E"/><stop offset="1" stop-color="#DFB05B"/></linearGradient><linearGradient id="paint38_linear" x1="18.939" y1="54.735" x2="18.939" y2="58.161" gradientUnits="userSpaceOnUse"><stop stop-color="#C5AC7B"/><stop offset=".342" stop-color="#EFCE8E"/><stop offset="1" stop-color="#DFB05B"/></linearGradient><linearGradient id="paint39_linear" x1="26.409" y1="66.462" x2="26.409" y2="70.415" gradientUnits="userSpaceOnUse"><stop stop-color="#C5AC7B"/><stop offset=".342" stop-color="#EFCE8E"/><stop offset="1" stop-color="#DFB05B"/></linearGradient><linearGradient id="paint40_linear" x1="23.018" y1="62.773" x2="23.018" y2="66.594" gradientUnits="userSpaceOnUse"><stop stop-color="#C5AC7B"/><stop offset=".342" stop-color="#EFCE8E"/><stop offset="1" stop-color="#DFB05B"/></linearGradient><linearGradient id="paint41_linear" x1="20.753" y1="59.215" x2="20.753" y2="62.905" gradientUnits="userSpaceOnUse"><stop stop-color="#C5AC7B"/><stop offset=".342" stop-color="#EFCE8E"/><stop offset="1" stop-color="#DFB05B"/></linearGradient><linearGradient id="paint42_linear" x1="29.807" y1="69.229" x2="29.807" y2="73.314" gradientUnits="userSpaceOnUse"><stop stop-color="#C5AC7B"/><stop offset=".342" stop-color="#EFCE8E"/><stop offset="1" stop-color="#DFB05B"/></linearGradient><linearGradient id="paint43_linear" x1="54.637" y1="73.709" x2="54.637" y2="77.398" gradientUnits="userSpaceOnUse"><stop stop-color="#C5AC7B"/><stop offset=".342" stop-color="#EFCE8E"/><stop offset="1" stop-color="#DFB05B"/></linearGradient><linearGradient id="paint44_linear" x1="34.186" y1="71.864" x2="34.186" y2="75.817" gradientUnits="userSpaceOnUse"><stop stop-color="#C5AC7B"/><stop offset=".342" stop-color="#EFCE8E"/><stop offset="1" stop-color="#DFB05B"/></linearGradient><linearGradient id="paint45_linear" x1="38.257" y1="73.709" x2="38.257" y2="77.398" gradientUnits="userSpaceOnUse"><stop stop-color="#C5AC7B"/><stop offset=".342" stop-color="#EFCE8E"/><stop offset="1" stop-color="#DFB05B"/></linearGradient><linearGradient id="paint46_linear" x1="58.732" y1="71.864" x2="58.732" y2="75.817" gradientUnits="userSpaceOnUse"><stop stop-color="#C5AC7B"/><stop offset=".342" stop-color="#EFCE8E"/><stop offset="1" stop-color="#DFB05B"/></linearGradient><linearGradient id="paint47_linear" x1="33.451" y1="19.325" x2="33.451" y2="21.795" gradientUnits="userSpaceOnUse"><stop stop-color="#C5AC7B"/><stop offset=".342" stop-color="#EFCE8E"/><stop offset="1" stop-color="#DFB05B"/></linearGradient><linearGradient id="paint48_linear" x1="26.148" y1="25.089" x2="26.148" y2="27.461" gradientUnits="userSpaceOnUse"><stop stop-color="#C5AC7B"/><stop offset=".342" stop-color="#EFCE8E"/><stop offset="1" stop-color="#DFB05B"/></linearGradient><linearGradient id="paint49_linear" x1="37.361" y1="14.943" x2="37.361" y2="17.447" gradientUnits="userSpaceOnUse"><stop stop-color="#C5AC7B"/><stop offset=".342" stop-color="#EFCE8E"/><stop offset="1" stop-color="#DFB05B"/></linearGradient><linearGradient id="paint50_linear" x1="17.737" y1="65.408" x2="17.737" y2="67.864" gradientUnits="userSpaceOnUse"><stop stop-color="#C5AC7B"/><stop offset=".342" stop-color="#EFCE8E"/><stop offset="1" stop-color="#DFB05B"/></linearGradient><linearGradient id="paint51_linear" x1="17.867" y1="41.691" x2="17.867" y2="44.194" gradientUnits="userSpaceOnUse"><stop stop-color="#C5AC7B"/><stop offset=".342" stop-color="#EFCE8E"/><stop offset="1" stop-color="#DFB05B"/></linearGradient><linearGradient id="paint52_linear" x1="23.214" y1="28.515" x2="23.214" y2="30.772" gradientUnits="userSpaceOnUse"><stop stop-color="#C5AC7B"/><stop offset=".342" stop-color="#EFCE8E"/><stop offset="1" stop-color="#DFB05B"/></linearGradient><linearGradient id="paint53_linear" x1="17.568" y1="45.907" x2="17.568" y2="48.674" gradientUnits="userSpaceOnUse"><stop stop-color="#C5AC7B"/><stop offset=".342" stop-color="#EFCE8E"/><stop offset="1" stop-color="#DFB05B"/></linearGradient><linearGradient id="paint54_linear" x1="17.855" y1="50.651" x2="17.855" y2="53.813" gradientUnits="userSpaceOnUse"><stop stop-color="#C5AC7B"/><stop offset=".342" stop-color="#EFCE8E"/><stop offset="1" stop-color="#DFB05B"/></linearGradient><linearGradient id="paint55_linear" x1="19.171" y1="37.079" x2="19.171" y2="39.319" gradientUnits="userSpaceOnUse"><stop stop-color="#C5AC7B"/><stop offset=".342" stop-color="#EFCE8E"/><stop offset="1" stop-color="#DFB05B"/></linearGradient><linearGradient id="paint56_linear" x1="12.26" y1="43.404" x2="12.26" y2="47.243" gradientUnits="userSpaceOnUse"><stop stop-color="#C5AC7B"/><stop offset=".342" stop-color="#EFCE8E"/><stop offset="1" stop-color="#DFB05B"/></linearGradient><linearGradient id="paint57_linear" x1="14.565" y1="32.468" x2="14.565" y2="36.6" gradientUnits="userSpaceOnUse"><stop stop-color="#C5AC7B"/><stop offset=".342" stop-color="#EFCE8E"/><stop offset="1" stop-color="#DFB05B"/></linearGradient><linearGradient id="paint58_linear" x1="63.118" y1="69.361" x2="63.118" y2="73.445" gradientUnits="userSpaceOnUse"><stop stop-color="#C5AC7B"/><stop offset=".342" stop-color="#EFCE8E"/><stop offset="1" stop-color="#DFB05B"/></linearGradient><linearGradient id="paint59_linear" x1="16.759" y1="27.593" x2="16.759" y2="31.809" gradientUnits="userSpaceOnUse"><stop stop-color="#C5AC7B"/><stop offset=".342" stop-color="#EFCE8E"/><stop offset="1" stop-color="#DFB05B"/></linearGradient><linearGradient id="paint60_linear" x1="13.303" y1="55.262" x2="13.303" y2="58.161" gradientUnits="userSpaceOnUse"><stop stop-color="#C5AC7B"/><stop offset=".342" stop-color="#EFCE8E"/><stop offset="1" stop-color="#DFB05B"/></linearGradient><linearGradient id="paint61_linear" x1="15.259" y1="60.796" x2="15.259" y2="63.427" gradientUnits="userSpaceOnUse"><stop stop-color="#C5AC7B"/><stop offset=".342" stop-color="#EFCE8E"/><stop offset="1" stop-color="#DFB05B"/></linearGradient><linearGradient id="paint62_linear" x1="19.936" y1="22.585" x2="19.936" y2="27.065" gradientUnits="userSpaceOnUse"><stop stop-color="#C5AC7B"/><stop offset=".342" stop-color="#EFCE8E"/><stop offset="1" stop-color="#DFB05B"/></linearGradient><linearGradient id="paint63_linear" x1="12.378" y1="49.728" x2="12.378" y2="53.041" gradientUnits="userSpaceOnUse"><stop stop-color="#C5AC7B"/><stop offset=".342" stop-color="#EFCE8E"/><stop offset="1" stop-color="#DFB05B"/></linearGradient><linearGradient id="paint64_linear" x1="13.002" y1="38.265" x2="13.002" y2="42.086" gradientUnits="userSpaceOnUse"><stop stop-color="#C5AC7B"/><stop offset=".342" stop-color="#EFCE8E"/><stop offset="1" stop-color="#DFB05B"/></linearGradient><linearGradient id="paint65_linear" x1="32.195" y1="12.967" x2="32.195" y2="17.052" gradientUnits="userSpaceOnUse"><stop stop-color="#C5AC7B"/><stop offset=".342" stop-color="#EFCE8E"/><stop offset="1" stop-color="#DFB05B"/></linearGradient><linearGradient id="paint66_linear" x1="23.214" y1="18.764" x2="23.214" y2="23.244" gradientUnits="userSpaceOnUse"><stop stop-color="#C5AC7B"/><stop offset=".342" stop-color="#EFCE8E"/><stop offset="1" stop-color="#DFB05B"/></linearGradient><linearGradient id="paint67_linear" x1="20.671" y1="32.995" x2="20.671" y2="35.235" gradientUnits="userSpaceOnUse"><stop stop-color="#C5AC7B"/><stop offset=".342" stop-color="#EFCE8E"/><stop offset="1" stop-color="#DFB05B"/></linearGradient><linearGradient id="paint68_linear" x1="66.639" y1="66.33" x2="66.639" y2="70.415" gradientUnits="userSpaceOnUse"><stop stop-color="#C5AC7B"/><stop offset=".342" stop-color="#EFCE8E"/><stop offset="1" stop-color="#DFB05B"/></linearGradient><linearGradient id="paint69_linear" x1="69.834" y1="62.773" x2="69.834" y2="66.726" gradientUnits="userSpaceOnUse"><stop stop-color="#C5AC7B"/><stop offset=".342" stop-color="#EFCE8E"/><stop offset="1" stop-color="#DFB05B"/></linearGradient><linearGradient id="paint70_linear" x1="29.799" y1="21.795" x2="29.799" y2="24.167" gradientUnits="userSpaceOnUse"><stop stop-color="#C5AC7B"/><stop offset=".342" stop-color="#EFCE8E"/><stop offset="1" stop-color="#DFB05B"/></linearGradient><linearGradient id="paint71_linear" x1="27.84" y1="15.207" x2="27.84" y2="19.555" gradientUnits="userSpaceOnUse"><stop stop-color="#C5AC7B"/><stop offset=".342" stop-color="#EFCE8E"/><stop offset="1" stop-color="#DFB05B"/></linearGradient></defs></svg>