<svg width="38" height="38" fill="none" xmlns="http://www.w3.org/2000/svg"><g clip-path="url(#clip0)"><path d="M0 23.29v5.026c0 2.084 1.655 3.555 3.677 3.555h30.646c2.022 0 3.677-1.471 3.677-3.555V23.29H0z" fill="#F8D12E"/><path d="M34.323 6.129H3.677C1.655 6.129 0 7.6 0 9.684v5.026h38V9.684c0-2.084-1.655-3.555-3.677-3.555z" fill="#333"/><path d="M38 14.71H0v8.58h38v-8.58z" fill="#DB2727"/><path d="M34.2 31.871c2.023 0 3.8-1.471 3.8-3.555V23.29H24.148L34.2 31.871z" fill="#DBB30F"/><path d="M34.323 6.129H3.677l10.175 8.58H38V9.685c0-2.084-1.655-3.555-3.677-3.555z" fill="#202121"/><path d="M24.21 23.29H38v-8.58H13.79l10.42 8.58z" fill="#C10E0E"/><path d="M34.323 6.129H3.677l28.378 8.58H38V9.685c0-2.084-1.655-3.555-3.677-3.555z" fill="#000"/><path d="M38 16.426V14.71h-6.252L38 16.426z" fill="#A00808"/><path d="M38 28.255c0 2.268-1.655 3.616-3.677 3.616H3.677A3.65 3.65 0 010 28.194" fill="#D89F12"/></g><defs><clipPath id="clip0"><path fill="#fff" d="M0 0h38v38H0z"/></clipPath></defs></svg>