<svg width="26" height="27" fill="none" xmlns="http://www.w3.org/2000/svg"><g clip-path="url(#clip0)" fill="#fff"><path d="M25.33 8.38c-.06-1.347-.277-2.274-.59-3.076a6.186 6.186 0 00-1.466-2.249 6.24 6.24 0 00-2.243-1.46c-.807-.313-1.729-.53-3.076-.59-1.357-.065-1.788-.08-5.23-.08C9.282.926 8.85.94 7.499 1c-1.347.06-2.273.277-3.075.59a6.186 6.186 0 00-2.25 1.465A6.242 6.242 0 00.715 5.3c-.312.807-.53 1.729-.59 3.076-.064 1.357-.079 1.788-.079 5.23s.015 3.873.074 5.226c.06 1.347.278 2.273.59 3.075a6.252 6.252 0 001.466 2.249 6.24 6.24 0 002.244 1.461c.807.312 1.728.53 3.075.59 1.352.059 1.784.074 5.226.074s3.873-.015 5.225-.075c1.347-.06 2.273-.277 3.076-.589a6.485 6.485 0 003.71-3.71c.312-.807.53-1.728.589-3.075.06-1.353.074-1.784.074-5.226s-.005-3.873-.064-5.225zm-2.283 10.35c-.055 1.239-.263 1.907-.436 2.353a4.206 4.206 0 01-2.407 2.407c-.446.174-1.12.382-2.353.436-1.337.06-1.738.074-5.121.074-3.383 0-3.79-.014-5.122-.074-1.238-.054-1.907-.262-2.352-.436a3.902 3.902 0 01-1.457-.946 3.942 3.942 0 01-.946-1.456c-.173-.446-.381-1.12-.435-2.353-.06-1.337-.075-1.738-.075-5.121 0-3.383.015-3.789.075-5.121.054-1.239.262-1.907.435-2.353a3.85 3.85 0 01.952-1.456c.41-.421.906-.743 1.456-.946.445-.173 1.119-.381 2.352-.436 1.338-.06 1.739-.074 5.122-.074 3.387 0 3.788.015 5.121.074 1.238.055 1.907.263 2.353.436.55.203 1.05.525 1.456.946.42.41.743.906.946 1.456.173.446.381 1.12.436 2.353.06 1.337.074 1.738.074 5.121 0 3.383-.015 3.78-.074 5.116z"/><path d="M12.724 7.092a6.515 6.515 0 00-6.513 6.513 6.515 6.515 0 006.513 6.513 6.515 6.515 0 006.513-6.513 6.515 6.515 0 00-6.513-6.513zm0 10.738a4.226 4.226 0 11.002-8.451 4.226 4.226 0 01-.002 8.45zm8.291-10.996a1.52 1.52 0 11-3.04 0 1.52 1.52 0 013.04 0z"/></g><defs><clipPath id="clip0"><path fill="#fff" transform="translate(0 .926)" d="M0 0h25.354v25.354H0z"/></clipPath></defs></svg>