<svg width="101" height="120" fill="none" xmlns="http://www.w3.org/2000/svg"><path d="M100.381 90.18L50.191 120 0 90.18V30.707L50.19.887l50.191 29.82V90.18z" fill="#D71016"/><path fill-rule="evenodd" clip-rule="evenodd" d="M17.714 27.843l-.82-1.516 7.053-4.212.82 1.517-7.053 4.211zm14.27-8.423l-.82-1.517 7.053-4.212.82 1.517-7.053 4.212zM6.561 39.3H4.757v-5.897l4.92-2.864.984 1.516-4.1 2.528V39.3zm76.106-11.457l-7.053-4.212.82-1.516 7.053 4.212-.82 1.516zM68.56 19.42l-7.053-4.212.82-1.517 7.053 4.212-.82 1.517zM4.757 72.995H6.56v-8.424H4.757v8.424zm0-16.848H6.56v-8.423H4.757v8.424zm4.92 34.201l-4.92-3.032v-5.897H6.56v4.886l4.1 2.358-.984 1.685zm80.207-1.685l.82 1.685 4.92-3.032v-5.897h-1.64v4.886l-4.1 2.358zM61.508 105.68l.82 1.516 7.053-4.212-.82-1.516-7.053 4.212zm14.106-8.424l.82 1.516 7.053-4.212-.82-1.516-7.053 4.212zM50.19 114.272l-4.921-2.864.82-1.517 4.1 2.359 4.101-2.359.82 1.517-4.92 2.864zm-19.027-11.288l7.053 4.212.82-1.516-7.053-4.212-.82 1.516zm-14.27-8.424l7.053 4.212.82-1.516-7.053-4.212-.82 1.516zm77.09-55.26h1.64v-5.897l-4.92-2.864-.82 1.516 4.1 2.528V39.3zm1.64 33.695H93.82v-8.424h1.805v8.424zm0-16.848H93.82v-8.423h1.805v8.424z" fill="#fff"/><path d="M70.693 57.327c2.297-1.517 4.92-5.56 4.92-5.56s1.313-1.853 1.15-7.413c0 0-.165-3.37-.493-.674-.328 2.696-.164 4.718-1.312 6.402-1.148 1.685-2.296 2.864-2.296 2.864l-2.46 2.36s-1.149 1.178-.493-.338 2.132-3.875 2.624-6.065c.657-2.359.985-3.033.985-3.201 0-.169 1.312-4.212 2.296-5.391 0 0 1.476-1.517.984-4.886 0 0-.656-2.527-.984-2.864-.328-.337-.984-1.685-.492.505.492 2.359.492 3.875 0 4.886-.492 1.01-.984 1.685-.984 1.685s-.984 1.685-2.297.168c0 0-1.148-3.538-2.624-5.391-1.476-1.685-1.804-3.707-1.804-3.707s-.656-.842-.164.843c.328 1.516.984 2.864.984 2.864s.492 1.18.492 1.516c0 .337.492 1.348.492 1.348s1.148 1.516.492 3.538c0 0-.164 1.348-.328 1.516-.164.169-.984.674-1.476.843-.492 0-2.296.505-2.46.674-.164.168-1.805 0-1.969 0-.164-.169-2.952-.169-3.936-1.011-.984-.674-1.64-1.18-1.64-1.18s-1.148-.168 0 .674c1.148.843 1.804 1.517 1.804 1.517s1.148.505 2.132.674c.984.168 1.804.337 1.804.337s.82 0 1.313.505c.492.505 1.64.337 1.64.337l2.46-.337s1.148-.842.984.842c-.164 1.685-.82 3.201-.82 3.201l-1.64 3.707-1.148 1.685-.164-1.18s0-1.516-.492.169c-.492 1.853-.492 2.695-.492 2.695s-4.265 4.886-4.921 5.392c-.492.505-2.953 2.864-2.953 2.864l-1.476 1.348-.656.674-.656.842s-.492 0-.656-.169c-.164-.168-2.624.506-3.28 1.011-.656.506-1.148-.505-1.148-.505s-1.149-.169-1.313-.169c-.164 0-1.804-.168-1.804-.168l-.984-1.011s-2.788-2.022-3.28-2.696c-.493-.505-4.101-3.032-4.101-3.032l-.164-3.875s-.492-1.853-.82 0c-.328 1.853-.164 3.032-.164 3.032s-5.413-3.874-6.233-5.054c-.82-1.18-3.28-5.054-3.444-6.234-.164-1.179-.329-2.527-.329-2.527s-.164-.842.82-.337c.82.337 2.953.337 2.953.337s1.312-.168 1.64-.337c.328-.168 1.148-.337 1.476-.168.329 0 .329-.337.165-.505-.165-.169-.493-.337-.493-.506 0-.168.492-.505 1.149-.842.656-.169 2.46-1.348 2.46-1.348l1.968-2.022.492-.842s.656-1.517-.82 0c-1.312 1.516-2.624 2.19-2.788 2.19-.164 0-3.28 1.18-3.609 1.348-.328.168-3.772.337-4.428 0-.82-.337-1.313-1.517-.82-3.201.492-1.685 1.148-4.044 1.148-4.044l1.312-2.527s1.312-2.527 1.312-2.695c0-.169.82-1.854.328-1.854 0 0-.984 1.854-1.148 2.022-.164 0-1.148 1.685-1.148 1.685s-1.804 2.527-2.133 2.864c-.328.337-.491 1.516-1.312 1.853-.82.169-1.804 0-2.132-1.348-.164-1.347-.328-3.2.164-3.875a4.26 4.26 0 00.656-1.348s-.164-.673-.82.337l-1.148 2.36c-.164.168-.328 1.684-.328 1.852 0 .169.82 2.696 1.148 3.37.328.674.82 1.685.492 3.538-.164 1.685-.492 3.706-.492 3.706s-.164 6.74 2.46 8.93l.985 1.179s0 3.033.327 3.706c.329.674.82 4.044 5.741 6.066 0 0 2.46.505 4.92.337 0 0 .985 2.19 2.625 2.527 1.64.168 2.46.505 2.46.505h.493s.164.169.164.506v.673c-.164.169 0 .843 0 .843l-.164.505s-.164.169-.328 0c-.164-.168-1.64-1.01-1.969-1.179-.328-.169-4.756-2.359-4.756-2.359s-3.773-.842-4.593-1.853c0 0-.984-.337-1.148.168-.164.337-.164 1.348 0 1.517.164.168.984 2.19.984 2.19s1.64 3.538 3.28 4.549c1.64 1.01 3.281 2.19 4.265 2.19.82-.168 3.609 1.01 4.1 1.348.329.337.82 1.01.82 1.348v3.032c0 .337.165 1.348-.163 2.359a39.63 39.63 0 00-.656 2.359s-.492 2.19-.492 2.358c0 .337-.328 2.359-.328 2.359s8.2 8.592 18.37.168c0 0-.82-3.874-.984-4.38-.164-.505-.984-3.201-1.148-3.538-.164-.337-.164-3.032-.164-3.032l.164-1.18s.328-.337.328-.674.164-.842.164-.842 2.132-.843 3.28-.674c1.148.168 3.117-.843 3.609-1.18.656-.336 2.624-2.527 2.788-2.695.164-.337 2.132-2.19 2.132-2.19s.656-1.011.656-1.18l.656-1.347s.329-.843-.82-1.011c-.984-.169-1.64.505-1.64.505s-1.968.506-2.952.506c-.984-.169-4.757 1.853-5.413 2.19-.656.337-1.312.842-1.64.842-.328 0-1.476.169-1.476-.168a1.1 1.1 0 000-1.011c-.164-.337-.492-.674-.492-.674.164-.505.984-1.516.984-1.516s3.28-.674 4.592-2.19c0 0 6.233 0 8.037-1.517 0 0 3.28-1.685 3.773-6.57 0 0 .164-1.685-.164-2.022-.328-.337-.328-.169-.492.337-.164.505 0 2.864-1.969 4.886-1.968 1.853-2.624 2.358-7.052 2.527 0 0 .984-1.18 1.148-3.201 0-.506 1.968-2.359 4.428-3.875zM29.36 61.202c-1.64-1.685-2.132-4.718-2.132-4.718.328-.168 1.64 1.18 1.804 1.18.164 0 5.905 4.549 6.56 4.886.82.337.985 1.01.985 1.01-4.1.337-5.413-.674-7.217-2.358z" fill="#fff"/></svg>