<svg width="219" height="82" fill="none" xmlns="http://www.w3.org/2000/svg"><path d="M1.344 27.534v-1.853c.328 0 .656 0 .82-.169.328 0 .492-.168.656-.337.164-.168.328-.336.328-.673.164-.337.164-.843.164-1.348V9.507H1.18v-2.19h7.873V9.17c-.328 0-.656 0-.82.169-.164 0-.493.168-.657.337-.164.168-.328.337-.328.674-.164.337-.164.842-.164 1.347v13.478h3.773c1.148 0 1.968-.336 2.624-1.179.656-.842.984-2.021.984-3.538h1.805l-.164 6.74H1.344v.336zm24.111-9.266v7.413h3.772c.328 0 .82 0 1.148-.169.328-.168.82-.336 1.149-.673.328-.337.492-.674.82-1.348.164-.506.328-1.18.328-2.022h1.804l-.164 6.234H19.714v-1.854c.328 0 .656 0 .82-.168.328 0 .492-.169.656-.337.164-.168.328-.337.328-.674.164-.337.164-.842.164-1.348V9.676H19.55v-2.19h13.778l.164 5.56h-1.804c0-.843-.164-1.349-.328-1.854-.165-.505-.492-.842-.82-1.18-.329-.336-.657-.505-1.149-.505-.328-.168-.82-.168-1.148-.168h-.984c-.328 0-.492 0-.82.168-.164 0-.492.169-.656.337-.164.169-.328.337-.328.674-.164.337-.164.842-.164 1.348v4.212h3.28l-.164-2.527h2.133v6.907h-1.805c0-.674 0-1.01-.164-1.348-.164-.337-.328-.674-.656-.842a1.236 1.236 0 00-.82-.337h-.984l-.656.337zm19.846 7.582c.492 0 .984 0 1.313-.169.328-.169.82-.337.984-.505.328-.169.492-.506.656-.843.164-.337.164-.674.164-1.01 0-.506-.164-1.012-.328-1.349l-.984-1.01c-.492-.337-.985-.506-1.477-.674-.492-.169-.984-.506-1.64-.674-.82-.337-1.64-.843-2.46-1.18-.82-.505-1.476-.842-1.968-1.516a7.475 7.475 0 01-1.313-1.853c-.328-.674-.492-1.516-.492-2.527 0-.337 0-.843.164-1.18.164-.336.164-.842.492-1.179.165-.337.493-.842.82-1.18.329-.336.82-.673 1.149-1.01.492-.337.984-.505 1.64-.674.656-.168 1.312-.168 2.132-.168.328 0 .82 0 1.148.168.492 0 .82.169 1.313.337.492.168.82.168 1.148.505.328.169.656.337.984.674l-.164-1.179h2.132v6.57H48.91c-.328-1.684-.82-2.864-1.64-3.537-.82-.843-1.805-1.18-3.117-1.18-.328 0-.82 0-1.148.169l-.984.505c-.328.169-.492.506-.656.843-.164.337-.164.673-.164 1.01 0 .506.164.843.328 1.18.164.337.492.674.82 1.01.328.338.82.675 1.312.843.492.337 1.148.505 1.968.842.492.169.985.337 1.477.674.492.169.984.506 1.476.843.492.337.984.674 1.312 1.01.492.337.82.674 1.148 1.18.328.505.492.842.82 1.348.164.505.328 1.01.328 1.684 0 .843-.164 1.685-.492 2.36-.328.673-.82 1.347-1.476 1.852-.656.506-1.312.843-2.296 1.18-.82.337-1.805.505-2.953.505-.328 0-.82 0-1.148-.168-.328 0-.82-.169-1.312-.337-.492-.169-.82-.337-1.312-.506-.492-.168-.82-.337-1.148-.674l.164 1.18h-2.133v-6.57h1.805c.164.841.328 1.515.656 2.02.328.675.656 1.18 1.148 1.517.492.337.984.674 1.476.842h2.132zM43.497 5.631l-.984-1.348 3.116-3.37c.165-.168.492-.336.657-.504.328-.169.492-.169.82-.169.164 0 .328 0 .492.169.164 0 .328.168.492.336.164.169.164.337.328.506.164.168.164.337.164.505 0 .337-.164.674-.328 1.011-.164.337-.492.506-.82.674l-3.937 2.19zM72.2 27.871h-2.295l-8.858-11.625c-.492-.674-.984-1.347-1.476-2.19v11.456h2.133v2.19H55.47V25.85c.328 0 .656 0 .82-.168.328 0 .492-.169.656-.337.164-.169.328-.337.328-.674.164-.337.164-.842.164-1.348V9.677h-2.132v-2.19h4.1l8.53 10.95c.491.674.82 1.18 1.148 1.517.328.505.492.842.82 1.18V9.34h-2.133V7.15h6.397v1.853c-.328 0-.656 0-.82.168-.164 0-.492.169-.656.337-.164.169-.328.337-.328.674-.164.337-.164.843-.164 1.348v16.342zm11.646-5.054v2.695h2.133v2.19h-7.873V25.85c.328 0 .656 0 .82-.168.328 0 .492-.169.656-.337.164-.168.328-.337.328-.674s.164-.842.164-1.348V9.677h-2.132v-2.19h7.873V9.34c-.328 0-.656 0-.82.168-.164 0-.493.169-.657.337-.163.169-.328.337-.328.674-.164.337-.164.842-.164 1.348v10.95zm9.842-5.56c0 1.18.164 2.359.328 3.37.328 1.01.656 1.853 1.148 2.695.492.674 1.148 1.348 1.804 1.685.656.337 1.476.674 2.46.674.657 0 1.149 0 1.805-.169.656-.168 1.148-.336 1.64-.673s1.148-.674 1.64-1.18c.492-.505.984-.842 1.312-1.516l1.312 1.18c-.656 1.01-1.312 1.684-2.132 2.358-.82.674-1.476 1.01-2.132 1.348-.656.337-1.476.505-2.132.674-.656.168-1.313.168-1.805.168A9.688 9.688 0 0195 27.03c-1.148-.506-2.132-1.18-2.953-2.19-.82-1.011-1.476-2.022-1.968-3.201-.492-1.18-.656-2.528-.656-4.044 0-.842.164-1.685.328-2.527.164-.842.492-1.685.82-2.527.328-.842.82-1.516 1.312-2.19a9.533 9.533 0 011.805-1.854c.656-.505 1.476-.842 2.46-1.179.82-.337 1.804-.505 2.952-.505.328 0 .82 0 1.149.168.328 0 .82.169 1.148.337.492.169.82.337 1.148.505.328.169.82.337 1.148.674v-1.18h2.132v6.57h-1.804c-.328-1.516-.82-2.695-1.476-3.537-.82-.843-1.804-1.18-3.117-1.18-.984 0-1.804.169-2.46.674-.656.506-1.312 1.011-1.804 1.854-.492.673-.82 1.684-.984 2.527-.492 1.01-.492 2.021-.492 3.032zm22.635 4.886c-.328.674-.82 1.18-1.149 1.685-.328.505-.82 1.18-1.148 1.516l5.085.168c.492 0 .984 0 1.476-.168s.82-.337 1.148-.674c.328-.337.492-.842.656-1.348a6.433 6.433 0 00.328-2.021h1.805l-.164 6.065h-14.27v-2.022l8.201-12.973.984-1.516c.328-.505.656-.842.984-1.348l-4.756-.168c-.493 0-.985 0-1.477.168-.492.169-.82.337-1.148.674-.328.337-.492.843-.656 1.348-.328.674-.328 1.348-.328 2.19h-1.804l.164-6.065h14.106v2.19l-8.037 12.299zm11.481-4.549c0-.842.164-1.685.328-2.359.164-.842.492-1.684.82-2.358.328-.843.82-1.517 1.312-2.19a9.565 9.565 0 011.805-1.854c.656-.505 1.476-.842 2.46-1.179a9.063 9.063 0 012.952-.505 9.32 9.32 0 013.117.505c.984.337 1.804.674 2.46 1.18a9.53 9.53 0 011.804 1.853c.492.674.984 1.347 1.313 2.19.328.842.656 1.516.82 2.358.164.843.164 1.685.164 2.36 0 .841-.164 1.515-.328 2.358-.164.842-.492 1.684-.82 2.358-.329.843-.821 1.517-1.313 2.19a9.533 9.533 0 01-1.804 1.854c-.656.505-1.476.842-2.46 1.18-.82.336-1.968.505-2.953.505-1.148 0-2.296-.169-3.116-.506-.984-.337-1.804-.674-2.46-1.18-.656-.505-1.312-1.01-1.805-1.684-.492-.674-.984-1.348-1.312-2.19-.328-.843-.492-1.516-.656-2.359-.328-.842-.328-1.684-.328-2.527zm4.265-.337c0 .674 0 1.18.164 1.853 0 .674.164 1.348.328 2.022.164.674.492 1.18.656 1.853l.984 1.517c.328.505.82.842 1.476 1.01.492.337 1.148.337 1.804.337.656 0 1.149-.168 1.641-.337a3.559 3.559 0 001.312-.842c.328-.337.656-.842.984-1.348.328-.505.492-1.01.656-1.684.164-.506.328-1.18.328-1.854 0-.674.164-1.179.164-1.853 0-1.348-.164-2.527-.328-3.538-.164-1.01-.492-2.022-.984-2.864-.492-.842-.984-1.348-1.64-1.853-.656-.506-1.477-.674-2.461-.674-.656 0-1.312.168-1.804.337a2.558 2.558 0 00-1.312 1.01c-.328.338-.656.843-.984 1.348-.328.506-.492 1.011-.656 1.685-.164.674-.328 1.18-.328 1.853.164.843 0 1.348 0 2.022zm4.756-11.625l-.984-1.348 3.117-3.37c.164-.168.492-.336.656-.504.328-.169.492-.169.82-.169.164 0 .328 0 .492.169.164 0 .328.168.492.336.164.169.164.337.328.506 0 .168.164.337.164.505 0 .337-.164.674-.328 1.011-.164.337-.492.506-.82.674l-3.937 2.19zm28.212 2.022l3.116 10.445.492 2.022.493 2.022c.164-.674.328-1.348.492-1.853l.492-2.022 1.476-5.897c.164-.505.328-.842.492-1.348.164-.505.328-.842.656-1.179l-2.132.169v-2.19h6.233v1.853c-.328 0-.657 0-.821.168-.328.169-.492.337-.82.506-.328.168-.492.505-.656.842-.164.337-.328.842-.656 1.348l-4.592 15.163h-2.461l-3.28-10.109c-.164-.674-.492-1.516-.656-2.19l-.492-2.022c-.164.674-.164 1.348-.328 1.854-.164.673-.328 1.179-.492 1.853l-3.117 10.614h-2.46l-4.921-15.332c.328-.168.164-.505.164-.674-.164-.168-.164-.505-.328-.673 0-.169-.164-.506-.164-.674v-.506h-1.476v-2.19h8.201v1.853h-.164c-.492 0-.82.169-1.148.337-.328.169-.492.506-.492 1.011v.337c0 .168 0 .337.164.505l1.64 6.571c0 .337.164.674.164.842 0 .337.164.506.164.843 0 .337.164.674.164 1.01 0 .338.164.843.164 1.18 0-.169.164-.337.164-.674s.164-.674.328-1.01c.164-.338.164-.843.328-1.18.164-.337.164-.843.328-1.18.164-.336.164-.673.328-1.01 0-.337.164-.506.164-.674l2.625-8.761h2.624zm20.667 8.592h1.968l2.132-3.706c.164-.337.328-.506.492-.843.164-.336.328-.505.492-.842.164-.337.328-.505.492-.674l.493-.505-1.805.168v-2.19h6.725v1.853c-.328 0-.656 0-.984.169-.328 0-.656.168-.984.337-.328.168-.656.505-1.148.842-.328.337-.82.842-1.148 1.516l-2.625 4.38c.328.17.656.506.984.675l.821.842 2.788 4.043c.328.337.492.843.82 1.18l.984 1.01c.328.338.656.506.984.675.328.168.656.337.984.337v1.853h-4.264c-.164 0-.328-.169-.492-.337l-.656-.674c-.328-.337-.492-.674-.82-1.011-.328-.337-.492-.674-.657-.842l-2.788-4.044c-.164-.168-.328-.337-.328-.505l-.492-.506-.492-.505-.328-.337h-.984v6.907H188v2.19h-7.873V25.85c.328 0 .656 0 .82-.168.164-.169.492-.169.656-.337.164-.168.328-.337.328-.674.164-.337.164-.842.164-1.348V9.677h-2.132v-2.19h7.873V9.34c-.328 0-.656 0-.82.168-.164 0-.492.169-.656.337-.164.169-.328.337-.328.674-.164.337-.164.842-.164 1.348v4.38h-.164zm25.095 5.391l-6.069.169-.492 1.348c0 .168-.164.337-.164.505 0 .169-.164.337-.164.674-.164.169-.164.506-.328.674-.164.168-.164.337-.164.505l1.968-.168v2.359h-5.904V25.68c.328 0 .656-.169.984-.337.328-.169.492-.337.656-.674l.492-1.01c.164-.338.328-.843.492-1.18l5.413-15.163h1.968l5.905 15.5c0 .168.164.337.164.505 0 .169.164.506.164.674 0 .337.164.506.164.843 0 .337.164.505.164.674h1.64v2.19h-7.381v-1.854c.492 0 .82-.168.984-.337.164-.168.328-.505.328-.842v-.674c0-.168-.164-.505-.164-.842l-.656-1.517zm-5.249-2.021h4.593l-1.312-3.538c-.164-.674-.492-1.348-.656-2.022-.164-.674-.328-1.348-.492-1.853 0 .337-.164.842-.328 1.516s-.328 1.348-.657 2.359l-1.148 3.538zm-87.587 57.282c0-2.022-2.624-3.875-3.117-4.212-.656-.337-2.132-1.18-4.264-1.348-.656 0-1.312 0-1.968.169-1.477.337-2.461.673-5.249 2.527-2.788 1.853-3.936 2.864-4.1 3.706v1.853c0 .337.163.674.492 1.011.328.337.82.506 1.64.506 1.148 0 2.624-.337 3.936-.506 1.148-.168 2.133-.505 2.789-.337 1.64 0 2.952.506 3.936 1.011.82.337 1.476.674 2.296.674.656 0 1.313-.168 1.969-.674.984-.674 1.64-1.516 1.64-2.359v-2.021c0 .168 0 .168 0 0-.164.168 0 .168 0 0zm-14.434-2.696c2.624-1.853 3.772-2.19 5.085-2.527.656-.168 1.312-.168 1.804-.168 2.132 0 3.608 1.01 4.264 1.347.493.337 2.953 2.022 3.117 4.044v.842c0 .169-.164.337-.164.337s0 .169-.164.169c-.164.168-.164.337-.328.505l-.164.168c-.164.169-.492.337-.656.506a3.099 3.099 0 01-1.969.674c-.656 0-1.476-.337-2.132-.674-.82-.337-1.64-.674-2.788-.843-.328 0-.82-.168-1.148-.168-.656 0-1.641.168-2.789.337-.984.168-2.132.505-2.952.505h-.82c-.656 0-1.148-.168-1.476-.505-.164-.169-.328-.337-.328-.505v-.506c-.329-.674.82-1.685 3.608-3.538z" fill="#fff"/><path d="M107.958 78.414c3.608.169 5.084 2.527 7.381.843 3.444-2.36.164-5.223-1.313-6.066-1.148-.674-3.28-1.516-5.576-1.01-1.313.336-2.133.673-4.593 2.358-3.444 2.359-4.429 3.033-3.28 4.38 1.148 1.18 5.74-.673 7.381-.505zm3.772-4.549c.984 0 1.64.337 1.64.843 0 .505-.656 1.01-1.64 1.179-.984 0-1.64-.337-1.64-.842 0-.674.656-1.011 1.64-1.18zM106.317 49.1c1.148-.506 2.297-1.012 3.445-1.854.328.168.82.337 1.312.505.984 1.18 2.46 1.348 3.772.674.164 0 .164-.168 0-.168-.82-1.18-2.624-2.359-3.936-1.011v.168c-.328 0-.82-.168-1.148-.337 1.476-1.01 2.624-2.358 3.772-3.874.328.168.82 0 .984 0 1.641.505 3.445-.337 4.429-1.854 0-.168 0-.168-.164-.168a4.282 4.282 0 00-4.429 1.853h-.82c.164-.168.164-.337.328-.505h.164v-.169c.656-1.01 1.148-1.853 1.477-2.864 1.312-1.01 1.804-3.033 1.148-4.549 0 0-.164-.168-.164 0-.82 1.348-1.312 2.696-1.148 4.38-.329.843-.821 1.685-1.313 2.528v-.506c.656-.337.656-1.684.656-2.19 0-.505 0-2.022-.656-2.19-.656-.169-.82 1.348-.82 1.685 0 1.01.164 1.853.656 2.695 0 .337 0 .674.164.843l-1.476 2.021c-.328.506-.82.843-1.148 1.18v-.843c.82-.505 1.148-1.516 1.148-2.358 0-.337.164-2.19-.492-2.359-.492-.169-1.148 1.348-1.312 1.853-.328 1.011-.328 2.022.164 2.864 0 .169.164.169.164.169 0 .337 0 .505.164.842-1.476 1.348-3.116 2.359-4.921 3.538-.164-.168 0 0 0 0zm4.757-4.887c-.328-1.179-.164-2.695.656-3.706.492-.505.328 0 .328.505v1.348c0 .674-.328 1.516-.82 2.022 0-.843.164-1.516.492-2.359 0-.168-.164-.168-.164 0-.328.506-.492 1.348-.492 2.19zm2.46-4.885c0-.506-.164-1.18.164-1.685 0-.337.328-.337.656-.169 0 .169.164.337.164.506 0 .337.164.505.164.842 0 .506 0 1.685-.328 2.19 0-.674 0-1.179.164-1.853 0-.168-.164-.168-.164 0-.164.505-.164 1.01-.164 1.516-.492-.505-.656-1.01-.656-1.347zm2.789-2.19c-.164.505-.328 1.179-.656 1.684 0-1.348.328-2.527.984-3.538.328 1.348 0 2.864-.82 3.875.328-.674.492-1.348.492-2.022.164 0 0 0 0 0zm.656 4.885c-.492.337-.984.674-1.476.843h-.493c.985-1.18 2.297-1.685 3.773-1.517-.82 1.011-1.968 1.685-3.28 1.685.656-.168 1.148-.505 1.64-1.01.164.168 0 0-.164 0zm-5.577 5.728c.656 0 1.312 0 1.804-.337.164 0 0-.168-.164-.168-.656.168-1.148.337-1.804.168 1.148-1.01 2.624-.168 3.28.843-.984.505-2.296.337-3.116-.506z" fill="#fff"/><path d="M112.55 48.762c-1.804-1.01-3.444-2.022-4.92-3.37 0-.336.164-.505.164-.842 0 0 .164 0 .164-.168.492-1.011.492-2.022.164-2.864-.164-.337-.821-1.854-1.313-1.854-.492.169-.492 1.854-.492 2.19 0 1.011.328 2.022 1.149 2.36v.842l-1.149-1.18c-.492-.673-1.148-1.347-1.476-2.021 0-.337.164-.506.164-.843.492-.842.656-1.684.656-2.695 0-.337-.164-1.854-.82-1.685-.656.168-.656 1.685-.656 2.19 0 .674 0 1.853.656 2.19v.506c-.492-.843-.984-1.685-1.312-2.527.164-1.517-.328-3.033-1.148-4.38h-.164c-.656 1.516-.164 3.537 1.148 4.548.328 1.01.984 2.022 1.476 2.864v.169s0 .168.164 0c.164.168.164.337.328.505h-.82a4.28 4.28 0 00-4.428-1.853c-.164 0-.164.168-.164.168a3.842 3.842 0 004.428 1.853h.984a13.96 13.96 0 003.773 3.875c-.328.169-.82.337-1.148.337 0 0 .164-.168 0-.168-1.149-1.348-3.117-.169-3.937 1.01v.17c1.312.673 2.788.336 3.773-.675.492-.168.82-.337 1.312-.505 1.148.842 2.296 1.516 3.444 1.853.164 0 0 .169 0 0zm-5.249-7.076c0-.168-.328 0-.164 0 .164.843.329 1.517.493 2.359a2.825 2.825 0 01-.821-2.022v-1.348c0-.505 0-1.01.328-.505.821 1.01 1.149 2.359.657 3.706 0-.673-.164-1.516-.493-2.19zm-2.296-1.348c0-.505 0-1.01-.164-1.516 0-.168-.164 0-.164 0 0 .674.164 1.18.164 1.853-.492-.505-.328-1.516-.328-2.19 0-.337 0-.505.164-.842 0-.169 0-.337.164-.506.492-.168.656-.168.656.169.164.337.164 1.18.164 1.516-.328.674-.492 1.18-.656 1.516zm-2.624-3.37l.492 2.023c-.82-1.18-1.312-2.528-.82-3.875.656 1.01.984 2.358.984 3.538-.164-.674-.328-1.18-.656-1.685.164 0 0 0 0 0zm-.656 5.055c.492.506.984.842 1.64 1.011-1.312 0-2.46-.674-3.28-1.685 1.476-.168 2.788.337 3.772 1.517h-.492c-.492-.169-.984-.506-1.476-.843-.164-.337-.328-.168-.164 0zm2.46 6.065c.82-1.01 2.296-1.853 3.281-.842-.657 0-1.149 0-1.805-.169-.164 0-.164.169-.164.169a2.228 2.228 0 001.804.337c-.656.674-1.968 1.01-3.116.505zm-28.868-4.043H.852c-.164 0-.493-.169-.493-.506 0-.168.165-.505.493-.505h74.465c.164 0 .492.169.492.505-.164.337-.328.506-.492.506zm143.191 0h-76.926c-.164 0-.492-.169-.492-.506 0-.168.164-.505.492-.505h76.926c.164 0 .492.169.492.505-.164.337-.328.506-.492.506zM75.317 59.713H37.92c-.164 0-.492-.168-.492-.505 0-.337.164-.506.492-.506h37.233c.164 0 .492.169.492.506 0 .337-.164.505-.328.505zm104.482 0h-38.217c-.164 0-.492-.168-.492-.505 0-.337.164-.506.492-.506h38.217c.164 0 .492.169.492.506 0 .337-.164.505-.492.505zM93.032 76.224c-.164 0-.164 0-.328-.169-.164-.168-.164-.505 0-.674l32.804-33.695a.489.489 0 01.656 0c.164.169.164.506 0 .674L93.36 76.055c-.164.169-.164.169-.328.169z" fill="#fff"/><path d="M125.672 76.224c-.164 0-.164 0-.328-.169L92.54 42.36c-.165-.168-.165-.505 0-.674a.489.489 0 01.656 0L126 75.382c.164.168.164.505 0 .673 0 .169-.164.169-.328.169zM87.455 59.208H84.83v.674c0 .168.163.337.163.505l.329.337c.164 0 .328.169.492.169h.328c.164 0 .164 0 .328-.169.164 0 .164-.168.328-.168s.164-.169.328-.337l.328.337-.492.505c-.164.169-.328.169-.492.337-.164 0-.328.168-.492.168h-.492c-.328 0-.492 0-.82-.168-.165-.169-.493-.169-.657-.506-.164-.168-.328-.336-.328-.673-.164-.337-.164-.506-.164-.843 0-.337 0-.505.164-.842.164-.337.164-.506.328-.674.164-.169.328-.337.656-.505.165-.169.493-.169.82-.169h.493c.164 0 .328 0 .492.169.164 0 .328.168.328.168l.328.337c0 .168.164.337.164.505.164.337.164.506.164.843zM85.65 57.69h-.328c-.164 0-.164.169-.164.169s-.165.168-.165.337c0 .168 0 .168-.163.337h1.476v-.337c0-.169 0-.169-.164-.337l-.164-.169h-.328zm3.281 2.36c0 .169 0 .169.164.337 0 .169.164.169.328.337.164 0 .164.169.328.169h.82s.164 0 .164-.169v-.337l-.164-.168s-.164-.169-.328-.169-.164-.168-.328-.168-.328-.169-.492-.169c-.164 0-.328-.168-.492-.337l-.328-.337c-.164-.168-.164-.337-.164-.505 0-.169 0-.337.164-.506 0-.168.164-.337.328-.337.164-.168.328-.168.492-.337.164 0 .328-.168.656-.168h.656s.164 0 .164.169v-.169h.656v1.348h-.492c0-.169 0-.337-.164-.337 0-.169-.164-.169-.164-.337-.164 0-.164-.169-.328-.169h-.656s-.164 0-.164.169v.337l.164.168c.164 0 .164.169.328.169s.164 0 .328.168c.164 0 .328.169.492.169.164 0 .328.168.492.337l.328.337c0 .168.165.337.165.505 0 .169 0 .337-.165.506 0 .168-.164.337-.328.337-.164.168-.328.168-.492.168h-1.148c-.164 0-.164 0-.328-.169-.164 0-.164 0-.164-.168v.169h-.656v-1.348h.328v.505zm3.445-2.695c.163 0 .328 0 .328-.169.164 0 .164-.168.328-.168.164-.169.164-.169.164-.337 0-.169.164-.169.164-.337h.656v1.01H95v.674h-.984v2.696l.164.169h.492s.164 0 .164-.169c0 0 .164-.168.164-.337l.328.337-.492.506c-.164.168-.328.168-.328.337-.164 0-.328.168-.328.168h-.984c-.164 0-.164-.169-.328-.169 0 0-.164-.168-.164-.337 0-.168-.164-.168-.164-.337v-2.358h-.493v-1.18h.329zm4.92 3.537v.169s0 .169-.164.169l-.164.168h-.328s-.164 0-.164-.169l-.164-.168v-.337s0-.168.164-.168l.164-.169h.328s.164 0 .164.169c0 .168.164.168.164.168v.169zm21.159-3.201l-.328-.505 1.804-1.348h.492v5.055h.656v.673h-2.296v-.505h.164s.164 0 .164-.169c0 0 0-.168.164-.168v-3.537l-.82.505zm3.772 3.033v-.168s0-.169.164-.169l.164-.168h.328s.165 0 .165.168v.674l.164.169h.328c.164 0 .328 0 .492-.169l.328-.337c.164-.168.164-.337.164-.674v-1.011l-.164.169s-.164.168-.328.168-.164 0-.328.169h-.328c-.328 0-.493 0-.657-.169-.164-.168-.328-.168-.492-.337-.164-.168-.164-.337-.328-.674 0-.168-.164-.505-.164-.674 0-.337 0-.505.164-.673.164-.169.164-.337.328-.506.164-.168.328-.337.656-.337.165-.168.493-.168.821-.168.328 0 .656 0 .82.168.164.169.492.337.656.506.164.168.328.505.328.842 0 .337.164.674.164 1.01v.675c0 .168 0 .505-.164.674 0 .168-.164.505-.164.674-.164.168-.164.337-.328.505-.164.169-.328.337-.656.337-.164.168-.492.168-.82.168-.328 0-.492 0-.657-.168-.164 0-.328-.169-.492-.169l-.328-.337c.164.169.164 0 .164-.168zm1.641-1.685h.164s.164 0 .164-.168l.164-.169.164-.168v-.674c0-.169 0-.505-.164-.674 0-.168-.164-.337-.164-.505-.164-.169-.164-.169-.328-.169s-.164 0-.328.169c-.164 0-.164.168-.164.168 0 .169-.164.169-.164.337v1.348c0 .168 0 .168.164.337l.164.168h.328zm6.56-1.684c0 .168 0 .337-.164.337 0 .168-.164.168-.164.336l-.328.337c-.164.169-.164.169-.328.169a2 2 0 01.82.842c.164.337.329.506.329.843 0 .337 0 .505-.165.673l-.492.506c-.164.168-.328.168-.656.337-.164 0-.492.168-.656.168h-.328c-.164 0-.328 0-.328-.168-.164 0-.328-.169-.328-.169-.164 0-.164-.168-.328-.337-.164-.168-.164-.168-.164-.337v-.505c0-.168 0-.337.164-.505 0-.169.164-.337.164-.337l.328-.337c.164-.169.328-.169.328-.337-.164-.169-.328-.169-.492-.337l-.328-.337c0-.169-.164-.169-.164-.337v-.337c0-.337 0-.505.164-.674l.492-.505c.164-.169.328-.169.492-.337.164 0 .492-.169.656-.169.164 0 .328 0 .656.169.164 0 .328.168.492.337.164.168.328.337.328.505v.506zm-.82 3.2v-.336c0-.169-.164-.169-.164-.337 0-.169-.164-.169-.328-.337-.164-.169-.328-.169-.492-.337l-.328.337c0 .168-.164.168-.164.337 0 .168-.164.168-.164.337v.674c0 .168.164.168.164.336 0 0 .164.169.328.169h.656c.164 0 .164-.169.164-.169l.164-.168c.164-.337.164-.505.164-.505zm-1.476-3.369v.337c0 .168.164.168.164.337s.164.168.328.337c.164 0 .164.168.328.168s.164-.168.164-.168.164-.169.164-.337c0-.169.164-.169.164-.337v-.505c0-.169-.164-.169-.164-.169l-.164-.168h-.656c-.164 0-.164.168-.164.168l-.164.169c.164 0 0 .168 0 .168zm6.561 3.033v.841h.656v.674h-2.296v-.505h.164s.164 0 .164-.169l.164-.169v-.505h-1.968v-.674l2.624-3.538h.492v3.538h.82v.674h-.82v-.168zm-2.46-.674h1.312V57.86l-1.312 1.685z" fill="#fff"/></svg>