<svg width="542" height="588" fill="none" xmlns="http://www.w3.org/2000/svg"><path opacity=".15" fill-rule="evenodd" clip-rule="evenodd" d="M422.643 47.29l42.068 25.123 4.892-9.045-42.069-25.122-4.891 9.044zM338.505-2.956l42.069 25.123 4.892-9.044L343.397-12l-4.892 9.044zM10.762 341.73H0v-50.245h10.762v50.245zm0-100.491H0v-50.246h10.762v50.246zM0 427.146l29.35 18.089 5.87-10.049-24.458-14.069v-29.142H0v35.171zm512.65 18.089l-4.892-10.049 24.458-14.069v-29.142H542v35.171l-29.35 18.089zM343.397 545.726l-4.892-9.044 42.069-25.123 4.892 9.044-42.069 25.123zm84.137-50.245l-4.891-9.045 42.068-25.122 4.892 9.044-42.069 25.123zM241.65 570.849L271 587.932l29.35-17.083-4.892-9.044L271 575.873l-24.459-14.068-4.891 9.044zm-42.069-25.123l-42.069-25.123 4.892-9.044 42.069 25.123-4.892 9.044zm-85.115-50.245l-42.07-25.123 4.893-9.044 42.068 25.122-4.891 9.045zM542 140.746h-9.784v-28.137l-24.458-15.074 4.892-9.044L542 105.575v35.171zm-10.762 200.983H542v-50.245h-10.762v50.245zm0-100.491H542v-50.246h-10.762v50.246zM72.397 63.368l4.892 9.045 42.068-25.123-4.891-9.044-42.07 25.122zm85.115-50.245l4.892 9.044 42.069-25.123L199.581-12l-42.069 25.123zM0 140.746h10.762v-28.137L35.22 97.535l-5.87-9.044L0 105.575v35.171zm423.084 74.51s-15.614 24.183-29.276 33.252c-14.638 9.069-26.348 20.152-26.348 23.175-.976 12.092-6.831 19.145-6.831 19.145 26.348-1.007 30.252-4.03 41.962-15.114 9.385-9.69 10.622-20.675 11.245-26.212.155-1.372.272-2.409.466-3.009.105-.327.199-.631.286-.909.712-2.297.901-2.904 2.641-1.107 1.952 2.016.976 12.092.976 12.092-2.928 29.221-22.445 39.297-22.445 39.297-10.734 9.069-47.817 9.069-47.817 9.069-7.807 9.069-27.325 13.099-27.325 13.099s-4.879 6.046-5.855 9.069c0 0 1.952 2.015 2.928 4.03s.976 4.031 0 6.046c0 1.598 4.294 1.295 7.046 1.101.719-.05 1.332-.093 1.736-.093 1.261 0 3.335-1.261 5.698-2.697 1.296-.787 2.678-1.628 4.061-2.342.301-.155.713-.37 1.218-.635 6.05-3.167 25.582-13.394 30.986-12.464 5.855 0 17.565-3.023 17.565-3.023s3.904-4.03 9.759-3.022c6.831 1.007 4.879 6.045 4.879 6.045l-3.903 8.061c0 1.008-3.904 7.054-3.904 7.054s-11.71 11.084-12.686 13.099c-.132.136-.461.494-.94 1.016-3.063 3.335-12.274 13.363-15.65 15.106-2.927 2.015-14.638 8.061-21.469 7.053-6.831-1.008-19.517 4.031-19.517 4.031s-.976 3.022-.976 5.038c0 2.015-1.952 4.03-1.952 4.03l-.975 7.054s0 16.122.975 18.137c.732 1.511 3.659 10.956 5.489 16.86.61 1.969 1.098 3.544 1.342 4.3.976 3.023 5.856 26.198 5.856 26.198-60.504 50.381-109.297-1.007-109.297-1.007s1.951-12.092 1.951-14.107c0-1.008 2.928-14.107 2.928-14.107s1.952-8.061 3.903-14.107c1.574-4.874 1.244-9.749 1.058-12.511-.045-.663-.082-1.205-.082-1.595v-18.138c0-2.015-2.927-6.045-4.879-8.061-2.928-2.015-19.517-9.068-24.397-8.061-4.796 0-12.211-4.732-20.099-9.766-1.743-1.112-3.508-2.239-5.273-3.333-9.759-6.046-19.518-27.206-19.518-27.206s-4.879-12.091-5.855-13.099c-.976-1.007-.976-7.053 0-9.068.976-3.023 6.831-1.008 6.831-1.008 4.879 6.046 27.324 11.084 27.324 11.084s26.349 13.099 28.301 14.107c1.951 1.007 10.734 6.045 11.71 7.053.976 1.008 1.952 0 1.952 0l.976-3.023s-.976-4.03 0-5.038v-4.03c0-2.016-.976-3.023-.976-3.023h-2.928s-4.879-2.016-14.638-3.023c-9.759-2.015-15.614-15.115-15.614-15.115-14.638 1.008-29.276-2.015-29.276-2.015-25.382-10.483-30.958-27.026-33.265-33.867-.354-1.05-.631-1.871-.89-2.407-1.952-4.031-1.952-22.168-1.952-22.168l-5.855-7.053c-15.614-13.1-14.638-53.404-14.638-53.404s1.952-12.092 2.928-22.168c1.951-11.084-.976-17.13-2.928-21.16-1.952-4.031-6.831-19.145-6.831-20.153 0-1.007.976-10.076 1.952-11.084l6.831-14.106c3.903-6.046 4.879-2.016 4.879-2.016s-.976 4.03-3.903 8.061c-2.928 4.031-1.952 15.115-.976 23.176 1.951 8.061 7.807 9.068 12.686 8.061 3.212-1.327 4.733-4.838 5.954-7.656.633-1.463 1.186-2.74 1.853-3.428 1.952-2.015 12.686-17.13 12.686-17.13s5.855-10.076 6.831-10.076c.976-1.008 6.831-12.092 6.831-12.092 2.151 0 .089 5.438-1.157 8.724-.451 1.187-.794 2.093-.794 2.36 0 1.008-7.807 16.122-7.807 16.122l-7.807 15.115s-3.904 14.106-6.831 24.183c-2.928 10.076 0 17.129 4.879 19.145 3.903 2.015 24.397 1.007 26.348 0 1.952-1.008 20.494-8.061 21.469-8.061.976 0 8.783-4.031 16.59-13.1 8.783-9.068 4.88 0 4.88 0l-2.928 5.039-11.711 12.091s-10.734 7.053-14.638 8.061c-3.903 2.015-6.831 4.031-6.831 5.038 0 .672.868 1.344 1.735 2.015.434.336.868.672 1.193 1.008.976 1.008.976 3.023-.976 3.023-1.952-1.008-6.831 0-8.783 1.008-1.951 1.007-9.758 2.015-9.758 2.015s-12.687 0-17.566-2.015c-5.855-3.023-4.879 2.015-4.879 2.015s.976 8.061 1.951 15.114c.976 7.054 15.614 30.229 20.494 37.282 4.879 7.054 37.083 30.229 37.083 30.229s-.976-7.053.975-18.137c1.952-11.084 4.88 0 4.88 0l.976 23.175s21.469 15.114 24.396 18.137c2.928 4.031 19.518 16.122 19.518 16.122l5.855 6.046s9.759 1.008 10.735 1.008c.975 0 7.806 1.007 7.806 1.007s2.928 6.046 6.832 3.023c3.903-3.023 18.541-7.053 19.517-6.046.976 1.008 3.903 1.008 3.903 1.008l3.904-5.038 3.903-4.031 8.783-8.061s14.638-14.106 17.566-17.129c3.903-3.023 29.276-32.244 29.276-32.244s0-5.038 2.927-16.122c2.928-10.076 2.928-1.008 2.928-1.008l.976 7.054 6.831-10.077 9.759-22.167s3.903-9.069 4.879-19.145c.976-10.076-5.855-5.038-5.855-5.038l-14.638 2.015s-6.831 1.008-9.759-2.015-7.807-3.023-7.807-3.023-4.879-1.008-10.735-2.015c-5.855-1.008-12.686-4.031-12.686-4.031s-3.903-4.03-10.734-9.069c-6.831-5.038 0-4.03 0-4.03s3.903 3.023 9.758 7.053c4.03 3.467 13.143 4.549 18.752 5.214 2.542.302 4.365.518 4.669.832.201 0 .775.043 1.568.102 3.056.228 9.368.698 10.143-.102.975-1.008 11.71-4.03 14.638-4.03 2.927-1.008 7.807-4.031 8.782-5.039.976-1.007 1.952-9.068 1.952-9.068 3.904-12.092-2.927-21.16-2.927-21.16s-2.928-6.046-2.928-8.061c0-2.016-2.928-9.069-2.928-9.069s-3.903-8.061-5.855-17.13c-2.927-10.076.976-5.038.976-5.038s1.952 12.092 10.735 22.168c8.782 11.084 15.613 32.244 15.613 32.244 7.807 9.069 13.663-1.008 13.663-1.008s2.927-4.03 5.855-10.076c2.927-6.046 2.927-15.114 0-29.221-2.277-10.188-.422-7.576 1.433-4.963.53.746 1.061 1.492 1.494 1.94 1.952 2.015 5.856 17.13 5.856 17.13 2.927 20.152-5.856 29.221-5.856 29.221-5.855 7.053-13.662 31.236-13.662 32.244 0 .381-.279 1.193-.836 2.819-.918 2.675-2.591 7.551-5.019 16.326-2.041 9.133-6.929 18.756-11.024 26.819-1.779 3.502-3.408 6.709-4.59 9.455-3.903 9.069 2.928 2.015 2.928 2.015l14.638-14.106s6.831-7.054 13.662-17.13c5.151-7.598 5.863-16.342 6.738-27.097.286-3.507.589-7.228 1.069-11.193 1.952-16.122 2.927 4.031 2.927 4.031.976 33.252-6.831 44.335-6.831 44.335zM135.203 243.47s2.928 18.137 12.687 28.213c10.734 10.077 18.541 16.122 42.938 14.107 0 0-.976-4.03-5.855-6.046-2.088-1.078-12.83-9.362-22.52-16.835-8.428-6.499-16.061-12.386-16.515-12.386-.349 0-1.572-1.031-3.089-2.31-2.723-2.296-6.392-5.39-7.646-4.743z" fill="#fff"/></svg>