<svg width="38" height="38" fill="none" xmlns="http://www.w3.org/2000/svg"><g clip-path="url(#clip0)"><path d="M0 19.092v9.316c0 2.084 1.655 3.555 3.677 3.555h30.646c2.022 0 3.677-1.471 3.677-3.555v-9.316H0z" fill="#E13E3E"/><path d="M19 19.092l15.139 12.87c2.022 0 3.861-1.47 3.861-3.554v-9.316H19z" fill="#D12A2A"/><path d="M34.323 6.037H3.677C1.655 6.037 0 7.692 0 9.776v9.316h38V9.776c0-2.084-1.655-3.739-3.677-3.739z" fill="#fff"/><path d="M34.323 6.037H3.677L19 19.092h19V9.776c0-2.084-1.655-3.739-3.677-3.739z" fill="#E9F3F4"/><path d="M38 28.347c0 2.206-1.655 3.616-3.677 3.616H3.677A3.65 3.65 0 010 28.285" fill="#C11414"/><path d="M3.677 6.037h30.646C36.345 6.037 38 7.692 38 9.776v6.803" fill="#D9ECED"/></g><defs><clipPath id="clip0"><path fill="#fff" d="M0 0h38v38H0z"/></clipPath></defs></svg>