<svg width="92" height="69" fill="none" xmlns="http://www.w3.org/2000/svg"><path fill-rule="evenodd" clip-rule="evenodd" d="M52.533.069c-3.747-.536-6.423 2.14-7.494 5.35-2.141 6.42-1.338 12.306 2.409 17.656 9.248 13.206 30.997 33.112 38.417 39.903 1.6 1.464 2.533 2.318 2.533 2.366.268.535.803.535 1.07.267 1.339.535 2.945-.802 2.142-2.407-.116-.233-.673-1.623-1.524-3.746-3.069-7.662-9.96-24.864-13.732-31.567-.554-.985-1.15-2.082-1.789-3.257C69.651 15.59 62.245 1.963 52.533.069zm14.72 65.81C50.928 51.433 5.428 27.089.343 46.885c-4.042 16.608 28.65 18.718 52.087 20.23 4.499.29 8.657.56 12.148.904 1.07 0 1.606-.535 1.606-1.338 0 .268.268.268.268.268.535.267 1.338-.535.803-1.07z" fill="#fff"/></svg>