<svg width="267" height="243" fill="none" xmlns="http://www.w3.org/2000/svg"><path opacity=".15" fill-rule="evenodd" clip-rule="evenodd" d="M148.186 72.176l.806.453c-4.922-1.445-9.844-4.096-14.767-7.45-5.74 4.125-11.48 6.652-17.22 9.179 1.129-.738 2.246-1.463 3.35-2.18l.002-.001.011-.008.004-.002h.001l.001-.001c4.238-2.753 8.292-5.386 12.162-8.165-.407-.29-.814-.585-1.221-.883-1.263.432-2.315.864-3.367 1.297-1.052.432-2.104.864-3.367 1.297-5.051 5.187-12.627 6.917-19.361 3.458v-.864c4.209-6.053 14.31-12.105 20.203-5.188.841 0 0 .864 0 .864 1.683 0 4.209-.864 5.892-1.729-7.576-5.188-14.31-12.105-19.361-19.886h-5.05a20.138 20.138 0 01-5.46.754c-3.165-.897-5.586-2.59-8.008-5.077-.842-.865 0-1.73.841 0 2.526 1.729 5.051 3.458 7.576 4.323h2.526c-5.007-6-11.667-8.6-19.162-7.804a19.304 19.304 0 01-1.04-1.707s0-.865.841-.865c8.418-1.73 17.677 1.73 22.728 9.511h4.208c-.42-.432-.631-.864-.841-1.297-.211-.432-.421-.864-.842-1.297-.842.865-.842 0-.842 0v-.864c-.41-.702-.842-1.426-1.285-2.17-2.289-3.837-4.88-8.183-6.291-12.53a17.272 17.272 0 01-3.058-3.052l-1.992-8.187c1.683 2.594 2.525 5.188 3.367 8.646 0-6.052-1.684-12.97-5.05-18.157-.05.135-.097.27-.143.404.24-1.03.567-2.034.984-2.998h.842c4.209 6.917 6.734 14.699 5.892 22.48 1.684 4.323 4.209 8.647 6.734 12.97v-2.594c-3.367-1.73-3.367-7.782-3.367-11.24 0-2.594 0-10.376 3.367-11.24 1.348-.347 2.292.693 2.938 2.176-.477-.317-1.392-.112-2.938.417-.842.865-.842 1.73-.842 2.594-.841 1.73-.841 2.594-.841 4.323 0 .66-.031 1.384-.063 2.14-.136 3.205-.297 7.002 1.746 9.1 0-1.729-.21-3.242-.421-4.755-.21-1.513-.421-3.026-.421-4.755 0 0 .842-.865.842 0 .842 2.593.842 5.187.842 7.781.349-.716.697-1.58 1.106-2.593.56-1.389 1.232-3.056 2.17-5.001-.276 3.997-1.215 7.525-3.276 11.053 0 .864-.211 1.513-.421 2.161-.21.649-.421 1.297-.421 2.162 1.123 2.306 2.993 4.611 4.864 6.917.935 1.153 1.87 2.306 2.712 3.459l5.892 6.052v-4.323c-4.208-1.73-5.892-6.917-5.892-12.105 0-1.73 0-10.376 2.525-11.24 2.273 0 5.228 6.303 6.409 8.824.132.28.241.514.325.687 1.684 4.323 1.684 9.51-.841 14.698 0 .865-.842.865-.842.865 0 .865-.211 1.513-.421 2.162-.21.648-.421 1.297-.421 2.161 3.154 2.88 6.454 5.46 9.9 7.865 2.985-2.188 5.858-4.479 8.619-7-.842-1.73-.842-2.594-.842-4.323 0 0-.841 0-.841-.865-2.526-4.323-2.526-9.51-.842-14.699.842-2.593 4.209-10.375 6.734-9.51 2.954.758 2.669 8.17 2.554 11.146-.016.417-.029.746-.029.958 0 4.323-1.683 9.511-5.892 12.105v4.323c.533-.547 1.15-1.095 1.799-1.67 1.399-1.24 2.943-2.61 4.093-4.382l7.576-10.376c-.842-.864-.842-2.593-.842-4.323-2.525-4.323-3.367-8.646-3.367-13.834 0-1.73.842-9.51 4.209-8.646 2.626.674 3.204 5.555 3.331 8.901-.069-.578-.227-1.065-.385-1.552-.21-.648-.421-1.297-.421-2.161 0-.433-.21-.865-.42-1.297-.211-.433-.421-.865-.421-1.297-1.684-.865-3.367-.865-3.367.864-1.279 1.97-1.101 4.44-.941 6.65.05.7.099 1.373.099 1.997 0 1.729.842 4.323 3.367 6.917 0-2.594 0-5.188.842-7.782 0-.865.841-.865.841 0-.841 3.459-.841 6.053-.841 9.511 1.501-2.313 1.664-7.378 1.681-10.286.002.291.002.552.002.775 0 2.594 0 9.511-3.367 11.24v2.594c2.526-4.323 5.051-8.646 6.734-12.97-.841-8.646 1.684-15.563 5.893-22.48 0-.864.841 0 .841 0 3.368 7.782.842 18.158-5.892 23.345-1.683 5.188-4.209 9.511-7.576 14.699v.865h-.842c-.42.432-.631.864-.841 1.297-.211.432-.421.864-.842 1.296h4.209c5.05-7.781 14.31-11.24 22.727-9.51.842 0 .842 0 .842.864-5.05 7.782-14.31 12.105-22.728 9.511-.222 0-.561.06-.971.133-1.144.203-2.84.504-4.079-.133-5.881 7.766-11.761 14.671-19.316 19.856l.293.198c1.67.806 3.98 1.562 5.555 1.562v-.865c6.734-6.917 15.993-.864 20.202 5.188.842 0 .842.865 0 .865-4.14 2.126-8.597 2.618-12.591 1.276zm11.747-49.606a49.606 49.606 0 00-.034-1.564c.023.192.036.394.036.61 0 .28 0 .601-.002.954zm-46.306-2.542c.011.628.011 1.18.011 1.588l-.091.187c.04-.581.066-1.172.08-1.775zm-.165-3.15c.125.934.176 1.72.176 2.144 0 .339-.004.674-.011 1.006a39.966 39.966 0 00-.165-3.15zm0 0c-.109-1.094-.285-2.122-.57-2.829.269.954.452 1.956.57 2.83zm-.667-3.156l.097.327a3.767 3.767 0 00-.096-.215l-.001-.112zm0 0c-.014-.605-.143-.98-.428-1.17.16.367.302.762.428 1.17zM94.977 2.998c-2.284 6.782.224 13.548 4.351 19.482l-.533-2.188c-3.712-4.75-5.182-11.428-3.818-17.294zm-8.223 33.53a27.087 27.087 0 01-1.736-1.943l.2-.022c.47.69.984 1.346 1.536 1.965zm0 0a19.737 19.737 0 009.904 5.997c-3.75-1.037-7.112-3.162-9.904-5.997zm9.904 5.997c1.661.46 3.398.706 5.195.706a16.703 16.703 0 01-.409-.11 19.666 19.666 0 01-4.786-.596zm46.633 26.832a16.598 16.598 0 01-1.875-1.916c-.994-.34-1.988-.68-2.931-1.021a179.3 179.3 0 004.806 2.937zm-22.077-33.043c-.842 0 .842-.864.842 0 1.683 3.459 2.525 7.782 2.525 11.24 2.525-6.916.842-13.834-3.367-19.021-1.684-2.594-1.684 0-1.684 2.593v6.918c0 4.323 1.684 7.781 4.209 10.375a288.334 288.334 0 00-1.263-6.052c-.42-1.946-.841-3.891-1.262-6.053zm1.683 28.533c-5.05-5.188-12.626-.865-16.835 4.323 5.892 2.594 12.627.865 15.994-2.594-3.367.865-6.735 0-9.26-1.729 0 0 0-.865.842-.865 3.367.865 5.892.865 9.259.865zm18.519-15.563c-1.683-6.053-.841-13.834 3.368-19.022 1.971-2.025 1.89-.888 1.76.943a23.05 23.05 0 00-.077 1.651v6.917c0 3.458-1.684 7.782-4.209 10.375 0-4.323.842-7.781 2.526-12.104 0-.865-.842-.865-.842 0-1.684 2.594-2.526 6.917-2.526 11.24zm26.937-36.315c-.162.5-.324 1.032-.493 1.583-.704 2.312-1.515 4.97-2.874 7.064 0-6.917 1.683-12.97 5.05-18.157 1.684 6.917 0 14.698-4.208 19.886 1.683-3.458 2.525-6.917 2.525-10.375zm3.367 25.075c-2.525 1.729-5.051 3.458-7.576 4.323h-2.525c5.05-6.052 11.784-8.646 19.36-7.782-4.208 5.188-10.101 8.646-16.835 8.646 3.3-.847 5.791-2.525 8.266-5.033.148.06.274.124.362.17.081.041.131.067.138.058.011-.014-.089-.116-.348-.382l-.152.154a1.889 1.889 0 00-.69-.154zM143.1 67.44c3.367 0 6.734 0 9.259-1.73.842 0 0-.864-.841-.864-.344.088-.679.177-1.007.263-2.885.76-5.229 1.378-8.253.602 5.893-5.188 13.468-.865 16.835 4.323-5.05 2.594-11.784 1.73-15.993-2.594zm17.677 127.965c2.525 1.729 15.994 11.24 15.994 21.616v10.375c0 4.323-3.367 8.646-8.418 12.105-3.367 2.594-6.734 3.458-10.101 3.458-3.595 0-6.576-1.261-9.991-2.707h-.001l-.004-.002c-.582-.246-1.177-.498-1.789-.749-5.051-2.594-11.785-5.188-20.202-5.188-2.308-.593-5.406.033-9.025.764-1.661.336-3.431.693-5.285.965-2.245.289-4.583.673-6.921 1.057h-.001c-4.676.769-9.352 1.537-13.28 1.537-4.21 0-6.735-.864-8.418-2.594-1.684-1.729-2.525-3.458-2.525-5.187v-9.51c.841-4.323 6.734-9.511 21.044-19.022s19.36-11.24 26.936-12.969c3.367-.865 6.734-.865 10.101-.865 10.169.803 17.43 4.593 21.109 6.513l.002.001c.279.146.538.281.775.403zm-31.987-5.188c-6.734 1.729-12.626 3.459-26.095 12.97-14.31 9.51-20.202 14.698-18.518 18.157v2.595c0 .864.841 1.729 1.683 2.593.9.925 2.04 1.602 3.421 2.032-.68-.298-1.266-.683-1.737-1.167-5.892-6.917-.842-10.376 16.835-22.48 12.627-8.647 16.836-10.376 23.57-12.105 11.784-2.594 22.727 1.729 28.62 5.188 7.576 4.323 24.411 19.021 6.734 31.126-4.266 3.13-7.98 3.541-11.861 2.75 2.326.913 4.729 1.573 6.81 1.573 3.367 0 6.734-.864 10.101-3.458.421-.432 1.052-.865 1.683-1.297h.001c.631-.432 1.262-.865 1.683-1.297l.842-.865c.421-.432.631-.864.842-1.296.21-.433.42-.865.841-1.297.842 0 .842-.865.842-.865s.842-.865.842-1.729v-4.323c-.842-10.376-13.468-19.022-15.994-20.752a55.5 55.5 0 01-1.599-.872h-.001c-3.884-2.169-10.827-6.044-20.286-6.044-2.525 0-5.892 0-9.259.864zm2.238 35.213l.357.065-.136-.025-.221-.04zm-5.061-.599c-.18-.011-.361-.02-.544-.029-2.952-.303-7.77.67-13.034 1.801l.138-.025.27-.047c1.006-.147 1.989-.295 2.942-.438l.008-.002h.003c4.024-.605 7.535-1.134 10.217-1.26zm-25.303 4.068c.972-.144 1.964-.31 2.968-.493-1.02.196-2.016.367-2.968.493zm52.538-23.119c0-2.594-3.367-4.323-8.418-4.323-5.051.865-8.418 2.594-8.418 6.053 0 2.593 3.367 4.323 8.418 4.323 5.051-.865 8.418-3.459 8.418-6.053zm-104.38 7.782c-.842 0-.842 0-1.684-.865-.842-.864-.842-2.594 0-3.458l82.072-84.302-82.913-85.165c-.842-.865-.842-2.594 0-3.459.842-.864 2.525-.864 3.367 0l82.914 85.166 82.913-85.166c.842-.864 2.525-.864 3.367 0 .842.865.842 2.594 0 3.459l-82.913 85.165 82.072 84.302c.842.864.842 2.594 0 3.458 0 .865-.842.865-1.683.865-.842 0-.842 0-1.684-.865l-82.072-84.301-82.073 84.301c-.842.865-.842.865-1.684.865zM6.733 126.236v3.458c0 .432.21.865.421 1.297.21.432.42.865.42 1.297l1.684 1.729c.421 0 .842.216 1.263.433.421.216.842.432 1.263.432h1.683c.842 0 .842 0 1.684-.865.42 0 .631-.216.842-.432.21-.216.42-.432.841-.432.52 0 .72-.331.994-.787.17-.282.368-.612.69-.943l1.683 1.73-2.525 2.593c-.42.433-.842.649-1.262.865-.421.216-.842.432-1.263.865-.421 0-.842.216-1.263.432-.42.216-.842.432-1.262.432H10.1c-1.683 0-2.525 0-4.209-.864-.313-.322-.743-.524-1.203-.74-.775-.365-1.635-.769-2.164-1.854-.841-.865-1.683-1.729-1.683-3.459C0 129.694 0 128.829 0 127.1c0-1.729 0-2.594.842-4.323.321-.66.52-1.195.69-1.651.274-.739.473-1.273.993-1.807.842-.865 1.684-1.73 3.367-2.594.842-.865 2.526-.865 4.21-.865h2.524c.842 0 1.684 0 2.526.865.842 0 1.683.864 1.683.864l1.684 1.73c0 .432.21.864.42 1.296.211.433.422.865.422 1.297.841 1.73.841 2.594.841 4.323v.001H6.734zm4.209-7.782H9.259c-.841 0-.841.865-.841.865s-.842.864-.842 1.729c0 .369 0 .581-.066.77-.088.252-.294.464-.776.959h7.576v-1.729c0-.865 0-.865-.842-1.729l-.841-.865h-1.684zm18.443 14.855c-.444-.283-.766-.487-.766-1.021-.842-.865-.842-.865-.842-1.729v-2.594h-1.683v6.917h3.367v-.865c0 .436 0 .653.108.76.106.105.316.105.734.105.841.864.841.864 1.683.864h5.894c.842 0 1.684 0 2.526-.864.841 0 1.683-.865 1.683-1.729.842-.865.842-1.73.842-2.594 0-.433-.21-.865-.42-1.297-.211-.433-.422-.865-.422-1.297l-1.683-1.729c-.842-.865-1.684-1.73-2.526-1.73-.42 0-.841-.216-1.262-.432-.421-.216-.842-.432-1.263-.432-.842-.865-.842-.865-1.683-.865-.421 0-.632-.216-.842-.432-.21-.216-.421-.433-.842-.433l-.842-.864v-1.729c0-.865.842-.865.842-.865h3.367c.421 0 .632.216.842.432.21.216.42.433.842.433 0 .432.21.648.42.864.211.216.421.432.421.865.842 0 .842.864.842 1.729h2.525v-6.917H37.88v.865c0-.865-.841-.865-.841-.865H33.67c-.987 0-1.684.297-2.262.542-.408.174-.757.323-1.105.323-.421.432-.842.648-1.263.864-.421.216-.842.433-1.263.865-.841 0-1.683.865-1.683 1.729-.842.865-.842 1.729-.842 2.594 0 .865 0 1.729.842 2.594l1.683 1.729c.842.865 1.684 1.729 2.526 1.729.42 0 .841.217 1.262.433.421.216.842.432 1.263.432.42 0 .631.216.842.432.21.217.42.433.841.433.842 0 1.684.864 1.684.864l.842.865v1.729c0 .865-.842.865-.842.865h-4.209c-.42 0-.631-.216-.842-.432-.21-.217-.42-.433-.841-.433-.322-.33-.643-.534-.918-.708zm16.069-16.584c.842 0 1.684 0 1.684-.865.42 0 .63-.216.841-.432.21-.216.421-.433.842-.433.842-.864.842-.864.842-1.729 0-.432.21-.648.42-.864.211-.217.422-.433.422-.865h3.367v5.188h5.05v3.458h-5.05v13.834l.841.865h2.526s.841 0 .841-.865c0 0 .842-.864.842-1.729l1.684 1.729-2.526 2.594c-.321.331-.643.535-.917.709-.445.282-.766.486-.766 1.021-.842 0-1.684.864-1.684.864h-5.05c-.421 0-.632-.216-.842-.432-.21-.216-.42-.432-.842-.432 0 0-.841-.865-.841-1.73 0-.432-.21-.648-.421-.864-.21-.217-.421-.433-.421-.865v-12.105h-2.525v-6.052h1.683zm25.253 19.021v-1.729s-.841 0-.841-.864c0-.865-.842-.865-.842-.865H67.34l-.841.865c-.842 0-.842.864-.842.864v1.729l.841.865c0 .865.842.865.842.865h1.684l.841-.865c.842 0 .842-.865.842-.865zm108.587-17.292l-1.683-2.594 9.259-6.917h2.525v25.939h3.367v3.458h-11.784v-2.593h.841s.842 0 .842-.865c0 0 0-.865.842-.865V115.86l-4.209 2.594zm19.362 14.699v.864c0 .865 0 1.73-.842.865l1.683 1.729c.421 0 .842.216 1.263.433.421.216.842.432 1.263.432.841.864 1.683.864 3.367.864 1.683 0 3.367 0 4.209-.864 1.683 0 2.525-.865 3.367-1.729.421-.433.631-.865.841-1.297.211-.433.421-.865.842-1.297 0-.433.211-1.081.421-1.73.211-.648.421-1.297.421-1.729.842-.864.842-2.594.842-3.458v-3.459c0-.865-.211-1.729-.421-2.594-.211-.864-.421-1.729-.421-2.594 0-1.729-.842-3.458-1.684-4.323-.42-.432-1.052-.864-1.683-1.297-.631-.432-1.263-.864-1.684-1.297-.841-.864-2.525-.864-4.208-.864-1.684 0-3.368 0-4.209.864-1.684 0-2.526.865-3.367 1.73-.421.432-.632.864-.842 1.296-.211.433-.421.865-.842 1.297-.842.865-.842 1.73-.842 3.459 0 .432.211 1.081.421 1.729.211.649.421 1.297.421 1.729.322.661.52 1.195.69 1.652.275.738.474 1.273.994 1.807.421.432.841.648 1.262.865.421.216.842.432 1.263.864.842.865 1.683.865 3.367.865h1.684c.841-.865.841-.865 1.683-.865.842 0 1.684-.864 1.684-.864l.841-.865v5.188c0 1.729 0 2.594-.841 3.458l-1.684 1.73c-.842.864-1.683.864-2.525.864h-1.684l-.841-.864v-3.459c0-.865-.842-.865-.842-.865h-1.684l-.842.865c-.841 0-.841.865-.841.865zm9.259-7.782h-2.525l-.842-.865c-.842-.864-.842-.864-.842-1.729v-6.917c0-.432.211-.648.421-.865.211-.216.421-.432.421-.864 0 0 0-.865.842-.865.842-.864.842-.864 1.683-.864.356 0 .561 0 .743.065.249.089.455.3.941.799 0 .432.21.865.421 1.297.21.432.421.865.421 1.297.841.865.841 2.594.841 3.459v3.458l-.841.865-.842.864c0 .865-.842.865-.842.865zm32.828-8.646c0 .864 0 1.729-.841 1.729 0 .432-.211.649-.421.865-.211.216-.421.432-.421.864l-1.684 1.73c-.841.864-.841.864-1.683.864 1.683.865 3.367 2.594 4.209 4.323.225.464.451.865.66 1.237.572 1.018 1.023 1.82 1.023 3.086 0 1.729 0 2.594-.842 3.459l-2.525 2.594c-.52.534-1.04.738-1.759 1.02h-.001c-.444.174-.964.379-1.607.709-.421 0-1.052.216-1.683.432h-.001c-.631.216-1.262.432-1.683.432H229.8c-.841 0-1.683 0-1.683-.864-.842 0-1.684-.865-1.684-.865-.52 0-.719-.33-.993-.786-.17-.283-.369-.613-.69-.943-.842-.865-.842-.865-.842-1.729v-2.594c0-.865 0-1.729.842-2.594 0-.865.842-1.729.842-1.729l1.683-1.729c.322-.331.643-.535.918-.709.444-.282.766-.486.766-1.021-.421-.432-.842-.648-1.263-.864-.421-.216-.842-.433-1.263-.865l-1.683-1.729c0-.432-.211-.649-.421-.865-.21-.216-.421-.432-.421-.864v-1.73c0-1.729 0-2.593.842-3.458l2.525-2.594c.421-.432.842-.648 1.263-.864.421-.217.842-.433 1.262-.865.421 0 1.053-.216 1.684-.432.631-.217 1.263-.433 1.684-.433.841 0 1.683 0 3.367.865.841 0 1.683.864 2.525 1.729v.001c.842.864 1.683 1.728 1.683 2.593v2.594zm-4.208 16.428v-1.73c0-.432-.211-.648-.421-.864-.211-.217-.421-.433-.421-.865 0-.534-.322-.738-.766-1.02-.275-.175-.596-.379-.918-.709-.421-.432-.842-.649-1.262-.865-.421-.216-.842-.432-1.263-.864l-1.684 1.729c0 .432-.21.648-.42.864-.211.217-.421.433-.421.865s-.211.648-.421.865c-.211.216-.421.432-.421.864v3.459c0 .432.21.648.421.864.21.217.421.433.421.865 0 0 .841.865 1.683.865h3.367c.842 0 .842-.865.842-.865l.842-.865c.842-1.729.842-2.593.842-2.593zm-7.576-17.293v1.729c0 .433.21.649.421.865.21.216.42.432.42.865 0 .534.322.738.766 1.02.275.175.596.379.918.709.421 0 .631.216.842.432.21.216.421.433.842.433.841 0 .841-.865.841-.865s.842-.865.842-1.729c0-.433.21-.649.421-.865.21-.216.421-.432.421-.865v-2.593c0-.865-.842-.865-.842-.865l-.842-.865h-3.367c-.842 0-.842.865-.842.865l-.841.865c.841 0 0 .864 0 .864zm33.67 17.293v-.865h4.209v-3.459h-4.209v-18.157h-2.526l-13.468 18.157v3.459h10.101v2.594l-.841.864c0 .865-.842.865-.842.865h-.842v2.594h11.785v-3.459h-3.367v-2.593zm-5.893-5.188h-6.734l6.734-8.646v8.646z" fill="#fff"/></svg>