<svg width="1440" height="899" fill="none" xmlns="http://www.w3.org/2000/svg"><path d="M809.195 592.832c-.21-.623-.316-1.193-.893-1.245-.368-1.608-.736-1.245-.946-2.178-.315-1.245-.735-.882-1.471-2.074-.368-.571-.63-.415-.998-1.037-.368-.519-.945-.623-1.208-.726-.946-.312-.263-1.401-3.625-1.401-4.255 0-3.887-.933-8.405 1.556-.998-.726-1.418-.052-2.521.778-.788.622-1.156 1.452-1.839 2.904-.42.83-.21 2.437-.578 2.748-.735.623-.42 1.089-.578 2.127-.157.933-.262 1.711.211 2.385.42-1.037.472-1.141.42.311 0 .156-.053.519-.263.674-.052-.052-.052-.103-.105-.207-1.471.83 1.629 4.356 1.629 4.408.315.881.367-.156.788 1.763.262.415 1.103 1.192 2.153 1.452.368.103 1.524 1.348 2.995.207.682-.518 1.47 1.037 3.414.83 1.629 1.556 3.835.985 5.148-.985.315-.467 1.156-.156 1.944-.312 1.943-.363 4.57-2.437 4.36-4.2-.368-3.059 2.521-5.289.368-7.778zm-4.308-5.134c.21.155.263.415.473.622-.053.052-.053.104-.105.104-.21-.156-.578-.571-.368-.726zm-.473 1.711c.578.311 1.051.259 1.419.311.63.622.84 1.193.63 2.023-.315 1.555-.105 1.4-.315-.882-.053-.415-.315-.726-.42.467-.473-.156-.263-.726-.368-1.193-.263-.207-.105.363-.21.467-.21-.052-.788-1.193-.736-1.193zm1.839 4.2c-.053-.103-.105-.207 0-.363.105.156.105.26 0 .363zm-.315-2.541c.052.208.105.415 0 .675-.158-.26-.053-.467 0-.675zm0 1.038c-.105.207-.158 0-.053-.104 0 .052 0 .052.053.104zm-.315.414c-.106-.311-.263-.985 0-.829.105.259.052.518 0 .829zm-2.469-5.963c.367-.415.472 1.504.262 1.244-.262-.363 0-.259-.262-1.192v-.052zm-6.83-.985c.106 0 .211.051-.052.051 0-.051 0-.051.052-.051zm-.21.051c-.472.312-.683.052-.788 0 .788-.051.578-.051.788 0zm-.788-.311c.053 0 1.366-.052-.105.156-.052 0-.105-.104.105-.156zm-.525.519c.053 0 .053.052 0 0zm3.205 0c-.158.155-2.207 1.244-2.259 1.296-3.31 1.193.052-.311.367-.726-.052-.466-1.576.208-1.891.104v.052c-.262-.208 3.625-1.193 3.783-.726zm-4.623 4.045c-.158-.156-.158-.052 0-.311.21 0 .157.311.42.051 1.051-1.037.788-.518 0 .519-.525-.259 0-.415-.42-.259zm.315-2.904c.105.311 0 .778-.525.881-.105-.415-.053-.881.525-.881zm-.053-.623c.158.052.105 0 .053.156-.263.104-.21 0-.053-.156zm-.367 1.815c-.053.104-.053.104-.158.052.105-.103.105-.103.158-.052zm.21.312c-.105.414-.053.311-.263.414-.21-.155-.105-.518.263-.414zm.368.881c-.316 0-.211 0-.368-.052-.053-.726 3.782-1.867.368.052zm-.211-.881c.105-.415.526-.571.946-.726.263.674 2.679-.83.946.414-.894-.051-1.997.83-1.892.312zm.368-2.127c-.052-.051-.052-.103-.105-.207.315-.156.683.052.105.207zm0 .571c.315-.156 3.099-1.037.263.467-.42.155-.42-.052-.263-.467zm-2.259.259c.526-.881 2.784-2.282 1.576-.881-.788.933-.473.933-.84.726-.315 0-.946.518-.736.155zm.946 1.867c-.053-.311-.105-.207.157-.259.053.207.105.155-.157.259zm.105.259c-.158.104-.158.156-.105 0h.105zm0-.778h-.158c0-.57.368-.363.158 0zm.052-.777c0 .051 0 .051 0 0zm-.315.155c-.473.104-.788.311.105-.622.105.155-.052.518-.105.622zm-1.313.363c.158-.518.788-.83 1.051-.933-.316.57-1.156 1.296-1.051.933zm-.158.622c.316-.466.841-.57 1.314-.829.577.881-1.366 1.192-.946 1.555 1.051-.311.893-.311.998-.155-1.261.57-1.681.933-1.366-.571zm1.314.208c-.053.155-.158.155-.316.155.053-.155.211-.259.316-.155zm-1.366 1.244c.105-.259 1.261-.674 1.786-.674.84.83 1.156.415-1.523 1.763-.368.156-.211.052-.263-1.089zm0 1.401c0-.052 2.731-1.66 2.259-.986-.578.83-.841 1.141-1.051 1.712.158.311.525.155.683-.052-.263.052-.578.207-.473-.104.105-.311.893-1.815 1.629-1.919.157-.518.84-.466 1.628-.518-.263-.208-.578-.052-.893-.156 1.208-.207.263 0-.368 0 .105-.674 2.049-1.97 2.995-2.541 1.838-1.037-3.572 1.089-1.366 0 .315-.467 1.681-.83 2.259-1.4.262-.052.945.311 1.26.207-.262-.259-1.208-.414-1.26-.622.21-.052 1.365-.052 1.733.052.368.363.526.415 1.471 1.037.63.415.368.674 1.103 1.348 0 .208-.105.156.578 0 .263.363.946 2.904.42 2.282-1.523-1.763-2.731-5.808-1.786-1.556.368 1.764-.683-1.711-1.261-2.074-.367 0 .316 1.348.631 2.749.105.103.052.259.052.259.263.311-1.681-2.8-1.838-2.749 0 .312 2.679 3.993.052.623-.315-.363-.735-1.4.21.57 1.471 3.215-1.155-1.815-2.836.104.157.467.683-.882 2.784 1.244 1.156 1.141 1.366 1.297 1.523 1.919.158.571.421 1.711.316 2.386-.211 0-.631-2.438-.894-3.112-.315.052-.21 0 .578 3.008.316 1.244.263 2.541.053 1.867-.368-1.4-.736-4.149-1.313-4.201-.158.104-.105.83-.053.934.263-.156-.315-2.904 1.366 4.096.21.934.315-.881.157-1.815.578-.674-.105-2.644-.105-3.111.893.311 2.154 4.667-.472-3.786-.263-.777.472.052 1.208 2.956.315 1.089.263-.103.263-.207-.211-1.4-.683-3.06-.316-2.386 3.047 5.549 1.629.519 1.839.882 1.261 2.23 1.051 1.348 1.523 2.904.158.467-.105 2.282.158 2.334.21-.208.158-1.815.42-1.764.368 0 .158 1.452.158 3.06.157-.259.157-.57.21-1.296.052-.156.157-.052.263-.052.262-.208.42-.571.788-.726.682.155.105 1.452.682 2.074.263.311-.42 2.748-.84 3.526-.315-.259-.158-.674-1.996-3.474-.526-.83-.105-4.615-.578-4.615-.158.311.105 1.14.105 2.022.052 2.282.105 1.763-.525 1.348-.053-.466-.211-2.333-.421-1.607 0 .052-.472 2.852.053.57.105-.415.263.622.105 2.904.263.156.263.156.21.363-.157-.052-.105-.052-.263-.104-.157.571-.315.415-.315.83 0 .934.053.726-.21 1.193-1.786.155-.63.259-1.208-5.238-.053-.311 0-.518-.315-.466 0 .155.105.103.157.207.316 1.348-.157 1.245 0 1.452.263.415.21 2.437.21 3.734 0 .207-.052.363-.262.311-.053 0-.841-.156-.946-.259-.105-.519 0-2.23-.315-2.645-.21.207.053.467.105 1.4 0 .207-.105.259-.052.311.105.311.262.882-.106.83-1.103-.052-.052-.467-1.943.415-.578-.363-1.734.674-2.942 1.089-.578-.519 1.208-.934 2.417-1.815-.158-.208 0-.208-.946.259-.525-.57 1.366-.778 1.523-1.348.946-.674 1.104-1.297 1.471-1.297.263-.985.368-1.089-.052-1.659-.21-.985-.841-3.786-.946-2.8.21.259.631 1.815.578 2.178-.683-.467-.473-2.334-1.471-2.801-.157.208.053-.103.368.519.157.311.63 1.4.525 1.607-.052 0 .105.156-1.313-.674-.105-.052.052-.155.158-.259 1.26-1.348-2.942.104-3.257.363-.158.156-.316 0 .577-.726 1.156-.933 1.104-1.193-1.05.57 0 .156 0 .26-.053.467-3.519 1.763-1.996.83-2.048-.726-.578.726-.211 1.504-.631 1.971.158.155.105.57.053.778-.105.311-.368-.052-.421-.104-1.26-.259-.84.207-.157-2.074zm10.086-1.556c-.736-.467-1.366-2.074-1.103-1.763.42.518.84 1.089 1.103 1.763zm5.883 8.971c-.157.519-.42.934-.262-.415.157.104.052-.052.262.415zm-1.365-1.089c0-.052-.001-1.244-.841-.83-.21-.155-.053-.363-.525-.829 0-1.193 0-1.349-.105-1.66-.473-1.452 1.628 1.763 2.311 3.267-.998 2.8 0-.622-.84.052zm-.053.726c-.053-.363.368-.881.158.156-.105 0-.158-.052-.158-.156zm.105.57c-.473 2.49-.263 2.023-.946 1.556.211-.933.578-2.437.946-1.556zm-.998.727c0 .622-.263.725-.368.414.053-.155.21-.259.368-.414zm-.42-.986c-.105-.104 0-.103.052-.207.105.155.053.207-.052.207zm2.154-.415c.105.208-.001.986-.053 1.089-.42-.103-.105-.622.053-1.089zm-4.308 1.764c-.21-3.319 2.101.777.998-.363-.053 1.503.158 1.711-.998.363zm.946 1.296c-.211.726-.736-.415-.841-.778.158 0 0-.155.841.778zm.262-.726c.473-.052.631-.156.578.104-.105.985-.105.829-.158.933-.472-.207-.525-.519-.42-1.037zm.105-1.297c-.42-.466-.735-.622.105-.725 1.051-.156.315 1.192-.105.725zm-1.733-.155c-.526.156-.263-.208-.578-.363-.105.467.578.259.42 1.763-.158 0-.893-1.504-.63-1.97.315.051.525.155.84.155.368 0 .315.519.105.778-.052-.104-.105-.259-.157-.363zm.105 1.504c-.053-.311-.053-.311 0-.519.052.208.052.208 0 .519zm-5.043-1.349c-.631.208-1.156.934-1.103.156.42-.259 1.996-1.193 2.469-1.193-1.261 1.193-.841 1.297-1.366 1.037zm.63 1.867c-.473.156-.788-.052-.105-.311.053.104.105.208.105.311zm-.683-1.452c-.052.052-.157.104-.21.156 0-.104 0-.104.21-.156zm-.788.571c0-.156.105-.208.21-.208.053.052 0 .104-.21.208zm1.944-.104c.105-.156.157-.363.368-.57.315 1.867-.473 1.659-.631 1.4-.262-.415 0-.415.263-.83zm.63 1.815c-.052.519-.315.207-.21.052 0-.052.053-.104.21-.052zm-.052-2.593c.105.052.052-.052.21.363 0 2.593-.473.726-.21-.363zm.052 3.06c.158-.311.105-.208.21-.571 1.419-.518 1.786-.674 1.471.778-1.155.467-2.889.104-1.681-.207zm1.629.985c-.263.415-1.786.259-2.101.156-.158-.675.367-.519.735-.519 1.418-.052 1.366-.311 1.366.363zm-.788-4.408c-.315.311.315 2.593-.473.623-.42-1.089 1.208-1.608 1.733-1.245.053.311 0-.207 0 1.867 0 1.711-1.155-1.037-1.26-1.245zm.525 1.711c-.157.312-.525.208-.315-.777.105.311.21.518.315.777zm-1.103-.518c.157.052.21.155.315.726-.368.052-.315.155-.315-.726zm1.576 2.696c.42-.155.63-.155.105-.207-.158-.207.052-.415.21-.57.263-.623-.263-1.038.946.155.157.882-.105.726-.631.934-.735.259-.63.311-.63-.312zm1.313-.933c-.315-.156-.473-.415-.735-.57v-.26c-.21-.311-.158-.155-.158-1.14 0-.623.42.725.683 1.244.263.052.368 0 .21.726zm-5.988-1.556c-.053-.052-.053-.052 0 0zm-1.156-.414c-.105-.156-.053-.312 0-.467.105.155.21.363 0 .467zm.105.674c0 .051 0 .051 0 0zm4.57-7.208c.683.985-.683 1.555-1.733 2.178-.105.051-.105 0-.21-.104-1.576 1.659-1.366.881-2.68.415-.105-1.037-.21-.778 1.524-1.4.21.103.157.103.21-.052.21-.208 1.156-.415.63-.571-1.313.571-.63.623-2.889-.466-.368-.778-.735-.156-.84-.675-.053-.622-.316-.363 1.208-1.089.525.363 3.099-.829 4.78 1.764zm-2.942-2.438c.526-.311 2.417-.674 1.051.156-.315-.052-.683-.104-1.051-.156zm1.787 4.512c-.106.259-.631.363-.578.363 0-.156.525-.311.578-.363zm-.788 1.348c-.473.208-.683.571-1.156-.104.157-.207.21-.259.525-.363a.923.923 0 00.21.26c.105.052.263.052.421.207zm-4.045-1.763c.105-.052.63-.052.735-.052.315 0 .578-.104.368.778-1.156 0-1.261.207-1.103-.726zm1.155-.311c-1.26.052-1.155.311-1.05-1.245.262-.311.21.26 1.05.415.893.208 1.156.259 1.366.415-.21.156-.788.311-1.103.311-.105-.104-.053-1.089-.263.104zm.158 4.356c0-.208-.053-.208.158-.156l-.158.156zm0-2.8c.368-.104.84.207.84.622-.63.778-.052.155.211.155.315.312.472.415.315.519-1.786 1.245-1.419 1.4-1.366-1.296zm.525 3.215c0 .103-.105.207-.157 0 0-.052.105-.104.157 0zm-.262-.312c.052-.155.472-.518.472-.259.053.259-.262.311-.472.259zm.525.467c.21.26-.105.882-.368.311.105-.155.21-.259.368-.311zm-.053-1.192c-.525.466-.735 0 .946-.83.893.155-.63.57-.946.83zm-2.994 1.555c.053 1.245-.315.363-1.103-.933.105-.467 0-.882.158-1.348.945-.519-.158-.571.105-2.178.157-1.141-.053-1.245.315-1.349.735.571.735-1.141 1.26.726-.893 8.194-.893 2.697-1.575 3.215 0 .26.105.415.84 1.867zm-.683-6.326c.105-1.089-.052-.726.736-1.089.84-.363.682-.363.682.415-1.103.466-1.103.985-1.418.674zm1.418.622c-.21-.104.106-.207-.367-.467-.053-.311.63-.674.367.467zm-4.937-4.615c.893-2.593 1.733-3.008 2.574-3.63.525-.415-1.471 2.593-1.892 3.63-.105.207-.998.829-.682 0zm1.418 1.607c-.105-.259 0-.518.052-.778.158.312 0 .519-.052.778zm-.736.934c-.105-.208 0-.571.106-.83.052.207.105.726-.106.83zm-.105.829c-.052-.414-.052-.466.158-.622 0 .259 0 .259-.158.622zm-.21-1.711c.105.208-.315 1.919-.42 1.348-.053-.363.158-.466-.053-.829-.157-.311.158-.467.473-.519zm.788 3.423c-.052.726-.105.622-.525.933-.21.778-.158.674-.315.622-.105-2.8-1.314-2.852-.105-2.748-.053-.519-.105-.415.052-.519.105.312.053.467.368.675.84.466.525.57.525 1.037zm.105.363c0-.778.526-.934.788-.726-.21.726-.998.622 1.209-.104.105.156-.053 1.711-.106 1.919-1.838-1.037-1.891-.674-1.891-1.089zm1.261 7.674c-.473-.466-.998-2.074-.368-1.866.158.207.053.414.053.57.052.363.368.415.525.674-.052.104.263 1.089-.21.622zm4.203.675c-.841-.104-.316-.623-.893-.726-.421.103-.683.674-.736 1.14-.315 0-.578.104-.84-.207.472-.467.157-.052-.105-.622-.106-.26-.368-.415-.526-.934-.21-.778-.735-.778-.998-.933-.368-.467-.21-.311-.735-.571-.053-.207-.105-.259.052-.311.631-.311.578-.259.631-.207.105-.104-.158-.415-.263-.467-.368-.415-.841-.363-.893-.622 1.051-1.037-.788-3.215 1.576-1.348.105.207-.053 1.037-.105 1.14-.473-.259-.368-.362-.526-.207.368.104.158 0 .368.259.315.467.21.156.158.675-.053 1.14 0 .985.21 0 .263.207.525.622.945 1.503v.623c.578-.778 1.576 2.281.211-.571 0-.052 0-.933.262-.518.473.674.683 1.089 1.156 1.452.525.414-.63-.83-1.208-2.075.157-.415.105-1.244.367-.622 1.786 4.304 2.469 3.474 1.892 4.149zm2.784 1.089c.052.57-.368.207-1.209-.26-1.838-1.037-.998-.466-.787-2.489-.158.104-.158.208-.526.882-.105-.467-.052-.415-.105-.104-.368.156-3.362-5.082-1.471-6.534 1.208-.207.946 0 .841 3.215 0 .985-.473-1.141-.578-.57-.158.726.63 1.555.578 2.385-.053.571.157 0 .262.259.316.675.263.156.421.104.262.052.367.726.525.311 0 .104 1.313.311 2.259.208.368.207.262.57.157.829-.42.052-1.155.052-1.576.052-.735 0-1.208.156-.472.156 2.153 0 1.996-.156 1.943.467-.21.051-.052.103-.683-.052-.052-.052-.052-.104 0-.156-1.891.208 1.471.519 1.629.571 0 .207-.946.259-1.208.726zm.998.363c-1.156.051 2.101-.986 2.521-.934.053.156-1.681.882-2.521.934zm.578.207c.315-.207 0 .052 1.786-.726 1.681-.778-.578 1.193-1.786.726zm7.617-3.786c.84 0-1.839 1.815-3.362 2.075-.263-.052-.788-.623-.21.052-.106.103.105 0-1.104.466-.63.26-.525.156-.42-.103-.315-.363-3.414.777-3.73.726.316-.26 1.786-.778 2.102-.778.945-.104 2.994-1.037 2.048-.778-.21-.156-.262-.882.263-.259 0 .259-.052.207.158.103 1.208.83-.158-.363-.21-.363-.578-.363-.263-.881-.211-1.815.211.052.158.156.473.778.368.674.736.104.788 0 .473.156.473.519.578.882.21-.156-.053-.26.368-.571 0-.207.052-.155-.158-.103-.105-.104.105-1.297.105-1.452.578 0 .21.674.263.881.105 0 .105-.052.21-.467.21-.155 1.208 1.038 1.628.623-.315 0-.577-.156-.84-.363.525-1.867.473-1.815.84-1.348-.157.311-.21.207.158.57.42-.259.315.155.841.259.157.208-.578.726-.578.985zm.63-1.192c-.525-.104-.42-.467 0-.363.105.103.053.207 0 .363zm.263-.104c-.105-.104-.158-.311 0-.363.052.104.052.207 0 .363zm.525-3.526c0 .207-.368 1.141-.473 1.296-.157 1.297.526-4.356.473-1.296zm-5.306-3.682c-.052-.519.158-.415.158-.311.158.415.263 6.845-.158.311zm-9.876-.933c.053 0 .053 0 0 0zm.158-.052c-.052.052-.052.052-.105.052.053 0 .053-.052.105-.052zm9.456-4.304s-.053.051 0 0zm-8.826 3.889c-.052 0-.052 0 0 0 0-.052 0-.052 0 0zm-.367.207c0 .052 0 .052 0 0 .052 0 .052 0 0 0zm-.21.208c-.053 0-.053 0 0 0 0-.052 0-.052 0 0zm-1.839 1.037c-.053.052-.053.052 0 0zm1.734 9.438l.157.155-.157-.155zm13.237-1.089c.053 0 .053 0 0 0zm-9.087 2.022c0-.052.052-.052 0 0zm-8.983-9.697s0 .052 0 0zm14.919 5.964c-.053-.052-.053-.052 0 0z" fill="#fff"/></svg>