<svg width="1440" height="899" fill="none" xmlns="http://www.w3.org/2000/svg"><path d="M1233.87 400.363c-.21-.627-.32-1.203-.9-1.255-.38-1.621-.75-1.255-.96-2.196-.32-1.254-.74-.888-1.48-2.091-.37-.575-.64-.418-1.01-1.046-.37-.522-.95-.627-1.22-.732-.95-.313-.26-1.411-3.66-1.411-4.29 0-3.92-.941-8.48 1.568-1.01-.732-1.43-.052-2.54.785-.8.627-1.17 1.463-1.86 2.927-.42.837-.21 2.458-.58 2.771-.75.628-.43 1.098-.59 2.144-.16.941-.26 1.725.22 2.405.42-1.046.47-1.15.42.313 0 .157-.05.523-.27.68-.05-.052-.05-.104-.1-.209-1.49.837 1.64 4.392 1.64 4.444.32.889.37-.157.8 1.778.26.418 1.11 1.202 2.17 1.463.37.105 1.54 1.36 3.02.21.69-.523 1.49 1.045 3.45.836 1.64 1.569 3.87.993 5.19-.993.32-.471 1.17-.157 1.97-.314 1.96-.366 4.61-2.457 4.4-4.235-.37-3.084 2.54-5.333.37-7.842zm-4.35-5.176c.21.157.27.418.48.627-.06.053-.06.105-.11.105-.21-.157-.58-.575-.37-.732zm-.48 1.725c.59.314 1.06.262 1.43.314.64.627.85 1.203.64 2.039-.32 1.568-.11 1.412-.32-.889-.05-.418-.32-.732-.42.471-.48-.157-.27-.732-.37-1.203-.27-.209-.11.366-.21.471-.22-.052-.8-1.203-.75-1.203zm1.86 4.235c-.05-.104-.11-.209 0-.366.1.157.1.262 0 .366zm-.32-2.562c.05.209.11.419 0 .68-.16-.261-.05-.471 0-.68zm0 1.046c-.11.209-.16 0-.05-.105 0 .053 0 .053.05.105zm-.32.418c-.1-.313-.26-.993 0-.836.11.261.06.523 0 .836zm-2.49-6.012c.37-.418.48 1.516.27 1.255-.27-.366 0-.262-.27-1.203v-.052zm-6.89-.994c.1 0 .21.053-.05.053 0-.053 0-.053.05-.053zm-.21.053c-.48.313-.69.052-.8 0 .8-.053.58-.053.8 0zm-.8-.314c.05 0 1.38-.052-.11.157-.05 0-.1-.105.11-.157zm-.53.523c.05 0 .05.052 0 0zm3.23 0c-.15.157-2.22 1.255-2.27 1.307-3.34 1.202.05-.314.37-.732-.06-.471-1.59.209-1.91.105v.052c-.27-.209 3.66-1.203 3.81-.732zm-4.66 4.078c-.16-.157-.16-.052 0-.314.21 0 .16.314.42.052 1.06-1.045.8-.522 0 .523-.53-.261 0-.418-.42-.261zm.32-2.928c.1.314 0 .784-.53.889-.11-.418-.06-.889.53-.889zm-.06-.627c.16.052.11 0 .06.157-.27.104-.21 0-.06-.157zm-.37 1.83c-.05.104-.05.104-.16.052.11-.105.11-.105.16-.052zm.22.313c-.11.419-.06.314-.27.419-.21-.157-.11-.523.27-.419zm.37.889c-.32 0-.22 0-.37-.052-.06-.732 3.81-1.882.37.052zm-.22-.889c.11-.418.53-.575.96-.732.26.68 2.7-.836.95.419-.9-.053-2.01.836-1.91.313zm.38-2.143c-.06-.053-.06-.105-.11-.209.32-.157.69.052.11.209zm0 .575c.31-.157 3.12-1.046.26.47-.42.157-.42-.052-.26-.47zm-2.28.261c.53-.889 2.81-2.3 1.59-.889-.8.942-.48.941-.85.732-.32 0-.96.523-.74.157zm.95 1.882c-.05-.313-.11-.209.16-.261.05.209.11.157-.16.261zm.11.262c-.16.104-.16.157-.11 0h.11zm0-.784h-.16c0-.576.37-.366.16 0zm.05-.785c0 .053 0 .053 0 0zm-.32.157c-.48.105-.79.314.11-.627.1.157-.06.523-.11.627zm-1.32.366c.15-.523.79-.836 1.06-.941-.32.575-1.17 1.307-1.06.941zm-.16.628c.31-.471.84-.576 1.32-.837.59.889-1.38 1.202-.95 1.568 1.06-.313.9-.313 1.01-.156-1.28.575-1.7.941-1.38-.575zm1.32.209c-.05.156-.16.156-.32.156.06-.156.22-.261.32-.156zm-1.38 1.254c.11-.261 1.28-.679 1.81-.679.84.836 1.16.418-1.54 1.777-.37.157-.21.053-.27-1.098zm0 1.412c0-.052 2.76-1.673 2.28-.993-.58.836-.84 1.15-1.06 1.725.16.314.53.157.69-.052-.26.052-.58.209-.47-.105.1-.314.9-1.83 1.64-1.934.16-.523.85-.471 1.64-.523-.26-.209-.58-.052-.9-.157 1.22-.209.27 0-.37 0 .11-.68 2.07-1.987 3.02-2.562 1.86-1.045-3.6 1.098-1.38 0 .32-.47 1.7-.836 2.28-1.411.27-.053.96.313 1.28.209-.27-.262-1.22-.419-1.28-.628.21-.052 1.38-.052 1.75.053.37.366.53.418 1.49 1.045.63.419.37.68 1.11 1.36 0 .209-.11.156.58 0 .27.366.96 2.927.43 2.3-1.54-1.778-2.76-5.856-1.81-1.568.38 1.777-.68-1.726-1.27-2.092-.37 0 .32 1.36.64 2.771.1.105.05.262.05.262.27.313-1.69-2.824-1.85-2.771 0 .313 2.7 4.025.05.627-.32-.366-.74-1.412.21.575 1.49 3.242-1.17-1.83-2.86.105.16.47.69-.889 2.81 1.254 1.16 1.151 1.38 1.308 1.54 1.935.15.575.42 1.725.31 2.405-.21 0-.63-2.457-.9-3.137-.32.052-.21 0 .59 3.032.31 1.255.26 2.562.05 1.882-.37-1.411-.74-4.182-1.33-4.234-.16.104-.1.836-.05.941.27-.157-.32-2.928 1.38 4.13.21.941.32-.889.16-1.83.58-.68-.11-2.666-.11-3.137.9.314 2.18 4.706-.48-3.816-.26-.785.48.052 1.22 2.98.32 1.098.27-.105.27-.209-.21-1.412-.69-3.085-.32-2.405 3.08 5.594 1.64.522 1.86.888 1.27 2.249 1.06 1.36 1.53 2.928.16.471-.1 2.301.16 2.353.22-.209.16-1.83.43-1.778.37 0 .16 1.464.16 3.085.16-.262.16-.575.21-1.307.05-.157.16-.052.26-.052.27-.21.43-.576.8-.732.69.156.1 1.464.69 2.091.26.314-.43 2.771-.85 3.555-.32-.261-.16-.68-2.01-3.503-.54-.836-.11-4.653-.59-4.653-.16.314.11 1.15.11 2.039.05 2.301.1 1.778-.53 1.359-.06-.47-.21-2.352-.43-1.62 0 .052-.47 2.875.06.575.1-.418.26.627.1 2.928.27.156.27.156.21.366-.15-.053-.1-.053-.26-.105-.16.575-.32.418-.32.836 0 .942.05.732-.21 1.203-1.8.157-.64.261-1.22-5.28-.05-.314 0-.523-.32-.471 0 .157.11.105.16.209.32 1.359-.16 1.255 0 1.464.27.418.21 2.457.21 3.764 0 .209-.05.366-.26.314-.06 0-.85-.157-.96-.261-.1-.523 0-2.249-.31-2.667-.22.209.05.471.1 1.412 0 .209-.1.261-.05.313.1.314.26.889-.11.837-1.11-.052-.05-.471-1.96.418-.58-.366-1.75.68-2.97 1.098-.58-.523 1.22-.941 2.44-1.83-.16-.209 0-.209-.95.262-.53-.575 1.37-.784 1.53-1.36.96-.679 1.12-1.307 1.49-1.307.26-.993.37-1.098-.05-1.673-.22-.993-.85-3.816-.96-2.823.21.262.64 1.83.58 2.196-.68-.471-.47-2.353-1.48-2.823-.16.209.05-.105.37.523.16.313.64 1.411.53 1.62-.05 0 .11.157-1.32-.679-.11-.053.05-.157.15-.262 1.28-1.359-2.96.105-3.28.366-.16.157-.32 0 .58-.732 1.17-.941 1.11-1.202-1.06.575 0 .157 0 .262-.05.471-3.55 1.777-2.02.836-2.07-.732-.58.732-.21 1.516-.64 1.987.16.156.11.575.06.784-.11.314-.37-.052-.43-.105-1.27-.261-.85.209-.16-2.091zm10.18-1.568c-.74-.471-1.38-2.092-1.11-1.778.42.523.85 1.098 1.11 1.778zm5.94 9.044c-.16.523-.42.941-.26-.418.15.105.05-.052.26.418zm-1.38-1.098c0-.052 0-1.254-.85-.836-.21-.157-.05-.366-.53-.837 0-1.202 0-1.359-.1-1.673-.48-1.464 1.64 1.778 2.33 3.294-1.01 2.823 0-.627-.85.052zm-.05.732c-.05-.366.37-.888.16.157-.11 0-.16-.052-.16-.157zm.11.575c-.48 2.51-.27 2.039-.96 1.569.21-.941.58-2.457.96-1.569zm-1.01.732c0 .628-.27.732-.37.419.05-.157.21-.262.37-.419zm-.43-.993c-.1-.105 0-.105.06-.209.1.157.05.209-.06.209zm2.18-.418c.1.209 0 .993-.06 1.098-.42-.105-.1-.628.06-1.098zm-4.35 1.777c-.21-3.346 2.12.785 1.01-.366-.06 1.517.16 1.726-1.01.366zm.95 1.307c-.21.732-.74-.418-.84-.784.16 0 0-.157.84.784zm.27-.732c.48-.052.64-.156.58.105-.1.993-.1.837-.16.941-.47-.209-.53-.523-.42-1.046zm.11-1.307c-.43-.47-.75-.627.1-.731 1.06-.157.32 1.202-.1.731zm-1.75-.156c-.53.156-.27-.21-.59-.366-.1.47.59.261.43 1.777-.16 0-.9-1.516-.64-1.986.32.052.53.156.85.156.37 0 .32.523.1.785-.05-.105-.1-.262-.15-.366zm.1 1.516c-.05-.314-.05-.314 0-.523.05.209.05.209 0 .523zm-5.09-1.36c-.63.21-1.16.941-1.11.157.42-.261 2.01-1.202 2.49-1.202-1.27 1.202-.85 1.307-1.38 1.045zm.64 1.883c-.48.156-.8-.053-.11-.314.06.104.11.209.11.314zm-.69-1.464c-.05.052-.16.104-.21.157 0-.105 0-.105.21-.157zm-.8.575c0-.157.11-.209.22-.209.05.052 0 .104-.22.209zm1.97-.105c.1-.157.15-.366.37-.575.31 1.882-.48 1.673-.64 1.412-.26-.419 0-.419.27-.837zm.63 1.83c-.05.523-.32.209-.21.052 0-.052.05-.104.21-.052zm-.05-2.614c.1.052.05-.052.21.366 0 2.614-.48.732-.21-.366zm.05 3.085c.16-.314.11-.209.21-.575 1.44-.523 1.81-.68 1.49.784-1.17.47-2.92.104-1.7-.209zm1.65.993c-.27.418-1.81.261-2.13.157-.15-.68.38-.523.75-.523 1.43-.052 1.38-.314 1.38.366zm-.8-4.444c-.32.314.32 2.614-.48.627-.42-1.098 1.22-1.62 1.75-1.254.06.313 0-.209 0 1.882 0 1.725-1.16-1.046-1.27-1.255zm.53 1.725c-.16.314-.53.209-.32-.784.11.314.21.523.32.784zm-1.11-.523c.16.053.21.157.32.732-.38.053-.32.157-.32-.732zm1.59 2.719c.42-.157.63-.157.1-.209-.16-.209.06-.418.22-.575.26-.627-.27-1.046.95.157.16.889-.11.732-.64.941-.74.261-.63.314-.63-.314zm1.32-.941c-.32-.157-.47-.418-.74-.575v-.261c-.21-.314-.16-.157-.16-1.151 0-.627.43.732.69 1.255.27.052.37 0 .21.732zm-6.04-1.568c-.05-.053-.05-.053 0 0zm-1.17-.419c-.1-.156-.05-.313 0-.47.11.157.21.366 0 .47zm.11.68c0 .052 0 .052 0 0zm4.61-7.267c.69.993-.69 1.568-1.75 2.196-.1.052-.1 0-.21-.105-1.59 1.673-1.38.889-2.7.418-.11-1.045-.22-.784 1.53-1.411.22.104.16.104.22-.053.21-.209 1.16-.418.63-.575-1.32.576-.63.628-2.91-.47-.38-.784-.75-.157-.85-.68-.06-.627-.32-.366 1.22-1.098.53.366 3.12-.836 4.82 1.778zm-2.97-2.457c.53-.314 2.44-.68 1.06.156-.32-.052-.69-.104-1.06-.156zm1.8 4.548c-.1.262-.63.366-.58.366 0-.157.53-.314.58-.366zm-.79 1.359c-.48.21-.69.576-1.17-.104.16-.209.22-.262.53-.366.06.104.11.157.22.261.1.053.26.053.42.209zm-4.08-1.777c.1-.052.63-.052.74-.052.32 0 .58-.105.37.784-1.17 0-1.27.209-1.11-.732zm1.16-.314c-1.27.052-1.16.314-1.06-1.255.27-.313.22.262 1.06.419.9.209 1.17.261 1.38.418-.21.157-.79.314-1.11.314-.11-.105-.05-1.098-.27.104zm.16 4.392c0-.209-.05-.209.16-.157-.05.052-.05.052-.16.157zm0-2.823c.37-.105.85.209.85.627-.64.784-.05.157.21.157.32.314.48.418.32.523-1.8 1.254-1.43 1.411-1.38-1.307zm.53 3.241c0 .105-.1.209-.16 0 0-.052.11-.104.16 0zm-.26-.314c.05-.156.47-.522.47-.261.06.261-.26.314-.47.261zm.53.471c.21.261-.11.889-.37.314.1-.157.21-.262.37-.314zm-.06-1.202c-.53.47-.74-.001.96-.837.9.157-.64.575-.96.837zm-3.02 1.568c.06 1.255-.32.366-1.11-.941.11-.471 0-.889.16-1.359.95-.523-.16-.576.1-2.196.16-1.151-.05-1.255.32-1.36.75.575.75-1.15 1.28.732-.91 8.261-.91 2.719-1.6 3.242 0 .261.11.418.85 1.882zm-.69-6.378c.11-1.098-.05-.732.75-1.098.84-.366.69-.366.69.418-1.12.47-1.12.993-1.44.68zm1.44.627c-.22-.105.1-.209-.38-.471-.05-.313.64-.679.38.471zm-4.99-4.653c.9-2.614 1.75-3.032 2.6-3.66.53-.418-1.48 2.614-1.91 3.66-.11.209-1.01.836-.69 0zm1.43 1.621c-.1-.262 0-.523.06-.785.16.314 0 .523-.06.785zm-.74.941c-.11-.209 0-.575.11-.837.05.209.1.732-.11.837zm-.11.836c-.05-.418-.05-.47.16-.627 0 .261 0 .261-.16.627zm-.21-1.725c.11.209-.32 1.934-.42 1.359-.05-.366.16-.47-.05-.836-.16-.314.15-.471.47-.523zm.8 3.45c-.05.732-.11.628-.53.942-.21.784-.16.679-.32.627-.11-2.823-1.33-2.876-.11-2.771-.05-.523-.1-.418.06-.523.1.314.05.471.37.68.85.47.53.575.53 1.045zm.1.366c0-.784.53-.941.8-.732-.21.732-1.01.628 1.22-.104.1.157-.05 1.725-.11 1.934-1.85-1.045-1.91-.679-1.91-1.098zm1.28 7.738c-.48-.47-1.01-2.091-.37-1.882.15.209.05.418.05.575.05.366.37.418.53.68-.05.104.26 1.098-.21.627zm4.24.68c-.85-.105-.32-.628-.9-.732-.43.104-.69.68-.75 1.15-.31 0-.58.105-.84-.209.47-.471.16-.052-.11-.627-.11-.262-.37-.419-.53-.941-.21-.785-.74-.785-1.01-.942-.37-.47-.21-.313-.74-.575-.05-.209-.11-.261.05-.313.64-.314.59-.262.64-.21.11-.104-.16-.418-.27-.47-.37-.418-.84-.366-.9-.627 1.06-1.046-.79-3.242 1.59-1.36.11.209-.05 1.046-.1 1.15-.48-.261-.37-.366-.53-.209.37.105.16 0 .37.262.32.47.21.157.16.679-.06 1.151 0 .994.21 0 .26.21.53.628.95 1.517v.627c.59-.784 1.59 2.3.22-.575 0-.052 0-.941.26-.523.48.68.69 1.098 1.17 1.464.53.418-.64-.837-1.22-2.091.16-.419.1-1.255.37-.628 1.8 4.34 2.49 3.503 1.91 4.183zm2.81 1.098c.05.575-.37.209-1.22-.262-1.86-1.045-1.01-.47-.8-2.509-.16.104-.16.209-.53.889-.1-.471-.05-.419-.1-.105-.37.157-3.4-5.124-1.49-6.587 1.22-.21.96 0 .85 3.241 0 .993-.48-1.15-.58-.575-.16.732.63 1.568.58 2.405-.05.575.16 0 .27.261.31.68.26.157.42.105.26.052.37.732.53.314 0 .104 1.33.313 2.28.209.37.209.26.575.16.836-.43.052-1.17.052-1.59.052-.74 0-1.22.157-.48.157 2.17 0 2.02-.157 1.96.471-.21.052-.05.104-.69-.052-.05-.053-.05-.105 0-.157-1.91.209 1.49.523 1.65.575 0 .209-.96.261-1.22.732zm1 .366c-1.16.052 2.13-.994 2.55-.941.05.156-1.7.888-2.55.941zm.59.209c.32-.209 0 .052 1.8-.732 1.7-.784-.58 1.202-1.8.732zm7.69-3.817c.84 0-1.86 1.83-3.4 2.092-.26-.053-.79-.628-.21.052-.11.104.11 0-1.11.47-.64.262-.53.157-.43-.104-.32-.366-3.44.784-3.76.732.32-.262 1.8-.784 2.12-.784.95-.105 3.02-1.046 2.07-.785-.22-.157-.27-.888.26-.261 0 .261-.05.209.16.104 1.22.837-.16-.366-.21-.366-.58-.365-.27-.888-.21-1.829.21.052.16.156.47.784.38.68.75.104.8 0 .48.157.48.523.58.889.21-.157-.05-.262.37-.575 0-.21.06-.157-.16-.105-.1-.105.11-1.307.11-1.464.58 0 .21.68.27.889.1 0 .1-.052.21-.471.21-.157 1.22 1.046 1.64.628-.32 0-.58-.157-.85-.366.53-1.882.48-1.83.85-1.36-.16.314-.21.21.16.575.42-.261.32.157.85.262.16.209-.58.732-.58.993zm.63-1.202c-.53-.105-.42-.471 0-.366.11.104.05.209 0 .366zm.27-.105c-.11-.104-.16-.313 0-.366.05.105.05.209 0 .366zm.53-3.555c0 .209-.37 1.15-.48 1.307-.16 1.307.53-4.392.48-1.307zm-5.36-3.712c-.05-.523.16-.418.16-.314.16.419.27 6.902-.16.314zm-9.96-.941c.05 0 .05 0 0 0zm.15-.052c-.05.052-.05.052-.1.052.05 0 .05-.052.1-.052zm9.55-4.34s-.06.053 0 0zm-8.91 3.921c-.05 0-.05 0 0 0 0-.052 0-.052 0 0zm-.37.21c0 .052 0 .052 0 0 .05 0 .05 0 0 0zm-.21.209c-.06 0-.06 0 0 0 0-.053 0-.053 0 0zm-1.86 1.045c-.05.053-.05.053 0 0zm1.75 9.516c-.1-.105.11.104.16.156.05.053 0 0-.16-.156zm13.36-1.098c.05 0 .05 0 0 0zm-9.17 2.039c0-.053.05-.053 0 0zm-9.07-9.777s0 .052 0 0zm15.06 6.012c-.05-.052-.05-.052 0 0z" fill="#fff"/></svg>