<svg width="1440" height="899" fill="none" xmlns="http://www.w3.org/2000/svg"><path d="M1062.77 257.738c1.4-1.951 1.4-1.951 3.51-1.812 1.12.139 2.66.418 3.37-.139 1.96-1.255 3.09-.14 4.63.836-1.26 1.672-2.81 1.533-4.35 1.254-1.55-.279-2.95-.139-4.36.279-.98.279-1.96.557-2.8-.418zm23.73-25.226c.7.139 1.4.697 2.66 1.254-3.23.558-10.95-1.394-14.32-3.345 4.35-.139 8.01 1.115 11.66 2.091zm-6.6 69.964a26.727 26.727 0 00-.42-2.648c1.68-.697 3.08-1.394 4.63-.14.84.697 1.26 1.394.84 2.23-1.82.697-3.23-1.951-5.05.558zm-9.13-54.076c-.14-.279-.14-.557-.28-.697.56-.279 1.12-.836 1.54-.697 1.83.558 4.08-.139 5.48 1.812-2.53 1.951-4.49-.697-6.74-.418zm2.67-3.484c2.24-.14 4.49-.279 7.02 1.393-3.09 1.115-5.06.279-7.02-1.393zm9.55-6.69c-2.81.418-4.78-.976-6.88-1.951 2.8-.697 5.05 0 6.88 1.951zm-8.15 2.23c3.37-.279 4.92 0 6.32 1.394-1.97.836-2.95.557-6.32-1.394zm1.83 66.619c-.14-.976-.14-1.951-.28-3.066.7-.14 1.4-.558 1.96-.418.42.139.84 1.115.84 1.672 0 1.254-1.26 1.533-2.52 1.812zm-6.32-55.191c1.82-.278 3.37-.139 4.77 1.255-2.38 1.254-2.81 1.254-4.77-1.255zm11.65-22.578h7.3c-2.52 1.533-4.77 1.394-7.3 0zm-10.81 89.197c-1.54.14-2.95-.697-5.76-3.484 2.95 0 3.37 3.205 5.76 3.484zm21.34-25.783a1.95 1.95 0 01-.56.418c-.7-.418-1.54-.697-2.67-1.255.85-.696 1.41-1.114 2.11-1.811.56 1.115.84 1.951 1.12 2.648zm-118.364 65.225c1.965.279 3.65.418 5.476.697-2.107 1.115-3.651.697-5.476-.697zM1075.4 314.88c-.42-.419-.7-.976-.84-1.534 0-.139.7-.696.84-.557.42.418.99.836 1.27 1.254.14.279 0 .697-.14.976-.42 0-.99 0-1.13-.139zm-24.43 15.191c1.97.279 2.39 1.533 2.53 3.066-1.12-.697-2.53-1.254-2.53-3.066zm36.23-32.055c-1.27-1.533-.98-2.091.84-2.648-.28.975-.56 1.533-.84 2.648zm-21.06 23.553c-.71-.418-1.55-.836-2.25-1.115 1.4-.975 2.11-.278 2.25 1.115z" fill="#fff"/><path d="M879.246 368.816c.842.418 1.544.836 2.387 1.393.281-.975.421-1.672.561-2.09a136.632 136.632 0 01-2.387-2.788c-.561-.696-.28-1.254.281-1.672.141-.418.141-.836.421-1.115.562-.418 1.264-.697 2.107-1.115-1.966-1.394-4.213-1.951-4.072-4.599 1.965 0 2.106-.139 3.229.975 3.37 2.927 7.161 2.509 11.514 1.673-1.123-2.927-4.353-2.787-6.178-5.296 2.387.836 4.212 1.533 6.318 2.23.281-.836.562-1.394.702-2.091 1.124-7.247 5.617-11.986 11.795-15.47 3.651-2.09 7.582-2.648 11.514-3.066 11.233-1.115 22.466-2.787 33.84-2.927 2.808 0 5.616-.418 8.424-1.672l2.247-.279c11.514-3.902 21.904-9.616 32.014-15.609 6.037-3.624 12.077-7.248 18.257-10.871 3.37-1.951 7.02-3.624 10.39-5.714 4.77-2.788 9.12-5.993 12.35-10.732 1.55-2.23 3.51-4.181 5.34-6.272.98-1.254 2.25-2.229 3.09-3.623 2.81-4.599 5.9-8.92 7.58-14.216.7-2.09 1.4-4.32 2.39-6.272 2.53-5.435 3.65-11.567 7.02-16.724 1.12-1.672 1.96-3.345 2.95-5.017 5.19-8.781 12.49-13.519 23.02-12.683.99.139 1.83 0 3.23 0-1.4-3.066-2.1-5.714-.56-8.641l2.11.418c.56-.697 1.12-1.254 1.68-1.951 1.27.697 2.39 1.254 3.37 1.672.28 2.23.57 4.182.85 6.133 1.82 0 1.96-.976 1.96-2.091 0-.975-.14-2.09 1.41-2.23.56.558.84 1.394 1.26 2.091.28-.14.42-.279.56-.418.42-.14.84-.418 1.27-.697.14.418.28.836.28 1.254-.14 2.091-1.83 2.927-3.37 3.624-2.67 1.393-5.06 0-5.48-3.066-.14-.976-.28-1.952-.56-3.066.56 3.763-.14 3.623-3.23 3.205-.84 1.254-1.55 2.509-.84 3.763 3.23 1.254 6.17 2.509 9.12 3.624.71.278 1.41.836 2.11.836.56-.14 1.12-.836 1.82-1.533.29 1.115.43 2.09.71 3.066.56 1.951 1.96 2.369 3.37 1.115 1.54-1.394 2.95-2.927 4.21-4.46.42-.418.42-1.115.56-1.812-.42.14-.7.14-.84.14-1.27.975-2.53 1.672-3.93.696-1.13-.836-1.13-2.09-.85-3.484.29-1.115 0-2.09-.98-2.787-1.26-.976-.7-1.951-.42-3.345 2.53 2.369 3.23 5.157 3.65 8.362 1.55-.836 2.95-1.672 4.92-2.648.28 1.394.7 2.509.56 3.484-.14 1.952-.99 3.485-2.53 4.878-1.54 1.394-2.95 2.788-4.49 4.181.56 1.115.84 2.37 1.68 2.927 1.97 1.533 2.39 3.763 3.23 5.714.42.837.7 1.812 1.12 2.648 1.13 2.648 2.81 5.296.85 8.223-.28.279 0 .976 0 1.394-.28 3.066-.28 6.272-.71 9.338-.7 4.738-1.82 9.337-4.21 13.658-.14.279-.28.697-.42 1.115-1.12 2.648-2.11 5.296-3.51 7.665-1.68 2.788-3.79 5.436-5.76 8.084-4.63 6.132-8.98 12.404-13.9 18.257-3.79 4.599-8 8.92-12.49 12.962-4.22 3.763-8.99 6.968-13.48 10.452-6.6 5.157-13.2 10.453-19.94 15.749-6.74 5.436-13.76 10.453-21.49 14.495-6.45 3.484-13.05 6.829-19.653 10.034-3.37 1.673-7.021 3.345-10.672 4.321-10.39 2.787-20.921 5.575-31.452 7.805-5.617 1.254-11.514 2.09-17.271 1.114-5.897-.836-11.935-1.672-17.832-2.648-2.809-.418-5.617-1.254-7.864-3.066-.842.697-1.685 1.952-2.948 1.394-2.668-1.254-5.336-2.509-7.583-4.32-1.965-1.534-3.229-3.624-2.667-6.411.14-.558-.422-1.255-.562-1.673 2.808.976 5.617 2.091 8.565 3.206-.281-3.067-1.544-5.854.843-8.92.842 3.763 1.123 7.387 4.633 9.198.702-.557 1.404-1.115 1.966-1.533 2.949.976 5.055 2.648 6.599 4.878.843 1.115 1.545 2.23 3.37 1.673-1.544-2.23-4.493-3.485-5.476-6.551 4.774.697 7.442 3.345 8.987 7.526.842-.139 1.685-.418 2.527-.557-.281-2.23-3.089-3.206-2.668-5.714 3.511.836 5.055 3.344 6.178 6.132 1.545-.139 3.09-.279 4.775-.418-.843-1.533-1.966-2.37-3.23-3.066-.281-.14-.421-.976-.281-1.255.141-.278.843-.557 1.124-.418 1.404.558 2.667 1.255 4.071 1.951 1.685-1.115 1.826-1.115 3.37 0 .422.279.702.697 1.124.976 1.825 1.533 3.37 1.672 5.897.279-.281-.418-.562-.976-.983-1.394-.421-.418-.983-.836-1.544-1.254 1.965-.697 2.246-.558 5.335 2.787.702-.139 1.404-.279 2.107-.557 0-.837.14-1.394.14-2.37.842.697 1.544 1.255 2.387 1.951 2.106-.557 4.353-1.254 6.74-1.811-1.264-1.255-2.106-2.23-3.23-3.485 1.826-.278 2.387.976 3.37 1.533.702.419 1.545 1.255 2.247 1.115 1.685-.139 3.51-.557 5.055-1.951-1.124-.557-1.966-.975-2.949-1.533 1.404-1.533 2.668-.975 3.932-.139 2.246 1.394 4.072.836 5.897-.558-1.123-1.115-1.123-1.115-.562-2.787.983.557 1.826.976 2.808 1.394 1.826.975 2.247.836 3.792-.697.421-.418 1.123-.697 1.685-.836.842-.14 1.825 0 2.667 0l.843-1.255c.842-1.115 1.544-1.951 3.089-.697.562.419 1.685 0 2.527 0 .141-1.254.281-2.23.422-3.623.983 1.115 1.544 1.672 2.105 2.508 2.39-1.115 4.77-2.09 7.3-3.205a74.795 74.795 0 01-2.38-4.739c1.12.418 1.68.558 2.1.837.56.418.84 1.115 1.41 1.533.56.557.98 1.393 1.82.836.98-.697.14-1.394 0-2.091-.28-1.115-.7-2.09-1.26-3.623 2.38.836 2.52 3.066 4.07 4.32 1.26-.697 2.67-1.394 3.79-1.951-.42-2.091-2.67-3.206-2.67-5.993 1.97 1.672 3.65 3.206 5.48 4.739.98-.558 1.96-1.115 2.95-1.673-.7-1.533-1.41-2.787-2.11-4.181 1.83.697 3.93.418 4.63 2.648 1.27-.975 2.39-1.812 3.37-2.648-.84-1.812-2.52-2.648-3.08-5.017 1.54.975 2.66 1.533 3.65 2.369 1.12.836 2.1.836 3.23-.139.7-.558 1.26-1.115 2.1-1.812-1.26-1.394-2.24-2.788-3.37-4.042 1.69.279 3.65-.836 4.78 1.254.56.976 1.26.837 1.96.419.84-.419 1.55-1.115 2.39-1.812-.84-.976-1.41-1.673-2.11-2.509 1.13-.279 2.11-.697 3.09-.975.28.557.7 1.114 1.13 1.672 1.96-.279 2.24-1.394 1.68-3.066 2.53.697 4.21-.14 5.76-1.951-.7-.697-1.41-1.255-2.11-1.812 0-.14.14-.279.14-.418 1.12.418 2.25.836 3.65 1.254.7-.697 1.41-1.394 2.11-2.09v-.14.14c3.09-2.091 6.18-4.042 9.27-6.133-.14-.836-.29-1.393-.43-1.951 1.13-.139 2.39.139 3.09-.418 3.93-3.066 8.15-5.854 11.1-9.895 1.4-1.673 2.94-3.206 4.35-5.018 3.37-4.32 6.6-8.78 9.83-13.1 2.1-2.927 4.35-5.715 6.6-8.641-1.13-.418-1.97-.837-2.95-1.115.98-1.394 2.1-1.812 3.51-.697 1.12-1.673 2.1-3.345 3.09-5.018-.99-.696-1.69-1.114-2.81-1.951 2.53-.836 5.05-.836 5.34-4.041a20.556 20.556 0 00-2.53-1.673c.14-.139.28-.418.42-.557 1.12.139 2.39.418 3.65.557.84-1.115 1.83-2.787 2.95-4.738-2.11-.558-4.07 0-5.76-1.812 2.53-.418 4.64-.697 6.74-1.115.28-1.255.56-2.23.84-3.484-2.38-1.255-4.63-2.509-7.3-3.903 2.95-.975 5.34 1.673 8.01.14-1.83-3.067-5.06-4.182-7.87-5.993 1.69-.976 2.81-.14 3.93.418 1.13.557 2.25 1.254 3.51 1.812v-2.509c-2.52-1.673-4.63-3.066-6.88-4.599.14-.279.29-.418.43-.697 2.1.975 4.21 2.09 6.74 3.205-.71-6.968-2.81-12.682-7.17-17.7-2.66-3.066-5.75-5.017-9.82-5.993-3.37-.836-6.74-.696-10.25-.696-4.5 0-8.01 1.672-10.96 4.738-4.49 4.599-7.16 10.314-9.83 15.888-1.68 3.624-3.23 7.248-4.77 11.011-.98 2.229-1.83 4.599-2.53 6.689.56.14 1.13.279 1.83.558 0 .418-.14.975-.14 1.394-.7-.14-1.41-.279-2.25-.419-4.77 11.429-13.9 19.652-20.36 29.826.56.278.98.696 1.41.836.14.139.42.139.56.279-.28.278-.71.696-.99.975l-.84-.418c-1.12-.557-2.24-.697-3.23.139-1.4 1.115-2.81 2.23-4.35 3.067-6.18 3.763-12.36 7.247-18.39 11.01-2.95 1.812-5.76 3.902-8.57 5.993-.421.139-.983.139-1.264.418-10.39 7.247-21.342 13.24-33.278 17.421-.14 0-.14.279-.28.558.14.418.28.696.421 1.115-.702.139-1.404.418-2.106.557-.281-.418-.422-.976-.702-1.394-.843.14-1.545.279-2.247.279-2.387.279-4.914.557-7.301.836-3.932.418-7.864.558-11.795.976-6.6.697-13.059 1.672-19.658 1.951-4.353.279-8.425 1.115-12.356 2.787-2.809 1.115-5.617 2.788-7.723 4.878-2.247 2.23-3.932 5.157-4.634 8.363-.281.975-.421 2.09-.281 3.066.422 2.09.422 2.369-1.544 2.648-2.387.278-4.634.278-7.021.418-.561 0-1.263.139-1.825.139v.697c1.825.279 3.651.279 5.476.836 1.825.697 3.651 1.812 5.617 2.927a331.713 331.713 0 00-.422-4.878c.983 0 1.685.139 2.247.139.14 1.673.421 3.067.562 4.46.14 1.394.28 2.927.14 4.321-.14 2.508-2.247 3.902-4.634 3.205-.983-.278-1.825-.697-2.808-.836-1.123-.139-2.106.139-2.387 1.533-.14.697-.281 1.394-.421 2.23 3.651-.139 7.02-2.369 10.812.836-1.124.418-1.826.976-2.668.976-2.106.139-4.072.139-6.178.139-.141 0-.281.14-.562.418.562.418 1.123.837 2.106 1.533-.983.419-1.685.837-2.246.837-2.107-.418-4.213-.837-6.319-1.394-.421-.139-.843-.558-1.404-1.115 2.106-.139 4.493 1.254 5.195-1.812-2.387.14-2.246-1.812-2.668-3.205-1.263-.14-2.527-.14-3.65-.279 0-3.066-2.809-1.812-4.353-2.927.281-.836.983-1.254 1.685-1.672zm.983-5.296c.421.697.842 1.393 1.404 2.369.983-2.091-.422-2.091-1.404-2.369zm28.082 17.142c-.421-.279-.983-.697-.983-.975 0-3.067-2.808-2.927-4.633-4.182.702 5.157 5.055 8.502 10.671 8.502a78.943 78.943 0 00-5.055-3.345zm2.106-.975c4.774 4.738 10.812 5.017 16.99 4.738-5.897-.836-11.514-2.369-16.99-4.738zm85.933-7.248c-1.966.558-3.791.976-5.757 1.673-8.003 2.508-16.147 5.017-24.151 7.526-12.497 3.763-25.274 4.599-38.333 3.345-.28 0-.561-.14-.842-.279 1.966 1.394 4.212 1.254 6.319 1.533 7.441.836 14.743.279 21.904-1.254 10.531-2.23 21.202-4.181 31.452-7.666 3.23-1.115 6.319-2.648 9.408-3.902.141-.558 0-.836 0-.976zm-107.275-2.508c1.263-1.951 2.948-.976 4.352-.697 1.405.279 2.809.697 4.634 1.254-.421-.975-.702-1.951-.983-1.951-2.527-.139-3.931-2.369-6.038-3.345-.28-.139-.561-.139-.983-.418.141 1.533-.14 2.648-1.965 2.927-1.124.139-1.404 1.393-2.247 2.787 1.685-.139 2.949 0 3.23-.557zm-3.792-1.673c.703-.557.983-.836 1.685-1.393-.702-.419-1.263-.837-2.387-1.534.281 1.255.422 1.952.702 2.927z" fill="#fff"/><path d="M1030.33 300.943c-.42-.279-.84-.697-1.4-.976l.42-.418 1.68.836c-.14.139-.42.279-.7.558zm-59.113 32.891c.14 0 .421.139.561.139-.14 0-.281.14-.421.14-.14 0-.14-.14-.14-.279zm30.193-16.585c-.43.279-.85.418-1.27.697-.279-.279-.56-.697-.84-.976.98-.557 1.54-.139 2.11.279z" fill="#fff"/></svg>