<svg width="1440" height="899" fill="none" xmlns="http://www.w3.org/2000/svg"><path d="M794.986 397.178c-1.935-2.712-1.935-2.712-4.838-2.518-1.548.194-3.676.581-4.644-.194-2.709-1.743-4.257-.194-6.386 1.162 1.742 2.325 3.87 2.131 5.999 1.744 2.129-.388 4.064-.194 5.999.387 1.354.387 2.709.775 3.87-.581zm-32.703-35.06c-.968.194-1.935.969-3.677 1.743 4.451.775 15.094-1.937 19.738-4.648-5.999-.194-11.03 1.549-16.061 2.905zm9.095 97.238c.193-1.743.387-2.712.58-3.68-2.322-.969-4.257-1.937-6.386-.194-1.161.968-1.741 1.937-1.161 3.099 2.516.969 4.451-2.712 6.967.775zm12.578-75.156c.193-.387.193-.775.387-.968-.774-.388-1.548-1.163-2.129-.969-2.515.775-5.611-.194-7.547 2.518 3.484 2.712 6.193-.968 9.289-.581zm-3.677-4.843c-3.096-.193-6.192-.387-9.675 1.937 4.257 1.55 6.966.388 9.675-1.937zm-13.159-9.297c3.87.581 6.579-1.356 9.482-2.712-3.87-.968-6.966 0-9.482 2.712zm11.224 3.099c-4.644-.387-6.773 0-8.708 1.937 2.709 1.162 4.064.775 8.708-1.937zm-2.516 92.589c.194-1.356.194-2.712.387-4.261-.967-.194-1.935-.775-2.709-.581-.58.193-1.161 1.549-1.161 2.324 0 1.743 1.742 2.131 3.483 2.518zm8.708-76.705c-2.515-.388-4.644-.194-6.579 1.743 3.29 1.743 3.87 1.743 6.579-1.743zm-16.061-31.38h-10.063c3.483 2.131 6.579 1.937 10.063 0zm14.9 123.968c2.129.194 4.064-.968 7.934-4.842-4.063 0-4.644 4.455-7.934 4.842zm-29.413-35.834c.193.194.387.387.774.581.968-.581 2.129-.969 3.677-1.743-1.161-.969-1.935-1.55-2.903-2.518-.774 1.549-1.161 2.711-1.548 3.68zm163.129 90.652c-2.709.387-5.031.581-7.547.968 2.903 1.55 5.031.969 7.547-.968zM777.57 476.595c.581-.581.968-1.356 1.161-2.13 0-.194-.967-.969-1.161-.775-.58.581-1.354 1.162-1.741 1.743-.194.387 0 .969.193 1.356.581 0 1.355 0 1.548-.194zm33.671 21.114c-2.71.387-3.29 2.13-3.484 4.261 1.548-.968 3.484-1.743 3.484-4.261zm-49.926-44.552c1.742-2.13 1.355-2.905-1.161-3.68.387 1.356.774 2.131 1.161 3.68zm29.026 32.736a23.238 23.238 0 013.096-1.55c-1.935-1.356-2.902-.387-3.096 1.55z" fill="#fff"/><path d="M1047.9 551.557c-1.16.582-2.13 1.163-3.29 1.937-.38-1.355-.58-2.324-.77-2.905 1.35-1.55 2.32-2.712 3.29-3.874.77-.969.39-1.743-.39-2.324-.19-.582-.19-1.163-.58-1.55-.77-.581-1.74-.969-2.9-1.55 2.71-1.937 5.8-2.712 5.61-6.392-2.71 0-2.9-.194-4.45 1.356-4.64 4.068-9.87 3.487-15.87 2.324 1.55-4.067 6-3.874 8.52-7.36-3.29 1.162-5.81 2.131-8.71 3.099-.39-1.162-.78-1.937-.97-2.905-1.55-10.073-7.74-16.659-16.25-21.501-5.03-2.906-10.45-3.681-15.871-4.262-15.481-1.549-30.962-3.874-46.636-4.067-3.871 0-7.741-.581-11.611-2.325l-3.096-.387c-15.868-5.424-30.188-13.366-44.121-21.695-8.32-5.036-16.641-10.072-25.156-15.108-4.644-2.712-9.675-5.037-14.32-7.942-6.579-3.874-12.578-8.329-17.029-14.915-2.128-3.099-4.837-5.811-7.353-8.717-1.354-1.743-3.096-3.099-4.257-5.036-3.87-6.392-8.128-12.397-10.45-19.757-.967-2.906-1.935-6.005-3.289-8.717-3.484-7.554-5.032-16.077-9.676-23.244-1.548-2.324-2.709-4.649-4.064-6.973-7.16-12.203-17.222-18.789-31.735-17.627-1.355.194-2.516 0-4.451 0 1.935-4.261 2.903-7.942.774-12.009l-2.903.581c-.774-.969-1.548-1.743-2.322-2.712-1.741.969-3.289 1.743-4.644 2.324-.387 3.1-.774 5.811-1.161 8.523-2.516 0-2.709-1.356-2.709-2.905 0-1.356.193-2.906-1.935-3.099-.774.774-1.161 1.937-1.742 2.905a2.678 2.678 0 01-.774-.581c-.581-.194-1.161-.581-1.742-.969-.193.582-.387 1.163-.387 1.744.194 2.905 2.516 4.067 4.645 5.036 3.676 1.937 6.966 0 7.547-4.261.193-1.356.387-2.712.774-4.262-.774 5.23.193 5.036 4.45 4.455 1.161 1.744 2.129 3.487 1.161 5.23-4.45 1.743-8.514 3.487-12.578 5.036-.967.388-1.935 1.163-2.902 1.163-.774-.194-1.549-1.163-2.516-2.131-.387 1.549-.581 2.905-.968 4.261-.774 2.712-2.709 3.293-4.644 1.55-2.128-1.937-4.064-4.068-5.805-6.199-.581-.581-.581-1.549-.774-2.518.58.194.967.194 1.161.194 1.741 1.356 3.483 2.324 5.418.969 1.548-1.163 1.548-2.906 1.161-4.843-.387-1.55 0-2.905 1.355-3.874 1.741-1.356.967-2.712.58-4.649-3.483 3.293-4.45 7.167-5.031 11.622-2.129-1.162-4.064-2.324-6.773-3.68-.387 1.937-.967 3.487-.774 4.842.194 2.712 1.355 4.843 3.483 6.78 2.129 1.937 4.064 3.874 6.193 5.811-.774 1.55-1.161 3.293-2.322 4.068-2.71 2.13-3.29 5.23-4.451 7.941-.581 1.163-.968 2.519-1.548 3.681-1.548 3.68-3.871 7.36-1.161 11.428.387.388 0 1.356 0 1.937.387 4.262.387 8.717.967 12.978.968 6.586 2.516 12.978 5.806 18.983.193.387.387.968.58 1.549 1.548 3.681 2.903 7.361 4.838 10.654 2.322 3.874 5.225 7.554 7.934 11.235 6.386 8.522 12.384 17.239 19.157 25.374 5.225 6.392 11.03 12.397 17.223 18.015 5.805 5.229 12.384 9.685 18.577 14.527 9.095 7.167 18.19 14.528 27.478 21.888 9.289 7.555 18.964 14.528 29.607 20.145 8.902 4.843 17.997 9.491 27.092 13.947 4.644 2.324 9.675 4.648 14.706 6.004 14.32 3.874 28.833 7.748 43.347 10.848 7.74 1.743 15.868 2.905 23.802 1.549 8.127-1.162 16.448-2.324 24.575-3.68 3.871-.581 7.741-1.743 10.84-4.262 1.16.969 2.32 2.712 4.06 1.937 3.68-1.743 7.35-3.486 10.45-6.004 2.71-2.131 4.45-5.036 3.68-8.911-.2-.774.58-1.743.77-2.324-3.87 1.356-7.74 2.906-11.8 4.455.38-4.261 2.13-8.135-1.16-12.397-1.17 5.23-1.55 10.266-6.39 12.785-.968-.775-1.935-1.55-2.709-2.131-4.064 1.356-6.967 3.68-9.095 6.779-1.161 1.55-2.129 3.1-4.644 2.325 2.128-3.099 6.192-4.843 7.546-9.104-6.579.968-10.256 4.649-12.384 10.46-1.161-.194-2.322-.581-3.483-.775.387-3.099 4.257-4.455 3.676-7.942-4.837 1.162-6.966 4.649-8.514 8.523a851.982 851.982 0 00-6.58-.581c1.162-2.131 2.71-3.293 4.451-4.261.387-.194.581-1.356.387-1.744-.193-.387-1.161-.775-1.548-.581-1.935.775-3.677 1.743-5.612 2.712-2.322-1.55-2.515-1.55-4.644 0-.58.387-.967.968-1.548 1.356-2.516 2.131-4.644 2.324-8.127.387.387-.581.774-1.356 1.354-1.937.581-.581 1.355-1.162 2.129-1.743-2.709-.969-3.096-.775-7.354 3.874-.967-.194-1.935-.387-2.902-.775 0-1.162-.194-1.937-.194-3.293-1.161.969-2.128 1.744-3.289 2.712-2.903-.775-5.999-1.743-9.289-2.518 1.742-1.743 2.903-3.099 4.451-4.843-2.516-.387-3.29 1.356-4.644 2.131-.968.581-2.129 1.743-3.097 1.55-2.322-.194-4.837-.775-6.966-2.712 1.548-.775 2.709-1.356 4.064-2.131-1.935-2.131-3.677-1.356-5.419-.194-3.096 1.937-5.611 1.163-8.127-.774 1.548-1.55 1.548-1.55.774-3.874a36.29 36.29 0 01-3.87 1.937c-2.516 1.356-3.096 1.162-5.225-.969-.581-.581-1.548-.968-2.322-1.162-1.161-.194-2.516 0-3.677 0l-1.161-1.743c-1.161-1.55-2.128-2.712-4.257-.969-.774.581-2.322 0-3.483 0-.194-1.743-.387-3.099-.581-5.036-1.354 1.55-2.128 2.324-2.902 3.487-3.29-1.55-6.58-2.906-10.063-4.456a104.059 104.059 0 003.29-6.585c-1.548.581-2.322.774-2.903 1.162-.774.581-1.161 1.549-1.935 2.131-.774.774-1.355 1.937-2.516 1.162-1.354-.969-.193-1.937 0-2.906.387-1.549.968-2.905 1.742-5.036-3.29 1.162-3.483 4.261-5.612 6.005-1.742-.969-3.677-1.937-5.225-2.712.581-2.906 3.677-4.455 3.677-8.329-2.709 2.324-5.031 4.455-7.547 6.586l-4.064-2.325c.968-2.131 1.935-3.874 2.903-5.811-2.516.969-5.418.581-6.386 3.68-1.741-1.355-3.289-2.518-4.644-3.68 1.161-2.518 3.483-3.68 4.257-6.973-2.128 1.356-3.677 2.131-5.031 3.293-1.548 1.162-2.903 1.162-4.451-.194-.967-.775-1.741-1.549-2.902-2.518 1.741-1.937 3.096-3.874 4.644-5.617-2.322.387-5.031-1.162-6.58 1.743-.774 1.356-1.741 1.162-2.709.581-1.161-.581-2.128-1.549-3.289-2.518 1.161-1.356 1.935-2.324 2.902-3.487-1.548-.387-2.902-.968-4.257-1.356-.387.775-.968 1.55-1.548 2.325-2.709-.388-3.096-1.937-2.322-4.262-3.483.969-5.805-.193-7.934-2.711.967-.969 1.935-1.744 2.903-2.518 0-.194-.194-.388-.194-.582-1.548.582-3.096 1.163-5.031 1.744l-2.903-2.906v-.193.193c-4.257-2.905-8.514-5.617-12.772-8.523.194-1.162.387-1.937.581-2.711-1.548-.194-3.29.193-4.257-.581-5.419-4.262-11.224-8.136-15.288-13.753-1.935-2.325-4.063-4.455-5.998-6.973-4.645-6.005-9.095-12.204-13.546-18.208-2.903-4.068-5.999-7.942-9.095-12.01 1.548-.581 2.709-1.162 4.064-1.549-1.355-1.937-2.903-2.519-4.838-.969-1.548-2.324-2.903-4.649-4.257-6.973 1.354-.969 2.322-1.55 3.87-2.712-3.483-1.162-6.967-1.162-7.354-5.617.968-.775 2.129-1.55 3.484-2.325-.194-.193-.387-.581-.581-.774-1.548.193-3.29.581-5.031.774-1.161-1.549-2.516-3.874-4.064-6.586 2.903-.774 5.612.001 7.934-2.518-3.483-.581-6.386-.968-9.288-1.549-.387-1.744-.775-3.099-1.162-4.843 3.29-1.743 6.386-3.486 10.063-5.423-4.064-1.356-7.353 2.324-11.03.193 2.516-4.261 6.966-5.811 10.836-8.329-2.322-1.356-3.87-.193-5.418.581-1.548.775-3.096 1.744-4.838 2.518v-3.486c3.484-2.325 6.386-4.262 9.482-6.392-.193-.388-.387-.581-.58-.969-2.903 1.356-5.805 2.906-9.289 4.455.968-9.685 3.871-17.626 9.869-24.6 3.677-4.261 7.934-6.973 13.546-8.329 4.644-1.162 9.289-.968 14.126-.968 6.193 0 11.031 2.324 15.094 6.585 6.193 6.393 9.869 14.334 13.546 22.082 2.322 5.037 4.451 10.073 6.579 15.303 1.355 3.099 2.516 6.392 3.483 9.297-.774.194-1.548.388-2.515.775 0 .581.193 1.356.193 1.937a92.34 92.34 0 013.097-.581c6.579 15.884 19.157 27.312 28.059 41.452-.775.387-1.355.969-1.936 1.162-.193.194-.58.194-.774.388l1.355 1.356 1.161-.582c1.548-.774 3.096-.968 4.451.194 1.935 1.55 3.87 3.099 5.999 4.262 8.514 5.229 17.028 10.072 25.349 15.302 4.064 2.518 7.934 5.424 11.805 8.329.58.194 1.354.194 1.741.581 14.32 10.073 29.414 18.402 45.862 24.213.194 0 .194.387.387.775-.193.581-.387.968-.58 1.549.967.194 1.935.581 2.902.775.387-.581.581-1.356.968-1.937 1.161.194 2.128.387 3.096.387 3.29.388 6.773.775 10.063 1.163 5.418.581 10.836.774 16.254 1.355 9.095.969 17.997 2.325 27.092 2.712 5.999.388 11.613 1.55 17.033 3.874 3.87 1.55 7.74 3.874 10.64 6.78 3.09 3.099 5.42 7.167 6.38 11.622.39 1.356.59 2.905.39 4.261-.58 2.906-.58 3.293 2.13 3.681 3.29.387 6.39.387 9.68.581.77 0 1.74.193 2.51.193v.969c-2.51.387-5.03.387-7.55 1.162-2.51.969-5.03 2.518-7.74 4.068.2-2.518.39-4.649.58-6.78-1.35 0-2.32.194-3.09.194-.2 2.324-.58 4.261-.78 6.198-.19 1.937-.38 4.068-.19 6.005.19 3.487 3.1 5.424 6.39 4.455 1.35-.387 2.51-.968 3.87-1.162 1.55-.194 2.9.194 3.29 2.131.19.968.38 1.937.58 3.099-5.03-.194-9.68-3.293-14.9 1.162 1.54.581 2.51 1.356 3.67 1.356 2.91.194 5.62.194 8.52.194.19 0 .39.194.77.581-.77.581-1.55 1.162-2.9 2.131 1.35.581 2.32 1.162 3.1 1.162 2.9-.581 5.8-1.162 8.7-1.937.58-.194 1.16-.775 1.94-1.55-2.9-.193-6.19 1.744-7.16-2.518 3.29.194 3.09-2.518 3.68-4.455 1.74-.194 3.48-.194 5.03-.387 0-4.262 3.87-2.519 6-4.068-.39-1.162-1.36-1.743-2.33-2.325zm-1.35-7.36c-.58.968-1.16 1.937-1.94 3.293-1.35-2.906.58-2.906 1.94-3.293zm-38.7 23.825c.58-.387 1.35-.968 1.35-1.356 0-4.261 3.87-4.068 6.39-5.811-.97 7.167-6.97 11.816-14.71 11.816a108.07 108.07 0 016.97-4.649zm-2.91-1.356c-6.575 6.586-14.896 6.973-23.411 6.586 8.128-1.162 15.868-3.293 23.411-6.586zm-118.424-10.072c2.709.774 5.225 1.356 7.934 2.324 11.03 3.487 22.253 6.973 33.284 10.46 17.222 5.23 34.831 6.392 52.828 4.649.387 0 .774-.194 1.161-.388-2.709 1.937-5.805 1.744-8.708 2.131-10.256 1.162-20.319.387-30.188-1.743-14.513-3.099-29.22-5.811-43.346-10.654-4.451-1.549-8.708-3.68-12.965-5.423-.194-.775 0-1.163 0-1.356zm147.844-3.487c-1.74-2.712-4.07-1.356-6-.968-1.94.387-3.87.968-6.39 1.743.58-1.356.97-2.712 1.36-2.712 3.48-.194 5.42-3.293 8.32-4.649.39-.193.77-.193 1.35-.581-.19 2.131.2 3.68 2.71 4.068 1.55.194 1.94 1.937 3.1 3.874-2.32-.194-4.07 0-4.45-.775zm5.22-2.324c-.97-.775-1.35-1.163-2.32-1.937.97-.581 1.74-1.163 3.29-2.131-.39 1.743-.58 2.712-.97 4.068z" fill="#fff"/><path d="M839.686 457.225c.581-.387 1.161-.968 1.935-1.356l-.58-.581-2.322 1.162c.193.194.58.388.967.775zm81.469 45.714c-.194 0-.581.193-.774.193.193 0 .387.194.58.194.194 0 .194-.194.194-.387zm-41.605-23.051c.58.388 1.161.581 1.741.969.387-.388.774-.969 1.161-1.356-1.354-.775-2.128-.194-2.902.387z" fill="#fff"/></svg>