<svg width="1440" height="899" fill="none" xmlns="http://www.w3.org/2000/svg"><path fill-rule="evenodd" clip-rule="evenodd" d="M1047.3 459.128c-.85 0-.57.219-.85.273 0-.491.11-.327 0-.928-.34-1.964-1.76-2.019-1.65-2.619-.28-.055-.34.054-.56-.437-.34-.764-1.88-1.637-3.24-1.255-.4.109-.57-.11-1.02-.492-.91-.655-2.04-.382-7.21-.709-.96-.055-3.74 1.091-4.03 1.255-2.49 1.528-3.51 3.602-3.57 4.094-.06 1.037-1.53 1.473-2.04 3.711-.23 1.037-.8 5.403.11 6.877.74 1.201.11 1.965.51 3.111 1.42 1.255-.11 1.419 2.5 2.401 1.87.71 1.08 1.31 1.98 1.747 1.03.437 1.37.055 3.07.055.68 0 .05.545 1.42.927 2.66-.054 2.27-1.037 2.66-.6 1.48 1.474 9.42.382 10.67-4.093 1.02-.71 1.36-.819 3.52-4.585 1.19-2.019-.34-7.696-2.27-8.733zm-.85 2.074c.11-.436-.34-3.875 1.02 1.092 0 .327-.17.764-.45 1.091-1.02-1.091.05-1.473-.4-2.128-.11.218-.11 1.419-.4.655 0-.273.17-.491.23-.71zm.4 6.113c-.17.546-1.36 1.583-1.48 1.638-.11-.164.51-1.147.85-1.856.23-.437.23-.273.4-.055 0 .219-.06.164.23.273zm-14.02 4.803c.4-.6-.28.328-.68-.273.79-1.255.91-.764 1.08-.218-.68.709.05-.218.28.491-.11.273-.62.055-.68 0zm.11 1.637c-.17.164-.51.273-.68-.054.06-.109.12-.055.68.054zm-.96-2.183c0 .109-.06.164-.11 0-.35-.054-.34-.218-.23-.327.62-.983.79-1.146.91-.928.22.437.34.327-.57 1.146-.17.109-.11.055 0 .109zm-1.14 1.638c-.9-1.419-1.3-1.529-1.36-1.583.68-.655.17-.055 1.31 1.091.45.437.85.601 1.02.765.34.272-.57-.055-.97-.273zm.29.436c-.34.164-.63-.109-.4-.218.11.055.28.109.4.218zm-.8-.6c-.28-.164-.39-.437-.45-.655.28.109.4.218.45.655zm-.62-1.255c-.06.054-.06.054-.06 0h.06zm-.23-2.02c.68.273-.17 1.146-.4.819.12-.382.23-.546.4-.819zm-.51.546c-.11-.164-.11.055.17-1.255.4.382.17.818-.17 1.255zm.68-.928c.4-.928.51-.436.23.273-.23 0-.23-.109-.23-.273zm2.84-.764c-.17.055-.23-.055-.45-.327 1.98-1.419 1.3-.71.45.327zm.23-3.056c.34-.11.22-.11.34-.055-.06.273-.17.218-.34.055zm2.78-.764c1.02-.11-1.82 1.91-.97.163.29-.054.63-.109.97-.163zm-.57-.11c.17-.054.11-.054.23 0-.06.11-.17.055-.23 0zm3.63-1.146c.51-.109.4-.109 0 1.146.4.601.29-1.582 1.02-1.146-.85 2.129-.22 1.692-2.89 2.074-.11 0-.91.273-.68 0 .51-.709 1.25-1.473 2.04-1.855.4-.164-.51 1.091-.51 1.473.4-.327.68-1.419 1.02-1.692zm1.14.491c-.06.055 0-.272.22-.6.29 0-.11.328.34 0 .63-.218-.11.655.34.6 1.08-1.255.86-1.309 2.84 2.511.06.109.17.273.17.382-.28.164-.56.218-1.13.164-.29-.218 0-.873-.74-.764 0 .109.11.109.17.163.06.055.11.11.17.164-.23.546-.11.437-.45.491-1.48-1.637-.23-1.364.34-1.746-3.01 0-2.78-.109-2.61-.437 1.3-2.347.34-.928.34-.928zm.85-1.91c.05-.164.17-.546.28-.327.06.163.12.382-.28.327zm.4.382c0 .219-.06.219-.17.109.05-.054.11-.054.17-.109zm.34-.709c0 .054-.06.218-.17.109.11-.055.17-.273.17-.109zm4.48-.055c.45.109-.23.819-.51 1.91.28-.109.79-2.128 1.02-1.037-.11.437-.62 1.692-.85 2.074-.17-.109.06.164-1.02-1.473.11-.928.34-.655 1.36-1.474zm-.57-.764c.12-.218.17-.055.23 0-.17.327-.34.382-.23 0zm-2.72 3.22c-.46-.819-.4-.709-.29-.982 1.31-.655.23.928.4 1.091 0 .055.11-.054.11-.163.46-1.092.35-1.037.46-.437.34-.328-.23-.655.74-1.037.22.164.28.382.34.6 2.55 3.002 1.47 2.838 0 3.493-.57.328-.23.055-1.76-2.565zm.91-3.547c-.23.054-.46.109-.4-.055.11-.6.79-.6.4.055zm.96 1.964c.06.055.06.11-.06.219-.05-.164-.05-.164.06-.219zm1.19 2.293c.97-2.402.74-2.402 1.36-1.146-.9 2.51-.96 1.746-1.36 1.146zm-1.47-3.985c.17-.327.05-.327 1.02-.491-.06.219-.8.546-1.02.491zm.9-.109c.12.71-.73 1.037-1.19 1.037-.22-.546.57-.709 1.19-1.037zm-1.3.273c-.23-.164 0-.491.28-.382-.05.164-.11.328-.28.382zm-.11-1.255c-.97.491-.8.436-.8-.764 1.02-.874 1.25-.491.8.764zm-.74 1.037c.68-.218.51.109.45.327-.57.328-.91.382-.45-.327zm.34.764c.28.437-.4.709-.91.764.23-.491.28-.709.91-.764zm-.8-.71c-.17.765.29.546-.79.983.28-1.092.51-1.037.79-.983zm0-.272c.06.054 0 .054 0 0zm-.34 1.419c.29.545-.68.491-.73.491.17-.273.05-.219.34-.273.05-.055.17-.218.39-.218zm-3.23 8.241c-.8.546.28-1.474.34-1.474s.4.055.51.164c.06.055.34-.164.11.328-.73 1.309-.56 1.146-.85 1.146-.22-.164.06-.164.12-.437-.12.055-.23.164-.23.273zm-.68 2.347c-.23-.273-.68-1.255-.8-1.637.12-.055.17.054.29.109.79.163 1.02-.164 1.3 1.255-.28.218-.39.218-.79.273zm.85 0c.17.382.23.327-.51.546-.12-.055-.17-.109-.17-.273.17-.164.4-.164.68-.273zm-.91.546c-.23.163-.45-.109-.17-.219.11.055.17.11.17.219zm-.17-6.386c-.57 2.401-.74.982-.34-.055a.275.275 0 01.34.055zm-.23-.546c.06-.164.17-.218.34-.054-.11.163-.22.163-.34.054zm.57.491c.34-.109.68-.109.51.273-.51.983-.79 1.911-1.02 1.801-.11-.109.45-2.019.51-2.074zm2.33-.982c.11.109.45.6.17.6-.23.055-2.16 0-2.44 0-.12-.436-.46-.273 2.27-.6zm-2.44 3.766c.11-.491.28-.983.51-1.255.17.054.23.218.34.327-1.19 2.456-.63 1.146-.85.928zm-.06.928c-.17 0-.34-.109-.06-.273.17.054.17.164.06.273zm1.93-1.801c-.34.218-1.13.054-.45-.71.45.273.62.928.45.71zm.23.327c.28 0 .51.328.62.6-.34.983-.91 1.037-1.13.765-.57.327.28-1.037.51-1.365zm.51.055c.17-.164.96-.382.28.327-.17-.054-.22-.218-.28-.327zm-.06-.273c-.51 0 .12-.491 0-.873-.51.109-.17.982-1.02-.219.28-1.037.06-.546-.4-.109.06.218-.11.655-.17.764-.62-.109-.28-.655.06-1.528.17-.055-.17-.055 1.93-.055.74.437-.11.492-.11.983.11.436.56.273.79.218.17.109.4.382.17.546-.45-.71.23.218-1.25.273zm-3.97-.437c.4.382.28.273.4.601.45.436.05.436.28.709.11.109.51-.273.23.491-.97.273-.57.273-1.08-.655-.85-1.473-1.08-2.183-1.19-2.51 1.87-.983.68.655 1.36 1.364zm-2.16-1.364c.51 0 .46-.764 3.35 5.785-.51.218-.06-.164-1.36-.382-.85-.109 0-.546.06-.819-1.03-.491.11 1.638-2.05-2.401-.28-.491.51-.273.74-.764-1.08.327-.74.928-1.7-1.092.11-.382.62-.327.96-.327zm2.67 7.04c-.06 0 0 0 0 0 0-.054 0-.054 0 0zm-.45.164c-.23.055-.23.055-.4 0 .28-.054.28-.054.4 0zm-.63.055c0 .054 0 .054 0 0 0 0-.06 0 0 0zm-1.47-3.275v.055c-1.03 1.037-.86.927-1.08.6.11-.273.11-.218-.06-.218-.79-.765.06-1.037.34-1.583-.28-.328-.68 1.255-1.13.054.22-.218-.17-.054 1.42-.764.22.109.79 1.31.9 1.528-.56.328-.51.273-.39.328zm-2.05-2.129c.97-1.582.91-.927 1.19-.163.74 0-.62.709-.51.491-.28-.164-.39.273-.73.436-.29-.163.11-.218.05-.764zm1.25-2.947c-.57.055-.62-.164-.57-.437.12-.382 1.54-.982.57.437zm-1.76 4.257c-.11.219-.39.601-.68.928-.28-.218.11-.873.68-.928zm1.53 3.602c.52.219.86.11-.28.273 0 0-.06 0-.11-.054.11-.109.28-.109.39-.219zm.35-1.419c-.29-.382.62-.709 1.13-1.528.28.328.4.71.57 1.037-1.02.546-.74.491-1.7.491zm1.7-.272c.17.163-.17.327-.46.218.17-.164.29-.218.46-.218zm1.64 2.346c.12-.218.12-.272 1.02-.6 1.14 1.146.12 1.037-2.66 1.037-1.14-.055 1.53-.491 1.64-.437zm1.31-.764c.11-.327.34-.436.57-.382.28.601.45 2.074-.57.382zm.62-1.037c.91-.382.4-.163-.05-.163-.12-.164-.4-.928-.34-1.092.11-.055-.12-.055 1.07-.164.29.219.17.219.63.055.45.327.23.218.74.491-.23.273-.29.164.05.382.06.164 0 .109-1.87.764-.23.055-.28-.109-.23-.273zm1.76-1.582c-.17-.383-.28-.328-.4-.546.4-.819.46-.819 1.14.163-.11.219-.17.383-.28.601-.29.054-.4-.055-.46-.218zm.17-1.365c.4-.819.8-1.474 1.19-.709.23.382.23.218-.45 1.364-.17.273-.45-.327-.74-.655zm.74 1.31c.06.109.23.273-.17.382-.06-.164 0-.327.17-.382zm.91-1.255c.28.545.74.655-.51 1.31-.74-.273.28-1.802.51-1.31zm.17 1.91c.62-.491.51-.437.68-.328-.34.492-.91.492-.68.328zm.4-1.474c-.23-.273-.97-1.528-1.03-1.692.29-.218.34-.163-.05-.163-.63-.492.17-.328.79-.382.46-.055.97-.219.57.054-.45.328.23 0 .4 0 .11.164-.34.164.17.164.22.218.34.436.45.709-.28.328-1.25 1.256-1.3 1.31zm1.41-1.2c.23.272 0 .545-.28.818-.28 0-.34-.382.28-.818zm-.34 1.2c.74-.818.63-.709.74-.6-.4.709-.96.873-.74.6zm.46-1.583c-1.19-.818.11-1.037.91-1.473.45-.273-.91 2.456-.91 1.473zm.96.164c-.05.109-.39.819-.56.546.28-.382.51-.546.56-.546zm-.22-1.746c.22-.382.39-.764.62-.492-.11.273-.4.383-.62.492zm.56-1.146c0-.273 0-.11.8-1.692.51.163-.51 1.364-.8 1.692zm-.17-4.312c-.05-.109 0-.164.06-.219.11.11.06.164-.06.219zm-.22-2.456c.68.6 0 1.855-.29 1.528.12-.164.23-.328.12-.382-.74-.164-.34-.382-.69-.491-.17-.055.06.436.06.545-.68.328-.74 0-.79-.109-.63 1.31-1.25-.545 1.59-1.091zm-.69-1.365c.18.109.52.764.57 1.037-.28.328-1.87 1.146-1.81.71.11-1.31-.12-.928 1.24-1.747zm-.68-.436c.06-.328.63.218.4.327-1.93.6 1.59-.327-2.1 1.201-.23-.218.06-.491-.28-.928-.29.164-.23 0-.17-.055 1.25-1.091 1.53-1.255 2.15-.545zm-3.86-1.201c-.05.273-.11.273-.05.273-.06.054.45-.109.45-.164-.05 0-.17.055-.22-.055.11-.272.34-.054.22.055-.05.273.4-.6 1.14-.327.05.272-.63.491-.46.764.68-.764.97-.874 1.82 0-.45.436-1.08.764-1.48 1.255.06.164.29.055.34.218 0 .219 0 .437-.05.655.45.219-.4.219-.34.71.68.109.45 0 .51.764-.46.546-.34-.437-1.25 1.474.06 0-.06 0-.11.163-.34-.327.17-.873.17-2.074-.12-3.056-.29-2.51-.29-2.401-.05 1.091.29 2.947-.34 3.929-.74 1.147-.51 1.31-1.08 1.42-.11-.11-.05-.11.4-1.147.34-.818.28-1.146-.79 1.31-.29.164-.46.219-.4-.054 1.08-2.238.91-2.02 1.08-1.911.05 0 0-.491-.17-.218-2.16 3.275.11 1.637-3.07 3.711-.11-.109-.22.164 2.05-3.001.22-.273.17-.273.05-.546.12-.601-.62-.491-.79-.928.17-.437.51-.764.74-1.146-.12-.164-.17.109-.91.982-.17 0-.57-.273-.68-.546.11-.218.39-.709.62-.818.17.327-.17.6.06.709.39-.491-.17-1.364.85-1.746.45 0 .62-.055.62.218 0 1.201-.22 5.185.06 3.275.4-2.947-.11-4.749.79-3.821.12-.163-.17-.273-.22-.327.17-.328 1.59-.491-.23-.109-.57-.492.45-.655.96-.546zm1.88 3.22c-.06.109-.12.109-.23 0h.23zm-4.37-2.238c1.19-.491 1.59.164.85.109-.63-.054-1.02.655-.85-.109zm-.06-.382c.06-.273-.11-.218.85-.436 1.19.218-.74.436-.85.436zm-.23-1.746c.8-.437 1.54.655 2.05.818-.12.11-1.76.437-1.76.437-.23.055-.12-.491-.17-.819-.17-.327-.12-.218-.12-.436zm0 2.892c-.79 1.419-.96 1.256-1.13.546.11-.327.51-1.037 1.08-1.255.05.164.05-.055.05.709zm-.05-1.091c-.51.436-1.02.382-.68.164.79-.492.73-.164.68-.164zm-.57-1.856c.06.109.06.328-.23 0 .06-.054.12-.054.23 0zm-.45 1.474c.79-.71.39-.601.62-.655.45.436.34-.218.45.6-1.19.764-1.13.491-1.07.055zm0 1.091h.22c-.34.764-.51.492-.22 0zm-.51-.709c.17-.164.22.054.17.273-1.31 1.31-2.84 1.965-.17-.273zm0 1.255c-.35.055-.46-.273.05-.327.12.109.12.218-.05.327zm-6.76.819c0-.055.17-.983.23-1.201.62-.491.45-.6-.11-.218-.29-.491.28-.71.28-.819-.4.109-.34.164-.4-.382-.11-1.419 1.36-.655 4.43-1.583.68.164 2.44.055 2.21.273-2.1 1.856-.91.601-1.47.382-.34.328-.06.164-.06.928-.85.819-2.21 1.856-1.48 2.729.12.109.23.382.12.546-.06 0-.63-.764-.46-.437.57 1.037.63 2.074.85 2.511.12-.983-.51-1.365-.05-1.692.22.327.34 1.037.34 1.364 0 1.583.4.819-.12-1.528.06-.109.29-.382.63-.273.17-.382.45-.818 1.59-.873.4.327-.29.873.11 1.364-.17-.927.68-.982.46.055.28.273.11-.055.11-.109.17-.164 0-.218.74.273.11.218 0-.109-.8 2.51.23-.163.68-2.128 1.08-2.347.23 0 .85.164.97.437-1.08.928-1.03.819-1.65 1.637-2.27 3.111-.11 1.474-2.21 2.02-.29-.218.85-1.856.9-3.057.06-1.037-.9 1.42-.68.546.29-1.255.34-1.146.29-1.583-.57-.382-.51 2.675-.51-.927 0-.055-.12-.164-.12-.055-.28.928.12.218 0 1.092-.17 1.2-.51 2.347-.51 2.347-.05.218.12.272.17.109 1.36-4.039-.22 1.255-.17 1.31.29 0 .68-1.583 1.02-1.856.06-.328 0 .164-.05.218-.91 2.293-.34 1.692-2.56 2.675-.34.163-.62.109-.85-.164-.05-.273 1.53-1.692 1.87-2.183-.22-.164-.85.491-2.55 1.364-.79-.819-.4-.819 1.31-2.292.05-.055.39-.601-1.88 1.364-.39-.218-.62-.273-.9.164-.06.055 0 .164.11.71-.23.491-.23.382-.11.6.9.164.45.546 1.41 1.255 1.42.983 2.16.219.17 1.801-.34-.054-.17-1.146-1.47-.655-.11.055-.23.11-.23.273.12.273.4.164.63.273.28.819.17.601.56.928.51.164 1.37.109 1.03.328-1.14.818-1.31.982-1.14.382-.23.109-.34.764-.62.655-.06-.219.62-2.839-.46-1.037-.11.163-.11.109-.51-.328-.17-.982-.51.437-.45.437 0 0 .28-.328.17-.164.11.437-.12.546-.12.6-.28-.273.12-.545-.17-.382-.17-.054-.51-1.091-.28-1.91-.91.382.91 2.565-.4 2.729-.05-.164-.05-.6.06-.71-.17-.764-.06-.6-.45-.6 0 .328-.12.164-.17 0 .34-.055.05-.218-.06-.218s-.23.382-.29.218c-.17-.273.06-3.493.12-2.62.06 1.256 0 .928.06 1.146.17 0 .11-.109.17-.545.05-.874.28.327.45.382-1.14-4.367-.45-3.22-.57-4.039.51-.382.29-.601.68 1.528.46 2.183.57 1.692.51 1.637-.56-3.001-.79-3.656-.28-2.783.34 0 .23-.109.23-.382.17-.437 2.21-3.166 2.89-3.002.57.164.74-.109.91.109.23-.327-.85-.491-1.25-.655.4-3.984-.57-3.329.68-3.929.91-.437.57 0 .63.109.34.655 0 3.984.22 4.039.17-.273-.05-.765.34-.819 0-.055-.22-.109-.22-.546 0-3.82.05-3.384-1.65-2.565-.11 0-.45-.382-.34.109-.06.109-.91.655-.68.546-.23.218.74-.601.85-.219.06.219.34 3.384-.17 3.275-.45-.109-.79 0-1.25-.109-.11-.218.29-.382.4-.6-.28 0-.46.218-.74.655-1.3.655-1.13.709-.45-.328.73-1.037.51-1.255.79-1.255.34.436.17.764.34 1.037zm5.45 2.729v-.109c.11.054.06.109 0 .109zm-2.95 2.456c.23 0 2.1-1.419-.06.655-.11.109-.22.273-.4.382-.85-.655.18-.71.46-1.037zm-2.1.764c-.06-.055-.06 0 0 0zm-1.48 6.058c-.11-.054-.11-.109-.17-.164.06-.272.57-.545.17.164zm-.51-.218c-.05 0-.05 0 0 0zm-.39-.546c-.29-.164-.12-.491.05-.764.06.273.12.546-.05.764zm0 .218c-.12 0-.06.055-.12-.109.17.055.12.055.12.109zm-1.14-6.331c-.23.71.23 2.675-.23 2.729-.11-.218-.17-4.093.12-4.53.17-.054.51-.436.45-.109-.11 1.037.11.218.23.164.17.655-.29.873-.57 1.746zm.34.437c-.06-.055-.06-.109 0-.164.06.055.06.109 0 .164zm-.45 3.275a.156.156 0 010-.219c.05.109.05.164 0 .219zm0 1.419c0 .054 0 .054 0 0 0 .054-.06.054 0 0zm.68.054c.45 0-.23 1.528-.23.273.11-.109.23-.164.23-.273zm.23 1.419c-.12.055-.23.109-.4.164-.17-.382.45-1.201.4-.164zm.11-8.951c.11.382 0 .273-.17.219-.06-.109 0-.109.06-.437.17.055.11.164.11.218zm-.11.71c0-.164 0-.273.11-.273.06.164.06.164-.11.273zm.34-1.583c0 .055 0 .109 0 0zm.73 1.037c.12 0 .57.218.46.382-.51.819-.46.655-.57.71-.34-.437-.23-.764.11-1.092zm-.05-.546c.34-.818.56-1.091 1.02-1.091 1.59-.055 1.59-.273-.29 1.692-.45-.492-.22-.328-.73-.601zm1.02-3.984c.23-.164.17.109.11.437-.05-.164-.05-.273-.11-.437zm.06-1.364c.39 1.255.11.655-1.71 3.165-.62.928-.22-.819.97-1.801-.4 0-.63.491-1.36 1.528-.69 1.037 0-1.91 2.1-2.892zm-2.05 4.311c.4-.327.12-.436.4-.873 1.82-2.783 1.59-1.583 1.3-1.201-1.53 1.911-1.41 2.566-2.21 3.166-.06-.328.23-.819.51-1.092zm-.4 1.256c0 .218 0 .273-.22.382-.06-.219.05-.328.22-.382zm-.17-.819c-.39.982-.34.873-.39.873-.29-.491.56-1.31.39-.873zm-1.7 6.167c-.11 1.256-1.08-5.458 1.14-6.112.11.218-.17.545-.12.982.12.055.51.218.34.273-.39.109-.39.491-.45 1.091-.11 1.147-.4-.927-.91 3.766zm.51.764c0-.054-.05-.982 0-1.419-.39.055.06-2.183.29-2.292.45.819-.06 7.368-.29 3.711zm.12 2.02c-.06.054-.06 0 0 0-.06 0 0-.055 0 0zm.28-.6c.17.382-.17.6-.17.272 0-.109 0-.218.17-.272zm-.57-1.911c.06.219-.05-.218.23 1.965-.4 1.255-.57-1.419-.23-1.965zm0 4.094c-.05-.764-.11-1.474.34-1.256.85 2.838-.22 1.365-.34 1.256zm1.08 1.528c-.06 0-.11-.055-.23-.055.06-.163.34-.218.23.055zm.11-1.092c-.28.055-.39.109-.45-.109-.11-1.091-.11-.873.11-1.201 0-1.255.34-.927.34 0-.79 1.092.46.219 0 1.31zm.23-6.986c0 .055-.06 3.002-.06 3.002-.11 1.474-.39-2.674.06-3.002zm0 8.296c-.17-.273-.06-.6.34-.491 0 .764.29.71-.34.491zm.34-1.419c-.23.055-.45.164-.34-.491.74-.6.91.327.34.491zm.8 1.31c-.46.328-.63.055-.57-.164.4-.655.62-.218.57.164zm-.06-1.583c.28-.382.28-.546.57-.163a.987.987 0 01-.57.163zm.62.764c.68-.273.74-.327.91-.163.12.109.74 1.091.34 1.037-1.19-.219-1.98.327-1.25-.874zm1.65 1.256c.23.273.4.436 0 .436-2.33.055-2.5-1.091 0-.436zm-1.08.928c-1.02-.383.63-.219.68-.164-.05.054.06.054-.68.164zm1.48.436c-1.37-.218-1.65-.6-.34-.327 1.7.327 1.81.6.34.327zm-.12-.655c1.76 0 1.82-.109 2.22.655-.63-.109-2.84-.6-2.22-.655zm2.33.382c-.17-.163-.17-.109.11-.218-.05.109-.05.164-.11.218zm.17.219c0-.055 0-.11.11-.11 3.52.219.17.219-.11.11zm10.67-1.529c-2.38 1.419-1.36 1.037-1.93 1.201.23.382 1.53.055 1.08.328-.97.6-2.22 1.2-5.51.927.06-.764 1.59-.163-2.72.055-.51 0-1.19-.164-1.36-.6.28-.11.39-.055 1.59-.055.51.055.85.71.96.218.11-.054-.17-.054 1.59-.054 1.48 0 5.11-1.037 5.16-2.074-.28-.273-.11.054-.11.109-.11.437-2.61 1.637-2.72 1.146-.23-.982-.23-.982 0-1.091 2.15-.819 2.78-1.092 3-.819.17 0 .17-.437.4-.164.74.71.85.764.57.873zm-.4-1.037c.06-.054-.11 0 .8-.491.28.164.34.491.62.71-.45 1.091-.96.382-1.42-.219zm2.9-1.692c-1.59 2.129-1.48 1.747-1.88 1.147.17-.273.68-.655 1.31-1.419.06-.055.11 0 .34.054.23.055.4 0 .23.218zm1.41-2.292c-1.24 1.965-1.02 1.692-1.13 1.801-.11-.109-.11-.109-.23.109-.96.328.46-1.091.97-2.237.34.218.45.218.39.327zm.18-.6c-.06.163-.23.491-.4.054.05-.382.57-.873.22-1.146-.22.109-.28.328-.39.491h.17c0 .164-.23.655-.29.11-.22 0-.34-.164-.28-.328.17-.273.74-.491.79-1.201-.22-.545.06.164-.34.492-.17-.11.12-.219-.11-.383-.57 1.31-1.02 1.092.34-.709.29.546.63 1.255.63 1.583.45.054-.12 1.364-.34 1.037zm.51-1.638c-.12-.054 0 .164-.63-1.364-.06-.437.29-.491-.23-.764.46-1.092.35-.928.52-.928.45.982.45 2.347.34 3.056zm-17.03-4.202c-.28 0-.68-.219-1.25.382-.85.873-1.93 2.51-1.3 3.602 1.25-2.129-.85-.273 2.49-3.548.4-.163.29-.054.4-.491-.17-.109-.11-.164-.34.055zm-.51.546c-1.87 1.801-.57.109-.34-.055.28-.218.57-.164.34.055zm.17 7.368c-.06 0-.06 0 0 0zm0 0c0-.055 0-.164.06-.273 0 .164 0 .164-.06.273zm5.39-9.497c0 .055 0 .055 0 0zm0 .164v-.164c.06.109.06.109 0 .164zm-8.4 7.095c0-.055 0 0 0 0zm.12.164c-.06-.055-.06-.109-.06-.109s0 .054.06.109zm.05 2.019c.23.164.17.109 0 0zm.29.328s0-.055 0 0zm7.94-9.552c0-.054 0-.054 0 0-.06 0-.06 0 0 0zm-8.28 7.205c-.06-.055 0 0 0 0zm8.79-4.639c.06 0 .06 0 0 0 0 .054 0 .054 0 0zm-2.15-7.041c0 .054 0 .054 0 0zm-4.77 3.22s.06 0 0 0zm7.83 6.386s0-.055 0 0c0 0-.06.054 0 0zm6.41 2.729c.06 0-.17.163-.11.109.06 0 .06-.055.11-.109zm-1.36.218c0-.055 0-.055 0 0zm2.73-4.639c-.06.054-.06.054 0 0zm-.86-6.331c.06.054.06.054 0 0zm-4.76 13.153c.05-.054.05-.054 0 0zm5.22-1.856c.05 0 .05 0 0 0zm-5.79 1.256c0 .054-.06.109-.06.109 0-.055.06-.109.06-.109zm.23-.273c0 .054-.06.109-.06.109 0-.055 0-.055.06-.109zm0 0s.05 0 .17-.273c.05 0-.06.164-.17.273zm-.17.273c-.06.054.05-.055.11-.109-.06 0 0 0-.11.109zm-.17.218s.22-.218 0 0zm-.86-.437c0-.054.06-.109.06-.163.06.109.06.163-.06.163zm.12-.163c0 .054 0 .054 0 0 0-.055 0-.055 0 0z" fill="#fff"/></svg>