<svg width="1440" height="899" fill="none" xmlns="http://www.w3.org/2000/svg"><path d="M1295.19 554.832c-.21-.623-.31-1.193-.89-1.245-.37-1.608-.73-1.245-.94-2.178-.32-1.245-.74-.882-1.47-2.074-.37-.571-.64-.415-1-1.037-.37-.519-.95-.623-1.21-.726-.95-.312-.26-1.401-3.63-1.401-4.25 0-3.88-.933-8.4 1.556-1-.726-1.42-.052-2.52.778-.79.622-1.16 1.452-1.84 2.904-.42.83-.21 2.437-.58 2.748-.73.623-.42 1.089-.58 2.127-.15.933-.26 1.711.21 2.385.42-1.037.48-1.141.42.311 0 .156-.05.519-.26.674-.05-.052-.05-.103-.1-.207-1.47.83 1.62 4.356 1.62 4.408.32.881.37-.156.79 1.763.27.415 1.11 1.192 2.16 1.452.36.103 1.52 1.348 2.99.207.68-.518 1.47 1.037 3.42.83 1.62 1.556 3.83.985 5.14-.985.32-.467 1.16-.156 1.95-.312 1.94-.363 4.57-2.437 4.36-4.2-.37-3.059 2.52-5.289.36-7.778zm-4.3-5.134c.21.155.26.415.47.622-.05.052-.05.104-.11.104-.21-.156-.57-.571-.36-.726zm-.48 1.711c.58.311 1.05.259 1.42.311.63.622.84 1.193.63 2.023-.31 1.555-.1 1.4-.31-.882-.05-.415-.32-.726-.42.467-.48-.156-.27-.726-.37-1.193-.26-.207-.11.363-.21.467-.21-.052-.79-1.193-.74-1.193zm1.84 4.2c-.05-.103-.1-.207 0-.363.11.156.11.26 0 .363zm-.31-2.541c.05.208.1.415 0 .675-.16-.26-.05-.467 0-.675zm0 1.038c-.11.207-.16 0-.05-.104 0 .052 0 .052.05.104zm-.32.414c-.1-.311-.26-.985 0-.829.11.259.06.518 0 .829zm-2.47-5.963c.37-.415.48 1.504.27 1.244-.27-.363 0-.259-.27-1.192v-.052zm-6.83-.985c.11 0 .21.051-.05.051 0-.051 0-.051.05-.051zm-.21.051c-.47.312-.68.052-.78 0 .78-.051.57-.051.78 0zm-.78-.311c.05 0 1.36-.052-.11.156-.05 0-.1-.104.11-.156zm-.53.519c.05 0 .05.052 0 0zm3.21 0c-.16.155-2.21 1.244-2.26 1.296-3.31 1.193.05-.311.36-.726-.05-.466-1.57.208-1.89.104v.052c-.26-.208 3.63-1.193 3.79-.726zm-4.63 4.045c-.15-.156-.15-.052 0-.311.21 0 .16.311.42.051 1.05-1.037.79-.518 0 .519-.52-.259 0-.415-.42-.259zm.32-2.904c.1.311 0 .778-.53.881-.1-.415-.05-.881.53-.881zm-.05-.623c.15.052.1 0 .05.156-.26.104-.21 0-.05-.156zm-.37 1.815c-.05.104-.05.104-.16.052.11-.103.11-.103.16-.052zm.21.312c-.11.414-.05.311-.26.414-.21-.155-.11-.518.26-.414zm.37.881c-.32 0-.21 0-.37-.052-.05-.726 3.78-1.867.37.052zm-.21-.881c.1-.415.52-.571.94-.726.26.674 2.68-.83.95.414-.9-.051-2 .83-1.89.312zm.36-2.127c-.05-.051-.05-.103-.1-.207.31-.156.68.052.1.207zm0 .571c.32-.156 3.1-1.037.27.467-.42.155-.42-.052-.27-.467zm-2.26.259c.53-.881 2.79-2.282 1.58-.881-.79.933-.47.933-.84.726-.32 0-.95.518-.74.155zm.95 1.867c-.05-.311-.11-.207.16-.259.05.207.1.155-.16.259zm.1.259c-.15.104-.15.156-.1 0h.1zm0-.778h-.15c0-.57.37-.363.15 0zm.06-.777c0 .051 0 .051 0 0zm-.32.155c-.47.104-.79.311.11-.622.1.155-.06.518-.11.622zm-1.31.363c.16-.518.79-.83 1.05-.933-.32.57-1.16 1.296-1.05.933zm-.16.622c.32-.466.84-.57 1.31-.829.58.881-1.36 1.192-.94 1.555 1.05-.311.89-.311 1-.155-1.26.57-1.68.933-1.37-.571zm1.31.208c-.05.155-.15.155-.31.155.05-.155.21-.259.31-.155zm-1.36 1.244c.1-.259 1.26-.674 1.78-.674.85.83 1.16.415-1.52 1.763-.37.156-.21.052-.26-1.089zm0 1.401c0-.052 2.73-1.66 2.26-.986-.58.83-.84 1.141-1.05 1.712.15.311.52.155.68-.052-.26.052-.58.207-.47-.104.1-.311.89-1.815 1.63-1.919.15-.518.84-.466 1.62-.518-.26-.208-.57-.052-.89-.156 1.21-.207.26 0-.37 0 .11-.674 2.05-1.97 3-2.541 1.84-1.037-3.57 1.089-1.37 0 .32-.467 1.68-.83 2.26-1.4.26-.052.95.311 1.26.207-.26-.259-1.21-.414-1.26-.622.21-.052 1.37-.052 1.73.052.37.363.53.415 1.48 1.037.63.415.36.674 1.1 1.348 0 .208-.11.156.58 0 .26.363.94 2.904.42 2.282-1.53-1.763-2.74-5.808-1.79-1.556.37 1.764-.68-1.711-1.26-2.074-.37 0 .31 1.348.63 2.749.1.103.05.259.05.259.27.311-1.68-2.8-1.84-2.749 0 .312 2.68 3.993.06.623-.32-.363-.74-1.4.21.57 1.47 3.215-1.16-1.815-2.84.104.16.467.68-.882 2.78 1.244 1.16 1.141 1.37 1.297 1.53 1.919.15.571.42 1.711.31 2.386-.21 0-.63-2.438-.89-3.112-.32.052-.21 0 .58 3.008.31 1.244.26 2.541.05 1.867-.37-1.4-.74-4.149-1.31-4.201-.16.104-.11.83-.06.934.27-.156-.31-2.904 1.37 4.096.21.934.32-.881.16-1.815.58-.674-.11-2.644-.11-3.111.9.311 2.16 4.667-.47-3.786-.26-.777.47.052 1.21 2.956.31 1.089.26-.103.26-.207-.21-1.4-.68-3.06-.31-2.386 3.04 5.549 1.62.519 1.83.882 1.26 2.23 1.05 1.348 1.53 2.904.15.467-.11 2.282.15 2.334.22-.208.16-1.815.43-1.764.36 0 .15 1.452.15 3.06.16-.259.16-.57.21-1.296.06-.156.16-.052.27-.052.26-.208.42-.571.78-.726.69.155.11 1.452.69 2.074.26.311-.42 2.748-.84 3.526-.32-.259-.16-.674-2-3.474-.53-.83-.11-4.615-.58-4.615-.16.311.11 1.14.11 2.022.05 2.282.1 1.763-.53 1.348-.05-.466-.21-2.333-.42-1.607 0 .052-.47 2.852.05.57.11-.415.27.622.11 2.904.26.156.26.156.21.363-.16-.052-.11-.052-.26-.104-.16.571-.32.415-.32.83 0 .934.05.726-.21 1.193-1.78.155-.63.259-1.21-5.238-.05-.311 0-.518-.31-.466 0 .155.1.103.16.207.31 1.348-.16 1.245 0 1.452.26.415.21 2.437.21 3.734 0 .207-.06.363-.27.311-.05 0-.84-.156-.94-.259-.11-.519 0-2.23-.32-2.645-.21.207.05.467.11 1.4 0 .207-.11.259-.06.311.11.311.27.882-.1.83-1.1-.052-.05-.467-1.94.415-.58-.363-1.74.674-2.95 1.089-.57-.519 1.21-.934 2.42-1.815-.16-.208 0-.208-.95.259-.52-.57 1.37-.778 1.53-1.348.94-.674 1.1-1.297 1.47-1.297.26-.985.37-1.089-.05-1.659-.21-.985-.84-3.786-.95-2.8.21.259.63 1.815.58 2.178-.68-.467-.47-2.334-1.47-2.801-.16.208.05-.103.37.519.15.311.63 1.4.52 1.607-.05 0 .11.156-1.31-.674-.11-.052.05-.155.16-.259 1.26-1.348-2.95.104-3.26.363-.16.156-.32 0 .58-.726 1.15-.933 1.1-1.193-1.05.57 0 .156 0 .26-.06.467-3.52 1.763-1.99.83-2.05-.726-.57.726-.21 1.504-.63 1.971.16.155.11.57.06.778-.11.311-.37-.052-.42-.104-1.26-.259-.84.207-.16-2.074zm10.08-1.556c-.73-.467-1.36-2.074-1.1-1.763.42.518.84 1.089 1.1 1.763zm5.89 8.971c-.16.519-.42.934-.26-.415.15.104.05-.052.26.415zm-1.37-1.089c0-.052 0-1.244-.84-.83-.21-.155-.05-.363-.52-.829 0-1.193 0-1.349-.11-1.66-.47-1.452 1.63 1.763 2.31 3.267-1 2.8 0-.622-.84.052zm-.05.726c-.05-.363.37-.881.16.156-.11 0-.16-.052-.16-.156zm.11.57c-.48 2.49-.27 2.023-.95 1.556.21-.933.58-2.437.95-1.556zm-1 .727c0 .622-.27.725-.37.414.05-.155.21-.259.37-.414zm-.42-.986c-.11-.104 0-.103.05-.207.1.155.05.207-.05.207zm2.15-.415c.11.208 0 .986-.05 1.089-.42-.103-.11-.622.05-1.089zm-4.31 1.764c-.21-3.319 2.1.777 1-.363-.05 1.503.16 1.711-1 .363zm.95 1.296c-.21.726-.74-.415-.84-.778.16 0 0-.155.84.778zm.26-.726c.47-.052.63-.156.58.104-.11.985-.11.829-.16.933-.47-.207-.52-.519-.42-1.037zm.11-1.297c-.42-.466-.74-.622.1-.725 1.05-.156.32 1.192-.1.725zm-1.74-.155c-.52.156-.26-.208-.58-.363-.1.467.58.259.43 1.763-.16 0-.9-1.504-.64-1.97.32.051.53.155.85.155.36 0 .31.519.1.778-.05-.104-.1-.259-.16-.363zm.11 1.504c-.05-.311-.05-.311 0-.519.05.208.05.208 0 .519zm-5.05-1.349c-.63.208-1.15.934-1.1.156.42-.259 2-1.193 2.47-1.193-1.26 1.193-.84 1.297-1.37 1.037zm.64 1.867c-.48.156-.79-.052-.11-.311.05.104.11.208.11.311zm-.69-1.452c-.05.052-.16.104-.21.156 0-.104 0-.104.21-.156zm-.79.571c0-.156.11-.208.21-.208.06.052 0 .104-.21.208zm1.95-.104c.1-.156.16-.363.37-.57.31 1.867-.48 1.659-.63 1.4-.27-.415 0-.415.26-.83zm.63 1.815c-.05.519-.32.207-.21.052 0-.052.05-.104.21-.052zm-.05-2.593c.1.052.05-.052.21.363 0 2.593-.48.726-.21-.363zm.05 3.06c.16-.311.1-.208.21-.571 1.42-.518 1.78-.674 1.47.778-1.16.467-2.89.104-1.68-.207zm1.63.985c-.27.415-1.79.259-2.1.156-.16-.675.36-.519.73-.519 1.42-.052 1.37-.311 1.37.363zm-.79-4.408c-.32.311.31 2.593-.47.623-.42-1.089 1.2-1.608 1.73-1.245.05.311 0-.207 0 1.867 0 1.711-1.16-1.037-1.26-1.245zm.52 1.711c-.15.312-.52.208-.31-.777.1.311.21.518.31.777zm-1.1-.518c.16.052.21.155.32.726-.37.052-.32.155-.32-.726zm1.58 2.696c.42-.155.63-.155.1-.207-.16-.207.05-.415.21-.57.26-.623-.26-1.038.95.155.16.882-.11.726-.63.934-.74.259-.63.311-.63-.312zm1.31-.933c-.32-.156-.47-.415-.74-.57v-.26c-.21-.311-.15-.155-.15-1.14 0-.623.42.725.68 1.244.26.052.37 0 .21.726zm-5.99-1.556c-.05-.052-.05-.052 0 0zm-1.15-.414c-.11-.156-.06-.312 0-.467.1.155.21.363 0 .467zm.1.674c0 .051 0 .051 0 0zm4.57-7.208c.68.985-.68 1.555-1.73 2.178-.11.051-.11 0-.21-.104-1.58 1.659-1.37.881-2.68.415-.11-1.037-.21-.778 1.52-1.4.21.103.16.103.21-.052.21-.208 1.16-.415.63-.571-1.31.571-.63.623-2.89-.466-.36-.778-.73-.156-.84-.675-.05-.622-.31-.363 1.21-1.089.53.363 3.1-.829 4.78 1.764zm-2.94-2.438c.52-.311 2.42-.674 1.05.156-.32-.052-.68-.104-1.05-.156zm1.79 4.512c-.11.259-.63.363-.58.363 0-.156.52-.311.58-.363zm-.79 1.348c-.48.208-.69.571-1.16-.104.16-.207.21-.259.53-.363.05.104.1.156.21.26.1.052.26.052.42.207zm-4.05-1.763c.11-.052.63-.052.74-.052.31 0 .58-.104.37.778-1.16 0-1.26.207-1.11-.726zm1.16-.311c-1.26.052-1.16.311-1.05-1.245.26-.311.21.26 1.05.415.89.208 1.15.259 1.36.415-.21.156-.78.311-1.1.311-.1-.104-.05-1.089-.26.104zm.16 4.356c0-.208-.06-.208.15-.156l-.15.156zm0-2.8c.36-.104.84.207.84.622-.63.778-.06.155.21.155.31.312.47.415.31.519-1.78 1.245-1.42 1.4-1.36-1.296zm.52 3.215c0 .103-.1.207-.16 0 0-.052.11-.104.16 0zm-.26-.312c.05-.155.47-.518.47-.259.05.259-.26.311-.47.259zm.52.467c.21.26-.1.882-.36.311.1-.155.21-.259.36-.311zm-.05-1.192c-.52.466-.73 0 .95-.83.89.155-.63.57-.95.83zm-2.99 1.555c.05 1.245-.32.363-1.11-.933.11-.467 0-.882.16-1.348.95-.519-.16-.571.11-2.178.15-1.141-.06-1.245.31-1.349.74.571.74-1.141 1.26.726-.89 8.194-.89 2.697-1.57 3.215 0 .26.1.415.84 1.867zm-.69-6.326c.11-1.089-.05-.726.74-1.089.84-.363.68-.363.68.415-1.1.466-1.1.985-1.42.674zm1.42.622c-.21-.104.11-.207-.37-.467-.05-.311.64-.674.37.467zm-4.94-4.615c.9-2.593 1.74-3.008 2.58-3.63.52-.415-1.47 2.593-1.89 3.63-.11.207-1 .829-.69 0zm1.42 1.607c-.1-.259 0-.518.06-.778.15.312 0 .519-.06.778zm-.73.934c-.11-.208 0-.571.1-.83.06.207.11.726-.1.83zm-.11.829c-.05-.414-.05-.466.16-.622 0 .259 0 .259-.16.622zm-.21-1.711c.11.208-.31 1.919-.42 1.348-.05-.363.16-.466-.05-.829-.16-.311.16-.467.47-.519zm.79 3.423c-.05.726-.1.622-.53.933-.21.778-.15.674-.31.622-.11-2.8-1.31-2.852-.11-2.748-.05-.519-.1-.415.06-.519.1.312.05.467.36.675.85.466.53.57.53 1.037zm.11.363c0-.778.52-.934.78-.726-.21.726-.99.622 1.21-.104.11.156-.05 1.711-.1 1.919-1.84-1.037-1.89-.674-1.89-1.089zm1.26 7.674c-.48-.466-1-2.074-.37-1.866.16.207.05.414.05.57.05.363.37.415.53.674-.06.104.26 1.089-.21.622zm4.2.675c-.84-.104-.32-.623-.89-.726-.42.103-.69.674-.74 1.14-.32 0-.58.104-.84-.207.47-.467.16-.052-.11-.622-.1-.26-.36-.415-.52-.934-.21-.778-.74-.778-1-.933-.37-.467-.21-.311-.73-.571-.06-.207-.11-.259.05-.311.63-.311.58-.259.63-.207.1-.104-.16-.415-.26-.467-.37-.415-.84-.363-.9-.622 1.05-1.037-.79-3.215 1.58-1.348.1.207-.05 1.037-.11 1.14-.47-.259-.36-.362-.52-.207.37.104.16 0 .37.259.31.467.21.156.15.675-.05 1.14 0 .985.21 0 .27.207.53.622.95 1.503v.623c.58-.778 1.58 2.281.21-.571 0-.052 0-.933.26-.518.48.674.69 1.089 1.16 1.452.52.414-.63-.83-1.21-2.075.16-.415.1-1.244.37-.622 1.78 4.304 2.47 3.474 1.89 4.149zm2.78 1.089c.06.57-.37.207-1.21-.26-1.83-1.037-.99-.466-.78-2.489-.16.104-.16.208-.53.882-.1-.467-.05-.415-.1-.104-.37.156-3.37-5.082-1.47-6.534 1.2-.207.94 0 .84 3.215 0 .985-.48-1.141-.58-.57-.16.726.63 1.555.58 2.385-.06.571.15 0 .26.259.31.675.26.156.42.104.26.052.37.726.52.311 0 .104 1.32.311 2.26.208.37.207.27.57.16.829-.42.052-1.16.052-1.58.052-.73 0-1.2.156-.47.156 2.16 0 2-.156 1.95.467-.21.051-.06.103-.69-.052-.05-.052-.05-.104 0-.156-1.89.208 1.47.519 1.63.571 0 .207-.94.259-1.21.726zm1 .363c-1.15.051 2.1-.986 2.52-.934.05.156-1.68.882-2.52.934zm.58.207c.31-.207 0 .052 1.78-.726 1.69-.778-.57 1.193-1.78.726zm7.62-3.786c.84 0-1.84 1.815-3.37 2.075-.26-.052-.78-.623-.21.052-.1.103.11 0-1.1.466-.63.26-.52.156-.42-.103-.32-.363-3.41.777-3.73.726.32-.26 1.79-.778 2.1-.778.95-.104 3-1.037 2.05-.778-.21-.156-.26-.882.26-.259 0 .259-.05.207.16.103 1.21.83-.16-.363-.21-.363-.58-.363-.26-.881-.21-1.815.21.052.16.156.47.778.37.674.74.104.79 0 .47.156.47.519.58.882.21-.156-.05-.26.37-.571 0-.207.05-.155-.16-.103-.11-.104.1-1.297.1-1.452.58 0 .21.674.27.881.1 0 .1-.052.21-.467.21-.155 1.21 1.038 1.63.623-.32 0-.58-.156-.85-.363.53-1.867.48-1.815.85-1.348-.16.311-.21.207.15.57.42-.259.32.155.84.259.16.208-.57.726-.57.985zm.63-1.192c-.53-.104-.42-.467 0-.363.1.103.05.207 0 .363zm.26-.104c-.11-.104-.16-.311 0-.363.05.104.05.207 0 .363zm.52-3.526c0 .207-.36 1.141-.47 1.296-.16 1.297.53-4.356.47-1.296zm-5.3-3.682c-.05-.519.16-.415.16-.311.15.415.26 6.845-.16.311zm-9.88-.933c.06 0 .06 0 0 0zm.16-.052c-.05.052-.05.052-.1.052.05 0 .05-.052.1-.052zm9.46-4.304s-.06.051 0 0zm-8.83 3.889c-.05 0-.05 0 0 0 0-.052 0-.052 0 0zm-.37.207c0 .052 0 .052 0 0 .06 0 .06 0 0 0zm-.21.208c-.05 0-.05 0 0 0 0-.052 0-.052 0 0zm-1.84 1.037c-.05.052-.05.052 0 0zm1.74 9.438c-.11-.104.1.103.16.155.05.052 0 0-.16-.155zm13.24-1.089c.05 0 .05 0 0 0zm-9.09 2.022c0-.052.05-.052 0 0zm-8.99-9.697s0 .052 0 0zm14.92 5.964c-.05-.052-.05-.052 0 0z" fill="#fff"/></svg>