<svg width="226" height="51" fill="none" xmlns="http://www.w3.org/2000/svg"><g clip-path="url(#clip0)"><path d="M225.555.121H0v49.994h225.555V.121z" fill="#fff"/><path d="M45.2.644l-.53-.523H.529v1.134h44.143l-.53-.61H45.2V.12h-.528" fill="#C40809"/><path d="M44.67 50.115l.53-.523V.645h-1.06v48.947l.53-.61v1.133h.53v-.523" fill="#C40809"/><path d="M0 49.592l.528.523h44.143v-1.133H.528l.617.61H0v.523h.528" fill="#C40809"/><path d="M.528.121L0 .644v48.948h1.145V.644l-.617.61V.122H0v.523m3.436 46.068H20V26.122H3.436m0-2.094H20V3.437H3.436" fill="#C40809"/><path fill-rule="evenodd" clip-rule="evenodd" d="M22.203 3.437H41.94l-19.736 20.59V3.438zm0 22.685l19.736 20.59H22.203v-20.59zm34.186-3.229H56.3V10.066h-8.106v30.975H56.3V27.605h.088L66.962 41.04h10.485l-13.57-16.229 12.511-14.746H66.256L56.39 22.893zm31.1 3.49h.794l.176.088.265.087h.265l.176.087.263.087.177.088.264.087.177.174.176.087.177.175.176.087.175.175.088.175.177.087.176.174.176.35.177.26.263.524v.262l.09.174.087.262v.174l.088.263v1.396l-.088.174v.262l-.087.174-.09.263v.174l-.088.174-.087.262-.088.174-.177.175-.176.348-.176.176-.177.087-.088.174-.175.175-.176.087-.177.174-.176.087-.177.089-.264.087-.177.087-.263.087-.176.087-.265.087h-.265l-.176.088h-1.585l-.265-.088h-.264l-.265-.087-.175-.087-.265-.087-.176-.087-.265-.087-.351-.176-.177-.174-.176-.087-.176-.175-.09-.174-.175-.087-.175-.176-.178-.348-.175-.175-.088-.174-.088-.262-.177-.348v-.263l-.088-.174v-.262l-.088-.174V30.31l.088-.263v-.174l.088-.262v-.174l.088-.262.265-.524.175-.26.178-.35.175-.174.176-.087.09-.175.175-.175.176-.087.177-.175.175-.087.176-.174.265-.087.176-.088.265-.087.175-.087h.265l.529-.174h.792zM99.033 20.8h-7.225v2.007l-.088-.174-.44-.437-1.057-.785-.44-.261-.354-.176-.439-.174-.44-.174-.353-.088-.441-.087-.881-.174-.441-.087h-2.026l-.529.087-.528.087-.529.174-.44.088-.529.174-.44.263-.441.174-1.322.784-.353.35-.44.262-.705.697-.263.436-.353.35-1.057 1.745-.177.435-.176.525-.176.437-.353 1.046-.087.435-.09.525v.61l-.088.524v1.047l.088.523v.523l.177 1.048.353 1.047.176.437.176.523.177.436 1.057 1.744.353.35.35.436.707.699.35.26.442.35.352.261.882.524.528.262.44.174.53.176.44.087.529.173.528.087.529.089h2.026l.44-.089.441-.087.44-.087.441-.087.441-.173.353-.176h.263l.178-.174.35-.175.178-.087.264-.174.265-.263.175-.087.529-.523.088-.174.177-.087.088-.262.087-.174h.088v2.267h7.225V20.799zm3.438 0v12.826l.087.524v.61l.088.523.176.524.088.436.177.524.263.436.178.35.263.436.794 1.047 1.762 1.309 1.761.697.441.089.529.173.44.087.529.087.528.087h.529l.53.089h3.348l.528-.089h.529l.528-.087.529-.087.528-.087.441-.173.441-.089.528-.174.441-.174.353-.175.44-.174.352-.263.44-.26.353-.263.264-.261.352-.262.353-.35.529-.697.175-.437.266-.349.175-.436.177-.524.088-.436.176-.523.088-.524.089-.61V20.8h-7.225v11.78l-.089.436-.088.348v.436l-.353.7-.088.086-.175.35-.088.087-.088.174-.353.174-.088.175-.177.087-.175.087h-.176l-.177.087-.264.087h-.177l-.263.088h-1.587l-.176-.088h-.264l-.177-.087-.175-.087h-.265l-.088-.087-.176-.087-.177-.175-.176-.087-.353-.348-.175-.35-.088-.087-.265-.523V33.8l-.088-.174v-.262l-.088-.348-.088-.436V20.8h-7.224zm32.951 5.933h5.022V20.8h-5.022v-4.014l.088-.348v-.35l.088-.349.177-.26v-.09l.088-.173.088-.087v-.174l.265-.263.087-.087.088-.087h.176l.177-.175h.176l.088-.087h.177l.088-.087h1.322l.351.087.265.087.353.087.263.175.353.087.264.174V8.67l-.705-.348-.352-.088-.441-.174h-.351l-.353-.087h-1.851l-.528.087-.529.087-.44.087-.529.175-.881.35-.441.26-.441.176-.44.348-.441.263-.351.26-.441.35-.528.523-.178.263-.352.348-.088.262-.176.174-.176.262-.177.35-.175.26-.178.35-.087.263-.088.174-.088.436-.176.436-.089.437v.435l-.176.872V20.8h-2.554v5.933h2.554V41.04h7.225V26.73zm6.168 14.309h7.225V8.322h-7.225v32.719zm21.322-14.657h.793l.264.087.265.087h.175l.265.087.176.087.265.088.176.087.175.174.265.087.088.175.176.087.353.35.177.087.088.174.175.175.088.174.088.261.265.524.088.262.088.174.089.262v.437l.088.174v.96l-.088.262v.436l-.089.174-.088.263-.176.348-.088.262-.265.523-.175.174-.088.176-.177.087-.353.35-.176.086-.088.174-.265.087-.351.176-.265.087-.176.087-.265.087-.175.087h-.265l-.264.088h-1.587l-.263-.088h-.178l-.263-.087-.265-.087-.176-.087-.175-.087-.265-.087-.176-.089-.177-.087-.176-.174-.176-.087-.352-.35-.088-.086-.177-.176-.088-.174-.176-.174-.177-.349-.088-.262-.176-.348-.087-.263v-.174l-.09-.262v-.436l-.088-.261v-.437l.088-.262v-.437l.09-.174v-.262l.087-.174.088-.262.265-.524.088-.26.176-.175.088-.175.177-.174.088-.087.352-.35.176-.087.176-.175.177-.087.176-.174.265-.087.351-.175.265-.087h.263l.178-.087.263-.087h.794zm11.63-5.585h-7.225v2.007l-.176-.174-.088-.176-.177-.174-.176-.087-.352-.262-.264-.261-.441-.262-.352-.261-.353-.176-.882-.348-.44-.088-.352-.087-.44-.087-.441-.087-.528-.087h-1.939l-.528.087-.529.087-.53.174-.528.088-.439.174-.441.263-.53.174-.88.523-.353.26-.44.35-.353.263-.704.697-.353.436-.264.35-.353.436-.528.873-.177.436-.264.435-.177.525-.176.437-.087.523-.176.523-.089.435-.088.525-.088.61v2.094l.265 1.572.176.523.087.523.176.437.177.523 1.322 2.18.352.35.265.436.704.699.44.26.353.35 1.763 1.047.528.174.441.176.529.087.528.173.529.087.528.089h2.026l.441-.089.441-.087.881-.173.353-.175.44-.175h.176l.264-.174.53-.262.175-.174.176-.087.177-.176.176-.087.175-.174.09-.175.439-.435.177-.262.088-.174h.088v2.267h7.225V20.799zm10.75 0h-7.227v20.242h7.227V30.047l.088-.436v-.436l.087-.437.088-.174v-.174l.088-.262.529-1.047.177-.087.088-.174.263-.262.177-.087.176-.087.176-.176.177-.087h.263l.177-.087.264-.087h.177l.264-.087h1.146l.528.174.264.087.265.087.176.087.177.089.351.348.088.175.177.174.353.699v.26l.088.176v.261l.088.174.087.437V41.04h7.225V27.605l-.088-.437v-.436l-.087-.348-.178-.873-.087-.35-.088-.436-.176-.35-.089-.347-.176-.35-.176-.262-.177-.348-.263-.262-.178-.35-.528-.523-.263-.174-.266-.262-.351-.174-.265-.174-.704-.35-.441-.174-.352-.088-.353-.087-.441-.087-.441-.087-.528-.087h-2.026l-.441.087-.441.087-.528.087-.441.087-.353.175-.263.087-.177.087-.176.087-.176.089-.265.087-.175.174-.177.087-.352.349-.177.087-.528.523-.176.263-.176.174-.089.174-.176.262-.175.174h-.088V20.8zm33.039 20.242h7.225V8.322h-7.225v14.484l-.088-.174-.353-.35-.175-.087-.265-.262-.352-.261-.44-.262-.353-.261-.353-.176-.441-.174-.44-.174-.441-.088-.441-.087-.879-.174-.353-.087h-2.026l-.529.087-.528.087-.53.174-.529.088-.441.174-.528.263-.441.174-.879.523-.353.26-.441.35-.353.263-.704.697-.353.436-.265.35-.351.436-.529.873-.177.436-.263.435-.177.525-.176.437-.088.523-.177.523-.088.435-.088.525-.088.61v2.094l.264 1.572.177.523.088.523.176.437.177.523.528.873.176.435.353.436.263.436.353.35.265.436.704.699.441.26.353.35 1.761 1.047.53.174.439.176.53.087.528.173.529.087.528.089h2.027l.44-.089.441-.087.441-.087.44-.087.352-.173.44-.176h.177l.264-.174.528-.262.178-.174.175-.087.177-.176.176-.087.176-.174.088-.175.177-.174.263-.261.177-.262.088-.174h.088v2.267zm-4.405-14.657h.793l.529.174h.176l.265.087.175.087.264.088.177.087.176.174.177.087.175.175.176.087.353.35.176.087.089.174.176.175.087.174.088.261.265.524.088.262.088.174v.262l.088.174v.263l.089.174v.96l-.089.262v.174l-.088.262v.174l-.088.263-.176.348-.089.262-.263.523-.176.174-.089.176-.176.087-.353.35-.176.086-.175.174-.53.263-.264.087-.175.087-.265.087-.176.087h-.265l-.264.088h-1.587l-.263-.088h-.177l-.264-.087-.265-.087-.175-.087-.265-.087-.529-.263-.176-.174-.177-.087-.616-.612-.088-.174-.176-.174-.177-.349-.088-.262-.175-.348-.088-.263v-.174l-.089-.262v-.436l-.088-.261v-.437l.088-.262v-.437l.089-.174v-.262l.088-.174.088-.262.265-.524.087-.26.176-.175.088-.175.616-.61.177-.088.176-.175.177-.087.176-.174.176-.087.265-.088.175-.087.265-.087h.264l.177-.087.263-.087h.794z" fill="#C40809"/><path d="M48.195 50.115h177.184V45.58H48.195" fill="#C40809"/></g><defs><clipPath id="clip0"><path fill="#fff" transform="translate(0 .121)" d="M0 0h225.555v49.994H0z"/></clipPath></defs></svg>