<svg width="293" height="47" fill="none" xmlns="http://www.w3.org/2000/svg"><path d="M.136 1.048l233.893-.003v44.88L.136 45.928V1.047z" fill="#EC1B24"/><path d="M166.402 9.117c2.013 0 3.261.745 5.143 3.158l13.996 20.107c.744 1.053.671 2.73-.612 3.82-1.138.964-3.151 1.053-4.242-.395l-3.349-4.654h-22.044l-3.345 4.74c-1.18 1.406-2.624 1.406-3.935.528-1.363-.912-1.707-2.677-.874-3.908l14.126-20.238c1.793-2.502 3.212-3.158 5.136-3.158zm.837 7.441c-.369-.543-.506-.594-.899-.594-.439 0-.612.22-.91.621-.482.645-6.093 8.95-6.157 8.95h14.172c-.026 0-5.424-7.814-6.206-8.977zM70.94 9.15h20.162c5.001 0 5.46 5.78 5.46 5.78H71.758c-1.228 0-2.368.932-2.368 2.551 0 1.848 1.398 2.726 2.28 2.726H89.2c3.473 0 8.415 2.903 8.415 7.918 0 6.51-5.741 8.824-7.74 8.824H69.362c-6.096 0-5.758-5.834-5.758-5.834h25.42c1.016 0 2.514-1.011 2.514-2.524 0-1.444-1.314-2.55-2.28-2.55h-17.18c-4.873 0-8.648-3.634-8.648-8.56 0-5.543 4.739-8.33 7.509-8.33zm129.232-.037h20.82c3.155 0 8.049 2.588 8.049 8.779v.394c0 3.296-2.057 6.19-4.942 7.595 0 0 .207.317 4.679 6.408.579.787.612 2.68-.656 3.82-1.209 1.088-3.226 1.226-4.242.044-1.421-1.65-3.062-3.82-7.567-9.569h-8.136c-2.318 0-5.466-1.845-5.466-5.927h17.581c.955-.04 2.486-.958 2.486-2.761 0-1.668-1.472-2.81-2.495-2.81h-19.419l.015 18.478c.003 2.019-1.537 3.378-3.199 3.378-1.575 0-3.148-1.404-3.148-3.291V14.82c0-3.163 3.323-5.707 5.64-5.707zm-85.809.047h20.82c3.155 0 8.048 2.59 8.048 8.778v.395c0 3.298-2.054 6.19-4.942 7.594 0 0-1.493.484-2.892.661h-13.079c-2.317 0-5.291-1.887-5.291-5.97h17.407c.954-.04 2.534-.872 2.534-2.675 0-1.669-1.471-2.81-2.494-2.81l-19.415-.003.011 18.48c.002 2.02-1.538 3.379-3.199 3.379-1.575 0-3.148-1.404-3.148-3.292v-18.83c0-3.164 3.322-5.708 5.64-5.708z" fill="#fff"/><path d="M245.177 24.09c0 8.614 4.319 16.326 11.928 20.099 7.151 3.546 16.679 3.546 23.853 0 7.074-3.498 11.905-11.485 11.905-20.098 0-13.173-10.496-23.94-23.844-23.94-13.408 0-23.842 10.683-23.842 23.94z" fill="#157946"/><path d="M269.033 6.357c-2.4 8.17-9.551 20.14-14.767 26.01h12.367l.029 3.557c-.029 2.016-1.626 4.11-3.95 4.081-3.23-.038-7.269-1.537-9.71-5.696-1.778-3.034-3.068-5.425-3.068-10.218 0-10.472 8.401-19.149 19.088-19.149 10.569 0 19.087 8.93 19.087 19.149 0 4.793-2.229 8.938-2.964 10.134-2.609 4.243-6.584 5.742-9.659 5.78-2.121.027-4.076-1.537-4.076-4.092v-3.547h12.557c-5.406-5.869-12.557-17.84-14.934-26.009z" fill="#fff"/></svg>