<svg width="357" height="120" fill="none" xmlns="http://www.w3.org/2000/svg"><path d="M139.344 45.647v-1.853c.328 0 .656 0 .82-.169.328 0 .492-.168.656-.337.164-.168.328-.337.328-.674.164-.337.164-.842.164-1.347V27.62h-2.132v-2.19h7.873v1.853c-.328 0-.656 0-.82.168-.164 0-.492.169-.656.337-.164.169-.329.337-.329.674-.164.337-.164.843-.164 1.348v13.478h3.773c1.148 0 1.968-.337 2.624-1.18.656-.841.984-2.02.984-3.537h1.805l-.164 6.739h-14.762v.337zm24.111-9.267v7.415h3.772c.328 0 .82 0 1.148-.169.328-.168.82-.337 1.148-.674.328-.337.492-.674.82-1.348a6.43 6.43 0 00.329-2.021h1.804l-.164 6.233h-14.598v-1.853c.328 0 .656 0 .82-.168.328 0 .492-.169.656-.337.164-.169.328-.337.328-.674.164-.337.164-.843.164-1.348V27.789h-2.132v-2.19h13.778l.164 5.56h-1.805c0-.842-.164-1.348-.328-1.853-.164-.506-.492-.843-.82-1.18-.328-.337-.656-.505-1.148-.505-.328-.169-.82-.169-1.148-.169h-.984c-.328 0-.492 0-.82.169-.164 0-.492.168-.656.337-.164.168-.328.337-.328.674-.164.337-.164.842-.164 1.348v4.212h3.28l-.164-2.528h2.132v6.908h-1.804c0-.674 0-1.01-.164-1.348-.164-.337-.328-.674-.656-.842a1.235 1.235 0 00-.82-.337h-.984l-.656.337zm19.846 7.582c.492 0 .984 0 1.312-.168.328-.169.82-.337.984-.506.328-.168.492-.505.656-.842.164-.337.164-.674.164-1.011 0-.505-.164-1.01-.328-1.348l-.984-1.01c-.492-.338-.984-.506-1.476-.674-.492-.169-.984-.506-1.64-.674-.82-.337-1.641-.843-2.461-1.18-.82-.505-1.476-.842-1.968-1.516a7.475 7.475 0 01-1.312-1.853c-.328-.674-.492-1.517-.492-2.527 0-.337 0-.843.164-1.18.164-.337.164-.842.492-1.18.164-.336.492-.841.82-1.178.328-.337.82-.674 1.148-1.011.492-.337.984-.506 1.64-.674.657-.169 1.313-.169 2.133-.169.328 0 .82 0 1.148.169.492 0 .82.168 1.312.337.492.168.82.168 1.148.505.328.169.656.337.984.674l-.164-1.18h2.133v6.571h-1.805c-.328-1.685-.82-2.864-1.64-3.538-.82-.842-1.804-1.179-3.116-1.179-.328 0-.82 0-1.148.168l-.985.506c-.328.168-.492.505-.656.842-.164.337-.164.674-.164 1.011 0 .506.164.843.328 1.18.164.336.492.673.82 1.01a3.57 3.57 0 001.313.843c.492.337 1.148.505 1.968.842.492.169.984.337 1.476.674.492.169.984.505 1.476.842.492.337.984.674 1.312 1.011.493.337.821.674 1.149 1.18.328.505.492.842.82 1.347.164.506.328 1.011.328 1.685 0 .842-.164 1.685-.492 2.359-.328.674-.82 1.348-1.477 1.853-.656.505-1.312.842-2.296 1.18-.82.336-1.804.505-2.952.505-.328 0-.82 0-1.148-.169-.328 0-.82-.168-1.313-.337-.492-.168-.82-.337-1.312-.505-.492-.169-.82-.337-1.148-.674l.164 1.18h-2.132v-6.571h1.804c.164.842.328 1.516.656 2.021.328.674.656 1.18 1.148 1.517.492.337.985.674 1.477.842h2.132zm-1.804-20.217l-.985-1.348 3.117-3.37c.164-.168.492-.336.656-.505.328-.168.492-.168.82-.168.164 0 .328 0 .492.168.164 0 .328.169.492.337.164.169.164.337.328.506.164.168.164.337.164.505 0 .337-.164.674-.328 1.01-.164.338-.492.506-.82.675l-3.936 2.19zm28.704 22.239h-2.296l-8.858-11.625c-.492-.674-.984-1.348-1.476-2.19v11.456h2.132v2.19h-6.232v-1.853c.328 0 .656 0 .82-.168.328 0 .492-.169.656-.337.164-.169.328-.337.328-.674.164-.337.164-.843.164-1.348V27.788h-2.132v-2.19h4.1l8.529 10.951c.492.674.82 1.18 1.148 1.517.328.505.493.842.821 1.179V27.451h-2.133v-2.19h6.397v1.854c-.328 0-.656 0-.82.168-.164 0-.492.168-.656.337-.164.168-.328.337-.328.674-.164.337-.164.842-.164 1.348v16.342zm11.645-5.054v2.695h2.132v2.19h-7.873v-1.853c.328 0 .657 0 .821-.168.328 0 .492-.169.656-.337.164-.169.328-.337.328-.674s.164-.843.164-1.348V27.788h-2.133v-2.19h7.873v1.854c-.328 0-.656 0-.82.168-.164 0-.492.168-.656.337-.164.168-.328.337-.328.674-.164.337-.164.842-.164 1.348v10.95zm9.841-5.56c0 1.18.164 2.359.328 3.37.328 1.01.657 1.853 1.149 2.695.492.674 1.148 1.348 1.804 1.685.656.337 1.476.674 2.46.674.656 0 1.148 0 1.804-.169.656-.168 1.149-.337 1.641-.674s1.148-.674 1.64-1.179.984-.842 1.312-1.516l1.312 1.18c-.656 1.01-1.312 1.684-2.132 2.358-.82.674-1.476 1.01-2.132 1.348-.656.336-1.477.505-2.133.673-.656.169-1.312.169-1.804.169A9.684 9.684 0 01233 45.14c-1.149-.505-2.133-1.179-2.953-2.19-.82-1.01-1.476-2.021-1.968-3.2-.492-1.18-.656-2.528-.656-4.044 0-.843.164-1.685.328-2.527.164-.843.492-1.685.82-2.527.328-.843.82-1.517 1.312-2.19a9.533 9.533 0 011.804-1.854c.656-.505 1.477-.842 2.461-1.18.82-.336 1.804-.505 2.952-.505.328 0 .82 0 1.148.169.328 0 .82.168 1.148.337.492.168.821.337 1.149.505.328.169.82.337 1.148.674v-1.18h2.132V32h-1.804c-.328-1.516-.82-2.695-1.476-3.538-.821-.842-1.805-1.179-3.117-1.179-.984 0-1.804.168-2.46.674-.656.505-1.312 1.01-1.804 1.853-.492.674-.821 1.685-.985 2.527-.492 1.011-.492 2.022-.492 3.033zm22.636 4.886c-.328.674-.82 1.179-1.148 1.684-.329.506-.821 1.18-1.149 1.517l5.085.168c.492 0 .984 0 1.476-.168.492-.169.82-.337 1.148-.674.328-.337.492-.843.656-1.348a6.44 6.44 0 00.328-2.022h1.805l-.164 6.065h-14.27v-2.021l8.201-12.973.984-1.516c.328-.506.656-.843.984-1.348l-4.756-.169c-.493 0-.985 0-1.477.169-.492.168-.82.337-1.148.674-.328.337-.492.842-.656 1.348-.328.674-.328 1.348-.328 2.19h-1.804l.164-6.065h14.106v2.19l-8.037 12.299zm11.481-4.549c0-.843.164-1.685.328-2.359.164-.842.492-1.685.82-2.358.328-.843.82-1.517 1.312-2.19a9.53 9.53 0 011.804-1.854c.656-.505 1.476-.842 2.461-1.18a9.064 9.064 0 012.952-.505c1.148 0 2.132.169 3.116.506.985.337 1.805.674 2.461 1.18a9.53 9.53 0 011.804 1.852c.492.674.984 1.348 1.312 2.19.328.843.656 1.517.82 2.36.164.842.164 1.684.164 2.358 0 .842-.164 1.516-.328 2.358-.164.843-.492 1.685-.82 2.36-.328.842-.82 1.516-1.312 2.19a9.53 9.53 0 01-1.804 1.853c-.656.505-1.477.842-2.461 1.179-.82.337-1.968.505-2.952.505-1.148 0-2.296-.168-3.116-.505-.985-.337-1.805-.674-2.461-1.18-.656-.505-1.312-1.01-1.804-1.684-.492-.674-.984-1.348-1.312-2.19-.328-.843-.492-1.517-.656-2.359-.328-.842-.328-1.685-.328-2.527zm4.264-.337c0 .674 0 1.18.164 1.853 0 .674.164 1.348.328 2.022.164.674.492 1.18.656 1.853l.985 1.516c.328.506.82.843 1.476 1.011.492.337 1.148.337 1.804.337.656 0 1.148-.168 1.64-.337a3.557 3.557 0 001.312-.842c.328-.337.656-.843.984-1.348.329-.505.493-1.01.657-1.685.164-.505.328-1.18.328-1.853 0-.674.164-1.18.164-1.853 0-1.348-.164-2.527-.328-3.538-.164-1.011-.492-2.022-.985-2.864-.492-.843-.984-1.348-1.64-1.854-.656-.505-1.476-.674-2.46-.674-.656 0-1.312.169-1.804.337a2.558 2.558 0 00-1.312 1.011c-.329.337-.657.843-.985 1.348-.328.506-.492 1.011-.656 1.685-.164.674-.328 1.18-.328 1.853.164.843 0 1.348 0 2.022zm4.757-11.625l-.984-1.348 3.116-3.37c.164-.168.492-.336.656-.505.328-.168.492-.168.82-.168.164 0 .328 0 .492.168.164 0 .328.169.492.337.165.169.165.337.329.506 0 .168.164.337.164.505 0 .337-.164.674-.328 1.01-.165.338-.493.506-.821.675l-3.936 2.19zm28.212 2.022l3.116 10.445.493 2.022.492 2.022c.164-.674.328-1.348.492-1.854l.492-2.021 1.476-5.897c.164-.505.328-.842.492-1.348.164-.505.328-.842.656-1.18l-2.132.17v-2.19h6.233v1.852c-.328 0-.656 0-.82.169-.329.168-.493.337-.821.505-.328.169-.492.506-.656.843-.164.337-.328.842-.656 1.348l-4.592 15.162h-2.461l-3.28-10.108c-.164-.674-.492-1.517-.656-2.19l-.492-2.022c-.164.674-.164 1.348-.328 1.853-.164.674-.328 1.18-.492 1.853l-3.117 10.614h-2.46l-4.921-15.33c.328-.17.164-.506.164-.675-.164-.168-.164-.505-.328-.674 0-.168-.164-.505-.164-.674v-.505h-1.476v-2.19h8.201v1.853h-.164c-.492 0-.82.168-1.148.337-.328.168-.492.505-.492 1.01v.338c0 .168 0 .337.164.505l1.64 6.57c0 .338.164.675.164.843 0 .337.164.505.164.843 0 .336.164.673.164 1.01 0 .337.164.843.164 1.18 0-.169.164-.337.164-.674s.164-.674.328-1.011c.164-.337.164-.843.328-1.18.164-.336.164-.842.328-1.179.164-.337.164-.674.328-1.01 0-.338.164-.506.164-.674l2.625-8.761h2.624zm20.667 8.592h1.968l2.132-3.706c.164-.337.328-.506.492-.843.164-.337.328-.505.492-.842.164-.337.328-.506.492-.674l.492-.506-1.804.169v-2.19h6.725v1.853c-.328 0-.656 0-.984.168-.328 0-.656.169-.984.337-.328.169-.656.506-1.148.843-.328.337-.82.842-1.148 1.516l-2.625 4.38c.328.169.656.506.984.674l.82.843 2.789 4.043c.328.337.492.843.82 1.18l.984 1.01c.328.337.656.506.984.674.328.169.656.337.984.337v1.853h-4.264c-.164 0-.328-.168-.492-.337l-.656-.673c-.328-.337-.492-.674-.821-1.011-.328-.337-.492-.674-.656-.843l-2.788-4.043c-.164-.168-.328-.337-.328-.505l-.492-.506-.492-.505-.328-.337h-.984v6.907H326v2.19h-7.873v-1.853c.328 0 .656 0 .82-.168.164-.169.492-.169.656-.337.164-.169.328-.337.328-.674.164-.337.164-.843.164-1.348V27.788h-2.132v-2.19h7.873v1.854c-.328 0-.656 0-.82.168-.164 0-.492.168-.656.337-.164.168-.328.337-.328.674-.164.337-.164.842-.164 1.348v4.38h-.164zm25.095 5.391l-6.069.169-.492 1.348c0 .168-.164.336-.164.505 0 .168-.164.337-.164.674-.164.168-.164.505-.328.674-.164.168-.164.337-.164.505l1.968-.168v2.358h-5.905v-2.021c.328 0 .657-.169.985-.337.328-.169.492-.337.656-.674l.492-1.011c.164-.337.328-.842.492-1.18l5.412-15.162h1.969l5.905 15.5c0 .168.164.337.164.505 0 .168.164.505.164.674 0 .337.164.505.164.842 0 .337.164.506.164.674h1.64v2.19h-7.381v-1.853c.492 0 .82-.168.984-.337.164-.168.328-.505.328-.842v-.674c0-.169-.164-.506-.164-.843l-.656-1.516zm-5.249-2.022h4.593l-1.312-3.538c-.164-.673-.492-1.347-.656-2.021-.164-.674-.328-1.348-.492-1.853 0 .337-.165.842-.329 1.516s-.328 1.348-.656 2.358l-1.148 3.538zM255.963 95.01c0-2.021-2.624-3.874-3.116-4.211-.656-.337-2.133-1.18-4.265-1.348-.656 0-1.312 0-1.968.168-1.476.337-2.46.674-5.249 2.527-2.788 1.854-3.936 2.864-4.1 3.707v1.853c0 .337.164.674.492 1.011.328.337.82.505 1.64.505 1.148 0 2.624-.337 3.936-.505 1.149-.168 2.133-.505 2.789-.337 1.64 0 2.952.505 3.936 1.01.82.338 1.477.675 2.297.675.656 0 1.312-.169 1.968-.674.984-.674 1.64-1.516 1.64-2.359V95.01c0 .169 0 .169 0 0-.164.169 0 .169 0 0zm-14.434-2.695c2.625-1.853 3.773-2.19 5.085-2.527.656-.169 1.312-.169 1.804-.169 2.132 0 3.609 1.011 4.265 1.348.492.337 2.952 2.022 3.116 4.043v.843c0 .168-.164.337-.164.337s0 .168-.164.168c-.164.169-.164.337-.328.506l-.164.168c-.164.169-.492.337-.656.506a3.096 3.096 0 01-1.968.674c-.656 0-1.477-.337-2.133-.674-.82-.337-1.64-.674-2.788-.843-.328 0-.82-.168-1.148-.168-.656 0-1.64.168-2.789.337-.984.168-2.132.505-2.952.505h-.82c-.656 0-1.148-.168-1.476-.505-.164-.169-.328-.337-.328-.506v-.505c-.328-.674.82-1.685 3.608-3.538z" fill="#fff"/><path d="M245.958 96.527c3.608.168 5.084 2.527 7.381.842 3.444-2.359.164-5.223-1.313-6.065-1.148-.674-3.28-1.516-5.576-1.01-1.313.336-2.133.673-4.593 2.358-3.444 2.358-4.429 3.032-3.28 4.38 1.148 1.18 5.74-.674 7.381-.505zm3.772-4.549c.984 0 1.64.337 1.64.842 0 .506-.656 1.011-1.64 1.18-.984 0-1.64-.337-1.64-.843 0-.674.656-1.01 1.64-1.179zm-5.413-24.766c1.148-.505 2.296-1.011 3.444-1.853.329.168.821.337 1.313.505.984 1.18 2.46 1.348 3.772.674.164 0 .164-.168 0-.168-.82-1.18-2.624-2.36-3.936-1.011v.168c-.328 0-.82-.168-1.149-.337 1.477-1.01 2.625-2.358 3.773-3.875.328.169.82 0 .984 0 1.64.506 3.445-.337 4.429-1.853 0-.169 0-.169-.164-.169a4.28 4.28 0 00-4.429 1.854h-.82c.164-.169.164-.337.328-.506h.164v-.168c.656-1.011 1.148-1.853 1.476-2.864 1.312-1.011 1.804-3.033 1.148-4.55 0 0-.164-.168-.164 0-.82 1.349-1.312 2.697-1.148 4.381-.328.843-.82 1.685-1.312 2.527v-.505c.656-.337.656-1.685.656-2.19 0-.506 0-2.022-.656-2.19-.656-.169-.82 1.347-.82 1.684 0 1.011.164 1.854.656 2.696 0 .337 0 .674.164.842l-1.476 2.022c-.328.505-.82.843-1.148 1.18v-.843c.82-.505 1.148-1.516 1.148-2.359 0-.337.164-2.19-.492-2.358-.492-.169-1.148 1.348-1.312 1.853-.328 1.01-.328 2.022.164 2.864 0 .169.164.169.164.169 0 .337 0 .505.164.842-1.477 1.348-3.117 2.358-4.921 3.538-.164-.169 0 0 0 0zm4.757-4.886c-.328-1.18-.164-2.696.656-3.706.492-.506.328 0 .328.505v1.348c0 .674-.328 1.516-.82 2.022 0-.843.164-1.517.492-2.36 0-.168-.164-.168-.164 0-.328.506-.492 1.349-.492 2.191zm2.46-4.886c0-.505-.164-1.18.164-1.684 0-.337.328-.337.656-.169 0 .168.164.337.164.505 0 .337.164.506.164.843 0 .505 0 1.685-.328 2.19 0-.674 0-1.18.164-1.853 0-.169-.164-.169-.164 0-.164.505-.164 1.01-.164 1.516-.492-.505-.656-1.01-.656-1.348zm2.788-2.19c-.164.505-.328 1.18-.656 1.685 0-1.348.328-2.527.984-3.538.328 1.348 0 2.864-.82 3.875.328-.674.492-1.348.492-2.022.164 0 0 0 0 0zm.656 4.886c-.492.337-.984.674-1.476.842h-.492c.984-1.18 2.296-1.684 3.773-1.516-.82 1.01-1.969 1.685-3.281 1.685.656-.169 1.148-.506 1.64-1.011.164.168 0 0-.164 0zm-5.576 5.728c.656 0 1.312 0 1.804-.337.164 0 0-.168-.164-.168-.656.168-1.148.337-1.804.168 1.148-1.01 2.624-.168 3.28.843-.984.505-2.296.337-3.116-.506z" fill="#fff"/><path d="M250.55 66.875c-1.805-1.01-3.445-2.022-4.921-3.37 0-.337.164-.505.164-.842 0 0 .164 0 .164-.168.492-1.011.492-2.022.164-2.864-.164-.337-.82-1.854-1.312-1.854-.492.169-.492 1.853-.492 2.19 0 1.011.328 2.022 1.148 2.36v.842l-1.148-1.18c-.492-.674-1.148-1.348-1.476-2.022 0-.337.164-.505.164-.842.492-.842.656-1.685.656-2.696 0-.337-.164-1.853-.82-1.684-.657.168-.657 1.684-.657 2.19 0 .674 0 1.853.657 2.19v.505c-.493-.842-.985-1.684-1.313-2.527.164-1.516-.328-3.032-1.148-4.38h-.164c-.656 1.516-.164 3.538 1.148 4.549.328 1.01.984 2.022 1.477 2.864v.168s0 .169.164 0c.164.169.164.337.328.506h-.82a4.282 4.282 0 00-4.429-1.853c-.164 0-.164.168-.164.168a3.841 3.841 0 004.428 1.853h.985a13.957 13.957 0 003.772 3.875c-.328.169-.82.337-1.148.337 0 0 .164-.168 0-.168-1.148-1.348-3.116-.169-3.937 1.01v.17c1.313.673 2.789.336 3.773-.675.492-.168.82-.337 1.312-.505 1.148.842 2.296 1.516 3.445 1.853.164 0 0 .168 0 0zm-5.249-7.076c0-.169-.328 0-.164 0 .164.842.328 1.516.492 2.359a2.828 2.828 0 01-.82-2.022v-1.348c0-.505 0-1.01.328-.505.82 1.01 1.148 2.358.656 3.706 0-.674-.164-1.516-.492-2.19zm-2.296-1.348c0-.505 0-1.01-.164-1.516 0-.169-.164 0-.164 0 0 .674.164 1.18.164 1.853-.493-.505-.328-1.516-.328-2.19 0-.337 0-.505.164-.843 0-.168 0-.336.164-.505.492-.168.656-.168.656.169.164.337.164 1.179.164 1.516-.328.674-.492 1.18-.656 1.516zm-2.625-3.37l.492 2.022c-.82-1.179-1.312-2.527-.82-3.875.656 1.011.984 2.36.984 3.538-.164-.673-.328-1.179-.656-1.684.164 0 0 0 0 0zm-.656 5.055c.492.505.984.842 1.64 1.01-1.312 0-2.46-.673-3.28-1.684 1.476-.169 2.788.337 3.772 1.516h-.492c-.492-.168-.984-.505-1.476-.842-.164-.337-.328-.169-.164 0zm2.46 6.065c.821-1.01 2.297-1.853 3.281-.842-.656 0-1.148 0-1.804-.169-.164 0-.164.169-.164.169a2.23 2.23 0 001.804.337c-.656.674-1.968 1.01-3.117.505zm-28.867-4.043h-74.466c-.164 0-.492-.169-.492-.506 0-.168.164-.505.492-.505h74.466c.164 0 .492.168.492.505-.164.337-.328.506-.492.506zm143.191 0h-76.926c-.164 0-.492-.169-.492-.506 0-.168.164-.505.492-.505h76.926c.164 0 .492.168.492.505-.164.337-.328.506-.492.506zm-143.19 15.668h-37.397c-.164 0-.492-.169-.492-.506 0-.336.164-.505.492-.505h37.233c.164 0 .492.169.492.505 0 .337-.164.506-.328.506zm104.481 0h-38.217c-.164 0-.492-.169-.492-.506 0-.336.164-.505.492-.505h38.217c.164 0 .492.169.492.505 0 .337-.164.506-.492.506zm-86.768 16.511c-.164 0-.164 0-.328-.169-.164-.168-.164-.505 0-.674L263.507 59.8a.489.489 0 01.656 0c.164.168.164.505 0 .674l-32.804 33.695c-.164.169-.164.169-.328.169z" fill="#fff"/><path d="M263.671 94.337c-.164 0-.164 0-.328-.169l-32.804-33.695c-.164-.169-.164-.506 0-.674a.489.489 0 01.656 0l32.804 33.695c.164.169.164.506 0 .674 0 .169-.164.169-.328.169zM225.455 77.32h-2.624v.674c0 .169.164.337.164.506l.328.337c.164 0 .328.168.492.168h.328c.164 0 .164 0 .328-.168.164 0 .164-.169.328-.169s.164-.168.328-.337l.328.337-.492.506c-.164.168-.328.168-.492.337-.164 0-.328.168-.492.168h-.492c-.328 0-.492 0-.82-.168-.164-.169-.492-.169-.656-.506-.164-.168-.328-.337-.328-.674-.164-.337-.164-.505-.164-.842 0-.337 0-.505.164-.842.164-.337.164-.506.328-.674.164-.169.328-.337.656-.506.164-.168.492-.168.82-.168h.492c.164 0 .328 0 .492.168.164 0 .328.169.328.169l.328.337c0 .168.164.337.164.505.164.337.164.506.164.843zm-1.804-1.516h-.328c-.164 0-.164.169-.164.169s-.164.168-.164.337c0 .168 0 .168-.164.337h1.476v-.337c0-.169 0-.169-.164-.337l-.164-.169h-.328zm3.28 2.359c0 .168 0 .168.164.337 0 .168.164.168.328.337.164 0 .164.168.328.168h.82s.164 0 .164-.168V78.5l-.164-.169s-.164-.168-.328-.168-.164-.169-.328-.169-.328-.168-.492-.168c-.164 0-.328-.169-.492-.337l-.329-.337c-.164-.168-.164-.337-.164-.505 0-.169 0-.337.164-.506 0-.168.165-.337.329-.337.164-.168.328-.168.492-.337.164 0 .328-.168.656-.168h.656s.164 0 .164.168V75.3h.656v1.348h-.492c0-.169 0-.337-.164-.337 0-.169-.164-.169-.164-.337-.164 0-.164-.169-.328-.169h-.656s-.164 0-.164.169v.337l.164.168c.164 0 .164.169.328.169s.164 0 .328.168c.164 0 .328.169.492.169.164 0 .328.168.492.337l.328.336c0 .169.164.337.164.506 0 .168 0 .337-.164.505 0 .169-.164.337-.328.337-.164.169-.328.169-.492.169h-1.148c-.164 0-.164 0-.328-.169-.164 0-.164 0-.164-.168v.168h-.657v-1.348h.329v.506zm3.444-2.696c.164 0 .328 0 .328-.168.164 0 .164-.169.328-.169.164-.168.164-.168.164-.337 0-.168.164-.168.164-.337h.656v1.011h.984v.674h-.984v2.696l.164.168h.492s.164 0 .164-.168c0 0 .164-.169.164-.337l.328.337-.492.505c-.164.169-.328.169-.328.337-.164 0-.328.169-.328.169h-.984c-.164 0-.164-.169-.328-.169 0 0-.164-.168-.164-.337 0-.168-.164-.168-.164-.337v-2.358h-.492v-1.18h.328zm4.921 3.538v.169s0 .168-.164.168l-.164.169h-.328s-.164 0-.164-.169l-.164-.168v-.337s0-.169.164-.169l.164-.168h.328s.164 0 .164.168c0 .169.164.169.164.169v.168zm21.159-3.201l-.328-.505 1.804-1.348h.492v5.054h.656v.674h-2.296v-.505h.164s.164 0 .164-.169c0 0 0-.168.164-.168v-3.538l-.82.505zm3.772 3.033v-.169s0-.168.164-.168l.164-.169h.328s.165 0 .165.169v.674l.164.168h.328c.164 0 .328 0 .492-.168l.328-.337c.164-.169.164-.337.164-.674v-1.011l-.164.168s-.164.169-.328.169-.164 0-.328.168h-.328c-.328 0-.493 0-.657-.168-.164-.169-.328-.169-.492-.337-.164-.168-.164-.337-.328-.674 0-.168-.164-.505-.164-.674 0-.337 0-.505.164-.674.164-.168.164-.337.328-.505.164-.169.328-.337.656-.337.165-.168.493-.169.821-.169.328 0 .656 0 .82.169.164.168.492.337.656.505.164.169.328.506.328.843 0 .337.164.674.164 1.01v.674c0 .169 0 .506-.164.674 0 .169-.164.506-.164.674-.164.169-.164.337-.328.506-.164.168-.328.337-.656.337-.164.168-.492.168-.82.168-.328 0-.492 0-.657-.168-.164 0-.328-.169-.492-.169l-.328-.337c.164.169.164 0 .164-.168zm1.641-1.685h.164s.164 0 .164-.168l.164-.169.164-.168v-.674c0-.169 0-.506-.164-.674 0-.169-.164-.337-.164-.506-.164-.168-.164-.168-.328-.168s-.164 0-.328.168c-.164 0-.164.169-.164.169 0 .168-.164.168-.164.337v1.348c0 .168 0 .168.164.337l.164.168h.328zm6.561-1.685c0 .169 0 .337-.164.337 0 .169-.164.169-.164.337l-.328.337c-.164.169-.164.169-.328.169a2 2 0 01.82.842c.164.337.328.505.328.842 0 .337 0 .506-.164.674l-.492.506c-.164.168-.328.168-.656.337-.164 0-.492.168-.656.168h-.328c-.164 0-.328 0-.328-.168-.164 0-.329-.169-.329-.169-.164 0-.164-.168-.328-.337-.164-.168-.164-.168-.164-.337V78.5c0-.169 0-.337.164-.506 0-.168.164-.337.164-.337l.329-.337c.164-.168.328-.168.328-.336-.164-.169-.328-.169-.493-.337l-.328-.337c0-.169-.164-.169-.164-.337v-.337c0-.337 0-.506.164-.674l.493-.505c.164-.169.328-.169.492-.337.164 0 .492-.169.656-.169.164 0 .328 0 .656.169.164 0 .328.168.492.337.164.168.328.336.328.505v.505zm-.82 3.201v-.337c0-.168-.164-.168-.164-.337 0-.168-.164-.168-.328-.337-.164-.168-.328-.168-.492-.337l-.328.338c0 .168-.164.168-.164.336 0 .169-.164.169-.164.337v.674c0 .169.164.169.164.337 0 0 .164.169.328.169h.656c.164 0 .164-.169.164-.169l.164-.168c.164-.337.164-.506.164-.506zm-1.476-3.37v.338c0 .168.164.168.164.337 0 .168.164.168.328.337.164 0 .164.168.328.168s.164-.168.164-.168.164-.169.164-.337c0-.169.164-.169.164-.337v-.506c0-.168-.164-.168-.164-.168l-.164-.169h-.656c-.164 0-.164.169-.164.169l-.164.168c.164 0 0 .169 0 .169zm6.56 3.033v.843h.656v.674h-2.297v-.506h.164s.164 0 .164-.168l.164-.169V78.5h-1.968v-.674l2.625-3.538h.492v3.538h.82v.674h-.82v-.169zm-2.461-.674h1.312v-1.684l-1.312 1.684z" fill="#fff"/><path d="M100.381 89.293l-50.19 29.82L0 89.293V29.82L50.19 0l50.191 29.82v59.472z" fill="#D71016"/><path fill-rule="evenodd" clip-rule="evenodd" d="M17.715 26.956l-.82-1.516 7.052-4.212.82 1.516-7.052 4.212zm14.27-8.424l-.82-1.516 7.052-4.212.82 1.516-7.053 4.212zM6.56 38.412H4.757v-5.896l4.92-2.864.985 1.516-4.1 2.527v4.718zm76.106-11.456l-7.053-4.212.82-1.516 7.053 4.212-.82 1.516zM68.56 18.532l-7.053-4.212.82-1.516 7.053 4.212-.82 1.516zM4.757 72.108H6.56v-8.424H4.757v8.424zm0-16.848H6.56v-8.423H4.757v8.423zm4.92 34.201l-4.92-3.033v-5.896H6.56v4.886l4.1 2.358-.984 1.685zm80.207-1.685l.82 1.685 4.92-3.033v-5.896h-1.64v4.886l-4.1 2.358zm-28.376 17.016l.82 1.517 7.053-4.212-.82-1.517-7.053 4.212zm14.106-8.424l.82 1.517 7.053-4.212-.82-1.516-7.053 4.212zm-25.423 17.017l-4.92-2.864.82-1.517 4.1 2.359 4.1-2.359.82 1.517-4.92 2.864zm-19.027-11.288l7.053 4.212.82-1.517-7.053-4.212-.82 1.517zm-14.27-8.424l7.053 4.212.82-1.517-7.052-4.211-.82 1.516zm77.09-55.26h1.64v-5.897l-4.92-2.864-.82 1.516 4.1 2.527v4.718zm1.64 33.695h-1.803v-8.424h1.804v8.424zm0-16.848h-1.803v-8.423h1.804v8.423z" fill="#fff"/><path d="M70.693 56.44c2.296-1.517 4.92-5.56 4.92-5.56s1.313-1.853 1.149-7.413c0 0-.164-3.37-.492-.674-.328 2.696-.164 4.717-1.313 6.402-1.148 1.685-2.296 2.864-2.296 2.864l-2.46 2.359s-1.148 1.18-.492-.337c.656-1.516 2.132-3.875 2.624-6.065.656-2.359.984-3.033.984-3.201 0-.169 1.312-4.212 2.297-5.392 0 0 1.476-1.516.984-4.885 0 0-.656-2.527-.984-2.864-.329-.337-.985-1.685-.493.505.493 2.359.493 3.875 0 4.886-.492 1.01-.984 1.685-.984 1.685s-.984 1.684-2.296.168c0 0-1.148-3.538-2.624-5.391-1.477-1.685-1.805-3.707-1.805-3.707s-.656-.842-.164.843c.328 1.516.984 2.864.984 2.864s.493 1.18.493 1.516c0 .337.492 1.348.492 1.348s1.148 1.516.492 3.538c0 0-.164 1.348-.328 1.516-.164.169-.984.674-1.477.843-.492 0-2.296.505-2.46.674-.164.168-1.804 0-1.968 0-.164-.169-2.953-.169-3.937-1.011-.984-.674-1.64-1.18-1.64-1.18s-1.148-.168 0 .674c1.148.843 1.804 1.517 1.804 1.517s1.149.505 2.133.673c.984.169 1.804.337 1.804.337s.82 0 1.312.506c.492.505 1.64.337 1.64.337l2.46-.337s1.149-.843.985.842c-.164 1.685-.82 3.201-.82 3.201l-1.64 3.707-1.149 1.684-.164-1.179s0-1.516-.492.169c-.492 1.853-.492 2.695-.492 2.695s-4.264 4.886-4.92 5.392c-.493.505-2.953 2.864-2.953 2.864L55.931 65.2l-.656.674-.656.843s-.492 0-.656-.169c-.164-.168-2.625.506-3.28 1.011-.657.505-1.149-.505-1.149-.505s-1.148-.169-1.312-.169c-.164 0-1.804-.168-1.804-.168l-.984-1.011s-2.789-2.022-3.28-2.696c-.493-.505-4.101-3.032-4.101-3.032l-.164-3.875s-.492-1.854-.82 0c-.329 1.853-.165 3.032-.165 3.032s-5.412-3.875-6.232-5.054c-.82-1.18-3.28-5.054-3.445-6.234-.164-1.179-.328-2.527-.328-2.527s-.164-.842.82-.337c.82.337 2.953.337 2.953.337s1.312-.168 1.64-.337c.328-.168 1.148-.337 1.476-.168.328 0 .328-.337.164-.506-.164-.168-.492-.337-.492-.505 0-.169.492-.506 1.148-.843.656-.168 2.46-1.347 2.46-1.347l1.969-2.022.492-.842s.656-1.517-.82 0c-1.313 1.516-2.625 2.19-2.789 2.19-.164 0-3.28 1.18-3.608 1.348-.328.168-3.773.337-4.429 0-.82-.337-1.312-1.517-.82-3.201.492-1.685 1.148-4.044 1.148-4.044l1.313-2.527s1.312-2.527 1.312-2.696c0-.168.82-1.853.328-1.853 0 0-.985 1.853-1.149 2.022-.163 0-1.148 1.685-1.148 1.685s-1.804 2.527-2.132 2.864c-.328.337-.492 1.516-1.312 1.853-.82.168-1.804 0-2.132-1.348-.164-1.348-.328-3.2.164-3.875.492-.674.656-1.348.656-1.348s-.164-.674-.82.337l-1.149 2.359c-.163.168-.328 1.685-.328 1.853 0 .169.82 2.696 1.149 3.37.328.674.82 1.684.492 3.538a69.824 69.824 0 01-.492 3.706s-.164 6.74 2.46 8.93l.984 1.179s0 3.032.328 3.706c.328.674.82 4.044 5.74 6.065 0 0 2.461.506 4.922.337 0 0 .984 2.19 2.624 2.528 1.64.168 2.46.505 2.46.505h.492s.164.168.164.505v.674c-.164.169 0 .843 0 .843l-.164.505s-.164.169-.328 0c-.164-.168-1.64-1.01-1.968-1.18-.328-.168-4.757-2.358-4.757-2.358s-3.772-.842-4.592-1.853c0 0-.984-.337-1.148.168-.165.337-.165 1.348 0 1.517.164.168.984 2.19.984 2.19s1.64 3.538 3.28 4.549c1.64 1.01 3.28 2.19 4.265 2.19.82-.169 3.608 1.01 4.1 1.348.328.337.82 1.01.82 1.347v3.033c0 .337.164 1.348-.164 2.359a39.544 39.544 0 00-.656 2.358s-.492 2.19-.492 2.36c0 .336-.328 2.358-.328 2.358s8.201 8.592 18.37.168c0 0-.82-3.875-.984-4.38-.164-.506-.984-3.201-1.148-3.538-.164-.337-.164-3.033-.164-3.033l.164-1.18s.328-.336.328-.673.164-.842.164-.842 2.133-.843 3.28-.674c1.149.168 3.117-.843 3.61-1.18.655-.337 2.624-2.527 2.788-2.695.164-.337 2.132-2.19 2.132-2.19s.656-1.011.656-1.18l.656-1.348s.328-.842-.82-1.01c-.984-.169-1.64.505-1.64.505s-1.969.505-2.953.505c-.984-.168-4.756 1.854-5.412 2.19-.657.338-1.313.843-1.64.843-.329 0-1.477.169-1.477-.168a1.1 1.1 0 000-1.011c-.164-.337-.492-.674-.492-.674.164-.506.984-1.517.984-1.517s3.28-.673 4.593-2.19c0 0 6.233 0 8.037-1.516 0 0 3.28-1.685 3.772-6.57 0 0 .164-1.685-.164-2.022-.328-.337-.328-.169-.492.337-.164.505 0 2.864-1.968 4.886-1.968 1.853-2.624 2.358-7.053 2.527 0 0 .984-1.18 1.148-3.201 0-.506 1.969-2.36 4.429-3.875zm-41.334 3.875c-1.64-1.685-2.132-4.718-2.132-4.718.328-.168 1.64 1.18 1.804 1.18.164 0 5.905 4.548 6.561 4.885.82.337.984 1.011.984 1.011-4.1.337-5.412-.674-7.217-2.358z" fill="#fff"/></svg>